<svg xmlns="http://www.w3.org/2000/svg" xmlns:xlink="http://www.w3.org/1999/xlink" viewBox="0 0 222.12 505.94"><defs><style>.cls-1{fill:#2e365b;}.cls-2{font-size:8.38px;font-family:Heebo-Black, Heebo;font-weight:800;}.cls-10,.cls-2,.cls-21,.cls-3{fill:#fff;}.cls-22,.cls-4,.cls-6,.cls-7,.cls-8,.cls-9{fill:none;}.cls-4,.cls-6,.cls-7,.cls-8,.cls-9{stroke:#2e365b;}.cls-21,.cls-25,.cls-4,.cls-6,.cls-7,.cls-8,.cls-9{stroke-miterlimit:10;}.cls-5{fill:#c0cadb;}.cls-6{stroke-width:0.25px;}.cls-7{stroke-width:0.63px;}.cls-8{stroke-width:0.1px;}.cls-9{stroke-width:0.5px;}.cls-10{font-size:5.59px;font-family:Heebo-Light, Heebo;font-weight:300;}.cls-11{fill:#0d131a;}.cls-12{fill:#a4a665;}.cls-13{fill:#498bca;}.cls-14{fill:#205a39;}.cls-15{fill:#1d1d1b;}.cls-16{fill:#aaaaab;}.cls-17{fill:#e53024;}.cls-18{fill:#17375d;}.cls-19{fill:#a21b17;}.cls-20{fill:#1f274b;}.cls-21{stroke:#1f274b;}.cls-23{fill:#c8392e;}.cls-24,.cls-25{fill:#20294f;}.cls-25{stroke:#feffff;}.cls-26{fill:#feffff;}</style></defs><g id="מפה"><g id="בח_א_21" data-name="בח&quot;א 21"><path class="cls-1" d="M41.3,51.94a8.51,8.51,0,0,0,8.5,8.51h39a8.42,8.42,0,0,1,8.42,8.42v2.56H99V51.94a8.49,8.49,0,0,0-8.49-8.5H49.8a8.54,8.54,0,0,0-8.5,8.5Z"/><text class="cls-2" transform="translate(71.13 51.51)"><tspan xml:space="preserve"> א”חב</tspan></text><image width="504" height="504" transform="translate(42.89 45.09) scale(0.03)" xlink:href="%D7%91%D7%97%D7%90%2021.png"/><path class="cls-3" d="M80.43,56.65V55.17h-.62V54.9h1v1.75Z"/><path class="cls-3" d="M81.86,58.14l-.24,0-.22,0v-.27a2.37,2.37,0,0,0,.41,0,.45.45,0,0,0,.36-.14.63.63,0,0,0,.12-.43V55.17h-.7V54.9h1v2.41a.89.89,0,0,1-.19.62A.78.78,0,0,1,81.86,58.14Z"/><path class="cls-3" d="M84.27,58.12l-.41,0L83.4,58l0-.25a3,3,0,0,0,.83.13,1.06,1.06,0,0,0,.72-.26.9.9,0,0,0,.26-.69V55.17H83.48V54.9h2.11v1.92a1.53,1.53,0,0,1-.16.72A1,1,0,0,1,85,58,1.39,1.39,0,0,1,84.27,58.12Z"/><path class="cls-3" d="M87.81,58.14a1.28,1.28,0,0,1-.63-.15,1.14,1.14,0,0,1-.43-.44,1.32,1.32,0,0,1-.15-.64v-2h.33v2a1,1,0,0,0,.24.69.87.87,0,0,0,.64.26.84.84,0,0,0,.64-.26,1,1,0,0,0,.24-.69V55.77a.72.72,0,0,0-.12-.46.41.41,0,0,0-.35-.15.85.85,0,0,0-.23,0l-.24.09L87.68,55a1.94,1.94,0,0,1,.3-.13,1.06,1.06,0,0,1,.31,0,.68.68,0,0,1,.55.22,1,1,0,0,1,.18.65v1.17a1.32,1.32,0,0,1-.15.64,1.11,1.11,0,0,1-.42.44A1.29,1.29,0,0,1,87.81,58.14Z"/><path class="cls-3" d="M91.89,58.08v-2a.8.8,0,0,0-.93-.94H89.89V54.9H91a1.31,1.31,0,0,1,.94.3,1.19,1.19,0,0,1,.31.91v2Zm-2,0V57a2.1,2.1,0,0,1,0-.4,2.76,2.76,0,0,1,.08-.27h.29a1.27,1.27,0,0,0-.06.28c0,.11,0,.23,0,.39v1.08Z"/><path id="path1104" class="cls-4" d="M12.85,264.88c.6,1.19,2.16,3.57,2.16,3.57s8.64,36.86,19.29,58.31,13.48,35.37,13.48,35.37v7l3.72,5.59L49.19,384l8.86,7.45,16.31,45.65-1,3.27L84.56,473.9V479l2.31,6.55-.45,10.73,1,3.72,2.31,2.31v1.41l.45,1.42,2.31-1.42,3.72-5.58c.52-.75,2.46.6,2.83,0,.59-1.12-.22-3.43,0-5.14a26.15,26.15,0,0,1,1.86-7c.22-.52,1.71,0,1.86-.45.3-1.19-.67-3.2-.44-4.69.07-.74,1.26-1.11,1.41-1.86.45-2.23-.22-4.76.45-7,1.64-5.36,5.43-10.35,6.55-15.86.82-4-1.19-8.56-1-12.58.08-.82,1.64-1.05,1.86-1.87.9-3.05.08-6.85,1.42-9.75,1.49-3.28,5.29-5.66,7-8.86.82-1.57.67-3.73.44-5.59a29.31,29.31,0,0,0-1.86-6.55c-.37-1.12-1-2.16-1.41-3.28-.23-.59-.67-1.34-.45-1.86.6-1.49,2.31-2.68,2.83-4.17s-.37-3.2,0-4.69,1.64-2.46,2.31-3.72a2.49,2.49,0,0,0,.45-1.42,20.38,20.38,0,0,0-1-4.69,17.72,17.72,0,0,0-1.86-3.72c-.38-.52-1.57-.82-1.42-1.42,1-3.27,4-6.7,5.14-10.27.6-1.72-.15-3.73,0-5.59a13.07,13.07,0,0,1,1-4.17,82.38,82.38,0,0,1,5.14-10.72c1.41-2.46,4.24-4.39,5.13-7,1-3-.59-7,.45-9.76.67-1.71,4-2.16,4.69-3.72s-1.11-3.8-1-5.58,1.12-3.13,1.87-4.7a18.56,18.56,0,0,1,2.83-4.69c1-1,3.64-.89,3.72-2.31l.45-8.86,1.86-4.69,2.83-3.72,1.86-6.55-1.86-5.59-3.73-6-2.83-1.86,1.42-6.56,7.45-13,.44-14.44c.15-5.66,1.34-11.25,2.31-16.76a74.87,74.87,0,0,1,2.31-8.86c1-3.28,2.46-6.48,3.28-9.75a7,7,0,0,0,0-3.28c-.23-1.12-1.34-2.16-1.42-3.28s.89-2.16,1-3.27a13.29,13.29,0,0,0-.45-4.17c-.59-2.09-2.46-4.25-2.31-6,.08-1.11,2.61-1.63,2.83-2.83.3-1.78-.74-4.09-1.41-6-.45-1.41-1.64-2.75-1.86-4.17a9.2,9.2,0,0,1,.44-3.72c.45-1.56,1.49-3,1.87-4.69.22-.9-.15-1.86,0-2.83.44-2.24,1.34-4.32,1.86-6.55.67-2.76,1.86-5.59,1.86-8.42,0-3.72-1.42-7.45-1.86-11.17-.52-4.17-1.19-8.41-1-12.58.22-3.28,1.64-6.48,2.31-9.76a10.55,10.55,0,0,0,.44-3.72c-.22-1.19-1.63-2.09-1.86-3.28a7.15,7.15,0,0,1,.45-3.27c.3-1.12,1.41-2.09,1.41-3.28a28.58,28.58,0,0,0-1.41-7.89c-.22-.75-1.64-1.64-1.42-1.87.38-.29,2.31.82,3.28.45a8.49,8.49,0,0,0,3.28-2.83c.67-.89.52-2.9,1.41-3.28,1.27-.52,3.65,1,5.14.45,1.34-.45,2-2.38,3.28-3.28,1.56-1,3.65-1.26,5.14-2.3,1-.75,1.34-2.46,2.3-3.28.75-.6,2.16-.22,2.83-1a38.47,38.47,0,0,0,5.59-8.41,9.45,9.45,0,0,0,1-4.17c0-.82-1.2-1.64-1-2.31,1.12-2.68,4.47-5.14,5.14-7.89.37-1.57-1.49-3.36-1.87-5.14-1-4.92-.52-10.58-2.3-14.9-.75-1.71-4.92-1.86-5.14-3.27-.23-1.64,3.05-3.87,3.72-6a8,8,0,0,0-.45-4.17c-.22-.6-1.19-.82-1.41-1.42-.67-1.71-.45-4-1.42-5.58-.74-1.27-3.64-1.64-3.72-2.76C187,8,190.15,5.81,190.38,4c.07-1-1.34-2.24-2.31-2.83s-2.16-.38-3.28-.45c-1.71-.08-3.94-.52-5.13,0-.53.22.37,1.71,0,2.31-.6,1-1.87,1.86-2.83,2.83-.6.59-1.12,1.64-1.87,1.86-1.11.37-2.83-.52-3.72,0-.67.45-.45,2.08-1,2.83-.15.22-.59.07-1,0-1-.15-2.16.07-2.83-.45-.89-.82-1.34-3.57-1.86-3.72s-.44,2-1,2.83-1.41,1.12-1.86,1.86a9.13,9.13,0,0,0-1.41,3.28c-.15,1.34.52,2.83.45,4.17a32,32,0,0,1-1,5.13c-.3,1.57-.3,3.28-1,4.7-.45,1-1.79,1.49-2.31,2.3-.22.38.37,1.27,0,1.42-1,.37-2.9-.3-4.17,0a3.83,3.83,0,0,0-1.86,1.41c-.45.53-.37,1.57-1,1.87s-1.86-.15-2.83,0a17.87,17.87,0,0,0-3.28,1c-.81.3-1.71,1.27-2.3,1-1.42-.74-2.46-2.83-3.73-4.17-.59-.67-1.11-1.64-1.86-1.86a9,9,0,0,0-3.72,0c-1.86.3-3.87,1.41-5.59,1.41-.59,0-1-1.56-1.41-1.41s-.67,2.23-1.42,2.31c-1.71.22-4-1.79-6-1.42l-5.14,1v5.59c0,2.08-1.26,4-1.86,6A39.45,39.45,0,0,0,109,49.9c-.23,1.19.3,2.68,0,3.72-.15.45-1.49.6-1.42,1s1.42.82,1.86,1.41a1.88,1.88,0,0,1,.45,1.42,20.12,20.12,0,0,1-1,5.14,11.92,11.92,0,0,1-1.86,3.27c-1,1.34-2.08,3.06-3.28,3.73-.52.29-1.26-.6-1.86-1a25.12,25.12,0,0,1-2.31-1.42c-.37-.22-.52-.89-1-1a2.86,2.86,0,0,0-1.87.45,5.71,5.71,0,0,0-1.86,2.83c-.37,1.42,0,3.13,0,4.69,0,2,.08,4,0,6-.07,1.12.6,2.91-.44,3.28l-1.42.45-.45,4.69-2.38,14.44-2.83,11.62-3.2,12.88L80,144.91,75.11,160l-6.19,19.51L61,197.71l-7.15,14.45L44.13,227.5l-8.19,11.69-11,13-8.12,8.34Z"/></g><polygon class="cls-5" points="144.65 276.59 148.25 276.88 151.23 278.08 155.12 280.72 159.96 283.76 160.9 285.6 159.79 287.95 158.07 291.4 157.51 294.53 154.69 296.59 152.55 296.49 148.31 304.68 145.68 309.05 144.19 309.5 143.13 308.37 143.13 305.6 145.1 301.21 145.71 298.82 144.8 292.09 142.75 283.74 142.6 278.32 144.65 276.59"/><polygon class="cls-5" points="158.39 206.84 160.16 208.22 163.02 207.42 166.18 207.53 167.59 209.49 167.59 212.55 167.06 216.62 166.57 220.97 166.06 225.51 163.49 232.8 163.02 235.73 164.89 241.41 165.34 243.47 163.34 258.15 162.07 265.33 160.24 267.92 159.28 267.92 158.03 264.08 157.07 259.57 155.79 259.19 154.75 260.45 152.39 264.66 150.21 265.28 148.06 264.24 146.72 261.22 146.57 255.27 145.42 240.76 148.05 226.93 155.44 211.58 157.6 207.42 158.39 206.84"/><polygon class="cls-5" points="161.78 62.65 167.32 59.39 169.9 58.55 171.12 60.4 172.54 67.78 172.43 72.68 171.46 75.51 171.24 78.17 169.17 81.35 167.29 82.96 165.52 82.96 164.43 81.76 164.49 78.86 162.9 76.59 161.46 74.25 160.81 71.27 158.61 69.99 157.85 68.26 158.79 65.1 161.78 62.65"/><path id="path1118" class="cls-4" d="M148.86,264.82a3.31,3.31,0,0,0,2.77.31c2.63-1,2.47-6.56,5.18-5.79,1.49.43.79,13.36,4.76,7a9.59,9.59,0,0,0,1.12-3.84q1.22-8.24,2.42-16.46a10.72,10.72,0,0,0,.13-3.57,21.79,21.79,0,0,0-1.7-4.07c-2.22-5.28,1-7.06,2.19-11.3,1-4.23.65-8.47,1.83-12.89.52-1.91.63-4.1-.48-5.74-1.52-2.25-2.94-.94-4.75-1.06-.5,0-1,.88-1.6.95-1.06.12-1.28-1.83-2.64-1.16a3.22,3.22,0,0,0-1.26,1.57q-3.27,6.56-6.52,13.11a38.52,38.52,0,0,0-2.56,5.95,39.65,39.65,0,0,0-1.13,5.64c-.25,1.69-.5,3.38-.65,5.08-.21,2.27-.25,4.55-.28,6.83a63.52,63.52,0,0,0,.81,9c.33,2.56-.41,6.8.89,9A3.93,3.93,0,0,0,148.86,264.82Z"/><path class="cls-4" d="M160.72,286.46c-.52,1.31-2,2.47-2.46,3.9a29.87,29.87,0,0,0-.36,3.14,4.24,4.24,0,0,1-5.35,3c-1.21,3-5.75,13.35-7.77,13-2.46-.42-2.06-4.38-1.33-5.86a20,20,0,0,0,1.77-3.74,11,11,0,0,0,.06-3.84c-.55-5.56-2.52-9.87-2.94-15.39a4.62,4.62,0,0,1,.26-2.34c1.55-3.18,7.76-1.34,9.58.48s8,3.93,8.64,6.23A2.18,2.18,0,0,1,160.72,286.46Z"/><path class="cls-6" d="M166.56,65.6c1.06.27.18,3.18.54,5.83.84,6.3-.95,4.57-1.92-.61C164.71,68.28,166.56,65.6,166.56,65.6Z"/><path class="cls-7" d="M167.19,62.36c.47-.12,1.09-.34,1.36,0a7.46,7.46,0,0,1,1,3,15.1,15.1,0,0,1,.21,2.35,29.23,29.23,0,0,1,0,3.5,17.46,17.46,0,0,1-.48,1.82,10.61,10.61,0,0,1-.18,2.09,7.88,7.88,0,0,1-1.76,3.67,1,1,0,0,1-1.72,0c-.37-.51-.13-1.58-.36-2.49a5.89,5.89,0,0,0-.65-1.51,13.58,13.58,0,0,1-1.09-1.66c-.33-.81-.15-1.87-.52-2.6s-1.17-.76-1.37-1.34a3.93,3.93,0,0,1,.31-2,2.71,2.71,0,0,1,.57-1.18A9.75,9.75,0,0,1,164,64.66,15.58,15.58,0,0,1,167.19,62.36Z"/><path id="path1116" class="cls-4" d="M164.61,82.44c-.52-.67.23-2.24,0-3.28a4.38,4.38,0,0,0-1-1.86c-.52-.67-1.48-1.12-1.86-1.86-.59-1.27-.22-3-1-4.17-.53-.9-2.39-1-2.83-1.86s.14-2.24.44-3.28a3.46,3.46,0,0,1,1-1.86,15.19,15.19,0,0,1,2.83-1.86,61.25,61.25,0,0,1,5.58-3.28c.75-.3,1.87-.89,2.31-.45,1,1,1.42,3.06,1.87,4.69a20.42,20.42,0,0,1,.44,3.73,34.65,34.65,0,0,1,0,5.58c-.07,1-.74,1.86-1,2.83s.08,2.31-.44,3.28A12,12,0,0,1,167.29,83,2.73,2.73,0,0,1,164.61,82.44Z"/><path id="path1118-2" data-name="path1118" class="cls-4" d="M148.86,264.82a3.31,3.31,0,0,0,2.77.31c2.63-1,2.47-6.56,5.18-5.79,1.49.43.79,13.36,4.76,7a9.59,9.59,0,0,0,1.12-3.84q1.22-8.24,2.42-16.46a10.72,10.72,0,0,0,.13-3.57c-.28-1.44-1.31-2.65-1.7-4.07-1.47-5.31,1-7.06,2.19-11.3,1-4.23.65-8.47,1.83-12.89.52-1.91.63-4.1-.48-5.74-1.52-2.25-2.94-.94-4.75-1.06-.5,0-1,.88-1.6.95-1.06.12-1.28-1.83-2.64-1.16a3.22,3.22,0,0,0-1.26,1.57q-3.27,6.56-6.52,13.11a38.52,38.52,0,0,0-2.56,5.95,39.65,39.65,0,0,0-1.13,5.64c-.25,1.69-.5,3.38-.65,5.08-.21,2.27-.25,4.55-.28,6.83a63.52,63.52,0,0,0,.81,9c.33,2.56-.41,6.8.89,9A3.93,3.93,0,0,0,148.86,264.82Z"/><path class="cls-7" d="M149.83,230.23c-.25,1-.6,1.87-.81,2.85a26.46,26.46,0,0,0-.41,2.67c-.1.79-.19,1.59-.26,2.4-.16,1.86-.19,3.73-.22,5.61a57.73,57.73,0,0,0,.63,7.42c.25,2.1-.31,5.59.68,7.38a3.31,3.31,0,0,0,1.12,1.17,2.37,2.37,0,0,0,2,.28l.15-.06c2-.85,2-4.63,4.09-4.74,1.57-.09,2.37,8.33,4.41,4a8.82,8.82,0,0,0,.6-3c.35-3.61.55-7.5,1-10.86.08-.56.15-1.13.22-1.69a11.41,11.41,0,0,0,.09-1.65,4,4,0,0,0-.17-1c-.31-1.06-1.13-2-1.44-3-1.29-4.26.55-6,1.45-9.35a6,6,0,0,0,.15-.61c.7-3.35.87-6.41,1.74-9.91.39-1.58.89-3.38,0-4.73-1.16-1.85-2.25-.77-3.64-.86-.38,0-.77.71-1.23.77-.81.1-1-1.5-2-.95a2.26,2.26,0,0,0-.87,1.07c-.14.27-.27.55-.4.82-1.29,2.72-2.69,5.44-4.09,8.16a34.24,34.24,0,0,0-1.86,4C150.4,227.7,150.17,229,149.83,230.23Z"/><path id="path1118-3" data-name="path1118" class="cls-6" d="M152.27,254.63a1.5,1.5,0,0,0,1.48.2c1.4-.64,1.63-3.36,3.1-3.75,1.64-.45,3.78,3.23,4.05,1,.31-2.58-.28-7,0-9.57a8.39,8.39,0,0,0,.07-2.29c-.15-.94-1.11-1.78-1.42-2.66-1.18-3.4.2-5.13.84-7.86s1.19-4.84,1.82-7.69c.27-1.24,1.15-2.64.56-3.7-.8-1.45-1.56-.61-2.52-.68-.27,0-.54.56-.86.61-.56.08-.68-1.18-1.4-.75a2,2,0,0,0-.67,1c-1.16,2.82-3.15,5.63-4.31,8.45a29.48,29.48,0,0,0-1.36,3.83,31.22,31.22,0,0,0-.6,3.63c-.13,1.09-.26,2.18-.35,3.28-.11,1.46-.13,2.93-.15,4.4a51.1,51.1,0,0,0,.44,5.81c.17,1.65-.22,4.38.47,5.79A2.32,2.32,0,0,0,152.27,254.63Z"/><path id="path1118-4" data-name="path1118" class="cls-6" d="M153,250.39c.19.24.43.34.66.19.69-.43.94-2.46,1.64-2.7s3.33,2.45,3.57.81c.29-1.92-.28-4.46,0-6.38a22.27,22.27,0,0,0,.11-2.58c0-.7-1.36-1.14-1.45-1.81-.35-2.59.41-4.24.86-6.26s.54-3.22,1-5.33a6.41,6.41,0,0,0,.08-2.78c-.13-.52-1.71-.38-1.74-.46a11.73,11.73,0,0,0-1.63,3l-1.21,3.64a29,29,0,0,0-.84,2.82c-.2.87-.34,1.78-.48,2.69s-.24,1.63-.34,2.44c-.13,1.09-.22,2.19-.31,3.29-.12,1.47-.11,2.9-.12,4.37a25.56,25.56,0,0,0-.1,4.34A1.77,1.77,0,0,0,153,250.39Z"/><path class="cls-8" d="M154.47,239s-.38,6-.49,7.58,1.82-1.52,2.47-.28c1.31,2.47,1.26-2.13,1-4.3-.14-1.25-1.38-2-1.38-2.91s.26-7.06-.3-7C155,232.28,154.47,239,154.47,239Z"/><path class="cls-9" d="M145.68,279.34c1.89-.64,4.13,3.35,6.9,4s5.07.26,3.92,3.42-1.14,6.19-2.43,6.29-2.33-1-3.49,1.45a37,37,0,0,0-2,5.48c-.13.46-2,7-3.16,6.24-1.48-1,1.84-6.09,1.94-8.24.18-4.11-2.34-12.33-2.2-16.45C145.18,281,145.15,279.52,145.68,279.34Z"/><path class="cls-6" d="M149.17,284.24a1.16,1.16,0,0,0-1.89,1c0,.31.08.66.15,1.06.45,2.9-.39,3.87,1.09,4s3,1.55,3.57.26,3.59-4.07,2-4.65-3.36-.45-4.39-1.23C149.56,284.56,149.37,284.41,149.17,284.24Z"/><g id="כנף_1" data-name="כנף 1"><path class="cls-1" d="M100.73,75.85a8.51,8.51,0,0,0,8.49,8.51h28.39A8.43,8.43,0,0,1,146,92.79v2.55h1.75V75.85a8.5,8.5,0,0,0-8.5-8.49H109.22a8.5,8.5,0,0,0-8.49,8.49Z"/><image width="210" height="210" transform="translate(101.88 68.7) scale(0.07)" xlink:href="%D7%9B%D7%A0%D7%A3%201%20%D7%A8%D7%9E%D7%AA%20%D7%93%D7%95%D7%93%20.png"/><text class="cls-2" transform="translate(126.78 75.53)"><tspan xml:space="preserve"> ףנכ</tspan></text><path class="cls-3" d="M124.53,78.92H127v.27h-.52V82.1h-.33V79.19h-1.6Z"/><path class="cls-3" d="M127.84,82.1V79.19h-.42v-.27h.75V82.1Z"/><path class="cls-3" d="M128.84,78.92h2.46v.27h-.52V82.1h-.34V79.19h-1.6Z"/><path class="cls-3" d="M134.55,78.92a1.29,1.29,0,0,1,.94.3,1.22,1.22,0,0,1,.31.92v2h-.33v-2a1,1,0,0,0-.22-.72.91.91,0,0,0-.69-.23h-.48a1.32,1.32,0,0,0-.18.41,2.35,2.35,0,0,0-.07.54v1.15a1,1,0,0,1-.18.63.74.74,0,0,1-.55.2H133l-.14,0v-.28h.2a.45.45,0,0,0,.37-.14.68.68,0,0,0,.11-.42V80.16a2,2,0,0,1,.07-.55,1.17,1.17,0,0,1,.2-.42h-.65v-.27Z"/><path class="cls-3" d="M136.73,82.1,137,80a1.28,1.28,0,0,1,.14-.43,1,1,0,0,1,.25-.3.05.05,0,0,0,0,0l0,0h0l-.32.07-.41.12-.08-.26.45-.13.48-.08.45,0a1.22,1.22,0,0,1,.92.33,1.39,1.39,0,0,1,.33,1V82.1H138v-.27h.94v-1.7a1.06,1.06,0,0,0-.22-.73.86.86,0,0,0-.66-.24.63.63,0,0,0-.48.21.94.94,0,0,0-.25.57l-.26,2.16Z"/><path class="cls-3" d="M141.62,82.1V79.82a.65.65,0,0,0-.17-.46.61.61,0,0,0-.45-.17h-1.13v-.27H141a.94.94,0,0,1,.7.25.87.87,0,0,1,.26.69V82.1Z"/></g><g id="כנף_15" data-name="כנף 15"><path class="cls-1" d="M27.26,146.26a8.51,8.51,0,0,0,8.49,8.51H68.37a8.43,8.43,0,0,1,8.43,8.43v2.55h1.75V146.26a8.5,8.5,0,0,0-8.5-8.49H35.75a8.5,8.5,0,0,0-8.49,8.49Z"/><text class="cls-2" transform="translate(56.61 145.83)"><tspan xml:space="preserve"> ףנכ</tspan></text><path class="cls-3" d="M53.65,152.41v-.28h1.83l.33,0,.39,0v.26Zm1.83-.07v-1.9a1,1,0,0,0-.22-.72,1,1,0,0,0-.72-.22h-.72v-.28h.74a1.31,1.31,0,0,1,.94.3,1.26,1.26,0,0,1,.31.92v1.9Z"/><path class="cls-3" d="M57,152.41V149.5h-.42v-.28h.75v3.19Z"/><path class="cls-3" d="M58,149.22h2.46v.28H60v2.91h-.34V149.5H58Z"/><path class="cls-3" d="M64.45,152.41v-2a1,1,0,0,0-.21-.72,1,1,0,0,0-.72-.22H62.45v-.28h1.08a1.34,1.34,0,0,1,1,.3,1.26,1.26,0,0,1,.31.92v2Zm-2,0v-1.08a2,2,0,0,1,0-.4,1.71,1.71,0,0,1,.09-.27h.28a2,2,0,0,0-.06.28c0,.1,0,.23,0,.38v1.09Z"/><path class="cls-3" d="M65.4,149.22h2.46v.28h-.52v2.91H67V149.5H65.4Z"/><path class="cls-3" d="M68.86,149.22V152a4.75,4.75,0,0,0,.57.18,2.93,2.93,0,0,0,.58.06,1.94,1.94,0,0,0,.7-.11,1.15,1.15,0,0,0,.51-.34.88.88,0,0,0,.19-.58v-1.94h.33v2a1.15,1.15,0,0,1-.14.57,1.12,1.12,0,0,1-.37.41,1.61,1.61,0,0,1-.55.24,2.7,2.7,0,0,1-.65.07,3.33,3.33,0,0,1-.76-.08,3.43,3.43,0,0,1-.74-.26v-2.91Zm.85,2.39a.59.59,0,0,0,.19-.29,1.42,1.42,0,0,0,.06-.44v-1.66h.33v1.61a1.29,1.29,0,0,1-.07.47.93.93,0,0,1-.23.34Z"/><image width="500" height="500" transform="translate(28.84 139.42) scale(0.03)" xlink:href="%D7%9B%D7%A0%D7%A3%2015%20%D7%A9%D7%93%D7%94%20%D7%93%D7%91.png"/></g><g id="קריה"><path class="cls-1" d="M10.05,165.12a8.51,8.51,0,0,0,8.5,8.51h47A8.42,8.42,0,0,1,74,182.05v2.56h1.75V165.12a8.5,8.5,0,0,0-8.5-8.5H18.55a8.54,8.54,0,0,0-8.5,8.5Z"/><text class="cls-2" transform="translate(41.09 164.69)"><tspan xml:space="preserve"> א”חממ</tspan></text><path class="cls-3" d="M57.79,171.26v-2a1,1,0,0,0-.22-.72,1,1,0,0,0-.71-.22H55.79v-.27h1.08a1.31,1.31,0,0,1,.94.3,1.19,1.19,0,0,1,.31.91v2Zm-2,0v-1.08a2.1,2.1,0,0,1,0-.4,2.76,2.76,0,0,1,.08-.27h.28a2.33,2.33,0,0,0,0,.28c0,.11,0,.23,0,.39v1.08Z"/><path class="cls-3" d="M59.36,169.83v-1.48h-.63v-.27h1v1.75Z"/><path class="cls-3" d="M62.07,171.26V169a.59.59,0,0,0-.62-.63H60.32v-.27h1.12a1,1,0,0,1,.71.24.94.94,0,0,1,.26.69v2.25Z"/><path class="cls-3" d="M64.38,171.26V171a1,1,0,0,0,.7-.26.87.87,0,0,0,.27-.66v-1.72h-2v-.27h2.35v2a1.18,1.18,0,0,1-.16.63,1.09,1.09,0,0,1-.44.41A1.85,1.85,0,0,1,64.38,171.26Zm-1,1.14V170a1.92,1.92,0,0,1,0-.39,1.71,1.71,0,0,1,.09-.27h.28a1.15,1.15,0,0,0-.06.28c0,.1,0,.22,0,.38v2.37Z"/><path class="cls-3" d="M68.62,171.26v-2a.79.79,0,0,0-.93-.94H66.62v-.27H67.7a1.34,1.34,0,0,1,1,.3,1.23,1.23,0,0,1,.31.91v2Zm-2,0v-1.08a2.1,2.1,0,0,1,0-.4c0-.09,0-.18.09-.27H67a2.3,2.3,0,0,0-.06.28c0,.11,0,.23,0,.39v1.08Z"/><image width="170" height="170" transform="translate(11.27 157.91) scale(0.08)" xlink:href="%D7%A7%D7%99%D7%A8%D7%99%D7%94.png"/></g><g id="בח_א_30" data-name="בח&quot;א 30"><path class="cls-1" d="M0,202.72a8.51,8.51,0,0,0,8.5,8.51h39a8.42,8.42,0,0,1,8.43,8.42v2.56h1.75V202.72a8.5,8.5,0,0,0-8.5-8.5H8.5a8.54,8.54,0,0,0-8.5,8.5Z"/><text class="cls-2" transform="translate(29.83 202.29)"><tspan xml:space="preserve"> א”חב</tspan></text><path class="cls-3" d="M33.9,208.86v-3.18h2.45v3.18Zm.33-.27H36V206H34.23Z"/><path class="cls-3" d="M37.64,207.43V206H37v-.27h1v1.75Z"/><path class="cls-3" d="M39,208.86v-3.18h1.11a1.29,1.29,0,0,1,.94.3,1.26,1.26,0,0,1,.31.92v2H41v-2a1,1,0,0,0-.22-.72.92.92,0,0,0-.7-.23h-.78v2.91Z"/><path class="cls-3" d="M42.24,208.86l.26-2.14a1.28,1.28,0,0,1,.14-.43,1,1,0,0,1,.25-.3l0,0,0,0h0l-.32.07-.41.12-.08-.26.45-.13.48-.08.45,0a1.22,1.22,0,0,1,.92.33,1.34,1.34,0,0,1,.32,1v1.94H43.5v-.27h.94v-1.7a1,1,0,0,0-.22-.72.83.83,0,0,0-.66-.25.63.63,0,0,0-.48.21.94.94,0,0,0-.25.57l-.26,2.16Z"/><path class="cls-3" d="M45.47,206v-1.28h.33v1h1.85V206Zm2.32-.07-1.22,3h-.36l1.32-3.18h.26Z"/><path class="cls-3" d="M49.53,208.91a2.53,2.53,0,0,1-.46,0,3.07,3.07,0,0,1-.5-.13l.07-.25a4.4,4.4,0,0,0,.47.1,2.12,2.12,0,0,0,.42,0,1.14,1.14,0,0,0,.74-.25.87.87,0,0,0,.26-.69V206H49.1a1.74,1.74,0,0,0-.18.43,2.32,2.32,0,0,0-.07.52v.29l.22.05.35,0v.29H49l-.27,0-.24-.1V207a2.09,2.09,0,0,1,.08-.55,1.51,1.51,0,0,1,.2-.46h-.36v-.27h2.42v1.93a1.42,1.42,0,0,1-.16.72,1.11,1.11,0,0,1-.47.44A1.68,1.68,0,0,1,49.53,208.91Z"/><image width="350" height="350" transform="translate(1.29 195.58) scale(0.04)" xlink:href="%D7%91%D7%97%D7%90%2030%20%D7%A4%D7%9C%D7%9E%D7%97%D7%99%D7%9D.png"/></g><g id="בח_א_8" data-name="בח&quot;א 8"><path class="cls-1" d="M134.63,184.22a8.51,8.51,0,0,1-8.49,8.51H91.92a8.42,8.42,0,0,0-8.42,8.42v2.56H81.75V184.22a8.49,8.49,0,0,1,8.49-8.5h35.9a8.52,8.52,0,0,1,8.49,8.5Z"/><text class="cls-2" transform="translate(94 183.79)"><tspan xml:space="preserve"> א”חב</tspan></text><path class="cls-3" d="M104,187.18v4.32h-.33v-4.05h-1.25a1.32,1.32,0,0,0-.13.29,2,2,0,0,0-.09.37,2.4,2.4,0,0,0,0,.37v.34a.64.64,0,0,0,.22.06l.34,0v.29h-.37l-.27-.05a1.74,1.74,0,0,1-.25-.11v-.48a2.66,2.66,0,0,1,0-.39,3.69,3.69,0,0,1,.1-.39,1.49,1.49,0,0,1,.16-.31h-.37v-.27Z"/><path class="cls-3" d="M105.19,190.36v-2.91h-.42v-.27h.75v3.18Z"/><path class="cls-3" d="M106.66,190.42h-.24l-.23,0,0-.27a2.27,2.27,0,0,0,.41,0A.49.49,0,0,0,107,190a.68.68,0,0,0,.12-.44v-2.11h-.7v-.27h1v2.41a.87.87,0,0,1-.19.62A.78.78,0,0,1,106.66,190.42Z"/><path class="cls-3" d="M109.55,187.45v-1.28h.33v1h1.86v.27Zm2.33-.07-1.23,3h-.36l1.33-3.18h.26Z"/><path class="cls-3" d="M113.84,187.18a1.32,1.32,0,0,1,1,.3,1.26,1.26,0,0,1,.3.92v2h-.33v-2a1,1,0,0,0-.21-.72,1,1,0,0,0-.7-.23h-.47a1.2,1.2,0,0,0-.19.41,2.35,2.35,0,0,0-.07.54v1.15a1,1,0,0,1-.18.63.74.74,0,0,1-.55.2h-.13l-.14,0v-.28h.2a.45.45,0,0,0,.37-.14.68.68,0,0,0,.11-.42v-1.12a2,2,0,0,1,.07-.55,1.17,1.17,0,0,1,.2-.42h-.65v-.27Z"/><image width="350" height="350" transform="translate(118.97 176.99) scale(0.04)" xlink:href="%D7%AA%D7%9C%20%D7%A0%D7%95%D7%9A%20%D7%91%D7%97%D7%90%208.png"/></g><g id="כנף_4" data-name="כנף 4"><path class="cls-1" d="M92.24,234.88a8.51,8.51,0,0,1-8.49,8.51H55.92a8.42,8.42,0,0,0-8.42,8.42v2.56H45.74V234.88a8.5,8.5,0,0,1,8.5-8.5H83.75a8.52,8.52,0,0,1,8.49,8.5Z"/><text class="cls-2" transform="translate(57.52 234.45)"><tspan xml:space="preserve"> ףנכ</tspan></text><path class="cls-3" d="M64.58,241v-2.29a.61.61,0,0,0-.17-.45.57.57,0,0,0-.45-.17H62.83v-.28H64a.94.94,0,0,1,.7.25.87.87,0,0,1,.26.69V241Z"/><path class="cls-3" d="M66.06,241v-2.91h-.42v-.28h.75V241Z"/><path class="cls-3" d="M67.25,241v-.28H69.1l-2-2.91h.38l1,1.52,1,1.47v.2Zm1.3-1.4-.2-.27.9-1.52h.37Z"/><path class="cls-3" d="M70.34,241v-3.19h1.11a1.29,1.29,0,0,1,.94.3,1.27,1.27,0,0,1,.31.93v2h-.33v-2a1,1,0,0,0-.22-.72.92.92,0,0,0-.7-.22h-.78V241Z"/><image width="350" height="350" transform="translate(75.9 227.85) scale(0.04)" xlink:href="%D7%97%D7%A6%D7%95%D7%A8%20%D7%9B%D7%A0%D7%A3%204.png"/></g><g id="בח_א_28" data-name="בח&quot;א 28"><path class="cls-1" d="M152.44,291.39A8.51,8.51,0,0,1,144,299.9H106.53a8.42,8.42,0,0,0-8.42,8.42v2.56H96.36V291.39a8.49,8.49,0,0,1,8.49-8.49H144a8.5,8.5,0,0,1,8.49,8.49Z"/><text class="cls-2" transform="translate(111.81 290.96)"><tspan xml:space="preserve"> א”חב</tspan></text><path class="cls-3" d="M120.67,297.54v-3.19h2.46v3.19Zm.33-.28h1.79v-2.63H121Z"/><path class="cls-3" d="M124.42,296.11v-1.48h-.63v-.28h1v1.76Z"/><path class="cls-3" d="M126.94,297.59a1.29,1.29,0,0,1-.64-.15,1.09,1.09,0,0,1-.42-.43,1.25,1.25,0,0,1-.16-.65v-2h.33v2a.92.92,0,0,0,.25.68.88.88,0,0,0,1.27,0,1,1,0,0,0,.25-.68v-1.15a.74.74,0,0,0-.12-.46.43.43,0,0,0-.35-.15.88.88,0,0,0-.24,0l-.24.09-.07-.23a1.3,1.3,0,0,1,.3-.13,1.12,1.12,0,0,1,.31-.05.69.69,0,0,1,.55.23,1,1,0,0,1,.19.64v1.17a1.36,1.36,0,0,1-.15.65,1.11,1.11,0,0,1-.43.43A1.28,1.28,0,0,1,126.94,297.59Z"/><path class="cls-3" d="M128.75,297.54v-.28h1.83l.34,0,.39,0v.26Zm1.83-.08v-1.89a1,1,0,0,0-.21-.72,1,1,0,0,0-.72-.22h-.72v-.28h.73a1.34,1.34,0,0,1,1,.3,1.26,1.26,0,0,1,.31.92v1.89Z"/><path class="cls-3" d="M132.08,297.59h-.25l-.22,0,0-.27a2.15,2.15,0,0,0,.4,0,.46.46,0,0,0,.36-.14.66.66,0,0,0,.12-.44v-2.1h-.7v-.28h1v2.41a.85.85,0,0,1-.2.62A.74.74,0,0,1,132.08,297.59Z"/><image width="504" height="504" transform="translate(136.2 284.47) scale(0.03)" xlink:href="%D7%91%D7%97%D7%90%2028%20%D7%A0%D7%91%D7%98%D7%99%D7%9D%20.png"/></g><g id="בח_א_6" data-name="בח&quot;א 6"><path class="cls-1" d="M37.18,287.71a8.51,8.51,0,0,0,8.5,8.51H78.3a8.42,8.42,0,0,1,8.42,8.43v2.55h1.75V287.71A8.49,8.49,0,0,0,80,279.22H45.68a8.52,8.52,0,0,0-8.5,8.49Z"/><text class="cls-2" transform="translate(60.62 287.28)"><tspan xml:space="preserve"> א”חב</tspan></text><path class="cls-3" d="M68.66,293.86v-3.19h2.46v3.19Zm.33-.28h1.79V291H69Z"/><path class="cls-3" d="M72.41,292.43V291h-.63v-.28h1v1.76Z"/><path class="cls-3" d="M75.12,293.86v-2.28a.62.62,0,0,0-.17-.46.57.57,0,0,0-.45-.17H73.37v-.28h1.12a1,1,0,0,1,.71.25.9.9,0,0,1,.25.69v2.25Z"/><path class="cls-3" d="M76.26,293.86v-.28h1.85l-2-2.91h.38l1,1.52,1,1.48v.19Zm1.3-1.4-.2-.26.9-1.53h.37Z"/><path class="cls-3" d="M79.35,293.86v-3.19h1.11a1.29,1.29,0,0,1,.94.3,1.23,1.23,0,0,1,.31.93v2h-.33v-2a1,1,0,0,0-.22-.72.92.92,0,0,0-.7-.22h-.78v2.91Z"/><image width="350" height="350" transform="translate(38.45 280.55) scale(0.04)" xlink:href="%D7%97%D7%A6%D7%A8%D7%99%D7%9D%20%D7%91%D7%97%D7%90%206.png"/></g><g id="ביסל_א" data-name="ביסל&quot;א"><path class="cls-1" d="M40.61,329.16a8.51,8.51,0,0,0,8.5,8.51H81.73a8.42,8.42,0,0,1,8.42,8.42v2.56H91.9V329.16a8.49,8.49,0,0,0-8.49-8.5H49.11a8.54,8.54,0,0,0-8.5,8.5Z"/><path class="cls-3" d="M62.07,331.35l-3.36-5h1.73l3.35,5Zm-3.15,0v-1.57a2.34,2.34,0,0,1,.27-1.23,1.64,1.64,0,0,1,.89-.65l.53.77a.55.55,0,0,0-.19.42v2.26Zm4.94-5-1.6,3.2-1-1.23.86-2Z"/><path class="cls-3" d="M64.6,326.43a1.75,1.75,0,0,1,.11-.58,3.22,3.22,0,0,1,.29-.55,2.67,2.67,0,0,1,.37-.43l.65.35a4.06,4.06,0,0,0-.24.51,2.06,2.06,0,0,0-.11.7v.7H64.6Zm1.49,0a1.75,1.75,0,0,1,.11-.58,3.22,3.22,0,0,1,.29-.55,3.29,3.29,0,0,1,.37-.43l.65.35a4.06,4.06,0,0,0-.24.51,2.06,2.06,0,0,0-.11.7v.7H66.09Z"/><path class="cls-3" d="M68.05,327.59v-2.53h1.56v1.33h2.11v1.2Zm4.19-.2-1.55,4H69.05l2-5h1.16Z"/><path class="cls-3" d="M75.33,331.45a2.37,2.37,0,0,1-1.18-.29,2.1,2.1,0,0,1-.8-.82,2.5,2.5,0,0,1-.3-1.24v-.2a2.37,2.37,0,0,1,0-.44,3,3,0,0,1,.15-.45,1.63,1.63,0,0,1,.17-.35l0,0,0,0v0l-.27.07-.25.06-.28-1.12c.22-.06.47-.12.75-.17a8.08,8.08,0,0,1,.86-.11,8.45,8.45,0,0,1,.85,0,3.08,3.08,0,0,1,1.36.27,1.83,1.83,0,0,1,.84.81,2.83,2.83,0,0,1,.28,1.34v.43a2.61,2.61,0,0,1-.28,1.24,2.1,2.1,0,0,1-.8.82A2.42,2.42,0,0,1,75.33,331.45Zm0-1.27a.59.59,0,0,0,.38-.14.8.8,0,0,0,.26-.37,1.6,1.6,0,0,0,.09-.56v-.41A2,2,0,0,0,76,328a.76.76,0,0,0-.24-.4.6.6,0,0,0-.4-.13.59.59,0,0,0-.42.14.86.86,0,0,0-.25.43,2.78,2.78,0,0,0-.08.71v.32a1.6,1.6,0,0,0,.09.56.8.8,0,0,0,.26.37A.6.6,0,0,0,75.33,330.18Z"/><path class="cls-3" d="M78.9,329.25v-1.66h-.71v-1.2h2.26v2.86Z"/><path class="cls-3" d="M81.24,331.35v-1.2h2.24l1.55,0,.57.1v1.15Zm2.24-.36V328.1a.49.49,0,0,0-.15-.38.6.6,0,0,0-.42-.13h-1.4v-1.2H83a2.13,2.13,0,0,1,1.47.48,1.69,1.69,0,0,1,.53,1.31V331Z"/><image width="504" height="504" transform="translate(41.72 321.84) scale(0.03)" xlink:href="%D7%91%D7%99%D7%A1%D7%9C%D7%90%20.png"/></g><g id="כנף_25" data-name="כנף 25"><path class="cls-1" d="M35.75,358.31a8.51,8.51,0,0,0,8.49,8.51H76.86a8.43,8.43,0,0,1,8.43,8.42v2.56H87V358.31a8.5,8.5,0,0,0-8.5-8.5H44.24a8.52,8.52,0,0,0-8.49,8.5Z"/><text class="cls-2" transform="translate(65.1 357.88)"><tspan xml:space="preserve"> ףנכ</tspan></text><path class="cls-3" d="M72.21,365.59v-4h-.42v-.28h.75v4.32Z"/><path class="cls-3" d="M73.74,364.46v-2.91h-.42v-.28h.75v3.19Z"/><path class="cls-3" d="M75.06,364.46l.26-2.15a1.09,1.09,0,0,1,.14-.43.84.84,0,0,1,.25-.3l0,0h0l-.33.06-.4.12-.09-.26.45-.13.49-.08.44,0a1.26,1.26,0,0,1,.93.33,1.34,1.34,0,0,1,.32,1v1.95H76.32v-.28h.94v-1.7a1,1,0,0,0-.23-.72.82.82,0,0,0-.65-.25.65.65,0,0,0-.49.21,1,1,0,0,0-.24.57l-.27,2.17Z"/><path class="cls-3" d="M79.94,364.46v-2.29a.58.58,0,0,0-.62-.62H78.19v-.28h1.12a1,1,0,0,1,.71.25.9.9,0,0,1,.26.69v2.25Z"/><image width="500" height="500" transform="translate(37.22 351.35) scale(0.03)" xlink:href="%D7%A8%D7%9E%D7%95%D7%9F%20%D7%9B%D7%A0%D7%A3%20255.png"/></g><g id="בח_א_10" data-name="בח&quot;א 10"><path class="cls-1" d="M146.05,453.48a8.51,8.51,0,0,1-8.5,8.51H100.14a8.42,8.42,0,0,0-8.42,8.42V473H90V453.48a8.5,8.5,0,0,1,8.5-8.5h39.09a8.54,8.54,0,0,1,8.5,8.5Z"/><text class="cls-2" transform="translate(105.41 453.05)"><tspan xml:space="preserve"> א”חב</tspan></text><path class="cls-3" d="M115.88,459.62v-2a1,1,0,0,0-.21-.73,1,1,0,0,0-.72-.22h-1.07v-.27H115a1.34,1.34,0,0,1,1,.3,1.24,1.24,0,0,1,.31.92v2Zm-2,0v-1.08a2.1,2.1,0,0,1,0-.4c0-.09,0-.18.09-.27h.28a2.11,2.11,0,0,0-.06.29c0,.1,0,.22,0,.38v1.08Z"/><path class="cls-3" d="M116.83,456.44h2.46v.27h-.52v2.91h-.34v-2.91h-1.6Z"/><path class="cls-3" d="M119.64,459.62v-.27h1.83l.33,0,.39,0v.26Zm1.83-.07v-1.89a1,1,0,0,0-.22-.73,1,1,0,0,0-.72-.22h-.72v-.27h.74a1.31,1.31,0,0,1,.94.3,1.24,1.24,0,0,1,.31.92v1.89Z"/><path class="cls-3" d="M123,459.62v-2.91h-.42v-.27h.75v3.18Z"/><path class="cls-3" d="M125.11,459.68a2.32,2.32,0,0,1-.51-.05,3.43,3.43,0,0,1-.56-.16l.09-.26a4.72,4.72,0,0,0,.5.16,2.47,2.47,0,0,0,.44.05,1.11,1.11,0,0,0,.76-.26,1,1,0,0,0,.29-.76v-2h.33v1.95a1.31,1.31,0,0,1-.17.71,1.11,1.11,0,0,1-.47.44A1.75,1.75,0,0,1,125.11,459.68Zm-.88-3.24h.33l.54,2.4c0,.15.07.28.1.38a2.44,2.44,0,0,0,.14.28h-.27a1.75,1.75,0,0,1-.17-.28,2,2,0,0,1-.13-.37Z"/><image width="500" height="500" transform="translate(129.73 446.27) scale(0.03)" xlink:href="%D7%A2%D7%95%D7%91%D7%93%D7%94%20%D7%91%D7%97%D7%90%20%2010.png"/></g><g id="יב_א_צפון" data-name="יב&quot;א צפון"><path class="cls-1" d="M222.12,39a8.51,8.51,0,0,1-8.5,8.51H162.4A8.43,8.43,0,0,0,154,56v2.55h-1.75V39a8.49,8.49,0,0,1,8.49-8.49h52.9a8.52,8.52,0,0,1,8.5,8.49Z"/><path class="cls-3" d="M162.05,33.65a2.12,2.12,0,0,1,1.48.47,1.81,1.81,0,0,1,.51,1.39V38.6h-1.55V35.38a.68.68,0,0,0-.11-.4.38.38,0,0,0-.31-.14h-.61c0,.16,0,.31,0,.47s0,.29,0,.4V37a1.7,1.7,0,0,1-.43,1.23,1.59,1.59,0,0,1-1.2.45l-.35,0-.34,0V37.44h.26a.57.57,0,0,0,.4-.14.54.54,0,0,0,.15-.42v-1a3.26,3.26,0,0,1,.05-.48,1.82,1.82,0,0,1,.19-.54h-.7V33.65Z"/><path class="cls-3" d="M165.45,36.51V34.84h-.71V33.65H167v2.86Z"/><path class="cls-3" d="M168.86,38.68a3.64,3.64,0,0,1-.48,0l-.54-.09V37.4a4,4,0,0,0,.59,0,.49.49,0,0,0,.38-.14.62.62,0,0,0,.12-.42v-2h-.82V33.65h2.37V37a1.7,1.7,0,0,1-.43,1.24A1.6,1.6,0,0,1,168.86,38.68Z"/><path class="cls-3" d="M171.74,38.6V34.84h-.36V33.65h1.91v5Z"/><path class="cls-3" d="M176.5,38.72a6.9,6.9,0,0,1-1-.08,5.28,5.28,0,0,1-1-.25l.28-1.12a8.33,8.33,0,0,0,.84.17,5.2,5.2,0,0,0,.7.06,1.22,1.22,0,0,0,.81-.23.85.85,0,0,0,.27-.69V34.84h-1.22a2.14,2.14,0,0,0-.09.4,2.17,2.17,0,0,0,0,.37v.17l.18,0h.14v1a2.48,2.48,0,0,1-.63.07,2.76,2.76,0,0,1-.65-.1,1.66,1.66,0,0,1-.54-.23v-.37a4.21,4.21,0,0,1,.07-.73,2.07,2.07,0,0,1,.21-.58h-.47V33.65H179v2.73a2.4,2.4,0,0,1-.34,1.36,2,2,0,0,1-.92.75A3.39,3.39,0,0,1,176.5,38.72Z"/><path class="cls-3" d="M180.17,38.6V37.4h2.05l-2.52-3.75h1.72l1.23,2,1.55,2.25v.67ZM183,36.86l-1-1.23.83-2h1.73Z"/><path class="cls-3" d="M190.58,38.6l-3.37-5h1.73l3.36,5Zm-3.15,0V37a2.45,2.45,0,0,1,.26-1.23,1.62,1.62,0,0,1,.89-.65l.53.77a.59.59,0,0,0-.19.42V38.6Zm4.93-5-1.59,3.2-1-1.24.86-2Z"/><path class="cls-3" d="M193.11,33.69a1.49,1.49,0,0,1,.11-.58,2.22,2.22,0,0,1,.29-.55,2.3,2.3,0,0,1,.37-.43l.64.35a4.08,4.08,0,0,0-.23.51,2,2,0,0,0-.11.7v.7h-1.07Zm1.49,0a1.49,1.49,0,0,1,.11-.58,2.22,2.22,0,0,1,.29-.55,2.3,2.3,0,0,1,.37-.43l.64.35a4.08,4.08,0,0,0-.23.51,2,2,0,0,0-.11.7v.7H194.6Z"/><path class="cls-3" d="M196.53,38.6V37.4h2.24l1.55,0,.56.09V38.6Zm2.24-.36V35.36a.49.49,0,0,0-.15-.38.62.62,0,0,0-.43-.14H196.8V33.65h1.51a2.1,2.1,0,0,1,1.47.48,1.64,1.64,0,0,1,.54,1.31v2.8Z"/><path class="cls-3" d="M201.88,36.51V34.84h-.71V33.65h2.26v2.86Z"/><text class="cls-10" transform="translate(194.72 45.18)">066</text><circle class="cls-11" cx="213.68" cy="39.01" r="7.02"/><path class="cls-3" d="M219.94,39a2.72,2.72,0,0,1-.14.89,3.59,3.59,0,0,1-.94,1.48l-2.2.2-3,.76-5-1.35-1-.44a3.23,3.23,0,0,1-.28-.6,2.85,2.85,0,0,1-.14-.63.76.76,0,0,1,0-.15l1.84-1.45,6.34,1.07,3.74-1.07.68.46a3,3,0,0,1,.12.73Z"/><path class="cls-12" d="M219.8,39.9c-.61,1.92-3.17,3.35-6.22,3.35S208,41.84,207.37,40a2,2,0,0,1,1.57.32,3.46,3.46,0,0,0,2.92,1,15.25,15.25,0,0,1,2.85.11,3.75,3.75,0,0,1,1-.34,7.7,7.7,0,0,0,1.46,0c.45-.1,1.51-1,1.74-1S219.78,39.91,219.8,39.9Z"/><path class="cls-13" d="M219.94,38.91c-1.73-.38-1.42,0-2.7.51s-4.09.31-5.63.31-1.84-.43-3.07-.6a1.74,1.74,0,0,0-1.31.19c0-.1,0-.21,0-.31,0-2.34,2.85-4.24,6.37-4.24S219.86,36.61,219.94,38.91Z"/><circle class="cls-14" cx="213.41" cy="38.51" r="2.05"/><path d="M215.54,38.39v-.11a2.06,2.06,0,0,0-.44-1,2.12,2.12,0,0,0-1.05-.72,1.86,1.86,0,0,0-.48-.09h-.39a2.09,2.09,0,0,0-.94.34,2.12,2.12,0,0,0-1,1.64v0h0v.36a2.1,2.1,0,0,0,.35.95,2.17,2.17,0,0,0,.87.75,2.14,2.14,0,0,0,.7.19h.49a2.16,2.16,0,0,0,.93-.36A2.08,2.08,0,0,0,215.5,39a1.2,1.2,0,0,0,0-.2s0-.06,0-.09v0h0v-.3Zm-.27-.64a2,2,0,0,1,.17.73h0v0H215a2.62,2.62,0,0,0-.13-.75v0h.32A0,0,0,0,1,215.27,37.75Zm-.8,2.53a.56.56,0,0,1-.13.07.45.45,0,0,0,.07-.07Zm-.09-.15a.06.06,0,0,1,0,0H214l0,0a.14.14,0,0,0,0-.06,3.14,3.14,0,0,0,.15-.49s0,0,0,0h.51l0,0a.08.08,0,0,1,0,0A2.16,2.16,0,0,1,214.38,40.13Zm-.9.15h.32a.67.67,0,0,1-.32.3Zm.48,0h.24a1.48,1.48,0,0,1-.38.23A1.64,1.64,0,0,1,214,40.29Zm.27-2.54v0h.54a0,0,0,0,1,0,0,2.47,2.47,0,0,1,.12.72v0h-.63A4.47,4.47,0,0,0,214.23,37.75Zm.49-.13h-.48s0,0,0,0A3.83,3.83,0,0,0,214,37h0v0h.32l0,0a2.3,2.3,0,0,1,.37.58h0v0Zm-.33,1.79h-.17v0a4.56,4.56,0,0,0,.06-.75v0h.64v0a.09.09,0,0,0,0,0v.11a2.75,2.75,0,0,1-.12.57s0,0-.05,0h-.36Zm.3-2.41a2,2,0,0,1,.49.58h0v0h-.3s0,0,0,0a1.93,1.93,0,0,0-.27-.49l0-.06,0-.06h.16A0,0,0,0,1,214.69,37Zm-.36-.24.18.1h-.08a.06.06,0,0,1-.06,0l0,0,0,0h0Zm-.51-.15a1.17,1.17,0,0,1,.38.24l0,0h-.29a1.74,1.74,0,0,1-.11-.18l0,0h0v0Zm-.36-.07h0a.61.61,0,0,1,.33.3l0,0h-.37Zm0,.45h.4s0,0,0,0a3.49,3.49,0,0,1,.18.57v0h-.62Zm0,.74h.65a4.67,4.67,0,0,1,.07.76h-.72Zm0,.89h.72v.15a5.07,5.07,0,0,1-.06.6s0,0,0,0h-.62Zm0,.9h.63v0s0,0,0,0a2.36,2.36,0,0,1-.17.53,0,0,0,0,1-.05,0h-.39Zm-.13-3h0v.32H213v0A.56.56,0,0,1,213.33,36.55Zm0,4a.57.57,0,0,1-.31-.29h.31Zm-.33-.06a1.14,1.14,0,0,1-.38-.23h.24Zm-.22-.36h-.3l0,0a1.78,1.78,0,0,1-.36-.58h0v0h.51a0,0,0,0,1,0,0,2.94,2.94,0,0,0,.17.57h0v0Zm-.54-2.42h.35v0a6,6,0,0,0-.07.75h-.63V38.4a3.19,3.19,0,0,1,.12-.63s0,0,.05,0Zm-.18-.11,0,0,0,0a1.93,1.93,0,0,1,.34-.53.05.05,0,0,1,.05,0h.32v0a2.57,2.57,0,0,0-.18.61h-.56Zm.46,1v0a6.15,6.15,0,0,0,.07.75h-.54s0,0,0,0a2.62,2.62,0,0,1-.1-.45c0-.06,0-.12,0-.18v-.12Zm.18.77a5.79,5.79,0,0,1-.07-.75v0h.72v.78h-.65Zm-.07-.88h0a6.13,6.13,0,0,1,.07-.76h.65v.78Zm.1-.89v0a.11.11,0,0,1,0,0,2.68,2.68,0,0,1,.16-.5.05.05,0,0,1,.05,0h.39v.63Zm-.12-.78a1.38,1.38,0,0,1,.39-.23h0l-.14.2h0a.09.09,0,0,1-.09.06h-.23Zm-.05-.13-.06.07,0,0,0,0a.06.06,0,0,1-.06,0h0v0Zm-.93.88v0a1.87,1.87,0,0,1,.48-.57l0,0h.14v0l-.06.07a1.63,1.63,0,0,1-.11.17,1.8,1.8,0,0,0-.16.34,0,0,0,0,1-.05,0h-.3Zm-.25.91v0a.25.25,0,0,1,0-.08,2.1,2.1,0,0,1,.15-.61s0,0,0,0h.33l0,.1a2.67,2.67,0,0,0-.1.64,0,0,0,0,1,0,0h-.36Zm.21.91s0,0,0,0a1.72,1.72,0,0,1-.16-.63.17.17,0,0,1,0-.07v-.06h.4v0a3.09,3.09,0,0,0,.12.75v0h-.32Zm.56.74h0a2,2,0,0,1-.49-.59h0v0h.29s0,0,.05,0a2,2,0,0,0,.32.56h0v0Zm.34.23h0l-.17-.09h0a.08.08,0,0,1,.1,0,.08.08,0,0,0,0,0l0,0h0Zm.86-.27a0,0,0,0,1,0,0H213s0,0,0,0a2.54,2.54,0,0,1-.19-.57h0v0h.62Zm1.84-.56h0a1.92,1.92,0,0,1-.48.57l0,0h-.14l0,0h0a2.34,2.34,0,0,0,.32-.56,0,0,0,0,1,0,0h.29Zm.24-.87v.1a2.13,2.13,0,0,1-.16.6s0,0,0,0h-.32a2.36,2.36,0,0,0,.12-.75v0h.4Z"/><path class="cls-15" d="M214.48,40.26h-.08l-.06.06h0l-.05.07.2-.12Zm-.06,0h0Zm-1.44.17a1.74,1.74,0,0,0-.11-.18l0,0h-.23v0h0a1.38,1.38,0,0,0,.38.23l0,0Zm-.32-.17h.18l.12.18h0a1.44,1.44,0,0,1-.31-.19Zm1.54,0H214l0,0-.12.18-.05.08,0,0a1.29,1.29,0,0,0,.39-.23l0,0Zm-.35.21h0a1.74,1.74,0,0,1,.11-.18h.19A1.44,1.44,0,0,1,213.85,40.48Zm-.86-.22,0,0a.57.57,0,0,0,.32.31h0v-.33Zm.33.29a.62.62,0,0,1-.28-.26h.28Zm.14-.29v.34h0a.69.69,0,0,0,.33-.3l0,0Zm0,.29v-.26h.28A.59.59,0,0,1,213.49,40.55Zm1-.29h-.08l-.06.06h0l-.05.07.2-.12Zm-.06,0h0Zm-.22,0H214l0,0-.12.18-.05.08,0,0a1.29,1.29,0,0,0,.39-.23l0,0Zm-.35.21h0a1.74,1.74,0,0,1,.11-.18h.19A1.44,1.44,0,0,1,213.85,40.48Zm-.39-.22v.34h0a.69.69,0,0,0,.33-.3l0,0Zm0,.29v-.26h.28A.59.59,0,0,1,213.49,40.55Zm-.5-.29,0,0a.57.57,0,0,0,.32.31h0v-.33Zm.33.29a.62.62,0,0,1-.28-.26h.28Zm-.34-.09a1.74,1.74,0,0,0-.11-.18l0,0h-.23v0h0a1.38,1.38,0,0,0,.38.23l0,0Zm-.32-.17h.18l.12.18h0a1.44,1.44,0,0,1-.31-.19Zm.32.17a1.74,1.74,0,0,0-.11-.18l0,0h-.23v0h0a1.38,1.38,0,0,0,.38.23l0,0Zm-.32-.17h.18l.12.18h0a1.44,1.44,0,0,1-.31-.19Zm.33,0,0,0a.57.57,0,0,0,.32.31h0v-.33Zm.33.29a.62.62,0,0,1-.28-.26h.28Zm.14-.29v.34h0a.69.69,0,0,0,.33-.3l0,0Zm0,.29v-.26h.28A.59.59,0,0,1,213.49,40.55Zm.71-.28H214l0,0-.12.18-.05.08,0,0a1.29,1.29,0,0,0,.39-.23l0,0Zm-.35.21h0a1.74,1.74,0,0,1,.11-.18h.19A1.44,1.44,0,0,1,213.85,40.48Zm.63-.22h-.08l-.06.06h0l-.05.07.2-.12Zm-.06,0h0Zm.06,0h-.08l-.06.06h0l-.05.07.2-.12Zm-.06,0h0Zm-.22,0H214l0,0-.12.18-.05.08,0,0a1.29,1.29,0,0,0,.39-.23l0,0Zm-.35.21h0a1.74,1.74,0,0,1,.11-.18h.19A1.44,1.44,0,0,1,213.85,40.48Zm-.39-.22v.34h0a.69.69,0,0,0,.33-.3l0,0Zm0,.29v-.26h.28A.59.59,0,0,1,213.49,40.55Zm-.5-.29,0,0a.57.57,0,0,0,.32.31h0v-.33Zm.33.29a.62.62,0,0,1-.28-.26h.28Zm-.34-.09a1.74,1.74,0,0,0-.11-.18l0,0h-.23v0h0a1.38,1.38,0,0,0,.38.23l0,0Zm-.32-.17h.18l.12.18h0a1.44,1.44,0,0,1-.31-.19Zm.32.17a1.74,1.74,0,0,0-.11-.18l0,0h-.23v0h0a1.38,1.38,0,0,0,.38.23l0,0Zm-.32-.17h.18l.12.18h0a1.44,1.44,0,0,1-.31-.19Zm.33,0,0,0a.57.57,0,0,0,.32.31h0v-.33Zm.33.29a.62.62,0,0,1-.28-.26h.28Zm.14-.29v.34h0a.69.69,0,0,0,.33-.3l0,0Zm0,.29v-.26h.28A.59.59,0,0,1,213.49,40.55Zm.71-.28H214l0,0-.12.18-.05.08,0,0a1.29,1.29,0,0,0,.39-.23l0,0Zm-.35.21h0a1.74,1.74,0,0,1,.11-.18h.19A1.44,1.44,0,0,1,213.85,40.48Zm.63-.22h-.08l-.06.06h0l-.05.07.2-.12Zm-.06,0h0Zm.06,0h-.08l-.06.06h0l-.05.07.2-.12Zm-.06,0h0Zm-.22,0H214l0,0-.12.18-.05.08,0,0a1.29,1.29,0,0,0,.39-.23l0,0Zm-.35.21h0a1.74,1.74,0,0,1,.11-.18h.19A1.44,1.44,0,0,1,213.85,40.48Zm-.39-.22v.34h0a.69.69,0,0,0,.33-.3l0,0Zm0,.29v-.26h.28A.59.59,0,0,1,213.49,40.55Zm-.5-.29,0,0a.57.57,0,0,0,.32.31h0v-.33Zm.33.29a.62.62,0,0,1-.28-.26h.28Zm-.34-.09a1.74,1.74,0,0,0-.11-.18l0,0h-.23v0h0a1.38,1.38,0,0,0,.38.23l0,0Zm-.32-.17h.18l.12.18h0a1.44,1.44,0,0,1-.31-.19Zm.32.17a1.74,1.74,0,0,0-.11-.18l0,0h-.23v0h0a1.38,1.38,0,0,0,.38.23l0,0Zm-.32-.17h.18l.12.18h0a1.44,1.44,0,0,1-.31-.19Zm.33,0,0,0a.57.57,0,0,0,.32.31h0v-.33Zm.33.29a.62.62,0,0,1-.28-.26h.28Zm.14-.29v.34h0a.69.69,0,0,0,.33-.3l0,0Zm0,.29v-.26h.28A.59.59,0,0,1,213.49,40.55Zm.71-.28H214l0,0-.12.18-.05.08,0,0a1.29,1.29,0,0,0,.39-.23l0,0Zm-.35.21h0a1.74,1.74,0,0,1,.11-.18h.19A1.44,1.44,0,0,1,213.85,40.48Zm.63-.22h-.08l-.06.06h0l-.05.07.2-.12Zm-.06,0h0Zm.06,0h-.08l-.06.06h0l-.05.07.2-.12Zm-.06,0h0Zm-.22,0H214l0,0-.12.18-.05.08,0,0a1.29,1.29,0,0,0,.39-.23l0,0Zm-.35.21h0a1.74,1.74,0,0,1,.11-.18h.19A1.44,1.44,0,0,1,213.85,40.48Zm-.39-.22v.34h0a.69.69,0,0,0,.33-.3l0,0Zm0,.29v-.26h.28A.59.59,0,0,1,213.49,40.55Zm-.5-.29,0,0a.57.57,0,0,0,.32.31h0v-.33Zm.33.29a.62.62,0,0,1-.28-.26h.28Zm-.34-.09a1.74,1.74,0,0,0-.11-.18l0,0h-.23v0h0a1.38,1.38,0,0,0,.38.23l0,0Zm-.32-.17h.18l.12.18h0a1.44,1.44,0,0,1-.31-.19Zm.32.17a1.74,1.74,0,0,0-.11-.18l0,0h-.23v0h0a1.38,1.38,0,0,0,.38.23l0,0Zm-.32-.17h.18l.12.18h0a1.44,1.44,0,0,1-.31-.19Zm.33,0,0,0a.57.57,0,0,0,.32.31h0v-.33Zm.33.29a.62.62,0,0,1-.28-.26h.28Zm.14-.29v.34h0a.69.69,0,0,0,.33-.3l0,0Zm0,.29v-.26h.28A.59.59,0,0,1,213.49,40.55Zm.71-.28H214l0,0-.12.18-.05.08,0,0a1.29,1.29,0,0,0,.39-.23l0,0Zm-.35.21h0a1.74,1.74,0,0,1,.11-.18h.19A1.44,1.44,0,0,1,213.85,40.48Zm.63-.22h-.08l-.06.06h0l-.05.07.2-.12Zm-.06,0h0Zm.06,0h-.08l-.06.06h0l-.05.07.2-.12Zm-.06,0h0Zm-.22,0H214l0,0-.12.18-.05.08,0,0a1.29,1.29,0,0,0,.39-.23l0,0Zm-.35.21h0a1.74,1.74,0,0,1,.11-.18h.19A1.44,1.44,0,0,1,213.85,40.48Zm-.39-.22v.34h0a.69.69,0,0,0,.33-.3l0,0Zm0,.29v-.26h.28A.59.59,0,0,1,213.49,40.55Zm-.5-.29,0,0a.57.57,0,0,0,.32.31h0v-.33Zm.33.29a.62.62,0,0,1-.28-.26h.28Zm-.34-.09a1.74,1.74,0,0,0-.11-.18l0,0h-.23v0h0a1.38,1.38,0,0,0,.38.23l0,0Zm-.32-.17h.18l.12.18h0a1.44,1.44,0,0,1-.31-.19Zm1.82,0h-.08l-.06.06h0l-.05.07.2-.12Zm-.06,0h0Zm-.22,0H214l0,0-.12.18-.05.08,0,0a1.29,1.29,0,0,0,.39-.23l0,0Zm-.35.21h0a1.74,1.74,0,0,1,.11-.18h.19A1.44,1.44,0,0,1,213.85,40.48Zm-.39-.22v.34h0a.69.69,0,0,0,.33-.3l0,0Zm0,.29v-.26h.28A.59.59,0,0,1,213.49,40.55Zm-.5-.29,0,0a.57.57,0,0,0,.32.31h0v-.33Zm.33.29a.62.62,0,0,1-.28-.26h.28Zm-.34-.09a1.74,1.74,0,0,0-.11-.18l0,0h-.23v0h0a1.38,1.38,0,0,0,.38.23l0,0Zm-.32-.17h.18l.12.18h0a1.44,1.44,0,0,1-.31-.19Zm.32.17a1.74,1.74,0,0,0-.11-.18l0,0h-.23v0h0a1.38,1.38,0,0,0,.38.23l0,0Zm-.32-.17h.18l.12.18h0a1.44,1.44,0,0,1-.31-.19Zm.33,0,0,0a.57.57,0,0,0,.32.31h0v-.33Zm.33.29a.62.62,0,0,1-.28-.26h.28Zm.14-.29v.34h0a.69.69,0,0,0,.33-.3l0,0Zm0,.29v-.26h.28A.59.59,0,0,1,213.49,40.55Zm.71-.28H214l0,0-.12.18-.05.08,0,0a1.29,1.29,0,0,0,.39-.23l0,0Zm-.35.21h0a1.74,1.74,0,0,1,.11-.18h.19A1.44,1.44,0,0,1,213.85,40.48Zm.63-.22h-.08l-.06.06h0l-.05.07.2-.12Zm-.06,0h0Zm.06,0h-.08l-.06.06h0l-.05.07.2-.12Zm-.06,0h0Zm-.22,0H214l0,0-.12.18-.05.08,0,0a1.29,1.29,0,0,0,.39-.23l0,0Zm-.35.21h0a1.74,1.74,0,0,1,.11-.18h.19A1.44,1.44,0,0,1,213.85,40.48Zm-.39-.22v.34h0a.69.69,0,0,0,.33-.3l0,0Zm0,.29v-.26h.28A.59.59,0,0,1,213.49,40.55Zm-.5-.29,0,0a.57.57,0,0,0,.32.31h0v-.33Zm.33.29a.62.62,0,0,1-.28-.26h.28Zm-.34-.09a1.74,1.74,0,0,0-.11-.18l0,0h-.23v0h0a1.38,1.38,0,0,0,.38.23l0,0Zm-.32-.17h.18l.12.18h0a1.44,1.44,0,0,1-.31-.19Zm.32.17a1.74,1.74,0,0,0-.11-.18l0,0h-.23v0h0a1.38,1.38,0,0,0,.38.23l0,0Zm-.32-.17h.18l.12.18h0a1.44,1.44,0,0,1-.31-.19Zm.33,0,0,0a.57.57,0,0,0,.32.31h0v-.33Zm.33.29a.62.62,0,0,1-.28-.26h.28Zm.14-.29v.34h0a.69.69,0,0,0,.33-.3l0,0Zm0,.29v-.26h.28A.59.59,0,0,1,213.49,40.55Zm.71-.28H214l0,0-.12.18-.05.08,0,0a1.29,1.29,0,0,0,.39-.23l0,0Zm-.35.21h0a1.74,1.74,0,0,1,.11-.18h.19A1.44,1.44,0,0,1,213.85,40.48Zm.63-.22h-.08l-.06.06h0l-.05.07.2-.12Zm-.06,0h0Zm.06,0h-.08l-.06.06h0l-.05.07.2-.12Zm-.06,0h0Zm-.22,0H214l0,0-.12.18-.05.08,0,0a1.29,1.29,0,0,0,.39-.23l0,0Zm-.35.21h0a1.74,1.74,0,0,1,.11-.18h.19A1.44,1.44,0,0,1,213.85,40.48Zm-.39-.22v.34h0a.69.69,0,0,0,.33-.3l0,0Zm0,.29v-.26h.28A.59.59,0,0,1,213.49,40.55Zm-.5-.29,0,0a.57.57,0,0,0,.32.31h0v-.33Zm.33.29a.62.62,0,0,1-.28-.26h.28Zm-.34-.09a1.74,1.74,0,0,0-.11-.18l0,0h-.23v0h0a1.38,1.38,0,0,0,.38.23l0,0Zm-.32-.17h.18l.12.18h0a1.44,1.44,0,0,1-.31-.19Zm.32.17a1.74,1.74,0,0,0-.11-.18l0,0h-.23v0h0a1.38,1.38,0,0,0,.38.23l0,0Zm-.32-.17h.18l.12.18h0a1.44,1.44,0,0,1-.31-.19Zm.33,0,0,0a.57.57,0,0,0,.32.31h0v-.33Zm.33.29a.62.62,0,0,1-.28-.26h.28Zm.14-.29v.34h0a.69.69,0,0,0,.33-.3l0,0Zm0,.29v-.26h.28A.59.59,0,0,1,213.49,40.55Zm.71-.28H214l0,0-.12.18-.05.08,0,0a1.29,1.29,0,0,0,.39-.23l0,0Zm-.35.21h0a1.74,1.74,0,0,1,.11-.18h.19A1.44,1.44,0,0,1,213.85,40.48Zm.63-.22h-.08l-.06.06h0l-.05.07.2-.12Zm-.06,0h0Zm.06,0h-.08l-.06.06h0l-.05.07.2-.12Zm-.06,0h0Zm-.22,0H214l0,0-.12.18-.05.08,0,0a1.29,1.29,0,0,0,.39-.23l0,0Zm-.35.21h0a1.74,1.74,0,0,1,.11-.18h.19A1.44,1.44,0,0,1,213.85,40.48Zm-.39-.22v.34h0a.69.69,0,0,0,.33-.3l0,0Zm0,.29v-.26h.28A.59.59,0,0,1,213.49,40.55Zm-.5-.29,0,0a.57.57,0,0,0,.32.31h0v-.33Zm.33.29a.62.62,0,0,1-.28-.26h.28Zm-.34-.09a1.74,1.74,0,0,0-.11-.18l0,0h-.23v0h0a1.38,1.38,0,0,0,.38.23l0,0Zm-.32-.17h.18l.12.18h0a1.44,1.44,0,0,1-.31-.19Zm.32.17a1.74,1.74,0,0,0-.11-.18l0,0h-.23v0h0a1.38,1.38,0,0,0,.38.23l0,0Zm-.32-.17h.18l.12.18h0a1.44,1.44,0,0,1-.31-.19Zm.33,0,0,0a.57.57,0,0,0,.32.31h0v-.33Zm.33.29a.62.62,0,0,1-.28-.26h.28Zm.14-.29v.34h0a.69.69,0,0,0,.33-.3l0,0Zm0,.29v-.26h.28A.59.59,0,0,1,213.49,40.55Zm.71-.28H214l0,0-.12.18-.05.08,0,0a1.29,1.29,0,0,0,.39-.23l0,0Zm-.35.21h0a1.74,1.74,0,0,1,.11-.18h.19A1.44,1.44,0,0,1,213.85,40.48Zm.63-.22h-.08l-.06.06h0l-.05.07.2-.12Zm-.06,0h0Zm.06,0h-.08l-.06.06h0l-.05.07.2-.12Zm-.06,0h0Zm-.22,0H214l0,0-.12.18-.05.08,0,0a1.29,1.29,0,0,0,.39-.23l0,0Zm-.35.21h0a1.74,1.74,0,0,1,.11-.18h.19A1.44,1.44,0,0,1,213.85,40.48Zm-.39-.22v.34h0a.69.69,0,0,0,.33-.3l0,0Zm0,.29v-.26h.28A.59.59,0,0,1,213.49,40.55Zm-.5-.29,0,0a.57.57,0,0,0,.32.31h0v-.33Zm.33.29a.62.62,0,0,1-.28-.26h.28Zm-.34-.09a1.74,1.74,0,0,0-.11-.18l0,0h-.23v0h0a1.38,1.38,0,0,0,.38.23l0,0Zm-.32-.17h.18l.12.18h0a1.44,1.44,0,0,1-.31-.19Z"/><polygon class="cls-16" points="214.51 40.62 214.51 40.62 214.51 40.62 214.51 40.62"/><polygon points="214.52 40.63 214.43 40.63 214.53 40.59 214.52 40.63"/><rect class="cls-16" x="212.66" y="40.62" width="1.49" height="1.33"/><path d="M214.16,42h-1.51V40.6h1.51Zm-1.48,0h1.45V40.63h-1.45Z"/><polygon class="cls-16" points="215.4 39.4 215.4 40.29 214.95 40.45 214.51 40.62 214.51 40.62 214.72 39.73 215.4 39.4"/><path d="M214.49,40.64l.21-.93.71-.33v.92Zm.24-.9-.2.85.85-.31v-.86Z"/><polygon class="cls-16" points="214.95 40.45 214.95 41.68 214.15 41.95 214.15 40.62 214.51 40.62 214.51 40.62 214.95 40.45"/><path d="M214.13,42V40.6h.37l.47-.17v1.26Zm0-1.34v1.3l.78-.26v-1.2l-.43.16Z"/><polygon class="cls-16" points="214.72 39.73 214.51 40.62 212.31 40.62 212.1 39.73 214.72 39.73"/><path d="M214.52,40.63h-2.23l-.21-.91h2.65Zm-2.2,0h2.18l.2-.86h-2.58Z"/><polygon class="cls-16" points="212.3 40.62 212.3 40.62 212.31 40.62 212.3 40.62"/><polygon points="212.38 40.63 212.29 40.63 212.29 40.62 212.28 40.59 212.31 40.6 212.38 40.63"/><polygon class="cls-16" points="212.31 40.62 212.3 40.62 211.86 40.45 211.42 40.29 211.42 39.4 212.1 39.73 212.31 40.62"/><path d="M212.33,40.64h0l-.9-.33v-.92l.71.33Zm-.9-.36.86.31-.2-.85-.66-.32Z"/><polygon class="cls-16" points="212.66 40.62 212.66 41.95 211.86 41.68 211.86 40.45 212.3 40.62 212.31 40.62 212.66 40.62"/><path d="M212.68,42l-.83-.28V40.43l.46.17h.37Zm-.8-.3.77.26v-1.3h-.35l-.42-.16Z"/><path class="cls-17" d="M210.88,37.92s-.25-.7,1.5-.7,1.82.13,1.82.13a1.67,1.67,0,0,0-.67.45,9.54,9.54,0,0,1,2.11.21s.23-.11.15-.58.13.52.71.58,1.39-.46,2.11.23a13.3,13.3,0,0,0-2,.28c-.43.16-.87-.36-1.45-.4a10,10,0,0,0-2.5-.13s.2-.3.35-.36A4.26,4.26,0,0,0,210.88,37.92Z"/></g><g id="יב_א_מרכז" data-name="יב&quot;א מרכז"><path class="cls-1" d="M203.15,173.62a8.51,8.51,0,0,1-8.49,8.51H149.44a8.42,8.42,0,0,0-8.42,8.42v2.56h-1.75V173.62a8.49,8.49,0,0,1,8.49-8.5h46.9a8.52,8.52,0,0,1,8.49,8.5Z"/><path class="cls-3" d="M148.79,173.19l-.49-3.71-.25-.09v-1.16H151v1.2h-1.16l.57,3.76Z"/><path class="cls-3" d="M152.89,173.27a5.76,5.76,0,0,1-.7-.05,7.11,7.11,0,0,1-.76-.13l.23-1.12a5.33,5.33,0,0,0,1,.12,1.17,1.17,0,0,0,.81-.23.92.92,0,0,0,.24-.69v-1.74h-2.08v-1.2h3.64v2.69a2.69,2.69,0,0,1-.3,1.36,1.72,1.72,0,0,1-.83.75A3,3,0,0,1,152.89,173.27Z"/><path class="cls-3" d="M158,173.19V170a.59.59,0,0,0-.16-.44.74.74,0,0,0-.48-.14H156v-1.2h1.54a2.21,2.21,0,0,1,1.51.49,1.72,1.72,0,0,1,.55,1.36v3.11Z"/><path class="cls-3" d="M160.69,173.19l.29-2.61a2.65,2.65,0,0,1,.16-.63,1.78,1.78,0,0,1,.27-.48l0,0,0,0v0a1.9,1.9,0,0,0-.35.08l-.31.11-.32-1.11a5.2,5.2,0,0,1,.72-.21c.27-.06.55-.1.83-.14a8.21,8.21,0,0,1,.84,0,2.49,2.49,0,0,1,1.81.6,2.36,2.36,0,0,1,.62,1.76v2.74h-2.23V172h.68v-1.75a1.2,1.2,0,0,0-.15-.65.47.47,0,0,0-.42-.24.51.51,0,0,0-.48.25,1.73,1.73,0,0,0-.21.77l-.26,2.82Z"/><path class="cls-3" d="M171.61,173.19l-3.36-5H170l3.36,5Zm-3.15,0v-1.57a2.3,2.3,0,0,1,.27-1.22,1.58,1.58,0,0,1,.89-.65l.53.76a.55.55,0,0,0-.19.42v2.26Zm4.94-5-1.6,3.2-1-1.23.86-2Z"/><path class="cls-3" d="M174.14,168.27a1.46,1.46,0,0,1,.12-.57,2.22,2.22,0,0,1,.29-.55,1.77,1.77,0,0,1,.37-.43l.64.34a3.66,3.66,0,0,0-.23.52,1.81,1.81,0,0,0-.11.7v.7h-1.08Zm1.49,0a1.65,1.65,0,0,1,.11-.57,2.65,2.65,0,0,1,.3-.55,1.77,1.77,0,0,1,.37-.43l.64.34a3.66,3.66,0,0,0-.23.52,1.79,1.79,0,0,0-.12.7v.7h-1.07Z"/><path class="cls-3" d="M177.56,173.19V172h2.24l1.56-.05.56.1v1.15Zm2.24-.36V170a.53.53,0,0,0-.14-.39.67.67,0,0,0-.43-.13h-1.4v-1.2h1.52a2.13,2.13,0,0,1,1.47.48,1.67,1.67,0,0,1,.54,1.31v2.81Z"/><path class="cls-3" d="M182.92,171.09v-1.66h-.71v-1.2h2.26v2.86Z"/><text class="cls-10" transform="translate(175.76 179.77)">033</text><path class="cls-18" d="M194.53,180.48a6.88,6.88,0,1,1,4.94-11.73,6.88,6.88,0,0,1-4.93,11.73Z"/><path class="cls-15" d="M194.61,167a6.52,6.52,0,0,1,4.68,2,6.63,6.63,0,1,1-4.69-2h0m0-.5a7.13,7.13,0,0,0-.07,14.25h0a7.13,7.13,0,1,0,.07-14.25Z"/><path class="cls-19" d="M200.05,172.61l-.87.86a.26.26,0,0,1-.2.08h-5.31c.1-.24.19-.48.3-.73H190.8c-.16,0-.23,0-.2.21a1.31,1.31,0,0,1,0,.2l-1.77-.88,1.74-.86s0,0,0,0c0,.35,0,.35.36.35h4.57c.22,0,.22,0,.13.2l-.22.54Z"/><path class="cls-3" d="M196.12,169.91c-.08.22-.07.24.15.23s.19.06.12.2-.25.58-.36.87a.25.25,0,0,1-.28.19h-6.33v0l1.8-.51,2.38-.66A1,1,0,0,0,194,170l1.27-1.11a.4.4,0,0,1,.26-.1q.45,0,.9-.06c.13,0,.15,0,.11.14C196.37,169.19,196.24,169.55,196.12,169.91Z"/><path class="cls-3" d="M197.61,169.75a4.56,4.56,0,0,1-.51,2.11c-.09.16-.19.26-.39.23a2.16,2.16,0,0,0-.36,0s-.1,0-.13,0,0-.08.05-.12a3.84,3.84,0,0,0,.61-1.48,6.13,6.13,0,0,0,.09-1.35l0,0,.55.52A.17.17,0,0,1,197.61,169.75Z"/><path class="cls-3" d="M198.47,171.17a3.81,3.81,0,0,1-.19.57c-.14.35-.15.35-.52.35s-.37,0-.21-.34a4.76,4.76,0,0,0,.42-1.54c0-.06,0-.14.05-.16s.09,0,.13.09C198.67,170.64,198.64,170.41,198.47,171.17Z"/><path class="cls-3" d="M199.28,171.34l-.18.59a.2.2,0,0,1-.24.16h-.36c-.07,0-.13,0-.08-.1a4.13,4.13,0,0,0,.4-1.23c.16.15.28.27.41.38A.16.16,0,0,1,199.28,171.34Z"/><path class="cls-3" d="M200.25,172.08h-.92c-.09,0-.07-.06-.05-.11s.13-.38.2-.6Z"/></g><g id="יב_א_דרום" data-name="יב&quot;א דרום"><path class="cls-1" d="M159.07,362a8.51,8.51,0,0,1-8.5,8.51H100.16a8.42,8.42,0,0,0-8.42,8.42v2.56H90V362a8.49,8.49,0,0,1,8.49-8.5h52.09a8.54,8.54,0,0,1,8.5,8.5Z"/><path class="cls-3" d="M97.61,356.58a2.07,2.07,0,0,1,1.47.48,1.81,1.81,0,0,1,.51,1.39v3.09H98.05l0-3.23a.57.57,0,0,0-.11-.39.37.37,0,0,0-.31-.14H97c0,.15,0,.31,0,.46s0,.29,0,.41v1.29a1.7,1.7,0,0,1-.43,1.24,1.62,1.62,0,0,1-1.19.44H95l-.34-.05v-1.18h.26a.59.59,0,0,0,.41-.13.62.62,0,0,0,.14-.43v-1a2.58,2.58,0,0,1,.06-.48,1.51,1.51,0,0,1,.18-.53H95v-1.2Z"/><path class="cls-3" d="M101,359.44v-1.66h-.72v-1.2h2.26v2.86Z"/><path class="cls-3" d="M103.75,361.54l.29-2.61a2.65,2.65,0,0,1,.16-.63,1.55,1.55,0,0,1,.27-.48l0,0,0,0v0a1.9,1.9,0,0,0-.35.08l-.31.11-.32-1.11a5.2,5.2,0,0,1,.72-.21c.26-.06.54-.1.83-.14a8.21,8.21,0,0,1,.84-.05,2.49,2.49,0,0,1,1.81.6,2.36,2.36,0,0,1,.62,1.76v2.74h-2.23v-1.2h.68v-1.75a1.31,1.31,0,0,0-.14-.65.47.47,0,0,0-.42-.24.51.51,0,0,0-.48.25,1.73,1.73,0,0,0-.21.77l-.26,2.82Z"/><path class="cls-3" d="M109.48,361.54v-3.76h-.36v-1.2H111v5Z"/><path class="cls-3" d="M113.81,361.54v-3.18a.59.59,0,0,0-.16-.44.74.74,0,0,0-.48-.14h-1.41v-1.2h1.54a2.21,2.21,0,0,1,1.51.49,1.72,1.72,0,0,1,.55,1.36v3.11Z"/><path class="cls-3" d="M116.11,356.58h4.41v1.2h-.89v3.76h-1.55v-3.76h-2Z"/><path class="cls-3" d="M126.62,361.54l-3.36-5H125l3.36,5Zm-3.15,0V360a2.38,2.38,0,0,1,.26-1.22,1.68,1.68,0,0,1,.89-.66l.54.77a.56.56,0,0,0-.2.42v2.26Zm4.94-5-1.6,3.2-1-1.23.86-2Z"/><path class="cls-3" d="M129.15,356.62a1.53,1.53,0,0,1,.11-.58,2.64,2.64,0,0,1,.29-.55,2.67,2.67,0,0,1,.37-.43l.64.35a4.08,4.08,0,0,0-.23.51,2.12,2.12,0,0,0-.11.71v.69h-1.07Zm1.49,0a1.53,1.53,0,0,1,.11-.58,2.64,2.64,0,0,1,.29-.55,2.67,2.67,0,0,1,.37-.43l.64.35a4.08,4.08,0,0,0-.23.51,2.12,2.12,0,0,0-.11.71v.69h-1.07Z"/><path class="cls-3" d="M132.57,361.54v-1.2h2.24l1.55,0,.56.1v1.15Zm2.24-.36v-2.89a.49.49,0,0,0-.15-.38.6.6,0,0,0-.42-.13h-1.4v-1.2h1.51a2.1,2.1,0,0,1,1.47.48,1.67,1.67,0,0,1,.54,1.31v2.81Z"/><path class="cls-3" d="M137.92,359.44v-1.66h-.71v-1.2h2.26v2.86Z"/><text class="cls-10" transform="translate(130.68 368.11)">099</text><circle class="cls-20" cx="149.86" cy="361.98" r="7.03"/><path class="cls-21" d="M155.8,361.94a3.2,3.2,0,0,1-.07.63c0,.09,0,.18-.08.27a3.2,3.2,0,0,1-.51.94l-.22.27a5.61,5.61,0,0,1-.85.72l-.3.19H146l-.3-.19-.34-.25a5.8,5.8,0,0,1-.51-.47l-.22-.27a3.2,3.2,0,0,1-.51-.94,2.76,2.76,0,0,1-.08-.27,2.59,2.59,0,0,1-.07-.63,2.88,2.88,0,0,1,.11-.78c0-.09.06-.18.1-.27a3.29,3.29,0,0,1,.57-.94l.25-.27a4,4,0,0,1,.54-.45,2.8,2.8,0,0,1,.4-.27l.34-.19a8.26,8.26,0,0,1,7.26,0l.34.19a3.51,3.51,0,0,1,.4.27,4,4,0,0,1,.54.45l.25.27a3.29,3.29,0,0,1,.57.94,1.43,1.43,0,0,1,.09.27A2.54,2.54,0,0,1,155.8,361.94Z"/><path class="cls-22" d="M155.8,361.94a3.2,3.2,0,0,1-.07.63c0,.09,0,.18-.08.27a3.2,3.2,0,0,1-.51.94l-.22.27a5.61,5.61,0,0,1-.85.72l-.3.19H146l-.3-.19-.34-.25a5.8,5.8,0,0,1-.51-.47l-.22-.27a3.2,3.2,0,0,1-.51-.94,2.76,2.76,0,0,1-.08-.27,2.59,2.59,0,0,1-.07-.63,2.88,2.88,0,0,1,.11-.78c0-.09.06-.18.1-.27a3.29,3.29,0,0,1,.57-.94l.25-.27a4,4,0,0,1,.54-.45,2.8,2.8,0,0,1,.4-.27l.34-.19a8.26,8.26,0,0,1,7.26,0l.34.19a3.51,3.51,0,0,1,.4.27,4,4,0,0,1,.54.45l.25.27a3.29,3.29,0,0,1,.57.94,1.43,1.43,0,0,1,.09.27A2.54,2.54,0,0,1,155.8,361.94Z"/><path class="cls-20" d="M153.49,358.77h-7.26a8.26,8.26,0,0,1,7.26,0Z"/><path class="cls-20" d="M154.23,359.23h-8.74a2.8,2.8,0,0,1,.4-.27h7.94A3.51,3.51,0,0,1,154.23,359.23Z"/><path class="cls-20" d="M155,360H144.7l.25-.27h9.82Z"/><path class="cls-20" d="M155.68,361.16H144c0-.09.06-.18.1-.27h11.46A1.43,1.43,0,0,1,155.68,361.16Z"/><path class="cls-20" d="M153.77,365a7.42,7.42,0,0,1-2.86.93,9.22,9.22,0,0,1-2.1,0A7.42,7.42,0,0,1,146,365Z"/><path class="cls-20" d="M154.43,364.5a4.22,4.22,0,0,1-.36.27h-8.42l-.34-.25v0Z"/><path class="cls-20" d="M155.14,363.78l-.22.27H144.8l-.22-.27Z"/><path class="cls-20" d="M155.73,362.57c0,.09,0,.18-.08.27H144.07a2.76,2.76,0,0,1-.08-.27Z"/><ellipse class="cls-23" cx="149.86" cy="361.94" rx="4.32" ry="3.06"/><polygon class="cls-24" points="149.92 364.23 149.92 358.88 150.66 361.04 151.16 360.27 152.64 364.23 149.92 364.23"/><polygon class="cls-24" points="149.93 358.88 149.93 363.06 148.8 363.06 148.8 364.23 147.21 364.23 148.69 360.27 149.19 361.04 149.93 358.88"/><polygon class="cls-25" points="151.05 363.06 151.05 364.97 149.92 364.97 149.92 364.97 148.8 364.97 148.8 363.06 151.05 363.06"/><rect class="cls-26" x="150.48" y="364.23" width="0.38" height="0.53"/><rect class="cls-26" x="148.99" y="364.23" width="0.38" height="0.53" transform="translate(298.35 728.99) rotate(-180)"/><path class="cls-3" d="M151,361.9v0a1,1,0,0,0-.23-.52,1.07,1.07,0,0,0-.52-.36.93.93,0,0,0-.24,0h-.19a1.11,1.11,0,0,0-.47.17,1.12,1.12,0,0,0-.36.39,1.06,1.06,0,0,0-.12.43h0v.17a1,1,0,0,0,.18.48,1.09,1.09,0,0,0,.43.37,1.08,1.08,0,0,0,.35.1h.25a.93.93,0,0,0,.46-.18,1,1,0,0,0,.44-.66s0-.06,0-.09v-.05h0v-.16Zm-.13-.31a1.05,1.05,0,0,1,.08.36h-.2a1.16,1.16,0,0,0-.06-.38h.15Zm-.53,0h.27l0,0a1,1,0,0,1,.06.36h-.31A2.33,2.33,0,0,0,150.32,361.58Zm.25-.06h-.24s0,0,0,0a1.31,1.31,0,0,0-.09-.28h.18a1.19,1.19,0,0,1,.18.29h0Zm-.24,1h.26v0a1,1,0,0,1-.17.26h-.18v0a1.82,1.82,0,0,0,.07-.25Zm.08-.06h-.09a1.5,1.5,0,0,0,0-.37h.31v.08a1.27,1.27,0,0,1-.06.28s0,0,0,0h-.18Zm.15-1.2a1,1,0,0,1,.24.29h0v0h-.15l0,0a1.36,1.36,0,0,0-.13-.24l0,0,0,0h.09Zm-.18-.12.09.05h0l0,0,0,0h0Zm-.26-.07a.45.45,0,0,1,.19.11l0,0h-.15a.41.41,0,0,1-.05-.09l0,0h0v0Zm-.17,0h0a.36.36,0,0,1,.17.15v0H150Zm0,.22h.19a0,0,0,0,1,0,0,1,1,0,0,1,.09.28H150Zm0,.37h.33a2.34,2.34,0,0,1,0,.38h-.36Zm0,.45h.36v.07a1.39,1.39,0,0,1,0,.3s0,0,0,0h-.31Zm0,.45h.32v0h0a1.07,1.07,0,0,1-.09.27h-.22Zm-.06-1.48h0v.17h-.17C149.73,361.09,149.83,361,149.88,361Zm-.54.58h.17a2.43,2.43,0,0,0,0,.38h-.32v0a1.65,1.65,0,0,1,.06-.32l0,0Zm-.09-.05v0a1.24,1.24,0,0,1,.17-.27h.18a1.32,1.32,0,0,0-.09.3h-.27Zm.23.5h0a2.22,2.22,0,0,0,0,.37h-.29c0-.08,0-.16-.05-.23s0-.06,0-.09V362Zm0,.45h0a1.23,1.23,0,0,0,.09.29h-.18a1,1,0,0,1-.18-.29h.25Zm.06-.07a2.22,2.22,0,0,1,0-.37h.36v.39h-.33Zm0-.44h0a2.34,2.34,0,0,1,0-.38h.33V362Zm.05-.44v0a1.23,1.23,0,0,1,.08-.25s0,0,0,0h.19v.32Zm-.06-.39a.52.52,0,0,1,.19-.11h0l-.07.1h0a.05.05,0,0,1,0,0h-.1Zm0-.06,0,0h0l0,0,0,0h0v0Zm-.46.43h0a1.13,1.13,0,0,1,.24-.29h.09l0,0-.05.08-.09.17,0,0H149Zm-.13.46v0a.09.09,0,0,0,0-.05.79.79,0,0,1,.08-.3s0,0,0,0h.16l0,.05a1.63,1.63,0,0,0-.05.33s0,0,0,0h-.18Zm.11.45s0,0,0,0a.89.89,0,0,1-.08-.32V362h.2a2.2,2.2,0,0,0,.06.37H149Zm.28.37h0a.89.89,0,0,1-.24-.3h.16a1.08,1.08,0,0,0,.16.28h-.06Zm.17.12h0l-.08,0h0s0,0,.05,0l0,0h0Zm.25.07a.76.76,0,0,1-.19-.12h.13a.41.41,0,0,1,0,.09l0,0Zm.18,0h0a.26.26,0,0,1-.16-.15h.17Zm0-.24v0h-.21a1.1,1.1,0,0,1-.09-.29h.31Zm.06.24h0v-.17h.18A.36.36,0,0,1,150,363Zm.36-.15a.62.62,0,0,1-.19.12h0l0,0,.06-.09s0,0,0,0h.11Zm0,.06,0,0h0l0,0h0Zm.45-.43h0a.81.81,0,0,1-.24.28h-.08a.85.85,0,0,0,.16-.28h.16Zm.13-.43a.09.09,0,0,1,0,.05,1.09,1.09,0,0,1-.07.3h-.18a1.15,1.15,0,0,0,.06-.37h.2Z"/></g></g></svg>