<?xml version="1.0" encoding="utf-8"?>
<!-- Generator: Adobe Illustrator 25.4.1, SVG Export Plug-In . SVG Version: 6.00 Build 0)  -->
<svg version="1.1" id="Layer_1" xmlns="http://www.w3.org/2000/svg" xmlns:xlink="http://www.w3.org/1999/xlink" x="0px" y="0px"
	 viewBox="0 0 252 505.9" style="enable-background:new 0 0 252 505.9;" xml:space="preserve">
<style type="text/css">
	.st0{fill:#2E365B;}
	.st1{fill:#FFFFFF;}
	.st2{fill:none;stroke:#2E365B;stroke-miterlimit:10;}
	.st3{fill:#C0CADB;}
	.st4{fill:none;stroke:#2E365B;stroke-width:0.25;stroke-miterlimit:10;}
	.st5{fill:none;stroke:#2E365B;stroke-width:0.63;stroke-miterlimit:10;}
	.st6{fill:none;stroke:#2E365B;stroke-width:0.1;stroke-miterlimit:10;}
	.st7{fill:none;stroke:#2E365B;stroke-width:0.5;stroke-miterlimit:10;}
	.st8{fill:#0D131A;}
	.st9{fill:#A4A665;}
	.st10{fill:#498BCA;}
	.st11{fill:#205A39;}
	.st12{fill:#1D1D1B;}
	.st13{fill:#AAAAAB;}
	.st14{fill:#E53024;}
	.st15{fill:#17375D;}
	.st16{fill:#A21B17;}
	.st17{fill:#1F274B;}
	.st18{fill:#FFFFFF;stroke:#1F274B;stroke-miterlimit:10;}
	.st19{fill:none;}
	.st20{fill:#C8392E;}
	.st21{fill:#20294F;}
	.st22{fill:#20294F;stroke:#FEFFFF;stroke-miterlimit:10;}
	.st23{fill:#FEFFFF;}
</style>
<g id="מפה">
	<g id="בח_א_21">
		<path class="st0" d="M55.4,51.9c0,4.7,3.8,8.5,8.5,8.5h39c4.7,0,8.4,3.8,8.4,8.4v2.6h1.8V51.9c0-4.7-3.8-8.5-8.5-8.5c0,0,0,0,0,0
			H63.9C59.3,43.5,55.5,47.3,55.4,51.9z"/>
		<path class="st1" d="M80.1,51.5h-4.2v-1l1.9-2c0.1-0.2,0.3-0.3,0.4-0.5c0.1-0.1,0.2-0.3,0.2-0.4c0-0.1,0.1-0.2,0.1-0.3
			c0-0.2,0-0.4-0.2-0.5c-0.1-0.1-0.3-0.2-0.4-0.2c-0.1,0-0.2,0-0.3,0.1c-0.1,0.1-0.2,0.2-0.2,0.3c-0.1,0.1-0.1,0.3-0.1,0.4h-1.5
			c0-0.4,0.1-0.7,0.3-1c0.2-0.3,0.4-0.6,0.8-0.7c0.3-0.2,0.7-0.3,1.1-0.3c0.5,0,1.1,0.1,1.5,0.5c0.4,0.3,0.5,0.8,0.5,1.3
			c0,0.3-0.1,0.6-0.2,0.8c-0.1,0.3-0.3,0.5-0.5,0.8c-0.2,0.3-0.5,0.5-0.8,0.8l-0.7,0.7h2.3V51.5z"/>
		<path class="st1" d="M83.9,51.5h-1.5v-4.2l-1.3,0.4v-1.2l2.7-0.9h0.1L83.9,51.5z"/>
		<path class="st1" d="M91.1,51.5l-3.4-5h1.7l3.4,5H91.1z M87.9,51.5v-1.6c0-0.4,0.1-0.9,0.3-1.2c0.2-0.3,0.5-0.5,0.9-0.7l0.5,0.8
			c-0.1,0.1-0.2,0.3-0.2,0.4v2.3L87.9,51.5z M92.9,46.5l-1.6,3.2l-1-1.2l0.9-2L92.9,46.5z"/>
		<path class="st1" d="M93.6,46.6c0-0.2,0-0.4,0.1-0.6c0.1-0.2,0.2-0.4,0.3-0.5c0.1-0.2,0.2-0.3,0.4-0.4l0.6,0.3
			c-0.1,0.2-0.2,0.3-0.2,0.5c-0.1,0.2-0.1,0.5-0.1,0.7v0.7h-1.1V46.6z M95.1,46.6c0-0.2,0-0.4,0.1-0.6c0.1-0.2,0.2-0.4,0.3-0.5
			c0.1-0.2,0.2-0.3,0.4-0.4l0.6,0.3c-0.1,0.2-0.2,0.3-0.2,0.5c-0.1,0.2-0.1,0.5-0.1,0.7v0.7h-1L95.1,46.6z"/>
		<path class="st1" d="M97.5,51.5v-5h2.3c0.5,0,1.1,0.1,1.5,0.5c0.4,0.4,0.5,0.9,0.5,1.4v3.1h-1.5v-3.2c0-0.1,0-0.3-0.1-0.4
			c-0.1-0.1-0.2-0.1-0.3-0.1H99v3.8H97.5z"/>
		<path class="st1" d="M102.5,51.5v-1.2h2.2l1.6,0l0.6,0.1v1.2H102.5z M104.7,51.2v-2.9c0-0.1,0-0.3-0.2-0.4
			c-0.1-0.1-0.3-0.1-0.4-0.1h-1.4v-1.2h1.5c0.5,0,1.1,0.1,1.5,0.5c0.4,0.3,0.6,0.8,0.5,1.3v2.8H104.7z"/>
		
			<image style="overflow:visible;enable-background:new    ;" width="504" height="504" xlink:href="F51A76CD.png"  transform="matrix(3.000000e-02 0 0 3.000000e-02 57.0375 45.0901)">
		</image>
		<path class="st1" d="M94.6,56.7v-1.5H94v-0.3h1v1.8H94.6z"/>
		<path class="st1" d="M96,58.1h-0.3h-0.2v-0.3c0.1,0,0.3,0,0.4,0c0.1,0,0.3,0,0.4-0.1c0.1-0.1,0.1-0.3,0.1-0.4v-2.1h-0.7v-0.3h1
			v2.4c0,0.2-0.1,0.4-0.2,0.6C96.4,58.1,96.2,58.1,96,58.1z"/>
		<path class="st1" d="M98.4,58.1H98L97.5,58v-0.3c0.3,0.1,0.5,0.1,0.8,0.1c0.3,0,0.5-0.1,0.7-0.3c0.2-0.2,0.3-0.4,0.3-0.7v-1.8
			h-1.7v-0.3h2.1v1.9c0,0.2,0,0.5-0.2,0.7c-0.1,0.2-0.2,0.4-0.4,0.5C98.9,58.1,98.7,58.1,98.4,58.1z"/>
		<path class="st1" d="M102,58.1c-0.2,0-0.4,0-0.6-0.2c-0.2-0.1-0.3-0.3-0.4-0.4c-0.1-0.2-0.2-0.4-0.2-0.6v-2h0.3v2
			c0,0.3,0.1,0.5,0.2,0.7c0.2,0.2,0.4,0.3,0.6,0.3c0.2,0,0.5-0.1,0.6-0.3c0.2-0.2,0.2-0.4,0.2-0.7v-1.1c0-0.2,0-0.3-0.1-0.5
			c-0.1-0.1-0.2-0.2-0.3-0.2c-0.1,0-0.2,0-0.2,0l-0.2,0.1l-0.1-0.3c0.1-0.1,0.2-0.1,0.3-0.1c0.1,0,0.2,0,0.3,0
			c0.2,0,0.4,0.1,0.6,0.2c0.1,0.2,0.2,0.4,0.2,0.7v1.2c0,0.2,0,0.4-0.2,0.6c-0.1,0.2-0.2,0.3-0.4,0.4
			C102.4,58.1,102.2,58.1,102,58.1z"/>
		<path class="st1" d="M106,58.1v-2c0.1-0.4-0.2-0.9-0.6-0.9c-0.1,0-0.2,0-0.3,0H104v-0.2h1.1c0.3,0,0.7,0.1,0.9,0.3
			c0.2,0.2,0.3,0.6,0.3,0.9v2L106,58.1z M104,58.1V57c0-0.1,0-0.3,0-0.4c0-0.1,0-0.2,0.1-0.3h0.3c0,0.1-0.1,0.2-0.1,0.3
			c0,0.1,0,0.2,0,0.4v1.1L104,58.1z"/>
		<path id="path1104" class="st2" d="M27,264.9c0.6,1.2,2.2,3.6,2.2,3.6s8.6,36.9,19.3,58.3s13.5,35.4,13.5,35.4v7l3.7,5.6l-2.3,9.3
			l8.9,7.5l16.3,45.6l-1,3.3l11.2,33.5v5.1l2.3,6.5l-0.4,10.7l1,3.7l2.3,2.3v1.4l0.4,1.4l2.3-1.4l3.7-5.6c0.5-0.8,2.5,0.6,2.8,0
			c0.6-1.1-0.2-3.4,0-5.1c0.3-2.4,0.9-4.8,1.9-7c0.2-0.5,1.7,0,1.9-0.5c0.3-1.2-0.7-3.2-0.4-4.7c0.1-0.7,1.3-1.1,1.4-1.9
			c0.4-2.2-0.2-4.8,0.4-7c1.6-5.4,5.4-10.4,6.6-15.9c0.8-4-1.2-8.6-1-12.6c0.1-0.8,1.6-1,1.9-1.9c0.9-3,0.1-6.9,1.4-9.8
			c1.5-3.3,5.3-5.7,7-8.9c0.8-1.6,0.7-3.7,0.4-5.6c-0.4-2.2-1-4.4-1.9-6.5c-0.4-1.1-1-2.2-1.4-3.3c-0.2-0.6-0.7-1.3-0.4-1.9
			c0.6-1.5,2.3-2.7,2.8-4.2s-0.4-3.2,0-4.7c0.4-1.5,1.6-2.5,2.3-3.7c0.3-0.4,0.4-0.9,0.4-1.4c-0.1-1.6-0.5-3.2-1-4.7
			c-0.5-1.3-1.1-2.6-1.9-3.7c-0.4-0.5-1.6-0.8-1.4-1.4c1-3.3,4-6.7,5.1-10.3c0.6-1.7-0.1-3.7,0-5.6c0.1-1.4,0.4-2.8,1-4.2
			c1.5-3.7,3.2-7.3,5.1-10.7c1.4-2.5,4.2-4.4,5.1-7c1-3-0.6-7,0.4-9.8c0.7-1.7,4-2.2,4.7-3.7s-1.1-3.8-1-5.6s1.1-3.1,1.9-4.7
			c0.7-1.7,1.7-3.3,2.8-4.7c1-1,3.6-0.9,3.7-2.3l0.4-8.9l1.9-4.7l2.8-3.7l1.9-6.5l-1.9-5.6l-3.7-6l-2.8-1.9l1.4-6.6l7.4-13l0.4-14.4
			c0.1-5.7,1.3-11.3,2.3-16.8c0.6-3,1.4-6,2.3-8.9c1-3.3,2.5-6.5,3.3-9.8c0.3-1.1,0.3-2.2,0-3.3c-0.2-1.1-1.3-2.2-1.4-3.3
			s0.9-2.2,1-3.3c0.1-1.4-0.1-2.8-0.4-4.2c-0.6-2.1-2.5-4.3-2.3-6c0.1-1.1,2.6-1.6,2.8-2.8c0.3-1.8-0.7-4.1-1.4-6
			c-0.4-1.4-1.6-2.8-1.9-4.2c-0.1-1.3,0-2.5,0.4-3.7c0.4-1.6,1.5-3,1.9-4.7c0.2-0.9-0.1-1.9,0-2.8c0.4-2.2,1.3-4.3,1.9-6.6
			c0.7-2.8,1.9-5.6,1.9-8.4c0-3.7-1.4-7.4-1.9-11.2c-0.5-4.2-1.2-8.4-1-12.6c0.2-3.3,1.6-6.5,2.3-9.8c0.4-1.2,0.5-2.5,0.4-3.7
			c-0.2-1.2-1.6-2.1-1.9-3.3c-0.1-1.1,0-2.2,0.4-3.3c0.3-1.1,1.4-2.1,1.4-3.3c-0.1-2.7-0.6-5.3-1.4-7.9c-0.2-0.8-1.6-1.6-1.4-1.9
			c0.4-0.3,2.3,0.8,3.3,0.4c1.3-0.6,2.4-1.6,3.3-2.8c0.7-0.9,0.5-2.9,1.4-3.3c1.3-0.5,3.6,1,5.1,0.4c1.3-0.4,2-2.4,3.3-3.3
			c1.6-1,3.6-1.3,5.1-2.3c1-0.8,1.3-2.5,2.3-3.3c0.8-0.6,2.2-0.2,2.8-1c2.2-2.5,4.1-5.4,5.6-8.4c0.6-1.3,1-2.7,1-4.2
			c0-0.8-1.2-1.6-1-2.3c1.1-2.7,4.5-5.1,5.1-7.9c0.4-1.6-1.5-3.4-1.9-5.1c-1-4.9-0.5-10.6-2.3-14.9c-0.8-1.7-4.9-1.9-5.1-3.3
			c-0.2-1.6,3.1-3.9,3.7-6c0.2-1.4,0.1-2.8-0.4-4.2c-0.2-0.6-1.2-0.8-1.4-1.4c-0.7-1.7-0.4-4-1.4-5.6c-0.7-1.3-3.6-1.6-3.7-2.8
			c-0.1-1.7,3.1-3.9,3.3-5.7c0.1-1-1.3-2.2-2.3-2.8s-2.2-0.4-3.3-0.5c-1.7-0.1-3.9-0.5-5.1,0c-0.5,0.2,0.4,1.7,0,2.3
			c-0.6,1-1.9,1.9-2.8,2.8c-0.6,0.6-1.1,1.6-1.9,1.9c-1.1,0.4-2.8-0.5-3.7,0c-0.7,0.5-0.4,2.1-1,2.8c-0.1,0.2-0.6,0.1-1,0
			c-1-0.1-2.2,0.1-2.8-0.4c-0.9-0.8-1.3-3.6-1.9-3.7s-0.4,2-1,2.8s-1.4,1.1-1.9,1.9c-0.7,1-1.2,2.1-1.4,3.3
			c-0.1,1.3,0.5,2.8,0.4,4.2c-0.2,1.7-0.5,3.5-1,5.1c-0.3,1.6-0.3,3.3-1,4.7c-0.4,1-1.8,1.5-2.3,2.3c-0.2,0.4,0.4,1.3,0,1.4
			c-1,0.4-2.9-0.3-4.2,0c-0.8,0.3-1.4,0.8-1.9,1.4c-0.4,0.5-0.4,1.6-1,1.9s-1.9-0.2-2.8,0c-1.1,0.2-2.2,0.6-3.3,1
			c-0.8,0.3-1.7,1.3-2.3,1c-1.4-0.7-2.5-2.8-3.7-4.2c-0.6-0.7-1.1-1.6-1.9-1.9c-1.2-0.3-2.5-0.3-3.7,0c-1.9,0.3-3.9,1.4-5.6,1.4
			c-0.6,0-1-1.6-1.4-1.4s-0.7,2.2-1.4,2.3c-1.7,0.2-4-1.8-6-1.4l-5.1,1v5.6c0,2.1-1.3,4-1.9,6c-0.5,1.7-0.9,3.4-1.3,5.1
			c-0.2,1.2,0.3,2.7,0,3.7c-0.2,0.5-1.5,0.6-1.4,1s1.4,0.8,1.9,1.4c0.3,0.4,0.5,0.9,0.4,1.4c-0.1,1.7-0.4,3.5-1,5.1
			c-0.4,1.2-1.1,2.3-1.9,3.3c-1,1.3-2.1,3.1-3.3,3.7c-0.5,0.3-1.3-0.6-1.9-1c-0.8-0.4-1.6-0.9-2.3-1.4c-0.4-0.2-0.5-0.9-1-1
			c-0.7-0.1-1.3,0.1-1.9,0.4c-0.9,0.7-1.5,1.7-1.9,2.8c-0.4,1.4,0,3.1,0,4.7c0,2,0.1,4,0,6c-0.1,1.1,0.6,2.9-0.4,3.3l-1.4,0.4
			l-0.4,4.7l-2.4,14.4l-2.8,11.6l-3.2,12.9l-4.1,17.4L89.3,160l-6.2,19.5l-7.9,18.2L68,212.2l-9.7,15.3l-8.2,11.7l-11,13l-8.1,8.3
			L27,264.9z"/>
	</g>
	<polygon class="st3" points="158.8,276.6 162.4,276.9 165.4,278.1 169.3,280.7 174.1,283.8 175,285.6 173.9,288 172.2,291.4 
		171.7,294.5 168.8,296.6 166.7,296.5 162.5,304.7 159.8,309.1 158.3,309.5 157.3,308.4 157.3,305.6 159.2,301.2 159.9,298.8 
		158.9,292.1 156.9,283.7 156.7,278.3 	"/>
	<polygon class="st3" points="172.5,206.8 174.3,208.2 177.2,207.4 180.3,207.5 181.7,209.5 181.7,212.6 181.2,216.6 180.7,221 
		180.2,225.5 177.6,232.8 177.2,235.7 179,241.4 179.5,243.5 177.5,258.2 176.2,265.3 174.4,267.9 173.4,267.9 172.2,264.1 
		171.2,259.6 169.9,259.2 168.9,260.5 166.5,264.7 164.4,265.3 162.2,264.2 160.9,261.2 160.7,255.3 159.6,240.8 162.2,226.9 
		169.6,211.6 171.7,207.4 	"/>
	<polygon class="st3" points="175.9,62.7 181.5,59.4 184,58.6 185.3,60.4 186.7,67.8 186.6,72.7 185.6,75.5 185.4,78.2 183.3,81.4 
		181.4,83 179.7,83 178.6,81.8 178.6,78.9 177,76.6 175.6,74.3 175,71.3 172.8,70 172,68.3 172.9,65.1 	"/>
	<path id="path1118" class="st2" d="M163,264.8c0.8,0.5,1.8,0.6,2.8,0.3c2.6-1,2.5-6.6,5.2-5.8c1.5,0.4,0.8,13.4,4.8,7
		c0.6-1.2,1-2.5,1.1-3.8c0.8-5.5,1.6-11,2.4-16.5c0.2-1.2,0.3-2.4,0.1-3.6c-0.4-1.4-1-2.8-1.7-4.1c-2.2-5.3,1-7.1,2.2-11.3
		c1-4.2,0.6-8.5,1.8-12.9c0.5-1.9,0.6-4.1-0.5-5.7c-1.5-2.3-2.9-0.9-4.8-1.1c-0.5,0-1,0.9-1.6,0.9c-1.1,0.1-1.3-1.8-2.6-1.2
		c-0.6,0.4-1,0.9-1.3,1.6c-2.2,4.4-4.4,8.7-6.5,13.1c-1,1.9-1.9,3.9-2.6,5.9c-0.5,1.9-0.9,3.7-1.1,5.6c-0.3,1.7-0.5,3.4-0.6,5.1
		c-0.2,2.3-0.3,4.6-0.3,6.8c0.1,3,0.3,6,0.8,9c0.3,2.6-0.4,6.8,0.9,9C161.9,264,162.4,264.5,163,264.8z"/>
	<path class="st2" d="M174.9,286.5c-0.5,1.3-2,2.5-2.5,3.9c-0.2,1-0.3,2.1-0.4,3.1c-0.6,2.3-2.9,3.6-5.2,3.1c-0.1,0-0.1,0-0.2-0.1
		c-1.2,3-5.8,13.4-7.8,13c-2.5-0.4-2.1-4.4-1.3-5.9c0.7-1.2,1.3-2.4,1.8-3.7c0.2-1.3,0.3-2.6,0.1-3.8c-0.6-5.6-2.5-9.9-2.9-15.4
		c-0.1-0.8,0-1.6,0.3-2.3c1.6-3.2,7.8-1.3,9.6,0.5s8,3.9,8.6,6.2C175.1,285.5,175.1,286,174.9,286.5z"/>
	<path class="st4" d="M180.7,65.6c1.1,0.3,0.2,3.2,0.5,5.8c0.8,6.3-0.9,4.6-1.9-0.6C178.9,68.3,180.7,65.6,180.7,65.6z"/>
	<path class="st5" d="M181.3,62.4c0.5-0.1,1.1-0.3,1.4,0c0.5,0.9,0.9,1.9,1,3c0.1,0.8,0.2,1.6,0.2,2.3c0.1,1.2,0.1,2.3,0,3.5
		c-0.1,0.6-0.3,1.2-0.5,1.8c0,0.7-0.1,1.4-0.2,2.1c-0.3,1.4-0.9,2.6-1.8,3.7c-0.3,0.5-0.9,0.6-1.4,0.3c-0.1-0.1-0.3-0.2-0.3-0.3
		c-0.4-0.5-0.1-1.6-0.4-2.5c-0.1-0.5-0.4-1-0.6-1.5c-0.4-0.5-0.8-1.1-1.1-1.7c-0.3-0.8-0.1-1.9-0.5-2.6s-1.2-0.8-1.4-1.3
		c-0.1-0.7,0-1.4,0.3-2c0.1-0.4,0.3-0.8,0.6-1.2c0.4-0.5,0.9-1,1.5-1.3C179.1,63.8,180.2,63,181.3,62.4z"/>
	<path id="path1116" class="st2" d="M178.8,82.4c-0.5-0.7,0.2-2.2,0-3.3c-0.2-0.7-0.5-1.3-1-1.9c-0.5-0.7-1.5-1.1-1.9-1.9
		c-0.6-1.3-0.2-3-1-4.2c-0.5-0.9-2.4-1-2.8-1.9s0.1-2.2,0.4-3.3c0.1-0.7,0.5-1.4,1-1.9c0.9-0.7,1.8-1.3,2.8-1.9
		c1.8-1.2,3.7-2.3,5.6-3.3c0.8-0.3,1.9-0.9,2.3-0.5c1,1,1.4,3.1,1.9,4.7c0.3,1.2,0.4,2.5,0.4,3.7c0.2,1.9,0.2,3.7,0,5.6
		c-0.1,1-0.7,1.9-1,2.8s0.1,2.3-0.4,3.3c-0.9,1.7-2.1,3.1-3.7,4.2C180.5,83.3,179.5,83.1,178.8,82.4z"/>
	<path id="path1118-2" class="st2" d="M163,264.8c0.8,0.5,1.8,0.6,2.8,0.3c2.6-1,2.5-6.6,5.2-5.8c1.5,0.4,0.8,13.4,4.8,7
		c0.6-1.2,1-2.5,1.1-3.8c0.8-5.5,1.6-11,2.4-16.5c0.2-1.2,0.3-2.4,0.1-3.6c-0.3-1.4-1.3-2.6-1.7-4.1c-1.5-5.3,1-7.1,2.2-11.3
		c1-4.2,0.6-8.5,1.8-12.9c0.5-1.9,0.6-4.1-0.5-5.7c-1.5-2.3-2.9-0.9-4.8-1.1c-0.5,0-1,0.9-1.6,0.9c-1.1,0.1-1.3-1.8-2.6-1.2
		c-0.6,0.4-1,0.9-1.3,1.6c-2.2,4.4-4.4,8.7-6.5,13.1c-1,1.9-1.9,3.9-2.6,5.9c-0.5,1.9-0.9,3.7-1.1,5.6c-0.3,1.7-0.5,3.4-0.6,5.1
		c-0.2,2.3-0.3,4.6-0.3,6.8c0.1,3,0.3,6,0.8,9c0.3,2.6-0.4,6.8,0.9,9C161.9,264,162.4,264.5,163,264.8z"/>
	<path class="st5" d="M164,230.2c-0.3,1-0.6,1.9-0.8,2.9c-0.2,0.9-0.3,1.8-0.4,2.7c-0.1,0.8-0.2,1.6-0.3,2.4
		c-0.2,1.9-0.2,3.7-0.2,5.6c0.1,2.5,0.3,5,0.6,7.4c0.3,2.1-0.3,5.6,0.7,7.4c0.3,0.5,0.7,0.9,1.1,1.2c0.6,0.4,1.3,0.5,2,0.3l0.1-0.1
		c2-0.9,2-4.6,4.1-4.7c1.6-0.1,2.4,8.3,4.4,4c0.4-1,0.6-2,0.6-3c0.4-3.6,0.6-7.5,1-10.9c0.1-0.6,0.1-1.1,0.2-1.7
		c0.1-0.5,0.1-1.1,0.1-1.6c0-0.3-0.1-0.7-0.2-1c-0.3-1.1-1.1-2-1.4-3c-1.3-4.3,0.6-6,1.4-9.4c0.1-0.2,0.1-0.4,0.1-0.6
		c0.7-3.4,0.9-6.4,1.7-9.9c0.4-1.6,0.9-3.4,0-4.7c-1.2-1.9-2.3-0.8-3.6-0.9c-0.4,0-0.8,0.7-1.2,0.8c-0.8,0.1-1-1.5-2-0.9
		c-0.4,0.3-0.7,0.6-0.9,1.1c-0.1,0.3-0.3,0.6-0.4,0.8c-1.3,2.7-2.7,5.4-4.1,8.2c-0.7,1.3-1.3,2.6-1.9,4
		C164.5,227.7,164.3,229,164,230.2z"/>
	<path id="path1118-3" class="st4" d="M166.4,254.6c0.4,0.3,1,0.4,1.5,0.2c1.4-0.6,1.6-3.4,3.1-3.8c1.6-0.4,3.8,3.2,4.1,1
		c0.3-2.6-0.3-7,0-9.6c0.1-0.8,0.2-1.5,0.1-2.3c-0.1-0.9-1.1-1.8-1.4-2.7c-1.2-3.4,0.2-5.1,0.8-7.9s1.2-4.8,1.8-7.7
		c0.3-1.2,1.1-2.6,0.6-3.7c-0.8-1.4-1.6-0.6-2.5-0.7c-0.3,0-0.5,0.6-0.9,0.6c-0.6,0.1-0.7-1.2-1.4-0.8c-0.3,0.3-0.6,0.6-0.7,1
		c-1.2,2.8-3.1,5.6-4.3,8.4c-0.5,1.2-1,2.5-1.4,3.8c-0.3,1.2-0.5,2.4-0.6,3.6c-0.1,1.1-0.3,2.2-0.4,3.3c-0.1,1.5-0.1,2.9-0.1,4.4
		c0,1.9,0.2,3.9,0.4,5.8c0.2,1.6-0.2,4.4,0.5,5.8C165.8,254.1,166.1,254.4,166.4,254.6z"/>
	<path id="path1118-4" class="st4" d="M167.1,250.4c0.2,0.2,0.4,0.3,0.7,0.2c0.7-0.4,0.9-2.5,1.6-2.7s3.3,2.4,3.6,0.8
		c0.3-1.9-0.3-4.5,0-6.4c0.1-0.9,0.1-1.7,0.1-2.6c0-0.7-1.4-1.1-1.4-1.8c-0.4-2.6,0.4-4.2,0.9-6.3s0.5-3.2,1-5.3
		c0.2-0.9,0.3-1.9,0.1-2.8c-0.1-0.5-1.7-0.4-1.7-0.5c-0.7,0.9-1.2,1.9-1.6,3l-1.2,3.6c-0.3,0.9-0.6,1.9-0.8,2.8
		c-0.2,0.9-0.3,1.8-0.5,2.7s-0.2,1.6-0.3,2.4c-0.1,1.1-0.2,2.2-0.3,3.3c-0.1,1.5-0.1,2.9-0.1,4.4c-0.2,1.4-0.2,2.9-0.1,4.3
		C166.9,249.9,167,250.2,167.1,250.4z"/>
	<path class="st6" d="M168.6,239c0,0-0.4,6-0.5,7.6s1.8-1.5,2.5-0.3c1.3,2.5,1.3-2.1,1-4.3c-0.1-1.3-1.4-2-1.4-2.9s0.3-7.1-0.3-7
		C169.1,232.3,168.6,239,168.6,239z"/>
	<path class="st7" d="M159.8,279.3c1.9-0.6,4.1,3.4,6.9,4s5.1,0.3,3.9,3.4s-1.1,6.2-2.4,6.3s-2.3-1-3.5,1.5c-0.8,1.8-1.5,3.6-2,5.5
		c-0.1,0.5-2,7-3.2,6.2c-1.5-1,1.8-6.1,1.9-8.2c0.2-4.1-2.3-12.3-2.2-16.5C159.3,281,159.3,279.5,159.8,279.3z"/>
	<path class="st4" d="M163.3,284.2c-0.5-0.4-1.2-0.3-1.6,0.2c-0.2,0.2-0.3,0.5-0.3,0.8c0,0.3,0.1,0.7,0.1,1.1c0.4,2.9-0.4,3.9,1.1,4
		s3,1.5,3.6,0.3s3.6-4.1,2-4.6s-3.4-0.5-4.4-1.2C163.7,284.6,163.5,284.4,163.3,284.2z"/>
	<g id="כנף_1">
		<path class="st0" d="M114.9,75.9c0,4.7,3.8,8.5,8.5,8.5h28.4c4.6,0,8.4,3.8,8.4,8.4v2.6h1.8V75.9c0-4.7-3.8-8.5-8.5-8.5h-30
			C118.7,67.4,114.9,71.2,114.9,75.9z"/>
		
			<image style="overflow:visible;enable-background:new    ;" width="210" height="210" xlink:href="F51A76CF.png"  transform="matrix(7.000000e-02 0 0 7.000000e-02 116.0275 68.7001)">
		</image>
		<path class="st1" d="M139.5,75.5H138v-4.2l-1.3,0.3v-1.2l2.7-0.9h0.1V75.5z"/>
		<path class="st1" d="M147.8,70.6v6.7h-1.5v-5.5h-0.9c0,0.1,0,0.2-0.1,0.3c0,0.1,0,0.2,0,0.3s0,0.2,0,0.3V73h0.2h0.1v1
			c-0.2,0.1-0.4,0.1-0.6,0.1c-0.2,0-0.4,0-0.6-0.1c-0.2,0-0.4-0.1-0.5-0.2v-0.6c0-0.2,0-0.3,0-0.5c0-0.2,0.1-0.3,0.1-0.5
			c0-0.1,0.1-0.3,0.1-0.4h-0.5v-1.2L147.8,70.6z"/>
		<path class="st1" d="M149.7,75.6c-0.2,0-0.3,0-0.5,0c-0.2,0-0.4-0.1-0.5-0.1v-1.2h0.6c0.1,0,0.3,0,0.4-0.1
			c0.1-0.1,0.1-0.3,0.1-0.4v-2h-0.8v-1.2h2.4v3.4c0,0.5-0.1,0.9-0.4,1.2C150.6,75.5,150.1,75.6,149.7,75.6z"/>
		<path class="st1" d="M153.6,75.6c-0.2,0-0.5,0-0.7,0c-0.3,0-0.5-0.1-0.8-0.1l0.2-1.1c0.3,0.1,0.7,0.1,1,0.1c0.3,0,0.6-0.1,0.8-0.2
			c0.2-0.2,0.3-0.4,0.2-0.7v-1.8h-2.1v-1.2h3.6v2.7c0,0.5-0.1,0.9-0.3,1.4c-0.2,0.3-0.5,0.6-0.8,0.8
			C154.5,75.5,154.1,75.6,153.6,75.6z"/>
		<path class="st1" d="M138.7,78.9h2.5v0.3h-0.5v2.9h-0.3v-2.9h-1.6L138.7,78.9z"/>
		<path class="st1" d="M142,82.1v-2.9h-0.4v-0.3h0.8v3.2H142z"/>
		<path class="st1" d="M143,78.9h2.5v0.3h-0.5v2.9h-0.3v-2.9H143V78.9z"/>
		<path class="st1" d="M148.7,78.9c0.3,0,0.7,0.1,0.9,0.3c0.2,0.3,0.3,0.6,0.3,0.9v2h-0.3v-2c0-0.3-0.1-0.5-0.2-0.7
			c-0.2-0.2-0.4-0.3-0.7-0.2h-0.5c-0.1,0.1-0.1,0.3-0.2,0.4c0,0.2-0.1,0.4-0.1,0.5v1.2c0,0.2-0.1,0.4-0.2,0.6
			c-0.1,0.1-0.3,0.2-0.6,0.2h-0.1H147v-0.3h0.2c0.1,0,0.3,0,0.4-0.1c0.1-0.1,0.1-0.3,0.1-0.4v-1.1c0-0.2,0-0.4,0.1-0.6
			c0-0.2,0.1-0.3,0.2-0.4h-0.6v-0.3L148.7,78.9z"/>
		<path class="st1" d="M150.9,82.1l0.3-2.1c0-0.2,0.1-0.3,0.1-0.4c0.1-0.1,0.1-0.2,0.3-0.3l0,0l0,0l0,0l-0.3,0.1l-0.4,0.1l-0.1-0.3
			l0.4-0.1l0.5-0.1h0.4c0.3,0,0.7,0.1,0.9,0.3c0.2,0.3,0.4,0.6,0.3,1v1.8h-1.2v-0.3h0.9v-1.7c0-0.3-0.1-0.5-0.2-0.7
			c-0.2-0.2-0.4-0.3-0.7-0.2c-0.2,0-0.4,0.1-0.5,0.2c-0.1,0.2-0.2,0.4-0.3,0.6l-0.3,2.2L150.9,82.1z"/>
		<path class="st1" d="M155.8,82.1v-2.3c0-0.2-0.1-0.3-0.2-0.5c-0.1-0.1-0.3-0.2-0.4-0.2H154v-0.3h1.1c0.3,0,0.5,0.1,0.7,0.3
			c0.2,0.2,0.3,0.4,0.3,0.7v2.2H155.8z"/>
	</g>
	<g id="כנף_15">
		<path class="st0" d="M41.4,146.3c0,4.7,3.8,8.5,8.5,8.5h32.6c4.7,0,8.4,3.8,8.4,8.4v2.6h1.8v-19.5c0-4.7-3.8-8.5-8.5-8.5H49.9
			C45.2,137.8,41.4,141.6,41.4,146.3z"/>
		<path class="st1" d="M64.5,145.8H63v-4.2l-1.3,0.4v-1.2l2.7-0.9h0.1V145.8z"/>
		<path class="st1" d="M66.3,142.9l0.4-3.1h3.5v1.2h-2.3l-0.1,1l0.3-0.1c0.2-0.1,0.3-0.1,0.5-0.1c0.3,0,0.7,0.1,1,0.2
			c0.3,0.2,0.5,0.4,0.6,0.7c0.2,0.3,0.2,0.7,0.2,1.1c0,0.3-0.1,0.7-0.2,1c-0.2,0.3-0.4,0.6-0.7,0.8c-0.4,0.2-0.8,0.3-1.2,0.3
			c-0.3,0-0.5,0-0.8-0.1c-0.2-0.1-0.5-0.2-0.7-0.4c-0.2-0.2-0.4-0.3-0.5-0.6c-0.1-0.2-0.2-0.5-0.2-0.7h1.5c0,0.2,0.1,0.3,0.2,0.4
			c0.1,0.1,0.3,0.2,0.4,0.2c0.1,0,0.3,0,0.4-0.1c0.1-0.1,0.2-0.2,0.2-0.4c0-0.1,0-0.3,0.1-0.4c0-0.2,0-0.3-0.1-0.5
			c0-0.1-0.1-0.2-0.3-0.3c-0.1-0.1-0.3-0.1-0.5-0.1c-0.2,0-0.3,0-0.4,0.1c-0.1,0.1-0.2,0.1-0.2,0.2L66.3,142.9z"/>
		<path class="st1" d="M77.6,140.9v6.6h-1.5v-5.5h-1c0,0.1-0.1,0.2-0.1,0.3v0.3c0,0.1,0,0.2,0,0.3v0.3c0.1,0,0.1,0,0.2,0h0.1v1
			c-0.2,0-0.4,0.1-0.6,0.1c-0.2,0-0.4,0-0.7-0.1c-0.2-0.1-0.4-0.1-0.5-0.2v-0.6c0-0.2,0-0.3,0-0.5c0-0.2,0-0.3,0.1-0.5
			c0-0.1,0.1-0.3,0.2-0.4h-0.5v-1.2H77.6z"/>
		<path class="st1" d="M79.5,145.9c-0.2,0-0.3,0-0.5,0l-0.5-0.1v-1.2c0.2,0,0.4,0,0.6,0c0.1,0,0.3,0,0.4-0.1
			c0.1-0.1,0.1-0.3,0.1-0.4v-2h-0.8v-1.2h2.4v3.4c0,0.5-0.1,0.9-0.4,1.2C80.4,145.8,80,145.9,79.5,145.9z"/>
		<path class="st1" d="M83.5,145.9c-0.2,0-0.5,0-0.7,0l-0.8-0.1l0.2-1.1c0.3,0.1,0.7,0.1,1,0.1c0.3,0,0.6-0.1,0.8-0.2
			c0.2-0.2,0.3-0.4,0.3-0.7v-1.7h-2.1v-1.2h3.6v2.7c0,0.5-0.1,0.9-0.3,1.4c-0.2,0.3-0.5,0.6-0.8,0.8
			C84.3,145.9,83.9,145.9,83.5,145.9z"/>
		<path class="st1" d="M67.8,152.4v-0.3h1.8H70h0.4v0.3L67.8,152.4z M69.6,152.3v-1.9c0-0.3-0.1-0.5-0.2-0.7
			c-0.2-0.2-0.5-0.2-0.7-0.2H68v-0.3h0.7c0.3,0,0.7,0.1,0.9,0.3c0.2,0.3,0.3,0.6,0.3,0.9v1.9H69.6z"/>
		<path class="st1" d="M71.1,152.4v-2.9h-0.4v-0.3h0.8v3.2H71.1z"/>
		<path class="st1" d="M72.1,149.2h2.5v0.3h-0.5v2.9h-0.3v-2.9h-1.7V149.2z"/>
		<path class="st1" d="M78.6,152.4v-2c0-0.3,0-0.5-0.2-0.7c-0.2-0.2-0.5-0.2-0.7-0.2h-1.1v-0.3h1.1c0.4,0,0.7,0.1,1,0.3
			c0.2,0.3,0.3,0.6,0.3,0.9v2H78.6z M76.6,152.4v-1.1c0-0.1,0-0.3,0-0.4c0-0.1,0.1-0.2,0.1-0.3H77c0,0.1,0,0.2-0.1,0.3
			c0,0.1,0,0.2,0,0.4v1.1H76.6z"/>
		<path class="st1" d="M79.5,149.2H82v0.3h-0.5v2.9h-0.3v-2.9h-1.6V149.2z"/>
		<path class="st1" d="M83,149.2v2.8c0.2,0.1,0.4,0.1,0.6,0.2c0.2,0,0.4,0.1,0.6,0.1c0.2,0,0.5,0,0.7-0.1c0.2-0.1,0.4-0.2,0.5-0.3
			c0.1-0.2,0.2-0.4,0.2-0.6v-1.9h0.3v2c0,0.2,0,0.4-0.1,0.6c-0.1,0.2-0.2,0.3-0.4,0.4c-0.2,0.1-0.4,0.2-0.6,0.2
			c-0.2,0-0.4,0.1-0.7,0.1c-0.3,0-0.5,0-0.8-0.1c-0.3-0.1-0.5-0.1-0.7-0.3v-2.9L83,149.2z M83.9,151.6c0.1-0.1,0.2-0.2,0.2-0.3
			c0-0.1,0.1-0.3,0.1-0.4v-1.7h0.3v1.6c0,0.2,0,0.3-0.1,0.5c-0.1,0.1-0.1,0.2-0.2,0.3L83.9,151.6z"/>
		
			<image style="overflow:visible;enable-background:new    ;" width="500" height="500" xlink:href="F51A76CA.png"  transform="matrix(3.000000e-02 0 0 3.000000e-02 42.9875 139.4201)">
		</image>
	</g>
	<g id="קריה">
		<path class="st0" d="M24.2,165.1c0,4.7,3.8,8.5,8.5,8.5h47c4.7,0,8.4,3.7,8.4,8.4c0,0,0,0,0,0v2.6h1.8v-19.5
			c0-4.7-3.8-8.5-8.5-8.5H32.7C28,156.6,24.2,160.4,24.2,165.1z"/>
		<path class="st1" d="M44.1,164.7h-1.5v-4.2l-1.3,0.4v-1.2l2.7-0.9h0.1L44.1,164.7z"/>
		<path class="st1" d="M49,164.7h-1.5v-4.2l-1.3,0.4v-1.2l2.7-0.9H49V164.7z"/>
		<path class="st1" d="M53.8,164.7h-1.5v-4.2l-1.3,0.4v-1.2l2.7-0.9h0.1V164.7z"/>
		<path class="st1" d="M61,164.7l-3.4-5h1.7l3.4,5H61z M57.9,164.7v-1.6c0-0.4,0.1-0.9,0.3-1.2c0.2-0.3,0.5-0.5,0.9-0.6l0.5,0.8
			c-0.1,0.1-0.2,0.3-0.2,0.4v2.3H57.9z M62.8,159.7l-1.6,3.2l-1-1.2l0.9-2L62.8,159.7z"/>
		<path class="st1" d="M63.6,159.8c0-0.2,0-0.4,0.1-0.6c0.1-0.2,0.2-0.4,0.3-0.6c0.1-0.2,0.2-0.3,0.4-0.4l0.6,0.4
			c-0.1,0.2-0.2,0.3-0.2,0.5c-0.1,0.2-0.1,0.5-0.1,0.7v0.7h-1.1V159.8z M65.1,159.8c0-0.2,0-0.4,0.1-0.6c0.1-0.2,0.2-0.4,0.3-0.6
			c0.1-0.2,0.2-0.3,0.4-0.4l0.6,0.4c-0.1,0.2-0.2,0.3-0.2,0.5c-0.1,0.2-0.1,0.5-0.1,0.7v0.7h-1.1V159.8z"/>
		<path class="st1" d="M67.4,164.7v-5h2.3c0.5,0,1.1,0.1,1.5,0.5c0.4,0.4,0.5,0.9,0.5,1.4v3.1h-1.6v-3.2c0-0.1,0-0.3-0.1-0.4
			c-0.1-0.1-0.2-0.1-0.3-0.1H69v3.8L67.4,164.7z"/>
		<path class="st1" d="M72.8,164.7l0.3-2.6c0-0.2,0.1-0.4,0.2-0.6c0.1-0.2,0.2-0.3,0.3-0.5l0,0l0,0l0,0c-0.1,0-0.2,0-0.3,0.1
			l-0.3,0.1l-0.3-1.2c0.2-0.1,0.5-0.2,0.7-0.2c0.3-0.1,0.6-0.1,0.8-0.1c0.3,0,0.6,0,0.8,0c0.7,0,1.3,0.2,1.8,0.6
			c0.4,0.5,0.7,1.1,0.6,1.8v2.7h-2.2v-1.2h0.7v-1.8c0-0.2,0-0.5-0.2-0.7c-0.1-0.1-0.2-0.2-0.4-0.2c-0.2,0-0.4,0.1-0.5,0.3
			c-0.1,0.2-0.2,0.5-0.2,0.8l-0.3,2.8L72.8,164.7z"/>
		<path class="st1" d="M78.5,164.7l0.3-2.6c0-0.2,0.1-0.4,0.2-0.6c0.1-0.2,0.2-0.3,0.3-0.5l0,0l0,0l0,0c-0.1,0-0.2,0-0.3,0.1
			l-0.3,0.1l-0.3-1.2c0.2-0.1,0.5-0.2,0.7-0.2c0.3-0.1,0.6-0.1,0.8-0.1c0.3,0,0.6,0,0.8,0c0.7,0,1.3,0.2,1.8,0.6
			c0.4,0.5,0.7,1.1,0.6,1.8v2.7h-2.2v-1.2h0.7v-1.8c0-0.2,0-0.5-0.1-0.7c-0.1-0.1-0.2-0.2-0.4-0.2c-0.2,0-0.4,0.1-0.5,0.3
			c-0.1,0.2-0.2,0.5-0.2,0.8l-0.3,2.8L78.5,164.7z"/>
		<path class="st1" d="M71.9,171.3v-2c0.1-0.4-0.2-0.9-0.6-0.9c-0.1,0-0.2,0-0.3,0h-1.1v-0.3H71c0.3,0,0.7,0.1,0.9,0.3
			c0.2,0.2,0.3,0.6,0.3,0.9v2H71.9z M69.9,171.3v-1.1c0-0.1,0-0.3,0-0.4c0-0.1,0-0.2,0.1-0.3h0.3c0,0.1-0.1,0.2-0.1,0.3
			c0,0.1,0,0.2,0,0.4v1.1H69.9z"/>
		<path class="st1" d="M73.5,169.8v-1.5h-0.6v-0.3h1v1.8H73.5z"/>
		<path class="st1" d="M76.2,171.3V169c0-0.3-0.2-0.6-0.5-0.6c0,0,0,0-0.1,0h-1.1v-0.3h1.1c0.3,0,0.5,0.1,0.7,0.2
			c0.2,0.2,0.3,0.4,0.3,0.7v2.3L76.2,171.3z"/>
		<path class="st1" d="M78.5,171.3V171c0.3,0,0.5-0.1,0.7-0.3c0.2-0.2,0.3-0.4,0.3-0.7v-1.7h-2v-0.3h2.3v2c0,0.2,0,0.4-0.2,0.6
			c-0.1,0.2-0.3,0.3-0.4,0.4C79,171.2,78.8,171.3,78.5,171.3z M77.5,172.4V170c0-0.1,0-0.3,0-0.4c0-0.1,0-0.2,0.1-0.3h0.3
			c0,0.1-0.1,0.2-0.1,0.3c0,0.1,0,0.2,0,0.4v2.4L77.5,172.4z"/>
		<path class="st1" d="M82.8,171.3v-2c0.1-0.4-0.2-0.8-0.6-0.9c-0.1,0-0.2,0-0.3,0h-1.1v-0.3h1.1c0.4,0,0.7,0.1,1,0.3
			c0.2,0.2,0.3,0.6,0.3,0.9v2H82.8z M80.8,171.3v-1.1c0-0.1,0-0.3,0-0.4c0-0.1,0-0.2,0.1-0.3h0.3c0,0.1,0,0.2-0.1,0.3
			c0,0.1,0,0.2,0,0.4v1.1H80.8z"/>
		
			<image style="overflow:visible;enable-background:new    ;" width="170" height="170" xlink:href="F51A76CB.png"  transform="matrix(8.000000e-02 0 0 8.000000e-02 25.4175 157.9101)">
		</image>
	</g>
	<g id="בח_א_30">
		<path class="st0" d="M10,201.3c0,5.1,4.1,9.2,9.1,9.2h41.8c5,0,9,4,9,9.1c0,0,0,0,0,0v2.8h1.9v-21c0-5.1-4.1-9.2-9.1-9.2H19.1
			C14.1,192.2,10,196.3,10,201.3z"/>
		<path class="st1" d="M33.3,197.4h1c0.3,0,0.6,0,0.9,0.1c0.2,0.1,0.5,0.2,0.7,0.3c0.2,0.1,0.3,0.3,0.4,0.5c0.1,0.2,0.2,0.5,0.2,0.7
			c0,0.4-0.1,0.8-0.3,1.1c-0.2,0.3-0.5,0.5-0.9,0.6c-0.4,0.2-0.8,0.2-1.2,0.2c-0.3,0-0.5,0-0.8-0.1c-0.3-0.1-0.5-0.2-0.7-0.3
			c-0.2-0.1-0.4-0.3-0.5-0.6c-0.1-0.3-0.2-0.6-0.2-0.9h1.6c0,0.1,0,0.2,0.1,0.3c0.1,0.1,0.2,0.2,0.3,0.2c0.1,0.1,0.2,0.1,0.4,0.1
			c0.2,0,0.5-0.1,0.6-0.2c0.1-0.1,0.2-0.3,0.2-0.5c0-0.2,0-0.3-0.1-0.5c-0.1-0.1-0.2-0.2-0.3-0.2c-0.1-0.1-0.3-0.1-0.5-0.1h-0.7
			L33.3,197.4z M34,196.9c0.1,0,0.3,0,0.4-0.1c0.1-0.1,0.2-0.1,0.2-0.2c0.1-0.1,0.1-0.3,0.1-0.4c0-0.1,0-0.2-0.1-0.3
			c0-0.1-0.1-0.2-0.2-0.2c-0.1-0.1-0.3-0.1-0.4-0.1c-0.1,0-0.2,0-0.3,0c-0.1,0-0.2,0.1-0.2,0.2c-0.1,0.1-0.1,0.2-0.1,0.2h-1.6
			c0-0.3,0.1-0.7,0.3-0.9c0.2-0.3,0.5-0.5,0.8-0.6c0.3-0.1,0.7-0.2,1.1-0.2c0.4,0,0.8,0.1,1.2,0.2c0.3,0.1,0.6,0.3,0.8,0.6
			c0.2,0.3,0.3,0.7,0.3,1c0,0.2-0.1,0.4-0.2,0.6c-0.1,0.2-0.3,0.4-0.4,0.5c-0.2,0.1-0.4,0.3-0.7,0.3c-0.3,0.1-0.5,0.1-0.8,0.1h-1
			v-0.8L34,196.9z"/>
		<path class="st1" d="M41.6,198.2c0,0.5-0.1,1-0.3,1.5c-0.2,0.4-0.4,0.7-0.8,0.9c-0.4,0.2-0.8,0.3-1.2,0.3c-0.4,0-0.8-0.1-1.2-0.3
			c-0.4-0.2-0.6-0.5-0.8-0.9c-0.2-0.5-0.3-1-0.3-1.5V197c0-0.5,0.1-1,0.3-1.5c0.2-0.4,0.4-0.7,0.8-0.9c0.7-0.4,1.6-0.4,2.3,0
			c0.3,0.2,0.6,0.5,0.8,0.9c0.2,0.5,0.3,1,0.3,1.5V198.2z M40,196.8c0-0.2,0-0.5-0.1-0.7c0-0.1-0.1-0.3-0.2-0.4
			c-0.1-0.1-0.2-0.1-0.4-0.1c-0.1,0-0.3,0-0.4,0.1c-0.1,0.1-0.2,0.2-0.2,0.4c-0.1,0.2-0.1,0.5-0.1,0.7v1.6c0,0.2,0,0.5,0.1,0.7
			c0,0.1,0.1,0.3,0.2,0.4c0.1,0.1,0.2,0.1,0.4,0.1c0.1,0,0.2,0,0.3-0.1c0.1-0.1,0.2-0.2,0.2-0.4c0.1-0.2,0.1-0.5,0.1-0.7V196.8z"/>
		<path class="st1" d="M48.2,200.8l-3.6-5.4h1.8l3.6,5.4H48.2z M44.8,200.8v-1.7c0-0.5,0.1-0.9,0.3-1.3c0.2-0.3,0.6-0.6,1-0.7
			l0.6,0.8c-0.1,0.1-0.2,0.3-0.2,0.4v2.4L44.8,200.8z M50.1,195.5l-1.7,3.4l-1.1-1.3l0.9-2.2L50.1,195.5z"/>
		<path class="st1" d="M50.9,195.5c0-0.2,0-0.4,0.1-0.6c0.1-0.2,0.2-0.4,0.3-0.6c0.1-0.2,0.3-0.3,0.4-0.5l0.7,0.4
			c-0.1,0.2-0.2,0.4-0.3,0.5c-0.1,0.2-0.1,0.5-0.1,0.8v0.8h-1.1V195.5z M52.5,195.5c0-0.2,0-0.4,0.1-0.6c0.1-0.2,0.2-0.4,0.3-0.6
			c0.1-0.2,0.3-0.3,0.4-0.5l0.7,0.4c-0.1,0.2-0.2,0.4-0.3,0.5c-0.1,0.2-0.1,0.5-0.1,0.8v0.8h-1.1V195.5z"/>
		<path class="st1" d="M55,200.8v-5.4h2.5c0.6,0,1.1,0.1,1.6,0.5c0.4,0.4,0.6,0.9,0.5,1.5v3.3H58v-3.5c0-0.1,0-0.3-0.1-0.4
			c-0.1-0.1-0.2-0.2-0.3-0.2h-0.8v4L55,200.8z"/>
		<path class="st1" d="M60.4,200.8v-1.3h2.4l1.7-0.1l0.6,0.1v1.2H60.4z M62.8,200.5v-3.2c0-0.2-0.1-0.3-0.2-0.4
			c-0.1-0.1-0.3-0.2-0.5-0.1h-1.5v-1.3h1.6c0.6,0,1.1,0.2,1.6,0.5c0.4,0.4,0.6,0.9,0.6,1.4v3L62.8,200.5z"/>
		<path class="st1" d="M46.3,207.9v-3.4H49v3.4H46.3z M46.7,207.6h1.9v-2.8h-1.9L46.7,207.6z"/>
		<path class="st1" d="M50.4,206.4v-1.5h-0.7v-0.3h1.1v1.9L50.4,206.4z"/>
		<path class="st1" d="M51.8,207.9v-3.4H53c0.4,0,0.7,0.1,1,0.3c0.2,0.3,0.4,0.6,0.3,1v2.2H54v-2.2c0-0.3-0.1-0.6-0.2-0.8
			c-0.2-0.2-0.5-0.3-0.8-0.2h-0.8v3.1L51.8,207.9z"/>
		<path class="st1" d="M55.3,207.9l0.3-2.3c0-0.2,0.1-0.3,0.2-0.5c0.1-0.1,0.2-0.2,0.3-0.3l0,0l0,0l0,0l-0.3,0.1l-0.4,0.1l-0.1-0.3
			l0.5-0.1l0.5-0.1h0.5c0.4,0,0.7,0.1,1,0.4c0.3,0.3,0.4,0.7,0.3,1.1v2.1h-1.3v-0.3h1v-1.8c0-0.3-0.1-0.6-0.2-0.8
			c-0.2-0.2-0.4-0.3-0.7-0.3c-0.2,0-0.4,0.1-0.5,0.2c-0.2,0.2-0.3,0.4-0.3,0.6l-0.3,2.3L55.3,207.9z"/>
		<path class="st1" d="M58.7,204.8v-1.4h0.4v1.1h2v0.3H58.7z M61.2,204.8l-1.3,3.2h-0.4l1.4-3.4h0.3L61.2,204.8z"/>
		<path class="st1" d="M63.1,208c-0.2,0-0.3,0-0.5,0c-0.2,0-0.4-0.1-0.5-0.1l0.1-0.3c0.2,0,0.3,0.1,0.5,0.1c0.1,0,0.3,0,0.5,0
			c0.3,0,0.6-0.1,0.8-0.3c0.2-0.2,0.3-0.5,0.3-0.7v-1.8h-1.5c-0.1,0.1-0.1,0.3-0.2,0.5c0,0.2-0.1,0.4-0.1,0.6v0.3l0.2,0.1H63v0.3
			h-0.5h-0.3l-0.3-0.1v-0.5c0-0.2,0-0.4,0.1-0.6c0-0.2,0.1-0.3,0.2-0.5h-0.4v-0.3h2.6v2.1c0,0.3-0.1,0.5-0.2,0.8
			c-0.1,0.2-0.3,0.4-0.5,0.5C63.6,208,63.3,208,63.1,208z"/>
		
			<image style="overflow:visible;enable-background:new    ;" width="350" height="350" xlink:href="F51A76D5.png"  transform="matrix(4.286074e-02 0 0 4.307834e-02 11.4045 193.618)">
		</image>
	</g>
	<g id="בח_א_8">
		<path class="st0" d="M148.8,184.2c0,4.7-3.8,8.5-8.5,8.5h-34.2c-4.7,0-8.4,3.8-8.4,8.4v2.6h-1.8v-19.5c0-4.7,3.8-8.5,8.5-8.5
			c0,0,0,0,0,0h35.9C145,175.7,148.8,179.5,148.8,184.2z"/>
		<path class="st1" d="M107.8,182.1c0,0.7-0.4,1.3-1,1.5c-0.7,0.3-1.5,0.3-2.2,0c-0.3-0.1-0.6-0.3-0.8-0.6c-0.2-0.3-0.3-0.6-0.3-1
			c0-0.3,0.1-0.6,0.3-0.9c0.2-0.3,0.5-0.5,0.8-0.6c0.7-0.3,1.5-0.3,2.2,0c0.3,0.1,0.5,0.3,0.7,0.6
			C107.7,181.5,107.8,181.8,107.8,182.1z M107.7,179.4c0,0.3-0.1,0.6-0.3,0.8c-0.2,0.2-0.4,0.4-0.7,0.6c-0.3,0.1-0.7,0.2-1,0.2
			c-0.3,0-0.7-0.1-1-0.2c-0.3-0.1-0.5-0.3-0.7-0.6c-0.2-0.2-0.3-0.5-0.3-0.8c0-0.3,0.1-0.7,0.3-0.9c0.2-0.3,0.4-0.5,0.7-0.6
			c0.6-0.2,1.4-0.2,2,0c0.3,0.1,0.5,0.3,0.7,0.6C107.6,178.8,107.7,179.1,107.7,179.4L107.7,179.4z M106.3,182c0-0.1,0-0.3-0.1-0.4
			c0-0.1-0.1-0.2-0.2-0.2c-0.1-0.1-0.2-0.1-0.3-0.1c-0.1,0-0.2,0-0.3,0.1c-0.1,0.1-0.2,0.1-0.2,0.2c-0.1,0.1-0.1,0.2-0.1,0.4
			c0,0.1,0,0.2,0.1,0.4c0.1,0.1,0.1,0.2,0.2,0.2c0.1,0.1,0.2,0.1,0.3,0.1c0.1,0,0.2,0,0.3-0.1c0.1-0.1,0.2-0.1,0.2-0.2
			C106.3,182.2,106.3,182.1,106.3,182z M106.2,179.5c0-0.1,0-0.2,0-0.3c0-0.1-0.1-0.2-0.2-0.2c-0.1-0.1-0.2-0.1-0.3-0.1
			c-0.1,0-0.2,0-0.3,0.1c-0.1,0.1-0.1,0.1-0.2,0.2c0,0.1-0.1,0.2-0.1,0.3c0,0.1,0,0.2,0.1,0.3c0,0.1,0.1,0.2,0.2,0.2
			c0.2,0.1,0.4,0.1,0.6,0c0.1-0.1,0.1-0.1,0.2-0.2C106.2,179.7,106.2,179.6,106.2,179.5z"/>
		<path class="st1" d="M114,183.8l-3.4-5h1.7l3.4,5H114z M110.8,183.8v-1.6c0-0.4,0.1-0.8,0.3-1.2c0.2-0.3,0.5-0.5,0.9-0.7l0.5,0.8
			c-0.1,0.1-0.2,0.3-0.2,0.4v2.3L110.8,183.8z M115.7,178.8l-1.6,3.2l-1-1.2l0.9-2L115.7,178.8z"/>
		<path class="st1" d="M116.5,178.9c0-0.2,0-0.4,0.1-0.6c0.1-0.2,0.2-0.4,0.3-0.6c0.1-0.2,0.2-0.3,0.4-0.4l0.6,0.4
			c-0.1,0.2-0.2,0.3-0.2,0.5c-0.1,0.2-0.1,0.5-0.1,0.7v0.7h-1.1V178.9z M118,178.9c0-0.2,0-0.4,0.1-0.6c0.1-0.2,0.2-0.4,0.3-0.6
			c0.1-0.2,0.2-0.3,0.4-0.4l0.6,0.4c-0.1,0.2-0.2,0.3-0.2,0.5c-0.1,0.2-0.1,0.5-0.1,0.7v0.7H118V178.9z"/>
		<path class="st1" d="M120.4,183.8v-5h2.3c0.5,0,1.1,0.1,1.5,0.5c0.4,0.4,0.5,0.9,0.5,1.4v3.1h-1.6v-3.2c0-0.1,0-0.3-0.1-0.4
			c-0.1-0.1-0.2-0.1-0.3-0.1h-0.8v3.8L120.4,183.8z"/>
		<path class="st1" d="M125.3,183.8v-1.2h2.2l1.6-0.1l0.6,0.1v1.1H125.3z M127.6,183.4v-2.9c0-0.1,0-0.3-0.2-0.4
			c-0.1-0.1-0.3-0.1-0.4-0.1h-1.4v-1.2h1.5c0.5,0,1.1,0.1,1.5,0.5c0.4,0.3,0.6,0.8,0.5,1.3v2.8L127.6,183.4z"/>
		<path class="st1" d="M118.1,187.2v4.3h-0.3v-4.1h-1.3c-0.1,0.1-0.1,0.2-0.1,0.3c0,0.1-0.1,0.2-0.1,0.4c0,0.1,0,0.2,0,0.4v0.3
			c0.1,0,0.1,0.1,0.2,0.1h0.3v0.3h-0.4l-0.3-0.1c-0.1,0-0.2-0.1-0.3-0.1v-0.5c0-0.1,0-0.3,0-0.4c0-0.1,0.1-0.3,0.1-0.4
			c0-0.1,0.1-0.2,0.2-0.3h-0.4v-0.3L118.1,187.2z"/>
		<path class="st1" d="M119.3,190.4v-2.9h-0.4v-0.3h0.8v3.2L119.3,190.4z"/>
		<path class="st1" d="M120.8,190.4h-0.3h-0.2v-0.3c0.1,0,0.3,0,0.4,0c0.1,0,0.3,0,0.4-0.1c0.1-0.1,0.1-0.3,0.1-0.4v-2.1h-0.7v-0.3
			h1v2.4c0,0.2,0,0.4-0.2,0.6C121.2,190.4,121,190.4,120.8,190.4z"/>
		<path class="st1" d="M123.7,187.5v-1.3h0.3v1h1.9v0.3L123.7,187.5z M126,187.4l-1.2,3h-0.4l1.3-3.2h0.3V187.4z"/>
		<path class="st1" d="M128,187.2c0.4,0,0.7,0.1,1,0.3c0.2,0.3,0.3,0.6,0.3,0.9v2H129v-2c0-0.3,0-0.5-0.2-0.7
			c-0.2-0.2-0.4-0.2-0.7-0.2h-0.5c-0.1,0.1-0.2,0.3-0.2,0.4c0,0.2-0.1,0.4-0.1,0.5v1.1c0,0.2-0.1,0.4-0.2,0.6
			c-0.1,0.1-0.3,0.2-0.6,0.2h-0.1h-0.1v-0.3h0.2c0.1,0,0.3,0,0.4-0.1c0.1-0.1,0.1-0.3,0.1-0.4v-1.1c0-0.2,0-0.4,0.1-0.6
			c0-0.2,0.1-0.3,0.2-0.4h-0.7v-0.3H128z"/>
		
			<image style="overflow:visible;enable-background:new    ;" width="350" height="350" xlink:href="F51A76D7.png"  transform="matrix(4.000000e-02 0 0 4.000000e-02 133.1175 176.9901)">
		</image>
	</g>
	<g id="כנף_4">
		<path class="st0" d="M106.4,234.9c0,4.7-3.8,8.5-8.5,8.5H70.1c-4.7,0-8.4,3.8-8.4,8.4v2.6h-1.8v-19.5c0-4.7,3.8-8.5,8.5-8.5h29.5
			C102.6,226.4,106.4,230.2,106.4,234.9z"/>
		<path class="st1" d="M71.4,233.2h-4.3l-0.1-0.9l2.4-3.8h1.1l-1.2,2.1l-0.9,1.4h3V233.2z M70.8,234.5h-1.5v-6h1.5V234.5z"/>
		<path class="st1" d="M78.5,229.5v6.7H77v-5.5h-0.9c0,0.1,0,0.2-0.1,0.3c0,0.1,0,0.2,0,0.3s0,0.2,0,0.3v0.3h0.2h0.1v1
			c-0.2,0-0.4,0.1-0.6,0.1c-0.2,0-0.4,0-0.7-0.1c-0.2-0.1-0.4-0.1-0.5-0.2v-0.6c0-0.2,0-0.3,0-0.5c0-0.2,0.1-0.3,0.1-0.5
			c0-0.1,0.1-0.3,0.2-0.4h-0.5v-1.2H78.5z"/>
		<path class="st1" d="M80.4,234.5c-0.2,0-0.3,0-0.5,0c-0.2,0-0.4-0.1-0.5-0.1v-1.1H80c0.1,0,0.3,0,0.4-0.1c0.1-0.1,0.1-0.3,0.1-0.4
			v-2h-0.8v-1.2h2.4v3.4c0,0.5-0.1,0.9-0.4,1.2C81.3,234.4,80.9,234.6,80.4,234.5z"/>
		<path class="st1" d="M84.4,234.5c-0.2,0-0.5,0-0.7-0.1c-0.3,0-0.5-0.1-0.8-0.1l0.2-1.1c0.3,0.1,0.7,0.1,1,0.1
			c0.3,0,0.6-0.1,0.8-0.2c0.2-0.2,0.3-0.4,0.2-0.7v-1.7h-2.1v-1.2h3.6v2.7c0,0.5-0.1,0.9-0.3,1.4c-0.2,0.3-0.5,0.6-0.8,0.8
			C85.3,234.5,84.8,234.5,84.4,234.5z"/>
		<path class="st1" d="M78.7,241v-2.3c0-0.2-0.1-0.3-0.2-0.4c-0.1-0.1-0.3-0.2-0.5-0.2H77v-0.3h1.2c0.3,0,0.5,0.1,0.7,0.3
			c0.2,0.2,0.3,0.4,0.3,0.7v2.2H78.7z"/>
		<path class="st1" d="M80.2,241v-2.9h-0.4v-0.3h0.8v3.2H80.2z"/>
		<path class="st1" d="M81.4,241v-0.3h1.8l-2-2.9h0.4l1,1.5l1,1.5v0.2H81.4z M82.7,239.6l-0.2-0.3l0.9-1.5h0.4L82.7,239.6z"/>
		<path class="st1" d="M84.5,241v-3.2h1.1c0.3,0,0.7,0.1,0.9,0.3c0.2,0.3,0.3,0.6,0.3,0.9v2h-0.3v-2c0-0.3-0.1-0.5-0.2-0.7
			c-0.2-0.2-0.4-0.2-0.7-0.2h-0.8v2.9H84.5z"/>
		
			<image style="overflow:visible;enable-background:new    ;" width="350" height="350" xlink:href="F51A76DA.png"  transform="matrix(4.000000e-02 0 0 4.000000e-02 90.0475 227.8501)">
		</image>
	</g>
	<g id="בח_א_28">
		<path class="st0" d="M166.6,291.4c0,4.7-3.8,8.5-8.4,8.5h-37.5c-4.7,0-8.4,3.8-8.4,8.4l0,0v2.6h-1.8v-19.5c0-4.7,3.8-8.5,8.5-8.5
			h39.1C162.8,282.9,166.6,286.7,166.6,291.4L166.6,291.4z"/>
		<path class="st1" d="M120.7,291h-4.2v-1l1.9-2c0.1-0.1,0.3-0.3,0.4-0.5c0.1-0.1,0.2-0.3,0.2-0.4c0-0.1,0.1-0.2,0.1-0.3
			c0-0.2,0-0.4-0.2-0.5c-0.1-0.1-0.3-0.2-0.4-0.2c-0.1,0-0.2,0-0.3,0.1c-0.1,0.1-0.2,0.2-0.2,0.3c-0.1,0.1-0.1,0.3-0.1,0.4h-1.5
			c0-0.4,0.1-0.7,0.3-1c0.2-0.3,0.4-0.6,0.8-0.7c0.3-0.2,0.7-0.3,1.1-0.3c0.5,0,1.1,0.1,1.5,0.5c0.4,0.3,0.5,0.8,0.5,1.3
			c0,0.3-0.1,0.6-0.2,0.8c-0.1,0.3-0.3,0.5-0.5,0.8c-0.2,0.3-0.5,0.5-0.8,0.9l-0.7,0.7h2.3L120.7,291z"/>
		<path class="st1" d="M125.6,289.3c0,0.4-0.1,0.7-0.3,1c-0.2,0.3-0.4,0.5-0.7,0.6c-0.3,0.1-0.7,0.2-1.1,0.2c-0.4,0-0.7-0.1-1.1-0.2
			c-0.3-0.1-0.6-0.3-0.8-0.6c-0.2-0.3-0.3-0.6-0.3-1c0-0.3,0.1-0.6,0.3-0.9c0.2-0.3,0.5-0.5,0.8-0.6c0.3-0.1,0.7-0.2,1.1-0.2
			c0.4,0,0.7,0.1,1.1,0.2c0.3,0.1,0.6,0.3,0.8,0.6C125.5,288.7,125.6,289,125.6,289.3z M125.5,286.6c0,0.3-0.1,0.6-0.3,0.8
			c-0.2,0.2-0.4,0.4-0.7,0.5c-0.3,0.1-0.7,0.2-1,0.2c-0.3,0-0.7-0.1-1-0.2c-0.3-0.1-0.5-0.3-0.7-0.5c-0.2-0.2-0.3-0.5-0.3-0.8
			c0-0.3,0.1-0.7,0.3-0.9c0.2-0.3,0.4-0.4,0.7-0.6c0.6-0.2,1.4-0.2,2,0c0.3,0.1,0.5,0.3,0.7,0.6
			C125.4,285.9,125.5,286.3,125.5,286.6L125.5,286.6z M124.1,289.2c0-0.1,0-0.2-0.1-0.4c0-0.1-0.1-0.2-0.2-0.2
			c-0.2-0.1-0.4-0.1-0.6,0c-0.1,0.1-0.2,0.1-0.2,0.2c-0.1,0.1-0.1,0.2-0.1,0.4c0,0.1,0,0.2,0.1,0.4c0,0.1,0.1,0.2,0.2,0.2
			c0.1,0.1,0.2,0.1,0.3,0.1c0.1,0,0.2,0,0.3-0.1c0.1-0.1,0.2-0.1,0.2-0.2C124.1,289.4,124.2,289.3,124.1,289.2z M124,286.7
			c0-0.1,0-0.2-0.1-0.3c0-0.1-0.1-0.2-0.2-0.2c-0.1-0.1-0.2-0.1-0.3-0.1c-0.1,0-0.2,0-0.3,0.1c-0.1,0-0.1,0.1-0.2,0.2
			c0,0.1-0.1,0.2-0.1,0.3c0,0.1,0,0.2,0.1,0.3c0,0.1,0.1,0.2,0.2,0.2c0.1,0.1,0.2,0.1,0.3,0.1c0.1,0,0.2,0,0.3-0.1
			c0.1-0.1,0.1-0.1,0.2-0.2C124,286.9,124,286.8,124,286.7L124,286.7z"/>
		<path class="st1" d="M131.8,291l-3.4-5h1.7l3.4,5L131.8,291z M128.6,291v-1.6c0-0.4,0.1-0.9,0.3-1.2c0.2-0.3,0.5-0.5,0.9-0.6
			l0.5,0.8c-0.1,0.1-0.2,0.3-0.2,0.4v2.3H128.6z M133.6,286.1l-1.6,3.2l-1-1.2l0.8-2L133.6,286.1z"/>
		<path class="st1" d="M134.3,286c0-0.2,0-0.4,0.1-0.6c0.1-0.2,0.2-0.4,0.3-0.5c0.1-0.2,0.2-0.3,0.4-0.4l0.6,0.3
			c-0.1,0.1-0.2,0.3-0.2,0.5c-0.1,0.2-0.1,0.5-0.1,0.7v0.7h-1.1V286z M135.8,286c0-0.2,0-0.4,0.1-0.6c0.1-0.2,0.2-0.4,0.3-0.5
			c0.1-0.2,0.2-0.3,0.4-0.4l0.6,0.3c-0.1,0.1-0.2,0.3-0.2,0.5c-0.1,0.2-0.1,0.5-0.1,0.7v0.7h-1.1L135.8,286z"/>
		<path class="st1" d="M138.1,291v-5h2.3c0.5,0,1.1,0.1,1.5,0.5c0.4,0.4,0.5,0.9,0.5,1.4v3.1h-1.5v-3.2c0-0.1,0-0.3-0.1-0.4
			c-0.1-0.1-0.2-0.1-0.3-0.1h-0.8v3.8H138.1z"/>
		<path class="st1" d="M143.1,291v-1.2h2.2l1.6,0l0.6,0.1v1.1H143.1z M145.4,290.6v-2.9c0-0.1,0-0.3-0.1-0.4
			c-0.1-0.1-0.3-0.1-0.4-0.1h-1.4V286h1.5c0.5,0,1.1,0.1,1.5,0.5c0.4,0.3,0.6,0.8,0.5,1.3v2.8L145.4,290.6z"/>
		<path class="st1" d="M134.8,297.5v-3.2h2.5v3.2H134.8z M135.1,297.3h1.8v-2.6h-1.8V297.3z"/>
		<path class="st1" d="M138.6,296.1v-1.5h-0.6v-0.3h1v1.8H138.6z"/>
		<path class="st1" d="M141.1,297.6c-0.2,0-0.4,0-0.6-0.1c-0.2-0.1-0.3-0.3-0.4-0.4c-0.1-0.2-0.2-0.4-0.2-0.6v-2h0.3v2
			c0,0.2,0.1,0.5,0.3,0.7c0.3,0.4,0.9,0.4,1.2,0c0,0,0,0,0,0c0.2-0.2,0.3-0.4,0.3-0.7v-1.1c0-0.2,0-0.3-0.1-0.5
			c-0.1-0.1-0.2-0.2-0.3-0.1c-0.1,0-0.2,0-0.2,0l-0.2,0.1l-0.1-0.2c0.1-0.1,0.2-0.1,0.3-0.1c0.1,0,0.2,0,0.3,0
			c0.2,0,0.4,0.1,0.6,0.2c0.1,0.2,0.2,0.4,0.2,0.6v1.2c0,0.2,0,0.4-0.1,0.6c-0.1,0.2-0.2,0.3-0.4,0.4
			C141.5,297.5,141.3,297.6,141.1,297.6z"/>
		<path class="st1" d="M142.9,297.5v-0.3h1.8h0.3h0.4v0.3L142.9,297.5z M144.7,297.5v-1.9c0-0.3,0-0.5-0.2-0.7
			c-0.2-0.2-0.5-0.2-0.7-0.2h-0.7v-0.3h0.7c0.4,0,0.7,0.1,1,0.3c0.2,0.3,0.3,0.6,0.3,0.9v1.9H144.7z"/>
		<path class="st1" d="M146.2,297.6H146h-0.2v-0.3c0.1,0,0.3,0,0.4,0c0.1,0,0.3,0,0.4-0.1c0.1-0.1,0.1-0.3,0.1-0.4v-2.1h-0.7v-0.3h1
			v2.4c0,0.2-0.1,0.4-0.2,0.6C146.6,297.5,146.4,297.6,146.2,297.6z"/>
		
			<image style="overflow:visible;enable-background:new    ;" width="504" height="504" xlink:href="F51A76DB.png"  transform="matrix(3.000000e-02 0 0 3.000000e-02 150.3475 284.4701)">
		</image>
	</g>
	<g id="בח_א_6">
		<path class="st0" d="M51.3,287.7c0,4.7,3.8,8.5,8.5,8.5h32.6c4.7,0,8.4,3.8,8.4,8.4c0,0,0,0,0,0v2.5h1.8v-19.5
			c0-4.7-3.8-8.5-8.5-8.5H59.8C55.1,279.2,51.3,283,51.3,287.7z"/>
		<path class="st1" d="M73.6,281.2v1.2h-0.1c-0.2,0-0.5,0-0.7,0.1c-0.2,0.1-0.4,0.2-0.6,0.3c-0.2,0.1-0.3,0.3-0.4,0.5
			c-0.1,0.2-0.1,0.5-0.1,0.8v1.1c0,0.2,0,0.4,0.1,0.6c0,0.1,0.1,0.2,0.2,0.3c0.1,0.1,0.3,0.1,0.4,0.1c0.1,0,0.3,0,0.3-0.1
			c0.1-0.1,0.2-0.2,0.3-0.3c0.1-0.3,0.1-0.6,0-0.9c-0.1-0.1-0.1-0.2-0.3-0.3c-0.1-0.1-0.2-0.1-0.4-0.1c-0.1,0-0.3,0-0.4,0.1
			c-0.1,0.1-0.2,0.2-0.3,0.3c-0.1,0.1-0.1,0.2-0.1,0.3l-0.3-0.4c0-0.2,0-0.3,0.1-0.5c0.1-0.2,0.2-0.3,0.3-0.5
			c0.1-0.2,0.3-0.3,0.5-0.4c0.2-0.1,0.5-0.1,0.7-0.1c0.3,0,0.6,0.1,0.9,0.3c0.3,0.2,0.5,0.4,0.6,0.7c0.1,0.3,0.2,0.7,0.2,1.1
			c0,0.4-0.1,0.7-0.3,1.1c-0.2,0.3-0.4,0.6-0.8,0.7c-0.3,0.2-0.7,0.3-1.1,0.3c-0.3,0-0.6,0-0.9-0.2c-0.3-0.1-0.5-0.3-0.7-0.5
			c-0.2-0.2-0.4-0.5-0.5-0.8c-0.1-0.3-0.2-0.7-0.2-1v-0.5c0-0.5,0.1-0.9,0.3-1.4c0.2-0.4,0.4-0.7,0.7-1c0.3-0.3,0.6-0.5,1-0.6
			c0.4-0.1,0.8-0.2,1.2-0.2L73.6,281.2z"/>
		<path class="st1" d="M80.6,287.3l-3.4-5h1.7l3.4,5H80.6z M77.4,287.3v-1.6c0-0.4,0.1-0.9,0.3-1.2c0.2-0.3,0.5-0.5,0.9-0.6l0.5,0.8
			c-0.1,0.1-0.2,0.3-0.2,0.4v2.3H77.4z M82.4,282.3l-1.6,3.2l-1-1.2l0.9-2L82.4,282.3z"/>
		<path class="st1" d="M83.1,282.4c0-0.2,0-0.4,0.1-0.6c0.1-0.2,0.2-0.4,0.3-0.5c0.1-0.2,0.2-0.3,0.4-0.4l0.6,0.4
			c-0.1,0.2-0.2,0.3-0.2,0.5c-0.1,0.2-0.1,0.5-0.1,0.7v0.7h-1.1V282.4z M84.6,282.4c0-0.2,0-0.4,0.1-0.6c0.1-0.2,0.2-0.4,0.3-0.5
			c0.1-0.2,0.2-0.3,0.4-0.4l0.6,0.4c-0.1,0.2-0.2,0.3-0.2,0.5c-0.1,0.2-0.1,0.5-0.1,0.7v0.7h-1.1L84.6,282.4z"/>
		<path class="st1" d="M87,287.3v-5h2.3c0.5,0,1.1,0.1,1.5,0.5c0.4,0.4,0.5,0.9,0.5,1.4v3.1h-1.5v-3.2c0-0.1,0-0.3-0.1-0.4
			c-0.1-0.1-0.2-0.1-0.3-0.1h-0.8v3.8L87,287.3z"/>
		<path class="st1" d="M92,287.3v-1.2h2.2h1.6l0.6,0.1v1.1L92,287.3z M94.2,286.9V284c0-0.1,0-0.3-0.2-0.4c-0.1-0.1-0.3-0.1-0.4-0.1
			h-1.4v-1.2h1.5c0.5,0,1.1,0.1,1.5,0.5c0.4,0.3,0.6,0.8,0.5,1.3v2.8L94.2,286.9z"/>
		<path class="st1" d="M82.8,293.9v-3.2h2.5v3.2H82.8z M83.1,293.6h1.8V291h-1.8L83.1,293.6z"/>
		<path class="st1" d="M86.6,292.4V291h-0.6v-0.3h1v1.8L86.6,292.4z"/>
		<path class="st1" d="M89.3,293.9v-2.3c0-0.2-0.1-0.3-0.2-0.5c-0.1-0.1-0.3-0.2-0.4-0.2h-1.1v-0.3h1.1c0.3,0,0.5,0.1,0.7,0.3
			c0.2,0.2,0.3,0.4,0.3,0.7v2.3H89.3z"/>
		<path class="st1" d="M90.4,293.9v-0.3h1.8l-2-2.9h0.4l1,1.5l1,1.5v0.2H90.4z M91.7,292.5l-0.2-0.3l0.9-1.5h0.4L91.7,292.5z"/>
		<path class="st1" d="M93.5,293.9v-3.2h1.1c0.3,0,0.7,0.1,0.9,0.3c0.2,0.3,0.3,0.6,0.3,0.9v2h-0.3v-2c0-0.3-0.1-0.5-0.2-0.7
			c-0.2-0.2-0.4-0.2-0.7-0.2h-0.8v2.9L93.5,293.9z"/>
		
			<image style="overflow:visible;enable-background:new    ;" width="350" height="350" xlink:href="F51A76DD.png"  transform="matrix(4.000000e-02 0 0 4.000000e-02 52.5975 280.5501)">
		</image>
	</g>
	<g id="ביסל_א">
		<path class="st0" d="M54.8,329.2c0,4.7,3.8,8.5,8.5,8.5h32.6c4.7,0,8.4,3.8,8.4,8.4l0,0v2.6h1.8v-19.5c0-4.7-3.8-8.5-8.5-8.5
			c0,0,0,0,0,0H63.3C58.6,320.7,54.8,324.5,54.8,329.2z"/>
		<path class="st1" d="M76.2,331.4l-3.4-5h1.7l3.3,5H76.2z M73.1,331.4v-1.6c0-0.4,0.1-0.9,0.3-1.2c0.2-0.3,0.5-0.5,0.9-0.6l0.5,0.8
			c-0.1,0.1-0.2,0.3-0.2,0.4v2.3H73.1z M78,326.4l-1.6,3.2l-1-1.2l0.9-2L78,326.4z"/>
		<path class="st1" d="M78.7,326.4c0-0.2,0-0.4,0.1-0.6c0.1-0.2,0.2-0.4,0.3-0.5c0.1-0.2,0.2-0.3,0.4-0.4l0.7,0.4
			c-0.1,0.2-0.2,0.3-0.2,0.5c-0.1,0.2-0.1,0.5-0.1,0.7v0.7h-1.1V326.4z M80.2,326.4c0-0.2,0-0.4,0.1-0.6c0.1-0.2,0.2-0.4,0.3-0.5
			c0.1-0.2,0.2-0.3,0.4-0.4l0.7,0.4c-0.1,0.2-0.2,0.3-0.2,0.5c-0.1,0.2-0.1,0.5-0.1,0.7v0.7h-1.1V326.4z"/>
		<path class="st1" d="M82.2,327.6v-2.5h1.6v1.3h2.1v1.2H82.2z M86.4,327.4l-1.6,4h-1.6l2-5h1.2L86.4,327.4z"/>
		<path class="st1" d="M89.5,331.5c-0.4,0-0.8-0.1-1.2-0.3c-0.3-0.2-0.6-0.5-0.8-0.8c-0.2-0.4-0.3-0.8-0.3-1.2v-0.2
			c0-0.1,0-0.3,0-0.4c0-0.2,0.1-0.3,0.2-0.5c0-0.1,0.1-0.2,0.2-0.4l0,0l0,0l0,0l-0.3,0.1l-0.2,0.1l-0.3-1.1c0.2-0.1,0.5-0.1,0.8-0.2
			c0.3-0.1,0.6-0.1,0.9-0.1c0.3,0,0.6,0,0.8,0c0.5,0,0.9,0.1,1.4,0.3c0.4,0.2,0.7,0.5,0.8,0.8c0.2,0.4,0.3,0.9,0.3,1.3v0.4
			c0,0.4-0.1,0.9-0.3,1.2c-0.2,0.3-0.5,0.6-0.8,0.8C90.2,331.4,89.9,331.5,89.5,331.5z M89.5,330.2c0.1,0,0.3,0,0.4-0.1
			c0.1-0.1,0.2-0.2,0.3-0.4c0.1-0.2,0.1-0.4,0.1-0.6v-0.4c0-0.2,0-0.5-0.1-0.7c0-0.2-0.1-0.3-0.2-0.4c-0.1-0.1-0.3-0.1-0.4-0.1
			c-0.2,0-0.3,0-0.4,0.1c-0.1,0.1-0.2,0.3-0.3,0.4c-0.1,0.2-0.1,0.5-0.1,0.7v0.3c0,0.2,0,0.4,0.1,0.6c0,0.1,0.1,0.3,0.3,0.4
			C89.2,330.1,89.3,330.2,89.5,330.2L89.5,330.2z"/>
		<path class="st1" d="M93,329.3v-1.7h-0.7v-1.2h2.3v2.9L93,329.3z"/>
		<path class="st1" d="M95.4,331.4v-1.2h2.2h1.6l0.6,0.1v1.1L95.4,331.4z M97.6,331v-2.9c0-0.1,0-0.3-0.2-0.4
			c-0.1-0.1-0.3-0.1-0.4-0.1h-1.4v-1.2h1.5c0.5,0,1.1,0.1,1.5,0.5c0.4,0.3,0.6,0.8,0.5,1.3v2.8L97.6,331z"/>
		
			<image style="overflow:visible;enable-background:new    ;" width="504" height="504" xlink:href="6CD32BA6.png"  transform="matrix(3.000000e-02 0 0 3.000000e-02 55.8675 321.8401)">
		</image>
	</g>
	<g id="כנף_25">
		<path class="st0" d="M49.9,358.3c0,4.7,3.8,8.5,8.5,8.5H91c4.7,0,8.4,3.8,8.4,8.4v2.6h1.7v-19.5c0-4.7-3.8-8.5-8.5-8.5H58.4
			C53.7,349.8,49.9,353.6,49.9,358.3z"/>
		<path class="st1" d="M74,357.9h-4.2v-1l1.9-2c0.1-0.2,0.3-0.3,0.4-0.5c0.1-0.1,0.2-0.3,0.2-0.4c0-0.1,0.1-0.2,0.1-0.3
			c0-0.2,0-0.4-0.2-0.5c-0.1-0.1-0.3-0.2-0.4-0.2c-0.1,0-0.2,0-0.3,0.1c-0.1,0.1-0.2,0.2-0.2,0.3c0,0.1-0.1,0.3-0.1,0.4h-1.5
			c0-0.4,0.1-0.7,0.3-1c0.2-0.3,0.4-0.6,0.8-0.7c0.3-0.2,0.7-0.3,1.1-0.3c0.5,0,1.1,0.1,1.5,0.5c0.4,0.3,0.5,0.8,0.5,1.3
			c0,0.3-0.1,0.5-0.2,0.8c-0.1,0.3-0.3,0.5-0.5,0.8c-0.2,0.3-0.5,0.6-0.8,0.9l-0.7,0.7H74L74,357.9z"/>
		<path class="st1" d="M74.8,355l0.4-3.1h3.5v1.2h-2.3l-0.1,1l0.3-0.1c0.2-0.1,0.3-0.1,0.5-0.1c0.3,0,0.7,0.1,1,0.2
			c0.3,0.2,0.5,0.4,0.6,0.7c0.2,0.3,0.2,0.7,0.2,1.1c0,0.3-0.1,0.7-0.2,1c-0.2,0.3-0.4,0.6-0.7,0.8c-0.4,0.2-0.8,0.3-1.2,0.3
			c-0.3,0-0.5,0-0.8-0.1c-0.3-0.1-0.5-0.2-0.7-0.4c-0.2-0.2-0.4-0.3-0.5-0.6c-0.1-0.2-0.2-0.5-0.2-0.8h1.5c0,0.2,0.1,0.3,0.2,0.5
			c0.1,0.1,0.3,0.2,0.4,0.2c0.1,0,0.3,0,0.4-0.1c0.1-0.1,0.2-0.2,0.2-0.4c0-0.2,0-0.3,0.1-0.5c0-0.2,0-0.3-0.1-0.5
			c-0.1-0.1-0.1-0.2-0.3-0.3c-0.1-0.1-0.3-0.1-0.5-0.1c-0.2,0-0.3,0-0.4,0.1c-0.1,0-0.2,0.1-0.2,0.2L74.8,355z"/>
		<path class="st1" d="M86.1,352.9v6.7h-1.6v-5.5h-0.9c0,0.1-0.1,0.2-0.1,0.3v0.3c0,0.1,0,0.2,0,0.3v0.3h0.2h0.1v1
			c-0.2,0-0.4,0.1-0.6,0.1c-0.2,0-0.4,0-0.7-0.1c-0.2-0.1-0.4-0.1-0.5-0.2v-0.5c0-0.2,0-0.3,0-0.5c0-0.2,0-0.3,0.1-0.5
			c0-0.1,0.1-0.3,0.2-0.4h-0.5v-1.2H86.1z"/>
		<path class="st1" d="M88,358c-0.2,0-0.3,0-0.5,0c-0.2,0-0.4-0.1-0.5-0.1v-1.1h0.6c0.1,0,0.3,0,0.4-0.1c0.1-0.1,0.1-0.3,0.1-0.4v-2
			h-0.8V353h2.4v3.4c0,0.5-0.1,0.9-0.4,1.2C88.9,357.9,88.5,358,88,358z"/>
		<path class="st1" d="M92,358c-0.2,0-0.5,0-0.7,0c-0.3,0-0.5-0.1-0.8-0.1l0.2-1.1c0.3,0.1,0.7,0.1,1,0.1c0.3,0,0.6-0.1,0.8-0.2
			c0.2-0.2,0.3-0.4,0.3-0.7v-1.7h-2.1V353h3.6v2.7c0,0.5-0.1,0.9-0.3,1.4c-0.2,0.3-0.5,0.6-0.8,0.8C92.8,358,92.4,358,92,358z"/>
		<path class="st1" d="M86.4,365.6v-4h-0.4v-0.3h0.8v4.3L86.4,365.6z"/>
		<path class="st1" d="M87.9,364.5v-2.9h-0.4v-0.3h0.8v3.2H87.9z"/>
		<path class="st1" d="M89.2,364.5l0.3-2.1c0-0.2,0.1-0.3,0.1-0.4c0.1-0.1,0.1-0.2,0.3-0.3l0,0l0,0l-0.3,0.1l-0.4,0.1l-0.1-0.3
			l0.4-0.1l0.5-0.1h0.4c0.3,0,0.7,0.1,0.9,0.3c0.2,0.3,0.4,0.6,0.3,1v2h-1.2v-0.3h0.9v-1.7c0-0.3-0.1-0.5-0.2-0.7
			c-0.2-0.2-0.4-0.3-0.7-0.3c-0.2,0-0.4,0.1-0.5,0.2c-0.1,0.2-0.2,0.4-0.2,0.6l-0.3,2.2L89.2,364.5z"/>
		<path class="st1" d="M94.1,364.5v-2.3c0-0.3-0.2-0.6-0.5-0.6c0,0-0.1,0-0.1,0h-1.1v-0.3h1.1c0.3,0,0.5,0.1,0.7,0.3
			c0.2,0.2,0.3,0.4,0.3,0.7v2.3H94.1z"/>
		
			<image style="overflow:visible;enable-background:new    ;" width="500" height="500" xlink:href="6CD32BA1.png"  transform="matrix(3.000000e-02 0 0 3.000000e-02 51.3675 351.3501)">
		</image>
	</g>
	<g id="בח_א_10">
		<path class="st0" d="M160.2,453.5c0,4.7-3.8,8.5-8.5,8.5h-37.4c-4.7,0-8.4,3.8-8.4,8.4l0,0v2.6h-1.7v-19.5c0-4.7,3.8-8.5,8.5-8.5
			h39.1C156.4,445,160.2,448.8,160.2,453.5L160.2,453.5z"/>
		<path class="st1" d="M113.3,453.1h-1.5v-4.2l-1.3,0.4V448l2.7-0.9h0.1V453.1z"/>
		<path class="st1" d="M119.2,450.6c0,0.5-0.1,1-0.3,1.4c-0.2,0.3-0.4,0.6-0.7,0.8c-0.7,0.4-1.5,0.4-2.2,0c-0.3-0.2-0.6-0.5-0.8-0.8
			c-0.2-0.4-0.3-0.9-0.3-1.4v-1.1c0-0.5,0.1-1,0.3-1.4c0.2-0.3,0.4-0.6,0.7-0.8c0.3-0.2,0.7-0.3,1.1-0.3c0.4,0,0.8,0.1,1.1,0.3
			c0.3,0.2,0.6,0.5,0.8,0.8c0.2,0.4,0.3,0.9,0.3,1.4L119.2,450.6z M117.7,449.3c0-0.2,0-0.5-0.1-0.7c0-0.1-0.1-0.3-0.2-0.3
			c-0.1-0.1-0.2-0.1-0.3-0.1c-0.1,0-0.2,0-0.3,0.1c-0.1,0.1-0.2,0.2-0.2,0.3c-0.1,0.2-0.1,0.5-0.1,0.7v1.5c0,0.2,0,0.5,0.1,0.7
			c0,0.1,0.1,0.3,0.2,0.3c0.1,0.1,0.2,0.1,0.3,0.1c0.1,0,0.2,0,0.3-0.1c0.1-0.1,0.2-0.2,0.2-0.3c0.1-0.2,0.1-0.5,0.1-0.7V449.3z"/>
		<path class="st1" d="M125.4,453.1l-3.4-5h1.7l3.4,5H125.4z M122.2,453.1v-1.6c0-0.4,0.1-0.8,0.3-1.2c0.2-0.3,0.5-0.5,0.9-0.6
			l0.5,0.8c-0.1,0.1-0.2,0.3-0.2,0.4v2.3H122.2z M127.2,448.1l-1.6,3.2l-1-1.2l0.9-2L127.2,448.1z"/>
		<path class="st1" d="M127.9,448.1c0-0.2,0-0.4,0.1-0.6c0.1-0.2,0.2-0.4,0.3-0.5c0.1-0.2,0.2-0.3,0.4-0.4l0.6,0.4
			c-0.1,0.2-0.2,0.3-0.2,0.5c-0.1,0.2-0.1,0.5-0.1,0.7v0.7h-1.1V448.1z M129.4,448.1c0-0.2,0-0.4,0.1-0.6c0.1-0.2,0.2-0.4,0.3-0.5
			c0.1-0.2,0.2-0.3,0.4-0.4l0.6,0.4c-0.1,0.2-0.2,0.3-0.2,0.5c-0.1,0.2-0.1,0.5-0.1,0.7v0.7h-1.1V448.1z"/>
		<path class="st1" d="M131.8,453.1v-5h2.3c0.5,0,1.1,0.1,1.5,0.5c0.4,0.4,0.5,0.9,0.5,1.4v3.1h-1.5v-3.2c0-0.1,0-0.3-0.1-0.4
			c-0.1-0.1-0.2-0.2-0.3-0.1h-0.8v3.8L131.8,453.1z"/>
		<path class="st1" d="M136.7,453.1v-1.2h2.2l1.6,0l0.6,0.1v1.1H136.7z M139,452.7v-2.9c0-0.1,0-0.3-0.1-0.4
			c-0.1-0.1-0.3-0.1-0.4-0.1H137v-1.2h1.5c0.5,0,1.1,0.1,1.5,0.5c0.4,0.3,0.6,0.8,0.5,1.3v2.8L139,452.7z"/>
		<path class="st1" d="M130,459.6v-2c0-0.3-0.1-0.5-0.2-0.7c-0.2-0.2-0.5-0.2-0.7-0.2H128v-0.3h1.1c0.4,0,0.7,0.1,1,0.3
			c0.2,0.3,0.3,0.6,0.3,0.9v2H130z M128,459.6v-1.1c0-0.1,0-0.3,0-0.4l0.1-0.3h0.3c0,0.1,0,0.2-0.1,0.3s0,0.2,0,0.4v1.1L128,459.6z"
			/>
		<path class="st1" d="M131,456.4h2.4v0.3h-0.5v2.9h-0.3v-2.9H131V456.4z"/>
		<path class="st1" d="M133.8,459.6v-0.3h1.8h0.3h0.4v0.3L133.8,459.6z M135.6,459.6v-1.9c0-0.3-0.1-0.5-0.2-0.7
			c-0.2-0.2-0.5-0.2-0.7-0.2H134v-0.3h0.7c0.3,0,0.7,0.1,0.9,0.3c0.2,0.3,0.3,0.6,0.3,0.9v1.9H135.6z"/>
		<path class="st1" d="M137.1,459.6v-2.9h-0.4v-0.3h0.8v3.2H137.1z"/>
		<path class="st1" d="M139.3,459.7c-0.2,0-0.3,0-0.5,0c-0.2,0-0.4-0.1-0.6-0.2l0.1-0.3c0.2,0.1,0.3,0.1,0.5,0.2c0.1,0,0.3,0,0.4,0
			c0.3,0,0.5-0.1,0.8-0.3c0.2-0.2,0.3-0.5,0.3-0.8v-2h0.3v2c0,0.2,0,0.5-0.2,0.7c-0.1,0.2-0.3,0.3-0.5,0.4
			C139.7,459.6,139.5,459.7,139.3,459.7z M138.4,456.4h0.3l0.5,2.4c0,0.1,0.1,0.3,0.1,0.4c0,0.1,0.1,0.2,0.1,0.3h-0.3
			c-0.1-0.1-0.1-0.2-0.2-0.3c-0.1-0.1-0.1-0.2-0.1-0.4L138.4,456.4z"/>
		
			<image style="overflow:visible;enable-background:new    ;" width="500" height="500" xlink:href="6CD32BA2.png"  transform="matrix(3.000000e-02 0 0 3.000000e-02 143.8775 446.2701)">
		</image>
	</g>
	<g id="יב_א_צפון">
		<path class="st0" d="M237.8,38.6c0,4.8-3.9,8.8-8.7,8.8h-52.3c-4.8,0-8.6,3.9-8.6,8.7c0,0,0,0,0,0v2.6h-1.8V38.6
			c0-4.8,3.9-8.7,8.7-8.7l0,0h54.1C233.9,29.8,237.8,33.7,237.8,38.6L237.8,38.6z"/>
		<path class="st1" d="M176.4,33c0.5,0,1.1,0.1,1.5,0.5c0.4,0.4,0.6,0.9,0.5,1.4v3.2h-1.6v-3.3c0-0.1,0-0.3-0.1-0.4
			c-0.1-0.1-0.2-0.1-0.3-0.1h-0.6c0,0.2,0,0.3,0,0.5c0,0.2,0,0.3,0,0.4v1.3c0,0.5-0.1,0.9-0.4,1.3c-0.3,0.3-0.8,0.5-1.2,0.5h-0.4
			h-0.3v-1.3h0.3c0.1,0,0.3,0,0.4-0.1c0.1-0.1,0.2-0.3,0.2-0.4v-1c0-0.2,0-0.3,0.1-0.5c0-0.2,0.1-0.4,0.2-0.6h-0.7V33H176.4z"/>
		<path class="st1" d="M179.9,36v-1.7h-0.7V33h2.3V36L179.9,36z"/>
		<path class="st1" d="M183.4,38.2c-0.2,0-0.3,0-0.5,0l-0.6-0.1v-1.2c0.2,0,0.4,0,0.6,0c0.1,0,0.3,0,0.4-0.1
			c0.1-0.1,0.1-0.3,0.1-0.4v-2.1h-0.8V33h2.4v3.4c0,0.5-0.1,0.9-0.4,1.3C184.3,38.1,183.8,38.2,183.4,38.2z"/>
		<path class="st1" d="M186.3,38.1v-3.9h-0.4V33h2v5.1L186.3,38.1z"/>
		<path class="st1" d="M191.2,38.3c-0.3,0-0.7,0-1-0.1c-0.3-0.1-0.7-0.1-1-0.3l0.3-1.2c0.3,0.1,0.6,0.1,0.9,0.2
			c0.2,0,0.5,0.1,0.7,0.1c0.3,0,0.6-0.1,0.8-0.2c0.2-0.2,0.3-0.4,0.3-0.7v-1.8h-1.2c0,0.1-0.1,0.3-0.1,0.4c0,0.1,0,0.3,0,0.4v0.2
			h0.2h0.1v1c-0.2,0.1-0.4,0.1-0.6,0.1c-0.2,0-0.4,0-0.7-0.1c-0.2,0-0.4-0.1-0.6-0.2v-0.4c0-0.3,0-0.5,0.1-0.8
			c0-0.2,0.1-0.4,0.2-0.6H189V33h4.7v2.8c0,0.5-0.1,1-0.3,1.4c-0.2,0.3-0.6,0.6-0.9,0.8C192,38.2,191.6,38.3,191.2,38.3z"/>
		<path class="st1" d="M194.9,38.1v-1.2h2.1l-2.6-3.9h1.8l1.3,2.1l1.6,2.3v0.7L194.9,38.1z M197.8,36.3l-1-1.3l0.8-2.1h1.8
			L197.8,36.3z"/>
		<path class="st1" d="M205.6,38.1l-3.4-5.1h1.8l3.4,5.1H205.6z M202.4,38.1v-1.6c0-0.4,0.1-0.9,0.3-1.3c0.2-0.3,0.5-0.6,0.9-0.7
			l0.5,0.8c-0.1,0.1-0.2,0.3-0.2,0.4v2.4H202.4z M207.4,33l-1.6,3.3l-1-1.3l0.9-2.1L207.4,33z"/>
		<path class="st1" d="M208.2,33.1c0-0.2,0-0.4,0.1-0.6c0.1-0.2,0.2-0.4,0.3-0.6c0.1-0.2,0.2-0.3,0.4-0.4l0.7,0.4
			c-0.1,0.2-0.2,0.3-0.2,0.5c-0.1,0.2-0.1,0.5-0.1,0.7v0.7h-1.1L208.2,33.1z M209.7,33.1c0-0.2,0-0.4,0.1-0.6
			c0.1-0.2,0.2-0.4,0.3-0.6c0.1-0.2,0.2-0.3,0.4-0.4l0.7,0.4c-0.1,0.2-0.2,0.3-0.2,0.5c-0.1,0.2-0.1,0.5-0.1,0.7v0.7h-1.1V33.1z"/>
		<path class="st1" d="M211.7,38.1v-1.2h2.3h1.6l0.6,0.1v1.1H211.7z M213.9,37.8v-3c0-0.1,0-0.3-0.2-0.4c-0.1-0.1-0.3-0.2-0.4-0.1
			h-1.4V33h1.5c0.5,0,1.1,0.1,1.5,0.5c0.4,0.3,0.6,0.8,0.6,1.3v2.9L213.9,37.8z"/>
		<path class="st1" d="M217.1,36v-1.7h-0.7V33h2.3V36L217.1,36z"/>
		<path class="st1" d="M210.4,42.8l0.2-2h2v0.3h-1.7l-0.1,1.4c0.1-0.1,0.2-0.1,0.3-0.2c0.1,0,0.3-0.1,0.4-0.1c0.2,0,0.4,0,0.6,0.2
			c0.2,0.1,0.3,0.3,0.4,0.5c0.1,0.2,0.1,0.5,0.1,0.7c0,0.2,0,0.5-0.1,0.7c-0.1,0.2-0.2,0.4-0.4,0.5c-0.2,0.1-0.4,0.2-0.7,0.2
			c-0.2,0-0.3,0-0.5-0.1c-0.1,0-0.3-0.1-0.4-0.2c-0.1-0.1-0.2-0.2-0.3-0.3c-0.1-0.2-0.1-0.3-0.1-0.5h0.3c0,0.2,0.1,0.5,0.3,0.6
			c0.2,0.2,0.4,0.2,0.6,0.2c0.2,0,0.3,0,0.5-0.1c0.1-0.1,0.2-0.2,0.3-0.4c0.1-0.2,0.1-0.4,0.1-0.6c0-0.2,0-0.4-0.1-0.5
			c-0.1-0.1-0.2-0.3-0.3-0.4c-0.1-0.1-0.3-0.1-0.5-0.1c-0.2,0-0.3,0-0.5,0.1c-0.1,0.1-0.2,0.1-0.3,0.2L210.4,42.8z"/>
		<path class="st1" d="M215.8,43.2c0,0.3,0,0.7-0.2,1c-0.1,0.2-0.2,0.4-0.4,0.6c-0.2,0.1-0.4,0.2-0.7,0.2c-0.5,0-1-0.3-1.1-0.8
			c-0.1-0.3-0.2-0.7-0.2-1v-0.7c0-0.3,0-0.7,0.2-1c0.1-0.2,0.2-0.4,0.4-0.6c0.4-0.2,0.9-0.2,1.3,0c0.2,0.1,0.3,0.3,0.4,0.6
			c0.1,0.3,0.2,0.7,0.2,1L215.8,43.2z M215.5,42.5c0-0.3,0-0.5-0.1-0.8c-0.1-0.2-0.2-0.4-0.3-0.5c-0.1-0.1-0.3-0.2-0.5-0.2
			c-0.2,0-0.4,0-0.5,0.2c-0.1,0.1-0.3,0.3-0.3,0.5c-0.1,0.3-0.1,0.5-0.1,0.8v0.8c0,0.3,0,0.5,0.1,0.8c0.1,0.2,0.2,0.4,0.3,0.5
			c0.3,0.2,0.7,0.2,1,0c0.1-0.1,0.3-0.3,0.3-0.5c0.1-0.3,0.1-0.5,0.1-0.8L215.5,42.5z"/>
		<path class="st1" d="M218.5,40.8v0.3l0,0c-0.2,0-0.5,0-0.7,0.1c-0.2,0.1-0.4,0.2-0.5,0.4c-0.1,0.2-0.3,0.4-0.3,0.6
			c-0.1,0.2-0.1,0.5-0.1,0.8v0.6c0,0.2,0,0.4,0.1,0.6c0.1,0.2,0.2,0.3,0.4,0.4c0.1,0.1,0.3,0.2,0.5,0.2c0.2,0,0.3-0.1,0.5-0.2
			c0.1-0.1,0.2-0.2,0.3-0.4c0.1-0.2,0.1-0.4,0.1-0.5c0-0.2,0-0.4-0.1-0.5c-0.1-0.2-0.2-0.3-0.4-0.4c-0.1-0.1-0.3-0.1-0.5-0.1
			c-0.2,0-0.3,0-0.5,0.1c-0.1,0.1-0.3,0.2-0.4,0.3c-0.1,0.1-0.1,0.3-0.2,0.4h-0.2c0-0.2,0.1-0.3,0.1-0.5c0.1-0.1,0.2-0.3,0.3-0.4
			c0.1-0.1,0.2-0.2,0.4-0.2c0.1-0.1,0.3-0.1,0.5-0.1c0.2,0,0.5,0.1,0.7,0.2c0.2,0.1,0.3,0.3,0.4,0.5c0.1,0.2,0.1,0.4,0.1,0.7
			c0,0.2,0,0.5-0.1,0.7c-0.1,0.2-0.2,0.4-0.4,0.5c-0.2,0.1-0.4,0.2-0.6,0.2c-0.2,0-0.4,0-0.6-0.1c-0.2-0.1-0.3-0.2-0.4-0.3
			c-0.1-0.1-0.2-0.3-0.3-0.5c-0.1-0.2-0.1-0.4-0.1-0.6v-0.4c0-0.3,0-0.6,0.1-0.9c0.1-0.3,0.2-0.5,0.4-0.7c0.2-0.2,0.4-0.4,0.6-0.5
			C217.8,40.8,218.1,40.8,218.5,40.8L218.5,40.8z"/>
		<ellipse class="st8" cx="229.2" cy="38.6" rx="7.2" ry="7.2"/>
		<path class="st1" d="M235.6,38.6c0,0.3,0,0.6-0.1,0.9c-0.2,0.6-0.5,1.1-1,1.5l-2.2,0.2l-3.1,0.8l-5.1-1.4l-1-0.5
			c-0.1-0.2-0.2-0.4-0.3-0.6c-0.1-0.2-0.1-0.4-0.1-0.6c0-0.1,0-0.1,0-0.2l1.9-1.5l6.5,1.1l3.8-1.1l0.7,0.5c0.1,0.2,0.1,0.5,0.1,0.8
			L235.6,38.6z"/>
		<path class="st9" d="M235.4,39.5c-0.6,2-3.2,3.4-6.4,3.4s-5.7-1.5-6.3-3.3c0.6-0.1,1.1,0,1.6,0.3c0.8,0.8,1.9,1.2,3,1
			c1-0.1,1.9,0,2.9,0.1c0.3-0.2,0.7-0.3,1-0.3c0.5,0,1,0,1.5,0c0.5-0.1,1.5-1,1.8-1C234.8,39.7,235.4,39.5,235.4,39.5z"/>
		<path class="st10" d="M235.6,38.5c-1.8-0.4-1.5,0-2.8,0.5c-1.3,0.5-4.2,0.3-5.8,0.3c-1.6,0-1.9-0.4-3.1-0.6
			c-0.5-0.1-0.9,0-1.3,0.2c0-0.1,0-0.2,0-0.3c0-2.4,2.9-4.4,6.5-4.4C232.7,34.2,235.5,36.1,235.6,38.5z"/>
		<ellipse class="st11" cx="228.9" cy="38" rx="2.1" ry="2.1"/>
		<path d="M231.1,37.9v-0.1c-0.1-0.4-0.2-0.7-0.4-1c-0.3-0.4-0.6-0.6-1.1-0.7c-0.2-0.1-0.3-0.1-0.5-0.1h-0.4c-0.3,0-0.7,0.2-1,0.3
			c-0.6,0.4-1,1-1,1.7l0,0l0,0v0.4c0,0.4,0.2,0.7,0.4,1c0.2,0.3,0.5,0.6,0.9,0.8c0.2,0.1,0.5,0.2,0.7,0.2h0.5c0.3,0,0.7-0.2,1-0.4
			c0.5-0.3,0.8-0.8,0.9-1.4c0-0.1,0-0.1,0-0.2c0,0,0-0.1,0-0.1l0,0l0,0L231.1,37.9L231.1,37.9z M230.8,37.3c0.1,0.2,0.2,0.5,0.2,0.8
			l0,0l0,0h-0.4c0-0.3-0.1-0.5-0.1-0.8l0,0L230.8,37.3L230.8,37.3z M230,39.9c0,0-0.1,0.1-0.1,0.1C229.9,39.9,229.9,39.9,230,39.9
			L230,39.9z M229.9,39.7L229.9,39.7h-0.4l0,0c0,0,0,0,0-0.1c0.1-0.2,0.1-0.3,0.2-0.5l0,0h0.5l0,0l0,0
			C230.1,39.3,230,39.5,229.9,39.7L229.9,39.7z M229,39.9h0.3c-0.1,0.1-0.2,0.2-0.3,0.3V39.9z M229.5,39.9h0.2
			c-0.1,0.1-0.2,0.2-0.4,0.2C229.4,40,229.4,39.9,229.5,39.9L229.5,39.9z M229.7,37.3L229.7,37.3h0.6l0,0c0.1,0.2,0.1,0.5,0.1,0.7
			l0,0h-0.6C229.8,37.8,229.8,37.5,229.7,37.3L229.7,37.3z M230.2,37.1h-0.5l0,0c-0.1-0.2-0.1-0.4-0.2-0.6l0,0l0,0h0.3l0,0
			C230,36.7,230.1,36.9,230.2,37.1L230.2,37.1L230.2,37.1L230.2,37.1z M229.9,39h-0.2l0,0c0-0.3,0.1-0.5,0.1-0.8l0,0h0.7l0,0l0,0
			v0.1c0,0.2-0.1,0.4-0.1,0.6c0,0,0,0-0.1,0L229.9,39L229.9,39z M230.2,36.5c0.2,0.2,0.4,0.4,0.5,0.6l0,0l0,0h-0.3l0,0
			C230.3,36.9,230.2,36.7,230.2,36.5L230.2,36.5L230.2,36.5L230.2,36.5L230.2,36.5z M229.8,36.2l0.2,0.1h-0.1c0,0,0,0-0.1,0l0,0l0,0
			l0,0L229.8,36.2z M229.3,36.1c0.1,0.1,0.3,0.1,0.4,0.2l0,0h-0.3C229.4,36.3,229.3,36.2,229.3,36.1L229.3,36.1L229.3,36.1
			L229.3,36.1L229.3,36.1z M229,36L229,36c0.1,0.1,0.3,0.2,0.3,0.3l0,0h-0.4L229,36z M229,36.5h0.4l0,0c0.1,0.2,0.1,0.4,0.2,0.6l0,0
			h-0.6L229,36.5z M229,37.2h0.7c0,0.3,0.1,0.5,0.1,0.8H229V37.2z M229,38.1h0.7v0.2c0,0.2,0,0.4-0.1,0.6l0,0H229L229,38.1z
			 M229,39.1h0.6l0,0l0,0c0,0.2-0.1,0.4-0.2,0.5 M229.4,39.6H229H229.4z M228.8,36L228.8,36v0.3h-0.3l0,0
			C228.6,36.2,228.7,36.1,228.8,36L228.8,36z M228.8,40.1c-0.1-0.1-0.3-0.2-0.3-0.3h0.3V40.1z M228.5,40c-0.1-0.1-0.3-0.1-0.4-0.2
			h0.2L228.5,40z M228.3,39.7H228l0,0c-0.2-0.2-0.3-0.4-0.4-0.6l0,0l0,0h0.5l0,0C228.1,39.3,228.2,39.5,228.3,39.7L228.3,39.7
			L228.3,39.7L228.3,39.7z M227.7,37.2h0.4l0,0c0,0.3-0.1,0.5-0.1,0.8h-0.6v0c0-0.2,0.1-0.4,0.1-0.6c0,0,0,0,0.1,0L227.7,37.2z
			 M227.5,37.1L227.5,37.1L227.5,37.1c0.1-0.2,0.2-0.4,0.3-0.5c0,0,0,0,0.1,0h0.3l0,0c-0.1,0.2-0.1,0.4-0.2,0.6L227.5,37.1
			L227.5,37.1z M228,38.1L228,38.1c0,0.3,0,0.5,0.1,0.8h-0.6l0,0c0-0.2-0.1-0.3-0.1-0.5c0-0.1,0-0.1,0-0.2v-0.1H228z M228.2,38.9
			c0-0.3-0.1-0.5-0.1-0.8l0,0h0.7v0.8L228.2,38.9L228.2,38.9z M228.1,38L228.1,38c0-0.3,0-0.5,0.1-0.8h0.7V38L228.1,38z M228.2,37.1
			L228.2,37.1L228.2,37.1c0-0.2,0.1-0.3,0.2-0.5c0,0,0,0,0.1,0h0.4v0.6L228.2,37.1z M228.1,36.3c0.1-0.1,0.3-0.2,0.4-0.2l0,0
			l-0.1,0.2l0,0c0,0-0.1,0.1-0.1,0.1L228.1,36.3L228.1,36.3z M228,36.1L228,36.1L228,36.1L228,36.1c-0.1,0.1-0.1,0.1-0.1,0.1l0,0
			l0,0L228,36.1z M227.1,37L227.1,37c0.1-0.2,0.3-0.4,0.5-0.6l0,0h0.1l0,0l-0.1,0.1c0,0.1-0.1,0.1-0.1,0.2c-0.1,0.1-0.1,0.2-0.2,0.3
			 M227.3,37H227H227.3z M226.8,38L226.8,38C226.8,37.9,226.8,37.9,226.8,38c0-0.3,0.1-0.5,0.2-0.7l0,0h0.3v0.1
			c-0.1,0.2-0.1,0.4-0.1,0.7l0,0L226.8,38L226.8,38z M227,38.9L227,38.9c-0.1-0.2-0.2-0.4-0.2-0.6c0,0,0,0,0-0.1v-0.1h0.4l0,0
			c0,0.3,0.1,0.5,0.1,0.8l0,0L227,38.9L227,38.9z M227.6,39.7L227.6,39.7c-0.2-0.2-0.4-0.4-0.5-0.6l0,0l0,0h0.3c0,0,0,0,0.1,0
			c0.1,0.2,0.2,0.4,0.3,0.6l0,0l0,0L227.6,39.7z M228,39.9L228,39.9l-0.2-0.1l0,0C227.8,39.8,227.9,39.8,228,39.9L228,39.9L228,39.9
			L228,39.9L228,39.9z M228.8,39.6L228.8,39.6h-0.4l0,0c-0.1-0.2-0.2-0.4-0.2-0.6l0,0l0,0h0.6L228.8,39.6z M230.7,39.1L230.7,39.1
			c-0.1,0.2-0.3,0.4-0.5,0.6l0,0h-0.1l0,0l0,0c0.1-0.2,0.2-0.4,0.3-0.6l0,0L230.7,39.1L230.7,39.1z M231,38.2v0.1
			c0,0.2-0.1,0.4-0.2,0.6l0,0h-0.3c0.1-0.2,0.1-0.5,0.1-0.8l0,0L231,38.2L231,38.2z"/>
		<path class="st12" d="M230,39.8L230,39.8l-0.1,0.1l0,0l-0.1,0.1L230,39.8L230,39.8z M229.9,39.8L229.9,39.8z M228.5,40
			c0-0.1-0.1-0.1-0.1-0.2l0,0h-0.2l0,0l0,0C228.2,39.9,228.4,40,228.5,40L228.5,40L228.5,40z M228.1,39.8h0.2l0.1,0.2l0,0
			C228.3,40,228.2,39.9,228.1,39.8L228.1,39.8z M229.7,39.8h-0.2l0,0l-0.1,0.2l-0.1,0.1l0,0C229.5,40.1,229.6,40,229.7,39.8
			L229.7,39.8L229.7,39.8z M229.4,40.1L229.4,40.1c0-0.1,0.1-0.1,0.1-0.2h0.2C229.6,40,229.5,40,229.4,40.1L229.4,40.1z M228.5,39.8
			L228.5,39.8c0.1,0.1,0.2,0.3,0.3,0.3l0,0v-0.3L228.5,39.8z M228.8,40.1c-0.1-0.1-0.2-0.2-0.3-0.3h0.3V40.1z M229,39.8v0.3l0,0
			c0.1-0.1,0.3-0.2,0.3-0.3l0,0L229,39.8z M229,40.1v-0.3h0.3C229.2,40,229.1,40.1,229,40.1L229,40.1z M230,39.8L230,39.8l-0.1,0.1
			l0,0l-0.1,0.1L230,39.8L230,39.8z M229.9,39.8L229.9,39.8z M229.7,39.8h-0.2l0,0l-0.1,0.2l-0.1,0.1l0,0
			C229.5,40,229.6,40,229.7,39.8L229.7,39.8L229.7,39.8z M229.3,40.1L229.3,40.1c0-0.1,0.1-0.1,0.1-0.2h0.2
			C229.6,39.9,229.5,40,229.3,40.1L229.3,40.1z M228.9,39.8v0.3l0,0c0.1-0.1,0.3-0.2,0.3-0.3l0,0L228.9,39.8z M228.9,40.1v-0.3h0.3
			C229.2,40,229.1,40.1,228.9,40.1L228.9,40.1z M228.4,39.8L228.4,39.8c0.1,0.1,0.2,0.3,0.3,0.3l0,0v-0.3L228.4,39.8z M228.8,40.1
			c-0.1-0.1-0.2-0.2-0.3-0.3h0.3V40.1z M228.4,40c0-0.1-0.1-0.1-0.1-0.2l0,0h-0.2l0,0l0,0C228.2,39.9,228.3,40,228.4,40L228.4,40
			L228.4,40z M228.1,39.9h0.2l0.1,0.2l0,0C228.3,40,228.2,39.9,228.1,39.9L228.1,39.9z M228.4,40c0-0.1-0.1-0.1-0.1-0.2l0,0h-0.2
			l0,0l0,0C228.2,39.9,228.3,40,228.4,40L228.4,40L228.4,40z M228.1,39.9h0.2l0.1,0.2l0,0C228.3,40,228.2,39.9,228.1,39.9
			L228.1,39.9z M228.4,39.9L228.4,39.9c0.1,0.1,0.2,0.3,0.3,0.3l0,0v-0.3L228.4,39.9z M228.8,40.2c-0.1-0.1-0.2-0.2-0.3-0.3h0.3
			V40.2z M228.9,39.9v0.3l0,0c0.1-0.1,0.3-0.2,0.3-0.3l0,0L228.9,39.9z M228.9,40.2v-0.3h0.3C229.1,40,229.1,40.1,228.9,40.2
			L228.9,40.2z M229.6,39.9h-0.1l0,0l-0.1,0.2l-0.1,0.1l0,0c0.1-0.1,0.3-0.1,0.4-0.2l0,0L229.6,39.9z M229.3,40.1L229.3,40.1
			c0-0.1,0.1-0.1,0.1-0.2h0.2C229.5,40,229.4,40,229.3,40.1L229.3,40.1z M229.9,39.9L229.9,39.9l-0.1,0.1l0,0l-0.1,0.1L229.9,39.9
			L229.9,39.9z M229.9,39.9L229.9,39.9z M229.9,39.9L229.9,39.9l-0.1,0.1l0,0l-0.1,0.1L229.9,39.9L229.9,39.9z M229.9,39.9
			L229.9,39.9z M229.6,39.9h-0.1l0,0l-0.1,0.2l-0.1,0.1l0,0c0.1-0.1,0.3-0.1,0.4-0.2l0,0L229.6,39.9z M229.3,40.1L229.3,40.1
			c0-0.1,0.1-0.1,0.1-0.2h0.2C229.5,40,229.4,40,229.3,40.1L229.3,40.1z M228.9,39.8v0.3l0,0c0.1-0.1,0.3-0.2,0.3-0.3l0,0
			L228.9,39.8z M228.9,40.1v-0.3h0.3c0,0.1-0.1,0.2-0.2,0.3L228.9,40.1z M228.4,39.8L228.4,39.8c0.1,0.1,0.2,0.3,0.3,0.3l0,0v-0.3
			L228.4,39.8z M228.7,40.1c-0.1-0.1-0.2-0.2-0.3-0.3h0.3V40.1z M228.3,40.1c0-0.1-0.1-0.1-0.1-0.2l0,0H228l0,0l0,0
			C228.1,40,228.2,40,228.3,40.1L228.3,40.1L228.3,40.1z M228,39.9h0.2l0.1,0.2l0,0C228.2,40,228.1,39.9,228,39.9L228,39.9z
			 M228.3,40.1c0-0.1-0.1-0.1-0.1-0.2l0,0H228l0,0l0,0C228.1,40,228.2,40,228.3,40.1L228.3,40.1L228.3,40.1z M228,39.9h0.2l0.1,0.2
			l0,0C228.2,40,228.1,39.9,228,39.9L228,39.9z M228.4,39.9L228.4,39.9c0.1,0.1,0.2,0.3,0.3,0.3l0,0v-0.3L228.4,39.9z M228.7,40.2
			c-0.1-0.1-0.2-0.2-0.3-0.3h0.3V40.2z M228.8,39.9v0.3l0,0c0.1-0.1,0.3-0.2,0.3-0.3l0,0L228.8,39.9z M228.8,40.2v-0.3h0.3
			c0,0.1-0.1,0.2-0.1,0.2L228.8,40.2z M229.6,39.9L229.6,39.9L229.6,39.9l-0.2,0.2l-0.1,0.1l0,0c0.1-0.1,0.3-0.1,0.4-0.2l0,0
			L229.6,39.9z M229.2,40.1L229.2,40.1c0-0.1,0.1-0.1,0.1-0.2h0.2c-0.1,0.1-0.1,0.1-0.2,0.2L229.2,40.1z M229.9,39.9L229.9,39.9
			l-0.1,0.1l0,0l-0.1,0.1L229.9,39.9L229.9,39.9z M229.8,39.9L229.8,39.9z M229.9,39.9L229.9,39.9l-0.1,0.1l0,0l-0.1,0.1L229.9,39.9
			L229.9,39.9z M229.8,39.9L229.8,39.9z M229.6,39.9L229.6,39.9L229.6,39.9l-0.2,0.2l-0.1,0.1l0,0c0.1-0.1,0.3-0.1,0.4-0.2l0,0
			L229.6,39.9z M229.2,40.1L229.2,40.1c0-0.1,0.1-0.1,0.1-0.2h0.2c-0.1,0.1-0.1,0.1-0.2,0.2L229.2,40.1z M228.8,39.9v0.3l0,0
			c0.1-0.1,0.3-0.2,0.3-0.3l0,0L228.8,39.9z M228.8,40.2v-0.3h0.3c0,0.1-0.1,0.2-0.1,0.2L228.8,40.2z M228.3,39.9L228.3,39.9
			c0.1,0.1,0.2,0.3,0.3,0.3l0,0v-0.3L228.3,39.9z M228.6,40.2c-0.1-0.1-0.2-0.2-0.3-0.3h0.3V40.2z M228.3,40.1
			c0-0.1-0.1-0.1-0.1-0.2l0,0h-0.2l0,0l0,0C228.1,40,228.2,40.1,228.3,40.1L228.3,40.1L228.3,40.1z M228,39.9h0.2l0.1,0.2l0,0
			C228.2,40,228,40,228,39.9L228,39.9z M228.3,40.1c0-0.1-0.1-0.1-0.1-0.2l0,0h-0.2l0,0l0,0C228.1,40,228.2,40.1,228.3,40.1
			L228.3,40.1L228.3,40.1z M228,39.9h0.2l0.1,0.2l0,0C228.2,40,228,40,228,39.9L228,39.9z M228.3,39.9L228.3,39.9
			c0.1,0.1,0.2,0.3,0.3,0.3l0,0v-0.3L228.3,39.9z M228.6,40.2c-0.1-0.1-0.2-0.2-0.3-0.3h0.3V40.2z M228.8,39.9v0.3l0,0
			c0.1-0.1,0.3-0.2,0.3-0.3l0,0L228.8,39.9z M228.8,40.2v-0.3h0.3c0,0.1,0,0.2-0.1,0.2L228.8,40.2z M229.5,39.9L229.5,39.9
			L229.5,39.9l-0.1,0.2l-0.1,0.1l0,0c0.1-0.1,0.3-0.1,0.4-0.2l0,0L229.5,39.9z M229.1,40.1L229.1,40.1c0-0.1,0.1-0.1,0.1-0.2h0.2
			c0,0-0.1,0.1-0.1,0.1L229.1,40.1z M229.8,39.9L229.8,39.9l-0.1,0.1l0,0l-0.1,0.1L229.8,39.9L229.8,39.9z M229.7,39.9L229.7,39.9z
			 M229.8,39.9L229.8,39.9l-0.1,0.1l0,0l-0.1,0.1L229.8,39.9L229.8,39.9z M229.7,39.9L229.7,39.9z M229.5,39.9L229.5,39.9
			L229.5,39.9l-0.1,0.2l-0.1,0.1l0,0c0.1-0.1,0.3-0.1,0.4-0.2l0,0L229.5,39.9z M229.1,40.1L229.1,40.1c0-0.1,0.1-0.1,0.1-0.2h0.2
			c0,0.1-0.1,0.1-0.1,0.1L229.1,40.1z M228.7,39.9v0.3l0,0c0.1-0.1,0.3-0.2,0.3-0.3l0,0L228.7,39.9z M228.7,40.2v-0.3h0.3
			c0,0.1,0,0.2-0.1,0.2L228.7,40.2z M228.2,39.9L228.2,39.9c0.1,0.1,0.2,0.3,0.3,0.3l0,0v-0.3L228.2,39.9z M228.6,40.2
			c-0.1-0.1-0.2-0.2-0.3-0.3h0.3V40.2z M228.2,40.1c0-0.1-0.1-0.1-0.1-0.2l0,0h-0.2l0,0l0,0C228,40,228.1,40.1,228.2,40.1
			L228.2,40.1L228.2,40.1z M227.9,39.9h0.2l0.1,0.2l0,0C228.1,40.1,228,40,227.9,39.9L227.9,39.9z M228.2,40.1
			c0-0.1-0.1-0.1-0.1-0.2l0,0h-0.2l0,0l0,0C228,40,228.1,40.1,228.2,40.1L228.2,40.1L228.2,40.1z M227.9,39.9h0.2l0.1,0.2l0,0
			C228.1,40.1,228,40,227.9,39.9L227.9,39.9z M228.2,39.9L228.2,39.9c0.1,0.1,0.2,0.3,0.3,0.3l0,0v-0.3L228.2,39.9z M228.6,40.2
			c-0.1-0.1-0.2-0.2-0.3-0.3h0.3V40.2z M228.7,39.9v0.3l0,0c0.1-0.1,0.3-0.2,0.3-0.3l0,0L228.7,39.9z M228.7,40.2V40h0.3
			c0,0.1,0,0.1,0,0.2L228.7,40.2z M229.4,39.9L229.4,39.9L229.4,39.9l-0.1,0.2l-0.1,0.1l0,0c0.1-0.1,0.3-0.1,0.4-0.2l0,0L229.4,39.9
			z M229.1,40.1L229.1,40.1c0-0.1,0.1-0.1,0.1-0.2h0.2c0,0,0,0.1,0,0.1L229.1,40.1z M229.7,39.9L229.7,39.9l-0.1,0.1l0,0l-0.1,0.1
			L229.7,39.9L229.7,39.9z M229.7,39.9L229.7,39.9z M229.7,39.9L229.7,39.9l-0.1,0.1l0,0l-0.1,0.1L229.7,39.9L229.7,39.9z
			 M229.7,39.9L229.7,39.9z M229.4,39.9L229.4,39.9L229.4,39.9l-0.1,0.2l-0.1,0.1l0,0c0.1-0.1,0.3-0.1,0.4-0.2l0,0L229.4,39.9z
			 M229.1,40.1L229.1,40.1c0-0.1,0.1-0.1,0.1-0.2h0.2c0,0,0,0.1,0,0.1L229.1,40.1z M228.7,39.9v0.3l0,0c0.1-0.1,0.3-0.2,0.3-0.3l0,0
			L228.7,39.9z M228.7,40.2v-0.3h0.3c0,0.1,0,0.1,0,0.2L228.7,40.2z M228.2,39.9L228.2,39.9c0.1,0.1,0.2,0.3,0.3,0.3l0,0v-0.3
			L228.2,39.9z M228.5,40.2c-0.1-0.1-0.2-0.2-0.3-0.3h0.3V40.2z M228.2,40.1c0-0.1-0.1-0.1-0.1-0.2l0,0h-0.2l0,0l0,0
			C227.9,40,228.1,40.1,228.2,40.1L228.2,40.1L228.2,40.1z M227.8,39.9h0.2l0.1,0.2l0,0C228,40.1,227.9,40,227.8,39.9L227.8,39.9z
			 M229.7,39.9L229.7,39.9l-0.1,0.1l0,0l-0.1,0.1L229.7,39.9L229.7,39.9z M229.6,39.9L229.6,39.9z M229.4,39.9L229.4,39.9
			L229.4,39.9l0,0.2l-0.1,0.1l0,0c0.1-0.1,0.3-0.1,0.4-0.2l0,0L229.4,39.9z M229.1,40.2L229.1,40.2c0-0.1,0.1-0.1,0.1-0.2h0.2
			c0,0,0,0.1,0,0.1L229.1,40.2z M228.7,39.9v0.3l0,0c0.1-0.1,0.3-0.2,0.3-0.3l0,0L228.7,39.9z M228.7,40.2V40h0.3c0,0.1,0,0.1,0,0.2
			L228.7,40.2z M228.1,39.9L228.1,39.9c0.1,0.1,0.2,0.3,0.3,0.3l0,0v-0.3L228.1,39.9z M228.5,40.2c-0.1-0.1-0.2-0.2-0.3-0.3h0.3
			V40.2z M228.1,40.1c0-0.1-0.1-0.1-0.1-0.2l0,0h-0.2l0,0l0,0C227.9,40,228,40.1,228.1,40.1L228.1,40.1L228.1,40.1z M227.8,40h0.2
			l0.1,0.2l0,0C228,40.1,227.9,40,227.8,40L227.8,40z M228.1,40.1c0-0.1-0.1-0.1-0.1-0.2l0,0h-0.2l0,0l0,0
			C227.9,40,228,40.1,228.1,40.1L228.1,40.1L228.1,40.1z M227.8,40h0.2l0.1,0.2l0,0C228,40.1,227.9,40,227.8,40L227.8,40z M228.1,40
			L228.1,40c0.1,0.1,0.2,0.3,0.3,0.3l0,0v-0.3L228.1,40z M228.5,40.3c-0.1-0.1-0.2-0.2-0.3-0.3h0.3V40.3z M228.6,40v0.3l0,0
			c0.1-0.1,0.3-0.2,0.3-0.3l0,0L228.6,40z M228.6,40.3V40h0.3c0,0,0.1,0.1,0.1,0.2L228.6,40.3z M229.4,40h0.2l0,0l-0.1,0.2l-0.1,0.1
			l0,0c0.1-0.1,0.3-0.1,0.4-0.2l0,0L229.4,40z M229,40.2L229,40.2c0-0.1,0.1-0.1,0.1-0.2h0.2c0,0,0,0,0.1,0.1L229,40.2z M229.6,40
			L229.6,40l-0.1,0.1l0,0l-0.1,0.1L229.6,40L229.6,40z M229.6,40L229.6,40z M229.6,40L229.6,40l-0.1,0.1l0,0l-0.1,0.1L229.6,40
			L229.6,40z M229.6,40L229.6,40z M229.4,40h0.2l0,0l-0.1,0.2l-0.1,0.1l0,0c0.1-0.1,0.3-0.1,0.4-0.2l0,0L229.4,40z M229,40.2
			L229,40.2c0-0.1,0.1-0.1,0.1-0.2h0.2c0,0,0,0.1,0.1,0.1L229,40.2z M228.6,40v0.3l0,0c0.1-0.1,0.3-0.2,0.3-0.3l0,0L228.6,40z
			 M228.6,40.2V40h0.3c0,0,0.1,0.1,0.1,0.2L228.6,40.2z M228.1,40L228.1,40c0.1,0.1,0.2,0.3,0.3,0.3l0,0v-0.3L228.1,40z M228.4,40.2
			c-0.1-0.1-0.2-0.2-0.3-0.3h0.3V40.2z M228.1,40.2c0-0.1-0.1-0.1-0.1-0.2l0,0h-0.2l0,0l0,0C227.8,40.1,228,40.2,228.1,40.2
			L228.1,40.2L228.1,40.2z M227.7,40h0.2l0.1,0.2l0,0C227.9,40.1,227.8,40,227.7,40L227.7,40z M228.1,40.2c0-0.1-0.1-0.1-0.1-0.2
			l0,0h-0.2l0,0l0,0C227.8,40.1,228,40.2,228.1,40.2L228.1,40.2L228.1,40.2z M227.7,40h0.2l0.1,0.2l0,0
			C227.9,40.1,227.8,40,227.7,40L227.7,40z M228.1,40L228.1,40c0.1,0.1,0.2,0.3,0.3,0.3l0,0V40L228.1,40z M228.4,40.3
			c-0.1-0.1-0.2-0.2-0.3-0.3h0.3V40.3z M228.6,40v0.3l0,0c0.1-0.1,0.3-0.2,0.3-0.3l0,0L228.6,40z M228.6,40.3V40h0.3
			c0.1,0,0.1,0.1,0.1,0.1L228.6,40.3z M229.3,40h0.2l0,0l-0.1,0.2l-0.1,0.1l0,0c0.1-0.1,0.3-0.1,0.4-0.2l0,0L229.3,40z M228.9,40.2
			L228.9,40.2c0-0.1,0.1-0.1,0.1-0.2h0.2c0,0,0.1,0,0.1,0.1L228.9,40.2z M229.6,40L229.6,40l-0.1,0.1l0,0l-0.1,0.1L229.6,40
			L229.6,40z M229.5,40L229.5,40z M229.6,40L229.6,40l-0.1,0.1l0,0l-0.1,0.1L229.6,40L229.6,40z M229.5,40L229.5,40z M229.3,40h0.2
			l0,0l-0.1,0.2l-0.1,0.1l0,0c0.1-0.1,0.3-0.1,0.4-0.2l0,0L229.3,40z M228.9,40.2L228.9,40.2c0-0.1,0.1-0.1,0.1-0.2h0.2
			c0,0,0.1,0,0.1,0.1L228.9,40.2z M228.5,40v0.3l0,0c0.1-0.1,0.3-0.2,0.3-0.3l0,0L228.5,40z M228.5,40.3V40h0.3
			c0.1,0,0.1,0.1,0.2,0.1L228.5,40.3z M228,40L228,40c0.1,0.1,0.2,0.3,0.3,0.3l0,0V40L228,40z M228.4,40.3c-0.1-0.1-0.2-0.2-0.3-0.3
			h0.3V40.3z M228,40.2c0-0.1-0.1-0.1-0.1-0.2l0,0h-0.2l0,0l0,0C227.8,40.1,227.9,40.2,228,40.2L228,40.2L228,40.2z M227.7,40h0.2
			l0.1,0.2l0,0C227.9,40.1,227.8,40.1,227.7,40L227.7,40z M228,40.2c0-0.1-0.1-0.1-0.1-0.2l0,0h-0.2l0,0l0,0
			C227.8,40.1,227.9,40.2,228,40.2L228,40.2L228,40.2z M227.7,40h0.2l0.1,0.2l0,0C227.9,40.1,227.8,40.1,227.7,40L227.7,40z M228,40
			L228,40c0.1,0.1,0.2,0.3,0.3,0.3l0,0V40L228,40z M228.4,40.3c-0.1-0.1-0.2-0.2-0.3-0.3h0.3V40.3z M228.5,40v0.3l0,0
			c0.1-0.1,0.3-0.2,0.3-0.3l0,0L228.5,40z M228.5,40.3V40h0.3c0.1,0,0.1,0.1,0.2,0.1L228.5,40.3z M229.2,40h0.3l0,0l-0.1,0.2
			l-0.1,0.1l0,0c0.1-0.1,0.3-0.1,0.4-0.2l0,0L229.2,40z M228.9,40.2L228.9,40.2c0-0.1,0.1-0.1,0.1-0.2h0.2c0.1,0,0.1,0,0.2,0
			L228.9,40.2z M229.5,40L229.5,40l-0.1,0.1l0,0l-0.1,0.1L229.5,40L229.5,40z M229.5,40L229.5,40z M229.5,40L229.5,40l-0.1,0.1l0,0
			l-0.1,0.1L229.5,40L229.5,40z M229.5,40L229.5,40z M229.2,40h0.3l0,0l-0.1,0.2l-0.1,0.1l0,0c0.1-0.1,0.3-0.1,0.4-0.2l0,0L229.2,40
			z M228.9,40.2L228.9,40.2c0-0.1,0.1-0.1,0.1-0.2h0.2c0.1,0,0.1,0,0.2,0L228.9,40.2z M228.5,40v0.3l0,0c0.1-0.1,0.3-0.2,0.3-0.3
			l0,0L228.5,40z M228.5,40.3V40h0.3c0.1,0,0.2,0.1,0.2,0.1L228.5,40.3z M228,40L228,40c0.1,0.1,0.2,0.3,0.3,0.3l0,0V40L228,40z
			 M228.3,40.3c-0.1-0.1-0.2-0.2-0.3-0.3h0.3V40.3z M228,40.2c0-0.1-0.1-0.1-0.1-0.2l0,0h-0.2l0,0l0,0
			C227.7,40.1,227.9,40.2,228,40.2L228,40.2L228,40.2z M227.6,40h0.2l0.1,0.2l0,0C227.8,40.2,227.7,40.1,227.6,40L227.6,40z
			 M228,40.2c0-0.1-0.1-0.1-0.1-0.2l0,0h-0.2l0,0l0,0C227.7,40.1,227.9,40.2,228,40.2L228,40.2L228,40.2z M227.6,40h0.2l0.1,0.2l0,0
			C227.8,40.2,227.7,40.1,227.6,40L227.6,40z M228,40L228,40c0.1,0.1,0.2,0.3,0.3,0.3l0,0V40L228,40z M228.3,40.3
			c-0.1-0.1-0.2-0.2-0.3-0.3h0.3V40.3z M228.4,40v0.3l0,0c0.1-0.1,0.3-0.2,0.3-0.3l0,0L228.4,40z M228.4,40.3v-0.3h0.3
			c0.1,0,0.2,0,0.3,0.1L228.4,40.3z M229.2,40h0.3l0,0l-0.1,0.2l-0.1,0.1l0,0c0.1-0.1,0.3-0.1,0.4-0.2l0,0L229.2,40z M228.8,40.2
			L228.8,40.2c0-0.1,0.1-0.1,0.1-0.2h0.2c0.1,0,0.2,0,0.2,0L228.8,40.2z M229.5,40L229.5,40l-0.1,0.1l0,0l-0.1,0.1L229.5,40
			L229.5,40z M229.4,40L229.4,40z M229.5,40L229.5,40l-0.1,0.1l0,0l-0.1,0.1L229.5,40L229.5,40z M229.4,40L229.4,40z M229.2,40h0.3
			l0,0l-0.1,0.2l-0.1,0.1l0,0c0.1-0.1,0.3-0.1,0.4-0.2l0,0L229.2,40z M228.8,40.2L228.8,40.2c0-0.1,0.1-0.1,0.1-0.2h0.2
			c0.1,0,0.2,0,0.2,0L228.8,40.2z M228.4,40v0.3l0,0c0.1-0.1,0.3-0.2,0.3-0.3l0,0L228.4,40z M228.4,40.3V40h0.3c0.1,0,0.2,0,0.3,0.1
			L228.4,40.3z M227.9,40L227.9,40c0.1,0.1,0.2,0.3,0.3,0.3l0,0V40L227.9,40z M228.2,40.3c-0.1-0.1-0.2-0.2-0.3-0.3h0.3V40.3z
			 M227.9,40.2c0-0.1-0.1-0.1-0.1-0.2l0,0h-0.2l0,0l0,0C227.7,40.1,227.8,40.2,227.9,40.2L227.9,40.2L227.9,40.2z M227.6,40h0.2
			l0.1,0.2l0,0C227.8,40.2,227.6,40.1,227.6,40L227.6,40z"/>
		<polygon class="st13" points="230,40.2 230,40.2 230,40.2 		"/>
		<polygon points="230,40.2 229.9,40.2 230,40.2 		"/>
		<rect x="228.1" y="40.2" class="st13" width="1.5" height="1.4"/>
		<path d="M229.7,41.6h-1.5v-1.4h1.5V41.6z M228.2,41.6h1.5v-1.4h-1.5V41.6z"/>
		<polygon class="st13" points="230.9,39 230.9,39.9 230.5,40 230,40.2 230,40.2 230.2,39.3 		"/>
		<path d="M230,40.2l0.2-1l0.7-0.3v0.9L230,40.2z M230.3,39.3l-0.2,0.9l0.9-0.3V39L230.3,39.3z"/>
		<polygon class="st13" points="230.5,40 230.5,41.3 229.7,41.6 229.7,40.2 230,40.2 230,40.2 		"/>
		<path d="M229.6,41.6v-1.4h0.4l0.5-0.2v1.3L229.6,41.6z M229.6,40.3v1.3l0.8-0.3v-1.2l-0.4,0.2H229.6z"/>
		<polygon class="st13" points="230.2,39.3 230,40.2 227.8,40.2 227.6,39.3 		"/>
		<path d="M230,40.2h-2.3l-0.2-0.9h2.7L230,40.2z M227.8,40.2h2.2l0.2-0.9h-2.6L227.8,40.2z"/>
		<polygon class="st13" points="227.8,40.2 227.8,40.2 227.8,40.2 		"/>
		<polygon points="227.8,40.2 227.8,40.2 227.8,40.2 227.7,40.2 227.8,40.2 		"/>
		<polygon class="st13" points="227.8,40.2 227.8,40.2 227.3,40 226.9,39.9 226.9,39 227.6,39.3 		"/>
		<path d="M227.8,40.2L227.8,40.2l-0.9-0.3V39l0.7,0.3L227.8,40.2z M226.9,39.9l0.9,0.3l-0.2-0.9l-0.7-0.3V39.9z"/>
		<polygon class="st13" points="228.1,40.2 228.1,41.6 227.3,41.3 227.3,40 227.8,40.2 227.8,40.2 		"/>
		<path d="M228.2,41.6l-0.8-0.3V40l0.5,0.2h0.4V41.6z M227.3,41.3l0.8,0.3v-1.3h-0.4l-0.4-0.2V41.3z"/>
		<path class="st14" d="M226.3,37.4c0,0-0.3-0.7,1.5-0.7c1.8,0,1.9,0.1,1.9,0.1c-0.3,0.1-0.5,0.3-0.7,0.5c0.7,0,1.4,0.1,2.2,0.2
			c0,0,0.2-0.1,0.2-0.6c-0.1-0.5,0.1,0.5,0.7,0.6c0.6,0.1,1.4-0.5,2.2,0.2c-0.7,0-1.4,0.1-2,0.3c-0.4,0.2-0.9-0.4-1.5-0.4
			c-0.8-0.2-1.7-0.2-2.6-0.1c0,0,0.2-0.3,0.4-0.4C227.8,37.1,227,37.2,226.3,37.4z"/>
	</g>
	<g id="יב_א_מרכז">
		<path class="st0" d="M217.3,173.6c0,4.7-3.8,8.5-8.5,8.5h-45.2c-4.7,0-8.4,3.8-8.4,8.4v2.6h-1.8v-19.5c0-4.7,3.8-8.5,8.5-8.5
			c0,0,0,0,0,0h46.9C213.5,165.1,217.3,168.9,217.3,173.6L217.3,173.6z"/>
		<path class="st1" d="M162.9,173.2l-0.5-3.7l-0.3-0.1v-1.2h3v1.2H164l0.6,3.8L162.9,173.2z"/>
		<path class="st1" d="M167,173.3c-0.2,0-0.5,0-0.7-0.1c-0.3,0-0.5-0.1-0.8-0.1l0.2-1.1c0.3,0.1,0.7,0.1,1,0.1
			c0.3,0,0.6-0.1,0.8-0.2c0.2-0.2,0.3-0.4,0.2-0.7v-1.7h-2.1v-1.2h3.6v2.7c0,0.5-0.1,0.9-0.3,1.4c-0.2,0.3-0.5,0.6-0.8,0.8
			C167.9,173.2,167.5,173.3,167,173.3z"/>
		<path class="st1" d="M172.1,173.2V170c0-0.2,0-0.3-0.2-0.4c-0.1-0.1-0.3-0.2-0.5-0.1h-1.4v-1.2h1.5c0.5,0,1.1,0.1,1.5,0.5
			c0.4,0.3,0.6,0.8,0.6,1.4v3.1L172.1,173.2z"/>
		<path class="st1" d="M174.8,173.2l0.3-2.6c0-0.2,0.1-0.4,0.2-0.6c0.1-0.2,0.2-0.3,0.3-0.5l0,0l0,0l0,0c-0.1,0-0.2,0-0.4,0.1
			l-0.3,0.1l-0.3-1.1c0.2-0.1,0.5-0.2,0.7-0.2c0.3-0.1,0.6-0.1,0.8-0.1c0.3,0,0.6,0,0.8,0c0.7,0,1.3,0.2,1.8,0.6
			c0.4,0.5,0.7,1.1,0.6,1.8v2.7h-2.2V172h0.7v-1.8c0-0.2,0-0.5-0.1-0.6c-0.1-0.2-0.2-0.2-0.4-0.2c-0.2,0-0.4,0.1-0.5,0.3
			c-0.1,0.2-0.2,0.5-0.2,0.8l-0.3,2.8L174.8,173.2z"/>
		<path class="st1" d="M185.8,173.2l-3.4-5h1.8l3.4,5H185.8z M182.6,173.2v-1.6c0-0.4,0.1-0.8,0.3-1.2c0.2-0.3,0.5-0.5,0.9-0.6
			l0.5,0.8c-0.1,0.1-0.2,0.3-0.2,0.4v2.3L182.6,173.2z M187.5,168.2l-1.6,3.2l-1-1.2l0.9-2L187.5,168.2z"/>
		<path class="st1" d="M188.3,168.3c0-0.2,0-0.4,0.1-0.6c0.1-0.2,0.2-0.4,0.3-0.6c0.1-0.2,0.2-0.3,0.4-0.4l0.6,0.3
			c-0.1,0.2-0.2,0.3-0.2,0.5c-0.1,0.2-0.1,0.5-0.1,0.7v0.7h-1.1V168.3z M189.8,168.3c0-0.2,0-0.4,0.1-0.6c0.1-0.2,0.2-0.4,0.3-0.6
			c0.1-0.2,0.2-0.3,0.4-0.4l0.6,0.3c-0.1,0.2-0.2,0.3-0.2,0.5c-0.1,0.2-0.1,0.5-0.1,0.7v0.7h-1.1L189.8,168.3z"/>
		<path class="st1" d="M191.7,173.2V172h2.2l1.6-0.1l0.6,0.1v1.1L191.7,173.2z M193.9,172.8V170c0-0.1,0-0.3-0.1-0.4
			c-0.1-0.1-0.3-0.1-0.4-0.1H192v-1.2h1.5c0.5,0,1.1,0.1,1.5,0.5c0.4,0.3,0.6,0.8,0.5,1.3v2.8L193.9,172.8z"/>
		<path class="st1" d="M197.1,171.1v-1.7h-0.7v-1.2h2.3v2.9H197.1z"/>
		<path class="st1" d="M190.5,177.7l0.2-1.9h2v0.3H191l-0.1,1.4c0.1-0.1,0.2-0.1,0.3-0.1c0.3-0.1,0.7-0.1,1.1,0.1
			c0.2,0.1,0.3,0.3,0.4,0.4c0.1,0.2,0.2,0.4,0.1,0.7c0,0.2,0,0.5-0.1,0.7c-0.1,0.2-0.2,0.4-0.4,0.5c-0.2,0.1-0.4,0.2-0.7,0.2
			c-0.1,0-0.3,0-0.4-0.1c-0.1,0-0.3-0.1-0.4-0.2c-0.1-0.1-0.2-0.2-0.3-0.3c-0.1-0.2-0.1-0.3-0.1-0.5h0.3c0,0.2,0.1,0.4,0.3,0.6
			c0.3,0.2,0.7,0.3,1.1,0.1c0.1-0.1,0.2-0.2,0.3-0.4c0.1-0.2,0.1-0.4,0.1-0.6c0-0.2,0-0.3-0.1-0.5c-0.1-0.1-0.2-0.3-0.3-0.4
			c-0.1-0.1-0.3-0.1-0.5-0.1c-0.2,0-0.3,0-0.4,0.1c-0.1,0.1-0.2,0.1-0.3,0.2L190.5,177.7z"/>
		<path class="st1" d="M195.8,178.1c0,0.3,0,0.7-0.1,1c-0.1,0.2-0.2,0.4-0.4,0.6c-0.2,0.1-0.4,0.2-0.7,0.2c-0.2,0-0.5-0.1-0.7-0.2
			c-0.2-0.1-0.3-0.3-0.4-0.6c-0.1-0.3-0.2-0.7-0.1-1v-0.7c0-0.3,0-0.7,0.1-1c0.1-0.2,0.2-0.4,0.4-0.6c0.4-0.3,0.9-0.3,1.3,0
			c0.2,0.1,0.3,0.3,0.4,0.6c0.1,0.3,0.2,0.7,0.1,1L195.8,178.1z M195.5,177.4c0-0.3,0-0.5-0.1-0.8c-0.1-0.2-0.2-0.3-0.3-0.5
			c-0.1-0.1-0.3-0.2-0.5-0.2c-0.2,0-0.4,0-0.5,0.2c-0.1,0.1-0.2,0.3-0.3,0.5c-0.1,0.2-0.1,0.5-0.1,0.8v0.7c0,0.3,0,0.5,0.1,0.8
			c0.1,0.2,0.2,0.4,0.3,0.5c0.1,0.1,0.3,0.2,0.5,0.2c0.2,0,0.4,0,0.5-0.2c0.1-0.1,0.2-0.3,0.3-0.5c0.1-0.2,0.1-0.5,0.1-0.8V177.4z"
			/>
		<path class="st1" d="M197.2,177.7h0.4c0.2,0,0.4,0,0.6,0.1c0.1,0,0.3,0.1,0.4,0.2c0.1,0.1,0.2,0.2,0.2,0.3c0.1,0.3,0.1,0.7-0.1,1
			c-0.1,0.2-0.3,0.3-0.4,0.4c-0.2,0.1-0.4,0.1-0.6,0.1c-0.2,0-0.3,0-0.5-0.1c-0.1,0-0.3-0.1-0.4-0.2c-0.1-0.1-0.2-0.2-0.3-0.4
			c-0.1-0.2-0.1-0.3-0.1-0.5h0.3c0,0.2,0,0.3,0.1,0.4c0.1,0.1,0.2,0.2,0.3,0.3c0.2,0.1,0.3,0.1,0.5,0.1c0.2,0,0.5-0.1,0.7-0.2
			c0.3-0.3,0.4-0.8,0.1-1.1c-0.1-0.1-0.2-0.2-0.3-0.2c-0.2-0.1-0.3-0.1-0.5-0.1h-0.3L197.2,177.7z M197.5,177.6c0.2,0,0.4,0,0.5-0.1
			c0.1-0.1,0.2-0.2,0.3-0.3c0.1-0.1,0.1-0.2,0.1-0.4c0-0.1,0-0.3-0.1-0.4c-0.1-0.1-0.2-0.2-0.3-0.3c-0.1-0.1-0.3-0.1-0.5-0.1
			c-0.2,0-0.3,0-0.4,0.1c-0.1,0.1-0.2,0.2-0.3,0.3c-0.1,0.1-0.1,0.3-0.1,0.4h-0.3c0-0.2,0-0.4,0.1-0.6c0.1-0.2,0.3-0.3,0.4-0.4
			c0.2-0.1,0.4-0.1,0.6-0.1c0.2,0,0.4,0,0.6,0.1c0.2,0.1,0.3,0.2,0.4,0.4c0.1,0.2,0.2,0.4,0.1,0.6c0,0.1,0,0.2-0.1,0.4
			c-0.1,0.1-0.1,0.2-0.2,0.3c-0.1,0.1-0.2,0.2-0.4,0.2c-0.2,0.1-0.3,0.1-0.5,0.1h-0.4v-0.2H197.5z"/>
		<path class="st15" d="M208.7,180.5c-3.8,0-6.9-3.1-6.8-6.9c0-3.8,3.1-6.9,6.9-6.8c1.8,0,3.5,0.7,4.8,2c2.7,2.7,2.7,7.1,0,9.7
			C212.3,179.8,210.5,180.5,208.7,180.5L208.7,180.5z"/>
		<path class="st12" d="M208.8,167c1.8,0,3.5,0.7,4.7,2c2.6,2.6,2.5,6.8-0.1,9.4c-2.6,2.6-6.8,2.5-9.4-0.1c-2.6-2.6-2.5-6.8,0.1-9.4
			C205.3,167.7,207,167,208.8,167L208.8,167 M208.7,166.5c-3.9,0.1-7,3.4-6.9,7.4c0.1,3.7,3.1,6.7,6.8,6.9l0,0
			c3.9,0.2,7.3-2.9,7.4-6.8c0.2-3.9-2.9-7.3-6.8-7.4C209.1,166.5,208.9,166.5,208.7,166.5z"/>
		<path class="st16" d="M214.2,172.6l-0.9,0.9c-0.1,0.1-0.1,0.1-0.2,0.1h-5.3c0.1-0.2,0.2-0.5,0.3-0.7h-3.2c-0.2,0-0.2,0-0.2,0.2
			c0,0.1,0,0.1,0,0.2l-1.8-0.9l1.7-0.9l0,0c0,0.4,0,0.4,0.4,0.4h4.6c0.2,0,0.2,0,0.1,0.2l-0.2,0.5L214.2,172.6z"/>
		<path class="st1" d="M210.3,169.9c-0.1,0.2-0.1,0.2,0.1,0.2s0.2,0.1,0.1,0.2s-0.3,0.6-0.4,0.9c0,0.1-0.2,0.2-0.3,0.2h-6.3l0,0
			l1.8-0.5l2.4-0.7c0.1,0,0.3-0.1,0.4-0.2l1.3-1.1c0.1-0.1,0.2-0.1,0.3-0.1c0.3,0,0.6,0,0.9-0.1c0.1,0,0.1,0,0.1,0.1
			C210.5,169.2,210.4,169.6,210.3,169.9z"/>
		<path class="st1" d="M211.8,169.8c0,0.7-0.2,1.5-0.5,2.1c-0.1,0.2-0.2,0.3-0.4,0.2c-0.1,0-0.2,0-0.4,0c0,0-0.1,0-0.1,0
			s0-0.1,0.1-0.1c0.3-0.4,0.5-0.9,0.6-1.5c0.1-0.4,0.1-0.9,0.1-1.4l0,0L211.8,169.8C211.7,169.7,211.7,169.7,211.8,169.8z"/>
		<path class="st1" d="M212.6,171.2c0,0.2-0.1,0.4-0.2,0.6c-0.1,0.4-0.1,0.4-0.5,0.4s-0.4,0-0.2-0.3c0.2-0.5,0.4-1,0.4-1.5
			c0-0.1,0-0.1,0.1-0.2s0.1,0,0.1,0.1C212.8,170.6,212.8,170.4,212.6,171.2z"/>
		<path class="st1" d="M213.4,171.3l-0.2,0.6c0,0.1-0.1,0.2-0.2,0.2c0,0,0,0,0,0h-0.4c-0.1,0-0.1,0-0.1-0.1c0.2-0.4,0.3-0.8,0.4-1.2
			c0.2,0.1,0.3,0.3,0.4,0.4C213.4,171.2,213.5,171.3,213.4,171.3z"/>
		<path class="st1" d="M214.4,172.1h-0.9c-0.1,0-0.1-0.1-0.1-0.1s0.1-0.4,0.2-0.6L214.4,172.1z"/>
	</g>
	<g id="יב_א_דרום">
		<path class="st0" d="M173.2,362c0,4.7-3.8,8.5-8.5,8.5h-50.4c-4.7,0-8.4,3.8-8.4,8.4l0,0v2.6h-1.7V362c0-4.7,3.8-8.5,8.5-8.5
			c0,0,0,0,0,0h52.1C169.4,353.5,173.2,357.3,173.2,362L173.2,362z"/>
		<path class="st1" d="M111.8,356.6c0.5,0,1.1,0.1,1.5,0.5c0.4,0.4,0.5,0.9,0.5,1.4v3.1h-1.5v-3.2c0-0.1,0-0.3-0.1-0.4
			c-0.1-0.1-0.2-0.1-0.3-0.1h-0.6c0,0.1,0,0.3,0,0.5s0,0.3,0,0.4v1.3c0,0.5-0.1,0.9-0.4,1.2c-0.3,0.3-0.8,0.5-1.2,0.4h-0.4l-0.3,0
			v-1.2h0.3c0.1,0,0.3,0,0.4-0.1c0.1-0.1,0.1-0.3,0.1-0.4v-1c0-0.2,0-0.3,0.1-0.5c0-0.2,0.1-0.4,0.2-0.5h-0.7v-1.2L111.8,356.6z"/>
		<path class="st1" d="M115.1,359.4v-1.7h-0.7v-1.2h2.3v2.9L115.1,359.4z"/>
		<path class="st1" d="M117.9,361.5l0.3-2.6c0-0.2,0.1-0.4,0.2-0.6c0.1-0.2,0.2-0.3,0.3-0.5l0,0l0,0l0,0c-0.1,0-0.2,0-0.3,0.1
			L118,358l-0.3-1.1c0.2-0.1,0.5-0.2,0.7-0.2c0.3-0.1,0.5-0.1,0.8-0.1c0.3,0,0.6,0,0.8,0c0.7,0,1.3,0.2,1.8,0.6
			c0.4,0.5,0.7,1.1,0.6,1.8v2.7h-2.2v-1.2h0.7v-1.8c0-0.2,0-0.5-0.2-0.6c-0.1-0.2-0.2-0.2-0.4-0.2c-0.2,0-0.4,0.1-0.5,0.3
			c-0.1,0.2-0.2,0.5-0.2,0.8l-0.3,2.8L117.9,361.5z"/>
		<path class="st1" d="M123.6,361.5v-3.8h-0.4v-1.2h1.9v5L123.6,361.5z"/>
		<path class="st1" d="M128,361.5v-3.2c0-0.2,0-0.3-0.2-0.4c-0.1-0.1-0.3-0.2-0.5-0.1h-1.4v-1.2h1.5c0.5,0,1.1,0.1,1.5,0.5
			c0.4,0.3,0.6,0.8,0.6,1.4v3.1L128,361.5z"/>
		<path class="st1" d="M130.3,356.6h4.4v1.2h-0.9v3.8h-1.6v-3.8h-2L130.3,356.6z"/>
		<path class="st1" d="M140.8,361.5l-3.4-5h1.7l3.4,5H140.8z M137.6,361.5V360c0-0.4,0.1-0.8,0.3-1.2c0.2-0.3,0.5-0.5,0.9-0.7
			l0.5,0.8c-0.1,0.1-0.2,0.3-0.2,0.4v2.3L137.6,361.5z M142.6,356.5l-1.6,3.2l-1-1.2l0.9-2L142.6,356.5z"/>
		<path class="st1" d="M143.3,356.6c0-0.2,0-0.4,0.1-0.6c0.1-0.2,0.2-0.4,0.3-0.5c0.1-0.2,0.2-0.3,0.4-0.4l0.6,0.4
			c-0.1,0.2-0.2,0.3-0.2,0.5c-0.1,0.2-0.1,0.5-0.1,0.7v0.7h-1.1L143.3,356.6z M144.8,356.6c0-0.2,0-0.4,0.1-0.6
			c0.1-0.2,0.2-0.4,0.3-0.5c0.1-0.2,0.2-0.3,0.4-0.4l0.6,0.4c-0.1,0.2-0.2,0.3-0.2,0.5c-0.1,0.2-0.1,0.5-0.1,0.7v0.7h-1.1
			L144.8,356.6z"/>
		<path class="st1" d="M146.7,361.5v-1.2h2.2h1.6l0.6,0.1v1.1L146.7,361.5z M149,361.2v-2.9c0-0.1,0-0.3-0.1-0.4
			c-0.1-0.1-0.3-0.1-0.4-0.1H147v-1.2h1.5c0.5,0,1.1,0.1,1.5,0.5c0.4,0.3,0.6,0.8,0.5,1.3v2.8L149,361.2z"/>
		<path class="st1" d="M152.1,359.4v-1.7h-0.7v-1.2h2.3v2.9L152.1,359.4z"/>
		<path class="st1" d="M145.4,366.1l0.2-1.9h2v0.3h-1.7l-0.1,1.4c0.1-0.1,0.2-0.1,0.3-0.1c0.1-0.1,0.3-0.1,0.4-0.1
			c0.2,0,0.4,0,0.6,0.1c0.2,0.1,0.3,0.3,0.4,0.5c0.1,0.2,0.2,0.4,0.1,0.7c0,0.2,0,0.5-0.1,0.7c-0.1,0.2-0.2,0.4-0.4,0.5
			c-0.2,0.1-0.4,0.2-0.7,0.2c-0.2,0-0.3,0-0.4-0.1c-0.1,0-0.3-0.1-0.4-0.2c-0.1-0.1-0.2-0.2-0.3-0.4c-0.1-0.1-0.1-0.3-0.1-0.5h0.3
			c0,0.2,0.1,0.4,0.3,0.6c0.2,0.1,0.4,0.2,0.6,0.2c0.2,0,0.3,0,0.5-0.1c0.1-0.1,0.2-0.2,0.3-0.4c0.1-0.2,0.1-0.4,0.1-0.6
			c0-0.2,0-0.3-0.1-0.5c-0.1-0.1-0.2-0.3-0.3-0.4c-0.2-0.1-0.3-0.1-0.5-0.1c-0.2,0-0.3,0-0.4,0.1c-0.1,0.1-0.2,0.1-0.3,0.2
			L145.4,366.1z"/>
		<path class="st1" d="M150.7,366.5c0,0.3,0,0.7-0.1,1c-0.1,0.2-0.2,0.4-0.4,0.6c-0.4,0.3-0.9,0.3-1.3,0c-0.2-0.1-0.3-0.3-0.4-0.6
			c-0.1-0.3-0.2-0.7-0.1-1v-0.7c0-0.3,0-0.7,0.1-1c0.1-0.2,0.2-0.4,0.4-0.6c0.4-0.2,0.9-0.2,1.3,0c0.2,0.1,0.3,0.3,0.4,0.6
			c0.1,0.3,0.2,0.7,0.1,1L150.7,366.5z M150.4,365.8c0-0.3,0-0.5-0.1-0.8c-0.1-0.2-0.2-0.3-0.3-0.5c-0.3-0.2-0.7-0.2-1,0
			c-0.1,0.1-0.2,0.3-0.3,0.5c-0.1,0.2-0.1,0.5-0.1,0.8v0.7c0,0.3,0,0.5,0.1,0.8c0.1,0.2,0.2,0.4,0.3,0.5c0.1,0.1,0.3,0.2,0.5,0.2
			c0.2,0,0.4,0,0.5-0.2c0.1-0.1,0.2-0.3,0.3-0.5c0.1-0.2,0.1-0.5,0.1-0.8L150.4,365.8z"/>
		<path class="st1" d="M151.9,367.9c0.2,0,0.5,0,0.7-0.1c0.2-0.1,0.3-0.2,0.5-0.4c0.1-0.2,0.2-0.3,0.3-0.5c0.1-0.2,0.1-0.4,0.1-0.7
			v-0.5c0-0.2,0-0.5-0.1-0.7c-0.1-0.2-0.2-0.3-0.3-0.4c-0.1-0.1-0.3-0.2-0.5-0.1c-0.2,0-0.3,0.1-0.5,0.2c-0.1,0.1-0.2,0.2-0.3,0.4
			c-0.1,0.2-0.1,0.4-0.1,0.5c0,0.2,0,0.3,0.1,0.5c0.1,0.2,0.2,0.3,0.3,0.4c0.1,0.1,0.3,0.2,0.5,0.1c0.1,0,0.3,0,0.4-0.1
			c0.1-0.1,0.2-0.1,0.3-0.2c0.1-0.1,0.2-0.2,0.2-0.3c0-0.1,0.1-0.2,0.1-0.3h0.2c0,0.3-0.1,0.6-0.3,0.9c-0.1,0.1-0.2,0.2-0.4,0.3
			c-0.2,0.1-0.3,0.1-0.5,0.1c-0.2,0-0.4-0.1-0.6-0.2c-0.2-0.1-0.3-0.3-0.4-0.5c-0.1-0.2-0.1-0.4-0.1-0.6c0-0.2,0-0.5,0.1-0.7
			c0.1-0.2,0.2-0.4,0.4-0.5c0.2-0.1,0.4-0.2,0.6-0.2c0.2,0,0.4,0,0.6,0.1c0.2,0.1,0.3,0.2,0.4,0.3c0.1,0.1,0.2,0.3,0.2,0.5
			c0.1,0.2,0.1,0.4,0.1,0.6v0.3c0,0.2,0,0.5-0.1,0.7c0,0.2-0.1,0.4-0.2,0.6c-0.1,0.2-0.2,0.3-0.3,0.5c-0.2,0.1-0.3,0.2-0.5,0.3
			c-0.2,0.1-0.5,0.1-0.7,0.1h-0.1L151.9,367.9L151.9,367.9z"/>
		<circle class="st17" cx="164" cy="362" r="7"/>
		<path class="st18" d="M169.9,361.9c0,0.2,0,0.4-0.1,0.6c0,0.1,0,0.2-0.1,0.3c-0.1,0.3-0.3,0.7-0.5,0.9l-0.2,0.3
			c-0.3,0.3-0.5,0.5-0.9,0.7l-0.3,0.2h-7.8l-0.3-0.2l-0.3-0.3c-0.2-0.1-0.3-0.3-0.5-0.5l-0.2-0.3c-0.2-0.3-0.4-0.6-0.5-0.9
			c0-0.1-0.1-0.2-0.1-0.3c0-0.2-0.1-0.4-0.1-0.6c0-0.3,0-0.5,0.1-0.8c0-0.1,0.1-0.2,0.1-0.3c0.1-0.3,0.3-0.7,0.6-0.9l0.3-0.3
			c0.2-0.2,0.3-0.3,0.5-0.5c0.1-0.1,0.3-0.2,0.4-0.3l0.3-0.2c2.3-1.1,5-1.1,7.3,0l0.3,0.2c0.1,0.1,0.3,0.2,0.4,0.3
			c0.2,0.1,0.4,0.3,0.5,0.5l0.3,0.3c0.2,0.3,0.4,0.6,0.6,0.9c0,0.1,0.1,0.2,0.1,0.3C169.9,361.4,170,361.7,169.9,361.9z"/>
		<path class="st19" d="M169.9,361.9c0,0.2,0,0.4-0.1,0.6c0,0.1,0,0.2-0.1,0.3c-0.1,0.3-0.3,0.7-0.5,0.9l-0.2,0.3
			c-0.3,0.3-0.5,0.5-0.9,0.7l-0.3,0.2h-7.8l-0.3-0.2l-0.3-0.3c-0.2-0.1-0.3-0.3-0.5-0.5l-0.2-0.3c-0.2-0.3-0.4-0.6-0.5-0.9
			c0-0.1-0.1-0.2-0.1-0.3c0-0.2-0.1-0.4-0.1-0.6c0-0.3,0-0.5,0.1-0.8c0-0.1,0.1-0.2,0.1-0.3c0.1-0.3,0.3-0.7,0.6-0.9l0.3-0.3
			c0.2-0.2,0.3-0.3,0.5-0.5c0.1-0.1,0.3-0.2,0.4-0.3l0.3-0.2c2.3-1.1,5-1.1,7.3,0l0.3,0.2c0.1,0.1,0.3,0.2,0.4,0.3
			c0.2,0.1,0.4,0.3,0.5,0.5l0.3,0.3c0.2,0.3,0.4,0.6,0.6,0.9c0,0.1,0.1,0.2,0.1,0.3C169.9,361.4,170,361.7,169.9,361.9z"/>
		<path class="st17" d="M167.6,358.8h-7.3C162.7,357.6,165.3,357.6,167.6,358.8z"/>
		<path class="st17" d="M168.4,359.2h-8.7c0.1-0.1,0.3-0.2,0.4-0.3h7.9C168.1,359,168.3,359.1,168.4,359.2z"/>
		<path class="st17" d="M169.1,360h-10.3l0.3-0.3h9.8L169.1,360z"/>
		<path class="st17" d="M169.8,361.2h-11.7c0-0.1,0.1-0.2,0.1-0.3h11.5C169.8,361,169.8,361.1,169.8,361.2z"/>
		<path class="st17" d="M167.9,365c-0.9,0.5-1.9,0.8-2.9,0.9c-0.7,0.1-1.4,0.1-2.1,0c-1-0.1-1.9-0.4-2.8-0.9H167.9z"/>
		<path class="st17" d="M168.6,364.5c-0.1,0.1-0.2,0.2-0.4,0.3h-8.4l-0.3-0.3l0,0L168.6,364.5z"/>
		<path class="st17" d="M169.3,363.8l-0.2,0.3h-10.1l-0.2-0.3H169.3z"/>
		<path class="st17" d="M169.9,362.6c0,0.1,0,0.2-0.1,0.3h-11.6c0-0.1-0.1-0.2-0.1-0.3H169.9z"/>
		<ellipse class="st20" cx="164" cy="361.9" rx="4.3" ry="3.1"/>
		<polygon class="st21" points="164.1,364.2 164.1,358.9 164.8,361 165.3,360.3 166.8,364.2 		"/>
		<polygon class="st21" points="164.1,358.9 164.1,363.1 162.9,363.1 162.9,364.2 161.4,364.2 162.8,360.3 163.3,361 		"/>
		<polygon class="st22" points="165.2,363.1 165.2,365 164.1,365 164.1,365 162.9,365 162.9,363.1 		"/>
		<rect x="164.6" y="364.2" class="st23" width="0.4" height="0.5"/>
		<rect x="163.1" y="364.2" class="st23" width="0.4" height="0.5"/>
		<path class="st1" d="M165.1,361.9L165.1,361.9c0-0.2-0.1-0.4-0.2-0.5c-0.1-0.2-0.3-0.3-0.5-0.4c-0.1,0-0.2,0-0.2,0H164
			c-0.2,0-0.3,0.1-0.5,0.2c-0.1,0.1-0.3,0.2-0.4,0.4c-0.1,0.1-0.1,0.3-0.1,0.4l0,0v0.2c0,0.2,0.1,0.3,0.2,0.5
			c0.1,0.2,0.3,0.3,0.4,0.4c0.1,0.1,0.2,0.1,0.4,0.1h0.3c0.2,0,0.3-0.1,0.5-0.2c0.2-0.1,0.4-0.4,0.4-0.7c0,0,0-0.1,0-0.1v0l0,0
			L165.1,361.9L165.1,361.9z M165,361.6c0,0.1,0.1,0.2,0.1,0.4h-0.2c0-0.1,0-0.3-0.1-0.4L165,361.6L165,361.6z M164.5,361.6h0.3l0,0
			c0,0.1,0.1,0.2,0.1,0.4h-0.3C164.5,361.8,164.5,361.7,164.5,361.6L164.5,361.6z M164.7,361.5h-0.2l0,0c0-0.1,0-0.2-0.1-0.3h0.2
			C164.7,361.3,164.7,361.4,164.7,361.5L164.7,361.5L164.7,361.5z M164.5,362.5h0.3l0,0c0,0.1-0.1,0.2-0.2,0.3h-0.2l0,0
			C164.4,362.7,164.5,362.6,164.5,362.5L164.5,362.5z M164.6,362.5L164.6,362.5c-0.1-0.1-0.1-0.2-0.1-0.4h0.3v0.1
			c0,0.1,0,0.2-0.1,0.3l0,0L164.6,362.5L164.6,362.5z M164.7,361.3c0.1,0.1,0.2,0.2,0.2,0.3l0,0l0,0h-0.1l0,0
			C164.8,361.5,164.7,361.4,164.7,361.3L164.7,361.3L164.7,361.3L164.7,361.3L164.7,361.3z M164.5,361.2L164.5,361.2L164.5,361.2
			L164.5,361.2L164.5,361.2L164.5,361.2L164.5,361.2z M164.3,361.1c0.1,0,0.1,0.1,0.2,0.1l0,0h-0.1
			C164.3,361.2,164.3,361.1,164.3,361.1L164.3,361.1L164.3,361.1L164.3,361.1L164.3,361.1z M164.1,361.1L164.1,361.1
			c0.1,0,0.1,0.1,0.2,0.1l0,0h-0.1L164.1,361.1z M164.1,361.3h0.2l0,0c0,0.1,0.1,0.2,0.1,0.3h-0.3L164.1,361.3z M164.1,361.7h0.3
			c0,0.1,0,0.3,0,0.4h-0.4L164.1,361.7z M164.1,362.1h0.4v0.1c0,0.1,0,0.2,0,0.3l0,0h-0.3L164.1,362.1z M164.1,362.6h0.3l0,0l0,0
			c0,0.1,0,0.2-0.1,0.3h-0.2L164.1,362.6z M164.1,361.1L164.1,361.1v0.2h-0.2C163.9,361.1,164,361,164.1,361.1L164.1,361.1z
			 M163.5,361.7h0.2c0,0.1,0,0.3,0,0.4h-0.3l0,0C163.4,361.9,163.4,361.8,163.5,361.7L163.5,361.7L163.5,361.7z M163.4,361.6
			L163.4,361.6c0-0.1,0.1-0.2,0.2-0.3h0.2c0,0.1-0.1,0.2-0.1,0.3L163.4,361.6L163.4,361.6z M163.7,362.1L163.7,362.1
			c0,0.1,0,0.2,0,0.4h-0.3c0-0.1,0-0.2-0.1-0.2s0-0.1,0-0.1V362L163.7,362.1z M163.7,362.6L163.7,362.6c0,0.1,0,0.2,0.1,0.3h-0.2
			c-0.1-0.1-0.1-0.2-0.2-0.3H163.7L163.7,362.6z M163.7,362.5c0-0.1,0-0.2,0-0.4h0.4v0.4L163.7,362.5L163.7,362.5z M163.7,362.1
			L163.7,362.1c0-0.1,0-0.3,0-0.4h0.3v0.3L163.7,362.1z M163.8,361.6L163.8,361.6c0-0.1,0-0.2,0.1-0.3l0,0h0.2v0.3L163.8,361.6z
			 M163.7,361.2c0.1,0,0.1-0.1,0.2-0.1l0,0l-0.1,0.1l0,0l0,0L163.7,361.2L163.7,361.2z M163.7,361.2L163.7,361.2L163.7,361.2
			L163.7,361.2L163.7,361.2L163.7,361.2L163.7,361.2z M163.2,361.6L163.2,361.6c0.1-0.1,0.1-0.2,0.2-0.3h0.1l0,0l-0.1,0.1l-0.1,0.2
			l0,0h-0.3L163.2,361.6z M163.1,362.1L163.1,362.1C163.1,362,163.1,362,163.1,362.1c0-0.2,0-0.3,0.1-0.3l0,0h0.2v0
			c0,0.1,0,0.2-0.1,0.3l0,0L163.1,362.1L163.1,362.1z M163.2,362.5L163.2,362.5c0-0.1-0.1-0.2-0.1-0.3V362h0.2c0,0.1,0,0.2,0.1,0.4
			h-0.3L163.2,362.5z M163.5,362.9L163.5,362.9c-0.1-0.1-0.2-0.2-0.2-0.3h0.2C163.5,362.7,163.5,362.8,163.5,362.9L163.5,362.9
			L163.5,362.9z M163.7,363L163.7,363L163.7,363L163.7,363C163.6,363,163.6,363,163.7,363L163.7,363L163.7,363L163.7,363z
			 M163.9,363.1c-0.1,0-0.1-0.1-0.2-0.1h0.1C163.9,363,163.9,363,163.9,363.1L163.9,363.1L163.9,363.1z M164.1,363.1L164.1,363.1
			c-0.1,0-0.1-0.1-0.2-0.1h0.2L164.1,363.1z M164.1,362.8L164.1,362.8h-0.2c0-0.1-0.1-0.2-0.1-0.3h0.3L164.1,362.8z M164.2,363.1
			L164.2,363.1v-0.2h0.2C164.3,363,164.2,363,164.2,363.1L164.2,363.1z M164.5,362.9c-0.1,0.1-0.1,0.1-0.2,0.1l0,0l0,0l0.1-0.1l0,0
			L164.5,362.9L164.5,362.9z M164.5,363L164.5,363L164.5,363L164.5,363L164.5,363z M165,362.6L165,362.6c-0.1,0.1-0.1,0.2-0.2,0.3
			h-0.1c0.1-0.1,0.1-0.2,0.2-0.3H165z M165.1,362.1C165.1,362.1,165.1,362.2,165.1,362.1c0,0.2,0,0.3-0.1,0.3h-0.2
			c0-0.1,0.1-0.2,0.1-0.4L165.1,362.1L165.1,362.1z"/>
	</g>
</g>
</svg>
