<?xml version="1.0" encoding="utf-8"?>
<!-- Generator: Adobe Illustrator 25.4.1, SVG Export Plug-In . SVG Version: 6.00 Build 0)  -->
<svg version="1.1" id="Layer_1" xmlns="http://www.w3.org/2000/svg" xmlns:xlink="http://www.w3.org/1999/xlink" x="0px" y="0px"
	 viewBox="0 0 222.1 505.9" style="enable-background:new 0 0 222.1 505.9;" xml:space="preserve">
<style type="text/css">
	.st0{fill:#2E365B;}
	.st1{fill:#FFFFFF;}
	.st2{fill:none;stroke:#2E365B;stroke-miterlimit:10;}
	.st3{fill:#C0CADB;}
	.st4{fill:none;stroke:#2E365B;stroke-width:0.25;stroke-miterlimit:10;}
	.st5{fill:none;stroke:#2E365B;stroke-width:0.63;stroke-miterlimit:10;}
	.st6{fill:none;stroke:#2E365B;stroke-width:0.1;stroke-miterlimit:10;}
	.st7{fill:none;stroke:#2E365B;stroke-width:0.5;stroke-miterlimit:10;}
	.st8{fill:#0D131A;}
	.st9{fill:#A4A665;}
	.st10{fill:#498BCA;}
	.st11{fill:#205A39;}
	.st12{fill:#1D1D1B;}
	.st13{fill:#AAAAAB;}
	.st14{fill:#E53024;}
	.st15{fill:#17375D;}
	.st16{fill:#A21B17;}
	.st17{fill:#1F274B;}
	.st18{fill:#FFFFFF;stroke:#1F274B;stroke-miterlimit:10;}
	.st19{fill:none;}
	.st20{fill:#C8392E;}
	.st21{fill:#20294F;}
	.st22{fill:#20294F;stroke:#FEFFFF;stroke-miterlimit:10;}
	.st23{fill:#FEFFFF;}
</style>
<g id="מפה">
	<g id="בח_א_21">
		<path class="st0" d="M41.3,51.9c0,4.7,3.8,8.5,8.5,8.5h39c4.7,0,8.4,3.8,8.4,8.4v2.6H99V51.9c0-4.7-3.8-8.5-8.5-8.5c0,0,0,0,0,0
			H49.8C45.1,43.5,41.3,47.3,41.3,51.9z"/>
		<path class="st1" d="M65.9,51.5h-4.2v-1l1.9-2c0.1-0.2,0.3-0.3,0.4-0.5c0.1-0.1,0.2-0.3,0.2-0.4c0-0.1,0.1-0.2,0.1-0.3
			c0-0.2,0-0.4-0.2-0.5c-0.1-0.1-0.3-0.2-0.4-0.2c-0.1,0-0.2,0-0.3,0.1c-0.1,0.1-0.2,0.2-0.2,0.3c-0.1,0.1-0.1,0.3-0.1,0.4h-1.5
			c0-0.4,0.1-0.7,0.3-1c0.2-0.3,0.4-0.6,0.8-0.7c0.3-0.2,0.7-0.3,1.1-0.3c0.5,0,1.1,0.1,1.5,0.5c0.4,0.3,0.5,0.8,0.5,1.3
			c0,0.3-0.1,0.6-0.2,0.8c-0.1,0.3-0.3,0.5-0.5,0.8c-0.2,0.3-0.5,0.5-0.8,0.8l-0.7,0.7h2.3V51.5z"/>
		<path class="st1" d="M69.7,51.5h-1.5v-4.2l-1.3,0.4v-1.2l2.7-0.9h0.1L69.7,51.5z"/>
		<path class="st1" d="M76.9,51.5l-3.4-5h1.7l3.4,5H76.9z M73.8,51.5v-1.6c0-0.4,0.1-0.9,0.3-1.2c0.2-0.3,0.5-0.5,0.9-0.7l0.5,0.8
			c-0.1,0.1-0.2,0.3-0.2,0.4v2.3L73.8,51.5z M78.7,46.5l-1.6,3.2l-1-1.2l0.9-2L78.7,46.5z"/>
		<path class="st1" d="M79.5,46.6c0-0.2,0-0.4,0.1-0.6c0.1-0.2,0.2-0.4,0.3-0.5c0.1-0.2,0.2-0.3,0.4-0.4l0.6,0.3
			c-0.1,0.2-0.2,0.3-0.2,0.5c-0.1,0.2-0.1,0.5-0.1,0.7v0.7h-1.1V46.6z M81,46.6c0-0.2,0-0.4,0.1-0.6c0.1-0.2,0.2-0.4,0.3-0.5
			c0.1-0.2,0.2-0.3,0.4-0.4l0.6,0.3c-0.1,0.2-0.2,0.3-0.2,0.5c-0.1,0.2-0.1,0.5-0.1,0.7v0.7h-1L81,46.6z"/>
		<path class="st1" d="M83.3,51.5v-5h2.3c0.5,0,1.1,0.1,1.5,0.5c0.4,0.4,0.5,0.9,0.5,1.4v3.1h-1.5v-3.2c0-0.1,0-0.3-0.1-0.4
			c-0.1-0.1-0.2-0.1-0.3-0.1h-0.8v3.8H83.3z"/>
		<path class="st1" d="M88.3,51.5v-1.2h2.2l1.6,0l0.6,0.1v1.2H88.3z M90.6,51.1v-2.9c0-0.1,0-0.3-0.2-0.4c-0.1-0.1-0.3-0.1-0.4-0.1
			h-1.4v-1.2h1.5c0.5,0,1.1,0.1,1.5,0.5c0.4,0.3,0.6,0.8,0.5,1.3v2.8H90.6z"/>
		
			<image style="overflow:visible;enable-background:new    ;" width="504" height="504" xlink:href="D099027C.png"  transform="matrix(3.000000e-02 0 0 3.000000e-02 42.89 45.09)">
		</image>
		<path class="st1" d="M80.4,56.7v-1.5h-0.6v-0.3h1v1.8H80.4z"/>
		<path class="st1" d="M81.9,58.1h-0.3h-0.2v-0.3c0.1,0,0.3,0,0.4,0c0.1,0,0.3,0,0.4-0.1c0.1-0.1,0.1-0.3,0.1-0.4v-2.1h-0.7v-0.3h1
			v2.4c0,0.2-0.1,0.4-0.2,0.6C82.2,58.1,82.1,58.1,81.9,58.1z"/>
		<path class="st1" d="M84.3,58.1h-0.4L83.4,58v-0.3c0.3,0.1,0.5,0.1,0.8,0.1c0.3,0,0.5-0.1,0.7-0.3c0.2-0.2,0.3-0.4,0.3-0.7v-1.8
			h-1.7v-0.3h2.1v1.9c0,0.2,0,0.5-0.2,0.7c-0.1,0.2-0.2,0.4-0.4,0.5C84.8,58.1,84.5,58.1,84.3,58.1z"/>
		<path class="st1" d="M87.8,58.1c-0.2,0-0.4,0-0.6-0.2c-0.2-0.1-0.3-0.3-0.4-0.4c-0.1-0.2-0.2-0.4-0.2-0.6v-2h0.3v2
			c0,0.3,0.1,0.5,0.2,0.7c0.2,0.2,0.4,0.3,0.6,0.3c0.2,0,0.5-0.1,0.6-0.3c0.2-0.2,0.2-0.4,0.2-0.7v-1.1c0-0.2,0-0.3-0.1-0.5
			c-0.1-0.1-0.2-0.2-0.3-0.2c-0.1,0-0.2,0-0.2,0l-0.2,0.1L87.7,55c0.1-0.1,0.2-0.1,0.3-0.1c0.1,0,0.2,0,0.3,0c0.2,0,0.4,0.1,0.6,0.2
			c0.1,0.2,0.2,0.4,0.2,0.7v1.2c0,0.2,0,0.4-0.2,0.6c-0.1,0.2-0.2,0.3-0.4,0.4C88.3,58.1,88,58.1,87.8,58.1z"/>
		<path class="st1" d="M91.9,58.1v-2c0.1-0.4-0.2-0.9-0.6-0.9c-0.1,0-0.2,0-0.3,0h-1.1v-0.2H91c0.3,0,0.7,0.1,0.9,0.3
			c0.2,0.2,0.3,0.6,0.3,0.9v2L91.9,58.1z M89.9,58.1V57c0-0.1,0-0.3,0-0.4c0-0.1,0-0.2,0.1-0.3h0.3c0,0.1-0.1,0.2-0.1,0.3
			c0,0.1,0,0.2,0,0.4v1.1L89.9,58.1z"/>
	</g>
	<path id="path1104" class="st2" d="M12.9,264.9c0.6,1.2,2.2,3.6,2.2,3.6s8.6,36.9,19.3,58.3s13.5,35.4,13.5,35.4v7l3.7,5.6
		l-2.3,9.3l8.9,7.5l16.3,45.6l-1,3.3l11.2,33.5v5.1l2.3,6.5l-0.4,10.7l1,3.7l2.3,2.3v1.4l0.4,1.4l2.3-1.4l3.7-5.6
		c0.5-0.8,2.5,0.6,2.8,0c0.6-1.1-0.2-3.4,0-5.1c0.3-2.4,0.9-4.8,1.9-7c0.2-0.5,1.7,0,1.9-0.5c0.3-1.2-0.7-3.2-0.4-4.7
		c0.1-0.7,1.3-1.1,1.4-1.9c0.4-2.2-0.2-4.8,0.4-7c1.6-5.4,5.4-10.4,6.6-15.9c0.8-4-1.2-8.6-1-12.6c0.1-0.8,1.6-1,1.9-1.9
		c0.9-3,0.1-6.9,1.4-9.8c1.5-3.3,5.3-5.7,7-8.9c0.8-1.6,0.7-3.7,0.4-5.6c-0.4-2.2-1-4.4-1.9-6.5c-0.4-1.1-1-2.2-1.4-3.3
		c-0.2-0.6-0.7-1.3-0.4-1.9c0.6-1.5,2.3-2.7,2.8-4.2s-0.4-3.2,0-4.7s1.6-2.5,2.3-3.7c0.3-0.4,0.4-0.9,0.4-1.4
		c-0.1-1.6-0.5-3.2-1-4.7c-0.5-1.3-1.1-2.6-1.9-3.7c-0.4-0.5-1.6-0.8-1.4-1.4c1-3.3,4-6.7,5.1-10.3c0.6-1.7-0.2-3.7,0-5.6
		c0.1-1.4,0.4-2.8,1-4.2c1.5-3.7,3.2-7.3,5.1-10.7c1.4-2.5,4.2-4.4,5.1-7c1-3-0.6-7,0.4-9.8c0.7-1.7,4-2.2,4.7-3.7s-1.1-3.8-1-5.6
		s1.1-3.1,1.9-4.7c0.7-1.7,1.7-3.3,2.8-4.7c1-1,3.6-0.9,3.7-2.3l0.4-8.9l1.9-4.7l2.8-3.7l1.9-6.5l-1.9-5.6l-3.7-6l-2.8-1.9l1.4-6.6
		l7.4-13l0.4-14.4c0.1-5.7,1.3-11.3,2.3-16.8c0.6-3,1.4-6,2.3-8.9c1-3.3,2.5-6.5,3.3-9.8c0.3-1.1,0.3-2.2,0-3.3
		c-0.2-1.1-1.3-2.2-1.4-3.3s0.9-2.2,1-3.3c0.1-1.4-0.1-2.8-0.4-4.2c-0.6-2.1-2.5-4.3-2.3-6c0.1-1.1,2.6-1.6,2.8-2.8
		c0.3-1.8-0.7-4.1-1.4-6c-0.4-1.4-1.6-2.8-1.9-4.2c-0.1-1.3,0-2.5,0.4-3.7c0.4-1.6,1.5-3,1.9-4.7c0.2-0.9-0.1-1.9,0-2.8
		c0.4-2.2,1.3-4.3,1.9-6.6c0.7-2.8,1.9-5.6,1.9-8.4c0-3.7-1.4-7.4-1.9-11.2c-0.5-4.2-1.2-8.4-1-12.6c0.2-3.3,1.6-6.5,2.3-9.8
		c0.4-1.2,0.5-2.5,0.4-3.7c-0.2-1.2-1.6-2.1-1.9-3.3c-0.1-1.1,0-2.2,0.4-3.3c0.3-1.1,1.4-2.1,1.4-3.3c-0.1-2.7-0.6-5.3-1.4-7.9
		c-0.2-0.8-1.6-1.6-1.4-1.9c0.4-0.3,2.3,0.8,3.3,0.4c1.3-0.6,2.4-1.6,3.3-2.8c0.7-0.9,0.5-2.9,1.4-3.3c1.3-0.5,3.6,1,5.1,0.4
		c1.3-0.4,2-2.4,3.3-3.3c1.6-1,3.6-1.3,5.1-2.3c1-0.8,1.3-2.5,2.3-3.3c0.8-0.6,2.2-0.2,2.8-1c2.2-2.5,4.1-5.4,5.6-8.4
		c0.6-1.3,1-2.7,1-4.2c0-0.8-1.2-1.6-1-2.3c1.1-2.7,4.5-5.1,5.1-7.9c0.4-1.6-1.5-3.4-1.9-5.1c-1-4.9-0.5-10.6-2.3-14.9
		c-0.8-1.7-4.9-1.9-5.1-3.3c-0.2-1.6,3.1-3.9,3.7-6c0.2-1.4,0.1-2.8-0.4-4.2c-0.2-0.6-1.2-0.8-1.4-1.4c-0.7-1.7-0.4-4-1.4-5.6
		c-0.7-1.3-3.6-1.6-3.7-2.8C187,8,190.1,5.8,190.4,4c0.1-1-1.3-2.2-2.3-2.8s-2.2-0.4-3.3-0.4c-1.7-0.1-3.9-0.5-5.1,0
		c-0.5,0.2,0.4,1.7,0,2.3c-0.6,1-1.9,1.9-2.8,2.8c-0.6,0.6-1.1,1.6-1.9,1.9c-1.1,0.4-2.8-0.5-3.7,0c-0.7,0.5-0.4,2.1-1,2.8
		c-0.1,0.2-0.6,0.1-1,0c-1-0.1-2.2,0.1-2.8-0.4c-0.9-0.8-1.3-3.6-1.9-3.7s-0.4,2-1,2.8s-1.4,1.1-1.9,1.9c-0.7,1-1.2,2.1-1.4,3.3
		c-0.1,1.3,0.5,2.8,0.4,4.2c-0.2,1.7-0.5,3.5-1,5.1c-0.3,1.6-0.3,3.3-1,4.7c-0.4,1-1.8,1.5-2.3,2.3c-0.2,0.4,0.4,1.3,0,1.4
		c-1,0.4-2.9-0.3-4.2,0c-0.8,0.3-1.4,0.8-1.9,1.4c-0.4,0.5-0.4,1.6-1,1.9s-1.9-0.2-2.8,0c-1.1,0.2-2.2,0.6-3.3,1
		c-0.8,0.3-1.7,1.3-2.3,1c-1.4-0.7-2.5-2.8-3.7-4.2c-0.6-0.7-1.1-1.6-1.9-1.9c-1.2-0.3-2.5-0.3-3.7,0c-1.9,0.3-3.9,1.4-5.6,1.4
		c-0.6,0-1-1.6-1.4-1.4s-0.7,2.2-1.4,2.3c-1.7,0.2-4-1.8-6-1.4l-5.1,1v5.6c0,2.1-1.3,4-1.9,6c-0.5,1.7-0.9,3.4-1.3,5.1
		c-0.2,1.2,0.3,2.7,0,3.7c-0.2,0.5-1.5,0.6-1.4,1s1.4,0.8,1.9,1.4c0.3,0.4,0.5,0.9,0.4,1.4c-0.1,1.7-0.4,3.5-1,5.1
		c-0.4,1.2-1.1,2.3-1.9,3.3c-1,1.3-2.1,3.1-3.3,3.7c-0.5,0.3-1.3-0.6-1.9-1c-0.8-0.4-1.6-0.9-2.3-1.4c-0.4-0.2-0.5-0.9-1-1
		c-0.7-0.1-1.3,0.1-1.9,0.4c-0.9,0.7-1.5,1.7-1.9,2.8c-0.4,1.4,0,3.1,0,4.7c0,2,0.1,4,0,6c-0.1,1.1,0.6,2.9-0.4,3.3L93,83.9
		l-0.4,4.7L90.2,103l-2.8,11.6l-3.2,12.9L80,144.9L75.1,160l-6.2,19.5L61,197.7l-7.2,14.4l-9.7,15.3l-8.2,11.7l-11,13l-8.1,8.3
		L12.9,264.9z"/>
	<polygon class="st3" points="144.6,276.6 148.3,276.9 151.2,278.1 155.1,280.7 160,283.8 160.9,285.6 159.8,288 158.1,291.4 
		157.5,294.5 154.7,296.6 152.6,296.5 148.3,304.7 145.7,309 144.2,309.5 143.1,308.4 143.1,305.6 145.1,301.2 145.7,298.8 
		144.8,292.1 142.8,283.7 142.6,278.3 	"/>
	<polygon class="st3" points="158.4,206.8 160.2,208.2 163,207.4 166.2,207.5 167.6,209.5 167.6,212.6 167.1,216.6 166.6,221 
		166.1,225.5 163.5,232.8 163,235.7 164.9,241.4 165.3,243.5 163.3,258.1 162.1,265.3 160.2,267.9 159.3,267.9 158,264.1 
		157.1,259.6 155.8,259.2 154.8,260.5 152.4,264.7 150.2,265.3 148.1,264.2 146.7,261.2 146.6,255.3 145.4,240.8 148.1,226.9 
		155.4,211.6 157.6,207.4 	"/>
	<polygon class="st3" points="161.8,62.7 167.3,59.4 169.9,58.5 171.1,60.4 172.5,67.8 172.4,72.7 171.5,75.5 171.2,78.2 
		169.2,81.3 167.3,83 165.5,83 164.4,81.8 164.5,78.9 162.9,76.6 161.5,74.3 160.8,71.3 158.6,70 157.9,68.3 158.8,65.1 	"/>
	<path id="path1118" class="st2" d="M148.9,264.8c0.8,0.5,1.8,0.6,2.8,0.3c2.6-1,2.5-6.6,5.2-5.8c1.5,0.4,0.8,13.4,4.8,7
		c0.6-1.2,1-2.5,1.1-3.8c0.8-5.5,1.6-11,2.4-16.5c0.2-1.2,0.3-2.4,0.1-3.6c-0.4-1.4-1-2.8-1.7-4.1c-2.2-5.3,1-7.1,2.2-11.3
		c1-4.2,0.6-8.5,1.8-12.9c0.5-1.9,0.6-4.1-0.5-5.7c-1.5-2.3-2.9-0.9-4.8-1.1c-0.5,0-1,0.9-1.6,0.9c-1.1,0.1-1.3-1.8-2.6-1.2
		c-0.6,0.4-1,0.9-1.3,1.6c-2.2,4.4-4.4,8.7-6.5,13.1c-1,1.9-1.9,3.9-2.6,5.9c-0.5,1.9-0.9,3.7-1.1,5.6c-0.3,1.7-0.5,3.4-0.6,5.1
		c-0.2,2.3-0.3,4.6-0.3,6.8c0.1,3,0.3,6,0.8,9c0.3,2.6-0.4,6.8,0.9,9C147.7,264,148.3,264.5,148.9,264.8z"/>
	<path class="st2" d="M160.7,286.5c-0.5,1.3-2,2.5-2.5,3.9c-0.2,1-0.3,2.1-0.4,3.1c-0.6,2.3-2.9,3.6-5.2,3.1c-0.1,0-0.1,0-0.2-0.1
		c-1.2,3-5.8,13.4-7.8,13c-2.5-0.4-2.1-4.4-1.3-5.9c0.7-1.2,1.3-2.4,1.8-3.7c0.2-1.3,0.3-2.6,0.1-3.8c-0.6-5.6-2.5-9.9-2.9-15.4
		c-0.1-0.8,0-1.6,0.3-2.3c1.6-3.2,7.8-1.3,9.6,0.5s8,3.9,8.6,6.2C160.9,285.5,160.9,286,160.7,286.5z"/>
	<path class="st4" d="M166.6,65.6c1.1,0.3,0.2,3.2,0.5,5.8c0.8,6.3-0.9,4.6-1.9-0.6C164.7,68.3,166.6,65.6,166.6,65.6z"/>
	<path class="st5" d="M167.2,62.4c0.5-0.1,1.1-0.3,1.4,0c0.5,0.9,0.9,1.9,1,3c0.1,0.8,0.2,1.6,0.2,2.3c0.1,1.2,0.1,2.3,0,3.5
		c-0.1,0.6-0.3,1.2-0.5,1.8c0,0.7-0.1,1.4-0.2,2.1c-0.3,1.4-0.9,2.6-1.8,3.7c-0.3,0.5-0.9,0.6-1.4,0.3c-0.1-0.1-0.3-0.2-0.3-0.3
		c-0.4-0.5-0.1-1.6-0.4-2.5c-0.1-0.5-0.4-1-0.6-1.5c-0.4-0.5-0.8-1.1-1.1-1.7c-0.3-0.8-0.1-1.9-0.5-2.6s-1.2-0.8-1.4-1.3
		c-0.1-0.7,0-1.4,0.3-2c0.1-0.4,0.3-0.8,0.6-1.2c0.4-0.5,0.9-1,1.5-1.3C165,63.8,166,63,167.2,62.4z"/>
	<path id="path1116" class="st2" d="M164.6,82.4c-0.5-0.7,0.2-2.2,0-3.3c-0.2-0.7-0.5-1.3-1-1.9c-0.5-0.7-1.5-1.1-1.9-1.9
		c-0.6-1.3-0.2-3-1-4.2c-0.5-0.9-2.4-1-2.8-1.9s0.1-2.2,0.4-3.3c0.1-0.7,0.5-1.4,1-1.9c0.9-0.7,1.8-1.3,2.8-1.9
		c1.8-1.2,3.7-2.3,5.6-3.3c0.8-0.3,1.9-0.9,2.3-0.5c1,1,1.4,3.1,1.9,4.7c0.3,1.2,0.4,2.5,0.4,3.7c0.2,1.9,0.2,3.7,0,5.6
		c-0.1,1-0.7,1.9-1,2.8s0.1,2.3-0.4,3.3c-0.9,1.7-2.1,3.1-3.7,4.2C166.4,83.3,165.3,83.1,164.6,82.4z"/>
	<path id="path1118-2" class="st2" d="M148.9,264.8c0.8,0.5,1.8,0.6,2.8,0.3c2.6-1,2.5-6.6,5.2-5.8c1.5,0.4,0.8,13.4,4.8,7
		c0.6-1.2,1-2.5,1.1-3.8c0.8-5.5,1.6-11,2.4-16.5c0.2-1.2,0.3-2.4,0.1-3.6c-0.3-1.4-1.3-2.6-1.7-4.1c-1.5-5.3,1-7.1,2.2-11.3
		c1-4.2,0.6-8.5,1.8-12.9c0.5-1.9,0.6-4.1-0.5-5.7c-1.5-2.3-2.9-0.9-4.8-1.1c-0.5,0-1,0.9-1.6,0.9c-1.1,0.1-1.3-1.8-2.6-1.2
		c-0.6,0.4-1,0.9-1.3,1.6c-2.2,4.4-4.4,8.7-6.5,13.1c-1,1.9-1.9,3.9-2.6,5.9c-0.5,1.9-0.9,3.7-1.1,5.6c-0.3,1.7-0.5,3.4-0.6,5.1
		c-0.2,2.3-0.3,4.6-0.3,6.8c0.1,3,0.3,6,0.8,9c0.3,2.6-0.4,6.8,0.9,9C147.7,264,148.3,264.5,148.9,264.8z"/>
	<path class="st5" d="M149.8,230.2c-0.3,1-0.6,1.9-0.8,2.9c-0.2,0.9-0.3,1.8-0.4,2.7c-0.1,0.8-0.2,1.6-0.3,2.4
		c-0.2,1.9-0.2,3.7-0.2,5.6c0.1,2.5,0.3,5,0.6,7.4c0.3,2.1-0.3,5.6,0.7,7.4c0.3,0.5,0.7,0.9,1.1,1.2c0.6,0.4,1.3,0.5,2,0.3l0.1-0.1
		c2-0.9,2-4.6,4.1-4.7c1.6-0.1,2.4,8.3,4.4,4c0.4-1,0.6-2,0.6-3c0.4-3.6,0.6-7.5,1-10.9c0.1-0.6,0.1-1.1,0.2-1.7
		c0.1-0.5,0.1-1.1,0.1-1.6c0-0.3-0.1-0.7-0.2-1c-0.3-1.1-1.1-2-1.4-3c-1.3-4.3,0.6-6,1.4-9.4c0.1-0.2,0.1-0.4,0.1-0.6
		c0.7-3.4,0.9-6.4,1.7-9.9c0.4-1.6,0.9-3.4,0-4.7c-1.2-1.9-2.3-0.8-3.6-0.9c-0.4,0-0.8,0.7-1.2,0.8c-0.8,0.1-1-1.5-2-0.9
		c-0.4,0.3-0.7,0.6-0.9,1.1c-0.1,0.3-0.3,0.6-0.4,0.8c-1.3,2.7-2.7,5.4-4.1,8.2c-0.7,1.3-1.3,2.6-1.9,4
		C150.4,227.7,150.2,229,149.8,230.2z"/>
	<path id="path1118-3" class="st4" d="M152.3,254.6c0.4,0.3,1,0.4,1.5,0.2c1.4-0.6,1.6-3.4,3.1-3.8c1.6-0.4,3.8,3.2,4.1,1
		c0.3-2.6-0.3-7,0-9.6c0.1-0.8,0.2-1.5,0.1-2.3c-0.1-0.9-1.1-1.8-1.4-2.7c-1.2-3.4,0.2-5.1,0.8-7.9s1.2-4.8,1.8-7.7
		c0.3-1.2,1.1-2.6,0.6-3.7c-0.8-1.4-1.6-0.6-2.5-0.7c-0.3,0-0.5,0.6-0.9,0.6c-0.6,0.1-0.7-1.2-1.4-0.8c-0.3,0.3-0.6,0.6-0.7,1
		c-1.2,2.8-3.1,5.6-4.3,8.4c-0.5,1.2-1,2.5-1.4,3.8c-0.3,1.2-0.5,2.4-0.6,3.6c-0.1,1.1-0.3,2.2-0.4,3.3c-0.1,1.5-0.1,2.9-0.1,4.4
		c0,1.9,0.2,3.9,0.4,5.8c0.2,1.6-0.2,4.4,0.5,5.8C151.6,254.1,151.9,254.4,152.3,254.6z"/>
	<path id="path1118-4" class="st4" d="M153,250.4c0.2,0.2,0.4,0.3,0.7,0.2c0.7-0.4,0.9-2.5,1.6-2.7s3.3,2.4,3.6,0.8
		c0.3-1.9-0.3-4.5,0-6.4c0.1-0.9,0.1-1.7,0.1-2.6c0-0.7-1.4-1.1-1.4-1.8c-0.4-2.6,0.4-4.2,0.9-6.3s0.5-3.2,1-5.3
		c0.2-0.9,0.3-1.9,0.1-2.8c-0.1-0.5-1.7-0.4-1.7-0.5c-0.7,0.9-1.2,1.9-1.6,3l-1.2,3.6c-0.3,0.9-0.6,1.9-0.8,2.8
		c-0.2,0.9-0.3,1.8-0.5,2.7s-0.2,1.6-0.3,2.4c-0.1,1.1-0.2,2.2-0.3,3.3c-0.1,1.5-0.1,2.9-0.1,4.4c-0.2,1.4-0.2,2.9-0.1,4.3
		C152.7,249.9,152.8,250.2,153,250.4z"/>
	<path class="st6" d="M154.5,239c0,0-0.4,6-0.5,7.6s1.8-1.5,2.5-0.3c1.3,2.5,1.3-2.1,1-4.3c-0.1-1.3-1.4-2-1.4-2.9s0.3-7.1-0.3-7
		C155,232.3,154.5,239,154.5,239z"/>
	<path class="st7" d="M145.7,279.3c1.9-0.6,4.1,3.4,6.9,4s5.1,0.3,3.9,3.4s-1.1,6.2-2.4,6.3s-2.3-1-3.5,1.5c-0.8,1.8-1.5,3.6-2,5.5
		c-0.1,0.5-2,7-3.2,6.2c-1.5-1,1.8-6.1,1.9-8.2c0.2-4.1-2.3-12.3-2.2-16.5C145.2,281,145.1,279.5,145.7,279.3z"/>
	<path class="st4" d="M149.2,284.2c-0.5-0.4-1.2-0.3-1.6,0.2c-0.2,0.2-0.3,0.5-0.3,0.8c0,0.3,0.1,0.7,0.1,1.1c0.4,2.9-0.4,3.9,1.1,4
		s3,1.5,3.6,0.3s3.6-4.1,2-4.6s-3.4-0.5-4.4-1.2C149.6,284.6,149.4,284.4,149.2,284.2z"/>
	<g id="כנף_1">
		<path class="st0" d="M100.7,75.8c0,4.7,3.8,8.5,8.5,8.5h28.4c4.6,0,8.4,3.8,8.4,8.4v2.6h1.8V75.8c0-4.7-3.8-8.5-8.5-8.5h-30
			C104.5,67.4,100.7,71.2,100.7,75.8z"/>
		
			<image style="overflow:visible;enable-background:new    ;" width="210" height="210" xlink:href="D099027D.png"  transform="matrix(7.000000e-02 0 0 7.000000e-02 101.88 68.7)">
		</image>
		<path class="st1" d="M125.4,75.5h-1.5v-4.2l-1.3,0.3v-1.2l2.7-0.9h0.1V75.5z"/>
		<path class="st1" d="M133.6,70.6v6.7h-1.5v-5.5h-0.9c0,0.1,0,0.2-0.1,0.3c0,0.1,0,0.2,0,0.3s0,0.2,0,0.3V73h0.2h0.1v1
			c-0.2,0.1-0.4,0.1-0.6,0.1c-0.2,0-0.4,0-0.6-0.1c-0.2,0-0.4-0.1-0.5-0.2v-0.6c0-0.2,0-0.3,0-0.5c0-0.2,0.1-0.3,0.1-0.5
			c0-0.1,0.1-0.3,0.1-0.4h-0.5v-1.2L133.6,70.6z"/>
		<path class="st1" d="M135.5,75.6c-0.2,0-0.3,0-0.5,0c-0.2,0-0.4-0.1-0.5-0.1v-1.2h0.6c0.1,0,0.3,0,0.4-0.1
			c0.1-0.1,0.1-0.3,0.1-0.4v-2h-0.8v-1.2h2.4v3.4c0,0.5-0.1,0.9-0.4,1.2C136.4,75.5,136,75.6,135.5,75.6z"/>
		<path class="st1" d="M139.5,75.6c-0.2,0-0.5,0-0.7,0c-0.3,0-0.5-0.1-0.8-0.1l0.2-1.1c0.3,0.1,0.7,0.1,1,0.1c0.3,0,0.6-0.1,0.8-0.2
			c0.2-0.2,0.3-0.4,0.2-0.7v-1.8h-2.1v-1.2h3.6v2.7c0,0.5-0.1,0.9-0.3,1.4c-0.2,0.3-0.5,0.6-0.8,0.8
			C140.3,75.5,139.9,75.6,139.5,75.6z"/>
		<path class="st1" d="M124.5,78.9h2.5v0.3h-0.5v2.9h-0.3v-2.9h-1.6L124.5,78.9z"/>
		<path class="st1" d="M127.8,82.1v-2.9h-0.4v-0.3h0.8v3.2H127.8z"/>
		<path class="st1" d="M128.8,78.9h2.5v0.3h-0.5v2.9h-0.3v-2.9h-1.6V78.9z"/>
		<path class="st1" d="M134.6,78.9c0.3,0,0.7,0.1,0.9,0.3c0.2,0.3,0.3,0.6,0.3,0.9v2h-0.3v-2c0-0.3-0.1-0.5-0.2-0.7
			c-0.2-0.2-0.4-0.3-0.7-0.2h-0.5c-0.1,0.1-0.1,0.3-0.2,0.4c0,0.2-0.1,0.4-0.1,0.5v1.2c0,0.2-0.1,0.4-0.2,0.6
			c-0.1,0.1-0.3,0.2-0.6,0.2H133h-0.1v-0.3h0.2c0.1,0,0.3,0,0.4-0.1c0.1-0.1,0.1-0.3,0.1-0.4v-1.1c0-0.2,0-0.4,0.1-0.6
			c0-0.2,0.1-0.3,0.2-0.4h-0.6v-0.3L134.6,78.9z"/>
		<path class="st1" d="M136.7,82.1L137,80c0-0.2,0.1-0.3,0.1-0.4c0.1-0.1,0.1-0.2,0.3-0.3l0,0l0,0l0,0l-0.3,0.1l-0.4,0.1l-0.1-0.3
			l0.4-0.1l0.5-0.1h0.4c0.3,0,0.7,0.1,0.9,0.3c0.2,0.3,0.4,0.6,0.3,1v1.8H138v-0.3h0.9v-1.7c0-0.3-0.1-0.5-0.2-0.7
			c-0.2-0.2-0.4-0.3-0.7-0.2c-0.2,0-0.4,0.1-0.5,0.2c-0.1,0.2-0.2,0.4-0.3,0.6l-0.3,2.2L136.7,82.1z"/>
		<path class="st1" d="M141.6,82.1v-2.3c0-0.2-0.1-0.3-0.2-0.5c-0.1-0.1-0.3-0.2-0.4-0.2h-1.1v-0.3h1.1c0.3,0,0.5,0.1,0.7,0.3
			c0.2,0.2,0.3,0.4,0.3,0.7v2.2H141.6z"/>
	</g>
	<g id="כנף_15">
		<path class="st0" d="M27.3,146.3c0,4.7,3.8,8.5,8.5,8.5h32.6c4.7,0,8.4,3.8,8.4,8.4v2.6h1.8v-19.5c0-4.7-3.8-8.5-8.5-8.5H35.8
			C31.1,137.8,27.3,141.6,27.3,146.3z"/>
		<path class="st1" d="M50.3,145.8h-1.5v-4.2l-1.3,0.4v-1.2l2.7-0.9h0.1L50.3,145.8z"/>
		<path class="st1" d="M52.1,142.9l0.4-3.1H56v1.2h-2.3l-0.1,1l0.3-0.1c0.2-0.1,0.3-0.1,0.5-0.1c0.3,0,0.7,0.1,1,0.2
			c0.3,0.2,0.5,0.4,0.6,0.7c0.2,0.3,0.2,0.7,0.2,1.1c0,0.3-0.1,0.7-0.2,1c-0.2,0.3-0.4,0.6-0.7,0.8c-0.4,0.2-0.8,0.3-1.2,0.3
			c-0.3,0-0.5,0-0.8-0.1c-0.2-0.1-0.5-0.2-0.7-0.4c-0.2-0.2-0.4-0.3-0.5-0.6c-0.1-0.2-0.2-0.5-0.2-0.7h1.5c0,0.2,0.1,0.3,0.2,0.4
			c0.1,0.1,0.3,0.2,0.4,0.2c0.1,0,0.3,0,0.4-0.1c0.1-0.1,0.2-0.2,0.2-0.4c0-0.1,0-0.3,0-0.4c0-0.2,0-0.3-0.1-0.5
			c0-0.1-0.1-0.2-0.3-0.3c-0.1-0.1-0.3-0.1-0.5-0.1c-0.2,0-0.3,0-0.4,0.1c-0.1,0.1-0.2,0.1-0.2,0.2L52.1,142.9z"/>
		<path class="st1" d="M63.5,140.9v6.6H62v-5.5h-1c0,0.1,0,0.2-0.1,0.3v0.3c0,0.1,0,0.2,0,0.3v0.3c0.1,0,0.1,0,0.2,0h0.1v1
			c-0.2,0-0.4,0.1-0.6,0.1c-0.2,0-0.4,0-0.7-0.1c-0.2-0.1-0.4-0.1-0.5-0.2v-0.6c0-0.2,0-0.3,0-0.5c0-0.2,0-0.3,0.1-0.5
			c0-0.1,0.1-0.3,0.2-0.4h-0.5v-1.2H63.5z"/>
		<path class="st1" d="M65.4,145.9c-0.2,0-0.3,0-0.5,0l-0.5-0.1v-1.2c0.2,0,0.4,0,0.6,0c0.1,0,0.3,0,0.4-0.1
			c0.1-0.1,0.1-0.3,0.1-0.4v-2h-0.8v-1.2H67v3.4c0,0.5-0.1,0.9-0.4,1.2C66.2,145.8,65.8,145.9,65.4,145.9z"/>
		<path class="st1" d="M69.3,145.9c-0.2,0-0.5,0-0.7,0l-0.8-0.1l0.2-1.1c0.3,0.1,0.7,0.1,1,0.1c0.3,0,0.6-0.1,0.8-0.2
			c0.2-0.2,0.3-0.4,0.3-0.7v-1.7h-2.1v-1.2h3.6v2.7c0,0.5-0.1,0.9-0.3,1.4c-0.2,0.3-0.5,0.6-0.8,0.8
			C70.2,145.9,69.7,145.9,69.3,145.9z"/>
		<path class="st1" d="M53.7,152.4v-0.3h1.8h0.3h0.4v0.3L53.7,152.4z M55.5,152.3v-1.9c0-0.3-0.1-0.5-0.2-0.7
			c-0.2-0.2-0.5-0.2-0.7-0.2h-0.7v-0.3h0.7c0.3,0,0.7,0.1,0.9,0.3c0.2,0.3,0.3,0.6,0.3,0.9v1.9H55.5z"/>
		<path class="st1" d="M57,152.4v-2.9h-0.4v-0.3h0.8v3.2H57z"/>
		<path class="st1" d="M58,149.2h2.5v0.3H60v2.9h-0.3v-2.9H58V149.2z"/>
		<path class="st1" d="M64.4,152.4v-2c0-0.3,0-0.5-0.2-0.7c-0.2-0.2-0.5-0.2-0.7-0.2h-1.1v-0.3h1.1c0.4,0,0.7,0.1,1,0.3
			c0.2,0.3,0.3,0.6,0.3,0.9v2H64.4z M62.4,152.4v-1.1c0-0.1,0-0.3,0-0.4c0-0.1,0.1-0.2,0.1-0.3h0.3c0,0.1,0,0.2-0.1,0.3
			c0,0.1,0,0.2,0,0.4v1.1H62.4z"/>
		<path class="st1" d="M65.4,149.2h2.5v0.3h-0.5v2.9H67v-2.9h-1.6V149.2z"/>
		<path class="st1" d="M68.9,149.2v2.8c0.2,0.1,0.4,0.1,0.6,0.2c0.2,0,0.4,0.1,0.6,0.1c0.2,0,0.5,0,0.7-0.1c0.2-0.1,0.4-0.2,0.5-0.3
			c0.1-0.2,0.2-0.4,0.2-0.6v-1.9h0.3v2c0,0.2,0,0.4-0.1,0.6c-0.1,0.2-0.2,0.3-0.4,0.4c-0.2,0.1-0.4,0.2-0.6,0.2
			c-0.2,0-0.4,0.1-0.7,0.1c-0.3,0-0.5,0-0.8-0.1c-0.3-0.1-0.5-0.1-0.7-0.3v-2.9L68.9,149.2z M69.7,151.6c0.1-0.1,0.2-0.2,0.2-0.3
			c0-0.1,0.1-0.3,0.1-0.4v-1.7h0.3v1.6c0,0.2,0,0.3-0.1,0.5c-0.1,0.1-0.1,0.2-0.2,0.3L69.7,151.6z"/>
		
			<image style="overflow:visible;enable-background:new    ;" width="500" height="500" xlink:href="D099027B.png"  transform="matrix(3.000000e-02 0 0 3.000000e-02 28.84 139.42)">
		</image>
	</g>
	<g id="ממח_א_111">
		<path class="st0" d="M10.1,165.1c0,4.7,3.8,8.5,8.5,8.5h47c4.7,0,8.4,3.7,8.4,8.4c0,0,0,0,0,0v2.6h1.8v-19.5
			c0-4.7-3.8-8.5-8.5-8.5H18.5C13.9,156.6,10.1,160.4,10.1,165.1z"/>
		<path class="st1" d="M29.9,164.7h-1.5v-4.2l-1.3,0.4v-1.2l2.7-0.9h0.1L29.9,164.7z"/>
		<path class="st1" d="M34.8,164.7h-1.5v-4.2l-1.3,0.4v-1.2l2.7-0.9h0.1V164.7z"/>
		<path class="st1" d="M39.7,164.7h-1.5v-4.2l-1.3,0.4v-1.2l2.7-0.9h0.1V164.7z"/>
		<path class="st1" d="M46.9,164.7l-3.4-5h1.7l3.4,5H46.9z M43.8,164.7v-1.6c0-0.4,0.1-0.9,0.3-1.2c0.2-0.3,0.5-0.5,0.9-0.6l0.5,0.8
			c-0.1,0.1-0.2,0.3-0.2,0.4v2.3H43.8z M48.7,159.7l-1.6,3.2l-1-1.2l0.9-2L48.7,159.7z"/>
		<path class="st1" d="M49.4,159.8c0-0.2,0-0.4,0.1-0.6c0.1-0.2,0.2-0.4,0.3-0.6c0.1-0.2,0.2-0.3,0.4-0.4l0.6,0.4
			c-0.1,0.2-0.2,0.3-0.2,0.5c-0.1,0.2-0.1,0.5-0.1,0.7v0.7h-1.1V159.8z M50.9,159.8c0-0.2,0-0.4,0.1-0.6c0.1-0.2,0.2-0.4,0.3-0.6
			c0.1-0.2,0.2-0.3,0.4-0.4l0.6,0.4c-0.1,0.2-0.2,0.3-0.2,0.5c-0.1,0.2-0.1,0.5-0.1,0.7v0.7h-1.1L50.9,159.8z"/>
		<path class="st1" d="M53.3,164.7v-5h2.3c0.5,0,1.1,0.1,1.5,0.5c0.4,0.4,0.5,0.9,0.5,1.4v3.1H56v-3.2c0-0.1,0-0.3-0.1-0.4
			c-0.1-0.1-0.2-0.1-0.3-0.1h-0.8v3.8L53.3,164.7z"/>
		<path class="st1" d="M58.7,164.7l0.3-2.6c0-0.2,0.1-0.4,0.2-0.6c0.1-0.2,0.2-0.3,0.3-0.5l0,0l0,0l0,0c-0.1,0-0.2,0-0.3,0.1
			l-0.3,0.1l-0.3-1.2c0.2-0.1,0.5-0.2,0.7-0.2c0.3-0.1,0.6-0.1,0.8-0.1c0.3,0,0.6,0,0.8,0c0.7,0,1.3,0.2,1.8,0.6
			c0.4,0.5,0.7,1.1,0.6,1.8v2.7H61v-1.2h0.7v-1.8c0-0.2,0-0.5-0.2-0.7c-0.1-0.1-0.2-0.2-0.4-0.2c-0.2,0-0.4,0.1-0.5,0.3
			c-0.1,0.2-0.2,0.5-0.2,0.8l-0.3,2.8L58.7,164.7z"/>
		<path class="st1" d="M64.4,164.7l0.3-2.6c0-0.2,0.1-0.4,0.2-0.6c0.1-0.2,0.2-0.3,0.3-0.5l0,0l0,0l0,0c-0.1,0-0.2,0-0.3,0.1
			l-0.3,0.1l-0.3-1.2c0.2-0.1,0.5-0.2,0.7-0.2c0.3-0.1,0.6-0.1,0.8-0.1c0.3,0,0.6,0,0.8,0c0.7,0,1.3,0.2,1.8,0.6
			c0.4,0.5,0.7,1.1,0.6,1.8v2.7h-2.2v-1.2h0.7v-1.8c0-0.2,0-0.5-0.1-0.7c-0.1-0.1-0.2-0.2-0.4-0.2c-0.2,0-0.4,0.1-0.5,0.3
			c-0.1,0.2-0.2,0.5-0.2,0.8l-0.3,2.8L64.4,164.7z"/>
		<path class="st1" d="M57.8,171.3v-2c0.1-0.4-0.2-0.9-0.6-0.9c-0.1,0-0.2,0-0.3,0h-1.1V168h1.1c0.3,0,0.7,0.1,0.9,0.3
			c0.2,0.2,0.3,0.6,0.3,0.9v2H57.8z M55.8,171.3v-1.1c0-0.1,0-0.3,0-0.4c0-0.1,0-0.2,0.1-0.3h0.3c0,0.1-0.1,0.2-0.1,0.3
			c0,0.1,0,0.2,0,0.4v1.1H55.8z"/>
		<path class="st1" d="M59.4,169.8v-1.5h-0.6v-0.3h1v1.8H59.4z"/>
		<path class="st1" d="M62.1,171.3V169c0-0.3-0.2-0.6-0.5-0.6c0,0,0,0-0.1,0h-1.1v-0.3h1.1c0.3,0,0.5,0.1,0.7,0.2
			c0.2,0.2,0.3,0.4,0.3,0.7v2.3L62.1,171.3z"/>
		<path class="st1" d="M64.4,171.3V171c0.3,0,0.5-0.1,0.7-0.3c0.2-0.2,0.3-0.4,0.3-0.7v-1.7h-2v-0.3h2.3v2c0,0.2,0,0.4-0.2,0.6
			c-0.1,0.2-0.3,0.3-0.4,0.4C64.9,171.2,64.6,171.3,64.4,171.3z M63.4,172.4V170c0-0.1,0-0.3,0-0.4c0-0.1,0-0.2,0.1-0.3h0.3
			c0,0.1-0.1,0.2-0.1,0.3c0,0.1,0,0.2,0,0.4v2.4L63.4,172.4z"/>
		<path class="st1" d="M68.6,171.3v-2c0.1-0.4-0.2-0.8-0.6-0.9c-0.1,0-0.2,0-0.3,0h-1.1V168h1.1c0.4,0,0.7,0.1,1,0.3
			c0.2,0.2,0.3,0.6,0.3,0.9v2H68.6z M66.6,171.3v-1.1c0-0.1,0-0.3,0-0.4c0-0.1,0-0.2,0.1-0.3H67c0,0.1,0,0.2-0.1,0.3
			c0,0.1,0,0.2,0,0.4v1.1H66.6z"/>
		
			<image style="overflow:visible;enable-background:new    ;" width="170" height="170" xlink:href="D0990284.png"  transform="matrix(8.000000e-02 0 0 8.000000e-02 11.27 157.91)">
		</image>
	</g>
	<g id="בח_א_30">
		<path class="st0" d="M0,202.7c0,4.7,3.8,8.5,8.5,8.5h39c4.7,0,8.4,3.8,8.4,8.4c0,0,0,0,0,0v2.6h1.8v-19.5c0-4.7-3.8-8.5-8.5-8.5
			H8.5C3.8,194.2,0,198,0,202.7z"/>
		<path class="st1" d="M21.7,199.1h0.9c0.3,0,0.5,0,0.8,0.1c0.2,0.1,0.4,0.2,0.6,0.3c0.2,0.1,0.3,0.3,0.4,0.5
			c0.1,0.2,0.2,0.4,0.1,0.7c0,0.4-0.1,0.7-0.3,1c-0.2,0.3-0.5,0.5-0.8,0.6c-0.4,0.1-0.8,0.2-1.2,0.2c-0.3,0-0.5,0-0.8-0.1
			c-0.2-0.1-0.5-0.2-0.7-0.3c-0.2-0.1-0.4-0.3-0.5-0.5c-0.1-0.2-0.2-0.5-0.2-0.8h1.5c0,0.1,0,0.2,0.1,0.3c0.1,0.1,0.2,0.2,0.3,0.2
			c0.1,0.1,0.2,0.1,0.3,0.1c0.2,0,0.4-0.1,0.6-0.2c0.1-0.1,0.2-0.3,0.2-0.4c0-0.2,0-0.3-0.1-0.4c-0.1-0.1-0.1-0.2-0.3-0.2
			c-0.1-0.1-0.3-0.1-0.4-0.1h-0.7L21.7,199.1z M22.4,198.7c0.1,0,0.3,0,0.4-0.1c0.1,0,0.2-0.1,0.2-0.2c0.1-0.1,0.1-0.2,0.1-0.4
			c0-0.1,0-0.2-0.1-0.3c0-0.1-0.1-0.2-0.2-0.2c-0.1-0.1-0.2-0.1-0.4-0.1c-0.1,0-0.2,0-0.3,0c-0.1,0-0.2,0.1-0.2,0.1
			c-0.1,0.1-0.1,0.1-0.1,0.2h-1.5c0-0.3,0.1-0.6,0.3-0.9c0.2-0.2,0.5-0.4,0.8-0.6c0.3-0.1,0.7-0.2,1-0.2c0.4,0,0.8,0.1,1.1,0.2
			c0.3,0.1,0.6,0.3,0.8,0.6c0.2,0.3,0.3,0.6,0.3,0.9c0,0.2-0.1,0.4-0.1,0.6c-0.1,0.2-0.2,0.3-0.4,0.5c-0.2,0.1-0.4,0.2-0.6,0.3
			c-0.2,0.1-0.5,0.1-0.8,0.1h-0.9v-0.8L22.4,198.7z"/>
		<path class="st1" d="M29.5,199.9c0,0.5-0.1,1-0.3,1.4c-0.2,0.3-0.4,0.6-0.7,0.8c-0.3,0.2-0.7,0.3-1.1,0.3c-0.4,0-0.8-0.1-1.1-0.3
			c-0.3-0.2-0.6-0.5-0.8-0.8c-0.2-0.4-0.3-0.9-0.3-1.4v-1.1c0-0.5,0.1-1,0.3-1.4c0.2-0.3,0.4-0.6,0.7-0.8c0.7-0.4,1.5-0.4,2.2,0
			c0.3,0.2,0.6,0.5,0.7,0.8c0.2,0.4,0.3,0.9,0.3,1.4V199.9z M28,198.6c0-0.2,0-0.5-0.1-0.7c0-0.1-0.1-0.2-0.2-0.3
			c-0.1-0.1-0.2-0.1-0.3-0.1c-0.1,0-0.2,0-0.3,0.1c-0.1,0.1-0.2,0.2-0.2,0.3c-0.1,0.2-0.1,0.5-0.1,0.7v1.5c0,0.2,0,0.5,0.1,0.7
			c0,0.1,0.1,0.3,0.2,0.3c0.1,0.1,0.2,0.1,0.3,0.1c0.1,0,0.2,0,0.3-0.1c0.1-0.1,0.2-0.2,0.2-0.3c0.1-0.2,0.1-0.5,0.1-0.7V198.6z"/>
		<path class="st1" d="M35.6,202.3l-3.4-5H34l3.3,5H35.6z M32.5,202.3v-1.6c0-0.4,0.1-0.8,0.3-1.2c0.2-0.3,0.5-0.5,0.9-0.7l0.5,0.8
			c-0.1,0.1-0.2,0.2-0.2,0.4v2.3L32.5,202.3z M37.4,197.3l-1.6,3.2l-1-1.2l0.9-2L37.4,197.3z"/>
		<path class="st1" d="M38.2,197.4c0-0.2,0-0.4,0.1-0.6c0.1-0.2,0.2-0.4,0.3-0.6c0.1-0.2,0.2-0.3,0.4-0.4l0.7,0.4
			c-0.1,0.2-0.2,0.3-0.2,0.5c-0.1,0.2-0.1,0.5-0.1,0.7v0.7h-1.1V197.4z M39.7,197.4c0-0.2,0-0.4,0.1-0.6c0.1-0.2,0.2-0.4,0.3-0.6
			c0.1-0.2,0.2-0.3,0.4-0.4l0.7,0.4c-0.1,0.2-0.2,0.3-0.2,0.5c-0.1,0.2-0.1,0.5-0.1,0.7v0.7h-1.1V197.4z"/>
		<path class="st1" d="M42,202.3v-5h2.3c0.5,0,1.1,0.1,1.5,0.5c0.4,0.4,0.5,0.9,0.5,1.4v3.1h-1.5V199c0-0.1,0-0.3-0.1-0.4
			c-0.1-0.1-0.2-0.1-0.3-0.1h-0.8v3.8L42,202.3z"/>
		<path class="st1" d="M47,202.3v-1.2h2.2l1.5-0.1l0.6,0.1v1.1H47z M49.2,201.9V199c0-0.1,0-0.3-0.2-0.4c-0.1-0.1-0.3-0.1-0.4-0.1
			h-1.4v-1.2h1.5c0.5,0,1.1,0.1,1.5,0.5c0.4,0.3,0.6,0.8,0.5,1.3v2.8L49.2,201.9z"/>
		<path class="st1" d="M33.9,208.9v-3.2h2.5v3.2H33.9z M34.2,208.6H36V206h-1.8L34.2,208.6z"/>
		<path class="st1" d="M37.6,207.4V206H37v-0.3h1v1.8L37.6,207.4z"/>
		<path class="st1" d="M39,208.9v-3.2h1.1c0.3,0,0.7,0.1,0.9,0.3c0.2,0.3,0.3,0.6,0.3,0.9v2H41v-2c0-0.3-0.1-0.5-0.2-0.7
			c-0.2-0.2-0.4-0.3-0.7-0.2h-0.8v2.9L39,208.9z"/>
		<path class="st1" d="M42.2,208.9l0.3-2.1c0-0.2,0.1-0.3,0.1-0.4c0.1-0.1,0.1-0.2,0.3-0.3l0,0l0,0l0,0l-0.3,0.1l-0.4,0.1l-0.1-0.3
			l0.5-0.1l0.5-0.1h0.5c0.3,0,0.7,0.1,0.9,0.3c0.2,0.3,0.4,0.6,0.3,1v1.9h-1.2v-0.3h0.9V207c0-0.3-0.1-0.5-0.2-0.7
			c-0.2-0.2-0.4-0.3-0.7-0.3c-0.2,0-0.4,0.1-0.5,0.2c-0.1,0.2-0.2,0.4-0.3,0.6l-0.3,2.2L42.2,208.9z"/>
		<path class="st1" d="M45.5,206v-1.3h0.3v1h1.8v0.3H45.5z M47.8,205.9l-1.2,3h-0.4l1.3-3.2h0.3L47.8,205.9z"/>
		<path class="st1" d="M49.5,208.9c-0.2,0-0.3,0-0.5,0c-0.2,0-0.3-0.1-0.5-0.1l0.1-0.3c0.2,0,0.3,0.1,0.5,0.1c0.1,0,0.3,0,0.4,0
			c0.3,0,0.5-0.1,0.7-0.3c0.2-0.2,0.3-0.4,0.3-0.7V206h-1.4c-0.1,0.1-0.1,0.3-0.2,0.4c0,0.2-0.1,0.3-0.1,0.5v0.3l0.2,0.1h0.3v0.3H49
			h-0.3l-0.2-0.1V207c0-0.2,0-0.4,0.1-0.6c0-0.2,0.1-0.3,0.2-0.5h-0.4v-0.3h2.4v1.9c0,0.3-0.1,0.5-0.2,0.7c-0.1,0.2-0.3,0.3-0.5,0.4
			C50,208.9,49.8,208.9,49.5,208.9z"/>
		
			<image style="overflow:visible;enable-background:new    ;" width="350" height="350" xlink:href="D0990287.png"  transform="matrix(4.000000e-02 0 0 4.000000e-02 1.29 195.58)">
		</image>
	</g>
	<g id="בח_א_8">
		<path class="st0" d="M134.6,184.2c0,4.7-3.8,8.5-8.5,8.5H91.9c-4.7,0-8.4,3.8-8.4,8.4v2.6h-1.8v-19.5c0-4.7,3.8-8.5,8.5-8.5
			c0,0,0,0,0,0h35.9C130.8,175.7,134.6,179.5,134.6,184.2z"/>
		<path class="st1" d="M93.7,182.1c0,0.7-0.4,1.3-1,1.5c-0.7,0.3-1.5,0.3-2.2,0c-0.3-0.1-0.6-0.3-0.8-0.6c-0.2-0.3-0.3-0.6-0.3-1
			c0-0.3,0.1-0.6,0.3-0.9c0.2-0.3,0.5-0.5,0.8-0.6c0.7-0.3,1.5-0.3,2.2,0c0.3,0.1,0.5,0.3,0.7,0.6C93.6,181.5,93.7,181.8,93.7,182.1
			z M93.5,179.4c0,0.3-0.1,0.6-0.3,0.8c-0.2,0.2-0.4,0.4-0.7,0.6c-0.3,0.1-0.7,0.2-1,0.2c-0.3,0-0.7-0.1-1-0.2
			c-0.3-0.1-0.5-0.3-0.7-0.6c-0.2-0.2-0.3-0.5-0.3-0.8c0-0.3,0.1-0.7,0.3-0.9c0.2-0.3,0.4-0.5,0.7-0.6c0.6-0.2,1.4-0.2,2,0
			c0.3,0.1,0.5,0.3,0.7,0.6C93.5,178.8,93.5,179.1,93.5,179.4L93.5,179.4z M92.2,182c0-0.1,0-0.3-0.1-0.4c0-0.1-0.1-0.2-0.2-0.2
			c-0.1-0.1-0.2-0.1-0.3-0.1c-0.1,0-0.2,0-0.3,0.1c-0.1,0.1-0.2,0.1-0.2,0.2c-0.1,0.1-0.1,0.2-0.1,0.4c0,0.1,0,0.2,0.1,0.4
			c0.1,0.1,0.1,0.2,0.2,0.2c0.1,0.1,0.2,0.1,0.3,0.1c0.1,0,0.2,0,0.3-0.1c0.1-0.1,0.2-0.1,0.2-0.2C92.2,182.2,92.2,182.1,92.2,182z
			 M92.1,179.5c0-0.1,0-0.2,0-0.3c0-0.1-0.1-0.2-0.2-0.2c-0.1-0.1-0.2-0.1-0.3-0.1c-0.1,0-0.2,0-0.3,0.1c-0.1,0.1-0.1,0.1-0.2,0.2
			c0,0.1-0.1,0.2-0.1,0.3c0,0.1,0,0.2,0.1,0.3c0,0.1,0.1,0.2,0.2,0.2c0.2,0.1,0.4,0.1,0.6,0c0.1-0.1,0.1-0.1,0.2-0.2
			C92.1,179.7,92.1,179.6,92.1,179.5z"/>
		<path class="st1" d="M99.8,183.8l-3.4-5h1.7l3.4,5H99.8z M96.7,183.8v-1.6c0-0.4,0.1-0.8,0.3-1.2c0.2-0.3,0.5-0.5,0.9-0.7l0.5,0.8
			c-0.1,0.1-0.2,0.3-0.2,0.4v2.3L96.7,183.8z M101.6,178.8L100,182l-1-1.2l0.9-2L101.6,178.8z"/>
		<path class="st1" d="M102.3,178.9c0-0.2,0-0.4,0.1-0.6c0.1-0.2,0.2-0.4,0.3-0.6c0.1-0.2,0.2-0.3,0.4-0.4l0.6,0.4
			c-0.1,0.2-0.2,0.3-0.2,0.5c-0.1,0.2-0.1,0.5-0.1,0.7v0.7h-1.1V178.9z M103.8,178.9c0-0.2,0-0.4,0.1-0.6c0.1-0.2,0.2-0.4,0.3-0.6
			c0.1-0.2,0.2-0.3,0.4-0.4l0.6,0.4c-0.1,0.2-0.2,0.3-0.2,0.5c-0.1,0.2-0.1,0.5-0.1,0.7v0.7h-1.1V178.9z"/>
		<path class="st1" d="M106.2,183.8v-5h2.3c0.5,0,1.1,0.1,1.5,0.5c0.4,0.4,0.5,0.9,0.5,1.4v3.1h-1.6v-3.2c0-0.1,0-0.3-0.1-0.4
			c-0.1-0.1-0.2-0.1-0.3-0.1h-0.8v3.8L106.2,183.8z"/>
		<path class="st1" d="M111.2,183.8v-1.2h2.2l1.6-0.1l0.6,0.1v1.1H111.2z M113.4,183.4v-2.9c0-0.1,0-0.3-0.2-0.4
			c-0.1-0.1-0.3-0.1-0.4-0.1h-1.4v-1.2h1.5c0.5,0,1.1,0.1,1.5,0.5c0.4,0.3,0.6,0.8,0.5,1.3v2.8L113.4,183.4z"/>
		<path class="st1" d="M104,187.2v4.3h-0.3v-4.1h-1.3c-0.1,0.1-0.1,0.2-0.1,0.3c0,0.1-0.1,0.2-0.1,0.4c0,0.1,0,0.2,0,0.4v0.3
			c0.1,0,0.1,0.1,0.2,0.1h0.3v0.3h-0.4l-0.3-0.1c-0.1,0-0.2-0.1-0.3-0.1v-0.5c0-0.1,0-0.3,0-0.4c0-0.1,0.1-0.3,0.1-0.4
			c0-0.1,0.1-0.2,0.2-0.3h-0.4v-0.3L104,187.2z"/>
		<path class="st1" d="M105.2,190.4v-2.9h-0.4v-0.3h0.8v3.2L105.2,190.4z"/>
		<path class="st1" d="M106.7,190.4h-0.3h-0.2v-0.3c0.1,0,0.3,0,0.4,0c0.1,0,0.3,0,0.4-0.1c0.1-0.1,0.1-0.3,0.1-0.4v-2.1h-0.7v-0.3
			h1v2.4c0,0.2,0,0.4-0.2,0.6C107.1,190.4,106.9,190.4,106.7,190.4z"/>
		<path class="st1" d="M109.6,187.4v-1.3h0.3v1h1.9v0.3L109.6,187.4z M111.9,187.4l-1.2,3h-0.4l1.3-3.2h0.3V187.4z"/>
		<path class="st1" d="M113.8,187.2c0.4,0,0.7,0.1,1,0.3c0.2,0.3,0.3,0.6,0.3,0.9v2h-0.3v-2c0-0.3,0-0.5-0.2-0.7
			c-0.2-0.2-0.4-0.2-0.7-0.2h-0.5c-0.1,0.1-0.2,0.3-0.2,0.4c0,0.2-0.1,0.4-0.1,0.5v1.1c0,0.2-0.1,0.4-0.2,0.6
			c-0.1,0.1-0.3,0.2-0.6,0.2h-0.1h-0.1v-0.3h0.2c0.1,0,0.3,0,0.4-0.1c0.1-0.1,0.1-0.3,0.1-0.4v-1.1c0-0.2,0-0.4,0.1-0.6
			c0-0.2,0.1-0.3,0.2-0.4h-0.7v-0.3H113.8z"/>
		
			<image style="overflow:visible;enable-background:new    ;" width="350" height="350" xlink:href="D0990285.png"  transform="matrix(4.000000e-02 0 0 4.000000e-02 118.97 176.99)">
		</image>
	</g>
	<g id="כנף_4">
		<path class="st0" d="M92.2,234.9c0,4.7-3.8,8.5-8.5,8.5H55.9c-4.7,0-8.4,3.8-8.4,8.4v2.6h-1.8v-19.5c0-4.7,3.8-8.5,8.5-8.5h29.5
			C88.4,226.4,92.2,230.2,92.2,234.9z"/>
		<path class="st1" d="M57.3,233.2H53l-0.1-0.9l2.4-3.8h1.1l-1.2,2.1l-0.9,1.4h3V233.2z M56.7,234.4h-1.5v-6h1.5V234.4z"/>
		<path class="st1" d="M64.4,229.5v6.7h-1.5v-5.5h-0.9c0,0.1,0,0.2-0.1,0.3c0,0.1,0,0.2,0,0.3s0,0.2,0,0.3v0.3h0.2h0.1v1
			c-0.2,0-0.4,0.1-0.6,0.1c-0.2,0-0.4,0-0.7-0.1c-0.2-0.1-0.4-0.1-0.5-0.2v-0.6c0-0.2,0-0.3,0-0.5c0-0.2,0.1-0.3,0.1-0.5
			c0-0.1,0.1-0.3,0.2-0.4h-0.5v-1.2H64.4z"/>
		<path class="st1" d="M66.3,234.5c-0.2,0-0.3,0-0.5,0c-0.2,0-0.4-0.1-0.5-0.1v-1.1h0.6c0.1,0,0.3,0,0.4-0.1
			c0.1-0.1,0.1-0.3,0.1-0.4v-2h-0.8v-1.2h2.4v3.4c0,0.5-0.1,0.9-0.4,1.2C67.2,234.4,66.7,234.6,66.3,234.5z"/>
		<path class="st1" d="M70.2,234.5c-0.2,0-0.5,0-0.7-0.1c-0.3,0-0.5-0.1-0.8-0.1l0.2-1.1c0.3,0.1,0.7,0.1,1,0.1
			c0.3,0,0.6-0.1,0.8-0.2c0.2-0.2,0.3-0.4,0.2-0.7v-1.7H69v-1.2h3.6v2.7c0,0.5-0.1,0.9-0.3,1.4c-0.2,0.3-0.5,0.6-0.8,0.8
			C71.1,234.5,70.7,234.5,70.2,234.5z"/>
		<path class="st1" d="M64.6,241v-2.3c0-0.2-0.1-0.3-0.2-0.4c-0.1-0.1-0.3-0.2-0.5-0.2h-1.1v-0.3H64c0.3,0,0.5,0.1,0.7,0.3
			c0.2,0.2,0.3,0.4,0.3,0.7v2.2H64.6z"/>
		<path class="st1" d="M66.1,241v-2.9h-0.4v-0.3h0.8v3.2H66.1z"/>
		<path class="st1" d="M67.3,241v-0.3h1.8l-2-2.9h0.4l1,1.5l1,1.5v0.2H67.3z M68.6,239.6l-0.2-0.3l0.9-1.5h0.4L68.6,239.6z"/>
		<path class="st1" d="M70.3,241v-3.2h1.1c0.3,0,0.7,0.1,0.9,0.3c0.2,0.3,0.3,0.6,0.3,0.9v2h-0.3v-2c0-0.3-0.1-0.5-0.2-0.7
			c-0.2-0.2-0.4-0.2-0.7-0.2h-0.8v2.9H70.3z"/>
		
			<image style="overflow:visible;enable-background:new    ;" width="350" height="350" xlink:href="D099028B.png"  transform="matrix(4.000000e-02 0 0 4.000000e-02 75.9 227.85)">
		</image>
	</g>
	<g id="בח_א_28">
		<path class="st0" d="M152.4,291.4c0,4.7-3.8,8.5-8.4,8.5h-37.5c-4.7,0-8.4,3.8-8.4,8.4l0,0v2.6h-1.8v-19.5c0-4.7,3.8-8.5,8.5-8.5
			H144C148.7,282.9,152.5,286.7,152.4,291.4L152.4,291.4z"/>
		<path class="st1" d="M106.6,291h-4.2v-1l1.9-2c0.1-0.1,0.3-0.3,0.4-0.5c0.1-0.1,0.2-0.3,0.2-0.4c0-0.1,0.1-0.2,0.1-0.3
			c0-0.2,0-0.4-0.2-0.5c-0.1-0.1-0.3-0.2-0.4-0.2c-0.1,0-0.2,0-0.3,0.1c-0.1,0.1-0.2,0.2-0.2,0.3c-0.1,0.1-0.1,0.3-0.1,0.4h-1.5
			c0-0.4,0.1-0.7,0.3-1c0.2-0.3,0.4-0.6,0.8-0.7c0.3-0.2,0.7-0.3,1.1-0.3c0.5,0,1.1,0.1,1.5,0.5c0.4,0.3,0.5,0.8,0.5,1.3
			c0,0.3-0.1,0.6-0.2,0.8c-0.1,0.3-0.3,0.5-0.5,0.8c-0.2,0.3-0.5,0.5-0.8,0.9l-0.7,0.7h2.3L106.6,291z"/>
		<path class="st1" d="M111.5,289.3c0,0.4-0.1,0.7-0.3,1c-0.2,0.3-0.4,0.5-0.7,0.6c-0.3,0.1-0.7,0.2-1.1,0.2c-0.4,0-0.7-0.1-1.1-0.2
			c-0.3-0.1-0.6-0.3-0.8-0.6c-0.2-0.3-0.3-0.6-0.3-1c0-0.3,0.1-0.6,0.3-0.9c0.2-0.3,0.5-0.5,0.8-0.6c0.3-0.1,0.7-0.2,1.1-0.2
			c0.4,0,0.7,0.1,1.1,0.2c0.3,0.1,0.6,0.3,0.8,0.6C111.4,288.7,111.5,289,111.5,289.3z M111.3,286.6c0,0.3-0.1,0.6-0.3,0.8
			c-0.2,0.2-0.4,0.4-0.7,0.5c-0.3,0.1-0.7,0.2-1,0.2c-0.3,0-0.7-0.1-1-0.2c-0.3-0.1-0.5-0.3-0.7-0.5c-0.2-0.2-0.3-0.5-0.3-0.8
			c0-0.3,0.1-0.7,0.3-0.9c0.2-0.3,0.4-0.4,0.7-0.6c0.6-0.2,1.4-0.2,2,0c0.3,0.1,0.5,0.3,0.7,0.6
			C111.3,285.9,111.4,286.3,111.3,286.6L111.3,286.6z M110,289.2c0-0.1,0-0.2-0.1-0.4c0-0.1-0.1-0.2-0.2-0.2c-0.2-0.1-0.4-0.1-0.6,0
			c-0.1,0.1-0.2,0.1-0.2,0.2c-0.1,0.1-0.1,0.2-0.1,0.4c0,0.1,0,0.2,0.1,0.4c0,0.1,0.1,0.2,0.2,0.2c0.1,0.1,0.2,0.1,0.3,0.1
			c0.1,0,0.2,0,0.3-0.1c0.1-0.1,0.2-0.1,0.2-0.2C110,289.4,110,289.3,110,289.2z M109.9,286.7c0-0.1,0-0.2-0.1-0.3
			c0-0.1-0.1-0.2-0.2-0.2c-0.1-0.1-0.2-0.1-0.3-0.1c-0.1,0-0.2,0-0.3,0.1c-0.1,0-0.1,0.1-0.2,0.2c0,0.1-0.1,0.2-0.1,0.3
			c0,0.1,0,0.2,0.1,0.3c0,0.1,0.1,0.2,0.2,0.2c0.1,0.1,0.2,0.1,0.3,0.1c0.1,0,0.2,0,0.3-0.1c0.1-0.1,0.1-0.1,0.2-0.2
			C109.9,286.9,109.9,286.8,109.9,286.7L109.9,286.7z"/>
		<path class="st1" d="M117.6,291l-3.4-5h1.7l3.4,5L117.6,291z M114.5,291v-1.6c0-0.4,0.1-0.9,0.3-1.2c0.2-0.3,0.5-0.5,0.9-0.6
			l0.5,0.8c-0.1,0.1-0.2,0.3-0.2,0.4v2.3H114.5z M119.4,286l-1.6,3.2l-1-1.2l0.8-2L119.4,286z"/>
		<path class="st1" d="M120.2,286c0-0.2,0-0.4,0.1-0.6c0.1-0.2,0.2-0.4,0.3-0.5c0.1-0.2,0.2-0.3,0.4-0.4l0.6,0.3
			c-0.1,0.1-0.2,0.3-0.2,0.5c-0.1,0.2-0.1,0.5-0.1,0.7v0.7h-1.1V286z M121.6,286c0-0.2,0-0.4,0.1-0.6c0.1-0.2,0.2-0.4,0.3-0.5
			c0.1-0.2,0.2-0.3,0.4-0.4l0.6,0.3c-0.1,0.1-0.2,0.3-0.2,0.5c-0.1,0.2-0.1,0.5-0.1,0.7v0.7h-1.1L121.6,286z"/>
		<path class="st1" d="M124,291v-5h2.3c0.5,0,1.1,0.1,1.5,0.5c0.4,0.4,0.5,0.9,0.5,1.4v3.1h-1.5v-3.2c0-0.1,0-0.3-0.1-0.4
			c-0.1-0.1-0.2-0.1-0.3-0.1h-0.8v3.8H124z"/>
		<path class="st1" d="M129,291v-1.2h2.2l1.6,0l0.6,0.1v1.1H129z M131.2,290.6v-2.9c0-0.1,0-0.3-0.1-0.4c-0.1-0.1-0.3-0.1-0.4-0.1
			h-1.4V286h1.5c0.5,0,1.1,0.1,1.5,0.5c0.4,0.3,0.6,0.8,0.5,1.3v2.8L131.2,290.6z"/>
		<path class="st1" d="M120.7,297.5v-3.2h2.5v3.2H120.7z M121,297.3h1.8v-2.6H121V297.3z"/>
		<path class="st1" d="M124.4,296.1v-1.5h-0.6v-0.3h1v1.8H124.4z"/>
		<path class="st1" d="M126.9,297.6c-0.2,0-0.4,0-0.6-0.1c-0.2-0.1-0.3-0.3-0.4-0.4c-0.1-0.2-0.2-0.4-0.2-0.6v-2h0.3v2
			c0,0.2,0.1,0.5,0.3,0.7c0.3,0.4,0.9,0.4,1.2,0c0,0,0,0,0,0c0.2-0.2,0.3-0.4,0.3-0.7v-1.1c0-0.2,0-0.3-0.1-0.5
			c-0.1-0.1-0.2-0.2-0.3-0.1c-0.1,0-0.2,0-0.2,0l-0.2,0.1l-0.1-0.2c0.1-0.1,0.2-0.1,0.3-0.1c0.1,0,0.2,0,0.3,0
			c0.2,0,0.4,0.1,0.6,0.2c0.1,0.2,0.2,0.4,0.2,0.6v1.2c0,0.2,0,0.4-0.1,0.6c-0.1,0.2-0.2,0.3-0.4,0.4
			C127.4,297.5,127.2,297.6,126.9,297.6z"/>
		<path class="st1" d="M128.8,297.5v-0.3h1.8h0.3h0.4v0.3L128.8,297.5z M130.6,297.5v-1.9c0-0.3,0-0.5-0.2-0.7
			c-0.2-0.2-0.5-0.2-0.7-0.2h-0.7v-0.3h0.7c0.4,0,0.7,0.1,1,0.3c0.2,0.3,0.3,0.6,0.3,0.9v1.9H130.6z"/>
		<path class="st1" d="M132.1,297.6h-0.3h-0.2v-0.3c0.1,0,0.3,0,0.4,0c0.1,0,0.3,0,0.4-0.1c0.1-0.1,0.1-0.3,0.1-0.4v-2.1h-0.7v-0.3
			h1v2.4c0,0.2-0.1,0.4-0.2,0.6C132.5,297.5,132.3,297.6,132.1,297.6z"/>
		
			<image style="overflow:visible;enable-background:new    ;" width="504" height="504" xlink:href="D099028C.png"  transform="matrix(3.000000e-02 0 0 3.000000e-02 136.2 284.47)">
		</image>
	</g>
	<g id="בח_א_6">
		<path class="st0" d="M37.2,287.7c0,4.7,3.8,8.5,8.5,8.5h32.6c4.7,0,8.4,3.8,8.4,8.4c0,0,0,0,0,0v2.5h1.8v-19.5
			c0-4.7-3.8-8.5-8.5-8.5H45.7C41,279.2,37.2,283,37.2,287.7z"/>
		<path class="st1" d="M59.5,281.2v1.2h-0.1c-0.2,0-0.5,0-0.7,0.1c-0.2,0.1-0.4,0.2-0.6,0.3c-0.2,0.1-0.3,0.3-0.4,0.5
			c-0.1,0.2-0.1,0.5-0.1,0.8v1.1c0,0.2,0,0.4,0.1,0.6c0,0.1,0.1,0.2,0.2,0.3c0.1,0.1,0.3,0.1,0.4,0.1c0.1,0,0.3,0,0.3-0.1
			c0.1-0.1,0.2-0.2,0.3-0.3c0.1-0.3,0.1-0.6,0-0.9c-0.1-0.1-0.1-0.2-0.3-0.3c-0.1-0.1-0.2-0.1-0.4-0.1c-0.1,0-0.3,0-0.4,0.1
			c-0.1,0.1-0.2,0.2-0.3,0.3c-0.1,0.1-0.1,0.2-0.1,0.3l-0.3-0.4c0-0.2,0-0.3,0.1-0.5c0.1-0.2,0.2-0.3,0.3-0.5
			c0.1-0.2,0.3-0.3,0.5-0.4c0.2-0.1,0.5-0.1,0.7-0.1c0.3,0,0.6,0.1,0.9,0.3c0.3,0.2,0.5,0.4,0.6,0.7c0.1,0.3,0.2,0.7,0.2,1.1
			c0,0.4-0.1,0.7-0.3,1.1c-0.2,0.3-0.4,0.6-0.8,0.7c-0.3,0.2-0.7,0.3-1.1,0.3c-0.3,0-0.6,0-0.9-0.2c-0.3-0.1-0.5-0.3-0.7-0.5
			c-0.2-0.2-0.4-0.5-0.5-0.8c-0.1-0.3-0.2-0.7-0.2-1v-0.5c0-0.5,0.1-0.9,0.3-1.4c0.2-0.4,0.4-0.7,0.7-1c0.3-0.3,0.6-0.5,1-0.6
			c0.4-0.1,0.8-0.2,1.2-0.2L59.5,281.2z"/>
		<path class="st1" d="M66.4,287.3l-3.4-5h1.7l3.4,5H66.4z M63.3,287.3v-1.6c0-0.4,0.1-0.9,0.3-1.2c0.2-0.3,0.5-0.5,0.9-0.6l0.5,0.8
			c-0.1,0.1-0.2,0.3-0.2,0.4v2.3H63.3z M68.2,282.3l-1.6,3.2l-1-1.2l0.9-2L68.2,282.3z"/>
		<path class="st1" d="M69,282.4c0-0.2,0-0.4,0.1-0.6c0.1-0.2,0.2-0.4,0.3-0.5c0.1-0.2,0.2-0.3,0.4-0.4l0.6,0.4
			c-0.1,0.2-0.2,0.3-0.2,0.5c-0.1,0.2-0.1,0.5-0.1,0.7v0.7H69V282.4z M70.5,282.4c0-0.2,0-0.4,0.1-0.6c0.1-0.2,0.2-0.4,0.3-0.5
			c0.1-0.2,0.2-0.3,0.4-0.4l0.6,0.4c-0.1,0.2-0.2,0.3-0.2,0.5c-0.1,0.2-0.1,0.5-0.1,0.7v0.7h-1.1L70.5,282.4z"/>
		<path class="st1" d="M72.8,287.3v-5h2.3c0.5,0,1.1,0.1,1.5,0.5c0.4,0.4,0.5,0.9,0.5,1.4v3.1h-1.5V284c0-0.1,0-0.3-0.1-0.4
			c-0.1-0.1-0.2-0.1-0.3-0.1h-0.8v3.8L72.8,287.3z"/>
		<path class="st1" d="M77.8,287.3v-1.2H80h1.6l0.6,0.1v1.1L77.8,287.3z M80,286.9V284c0-0.1,0-0.3-0.2-0.4
			c-0.1-0.1-0.3-0.1-0.4-0.1h-1.4v-1.2h1.5c0.5,0,1.1,0.1,1.5,0.5c0.4,0.3,0.6,0.8,0.5,1.3v2.8L80,286.9z"/>
		<path class="st1" d="M68.7,293.9v-3.2h2.5v3.2H68.7z M69,293.6h1.8V291H69L69,293.6z"/>
		<path class="st1" d="M72.4,292.4V291h-0.6v-0.3h1v1.8L72.4,292.4z"/>
		<path class="st1" d="M75.1,293.9v-2.3c0-0.2-0.1-0.3-0.2-0.5c-0.1-0.1-0.3-0.2-0.4-0.2h-1.1v-0.3h1.1c0.3,0,0.5,0.1,0.7,0.3
			c0.2,0.2,0.3,0.4,0.3,0.7v2.3H75.1z"/>
		<path class="st1" d="M76.3,293.9v-0.3h1.8l-2-2.9h0.4l1,1.5l1,1.5v0.2H76.3z M77.6,292.5l-0.2-0.3l0.9-1.5h0.4L77.6,292.5z"/>
		<path class="st1" d="M79.3,293.9v-3.2h1.1c0.3,0,0.7,0.1,0.9,0.3c0.2,0.3,0.3,0.6,0.3,0.9v2h-0.3v-2c0-0.3-0.1-0.5-0.2-0.7
			c-0.2-0.2-0.4-0.2-0.7-0.2h-0.8v2.9L79.3,293.9z"/>
		
			<image style="overflow:visible;enable-background:new    ;" width="350" height="350" xlink:href="D099028F.png"  transform="matrix(4.000000e-02 0 0 4.000000e-02 38.45 280.55)">
		</image>
	</g>
	<g id="ביסל_א">
		<path class="st0" d="M40.6,329.2c0,4.7,3.8,8.5,8.5,8.5h32.6c4.7,0,8.4,3.8,8.4,8.4l0,0v2.6h1.8v-19.5c0-4.7-3.8-8.5-8.5-8.5
			c0,0,0,0,0,0H49.1C44.4,320.7,40.6,324.5,40.6,329.2z"/>
		<path class="st1" d="M62.1,331.4l-3.4-5h1.7l3.3,5H62.1z M58.9,331.4v-1.6c0-0.4,0.1-0.9,0.3-1.2c0.2-0.3,0.5-0.5,0.9-0.6l0.5,0.8
			c-0.1,0.1-0.2,0.3-0.2,0.4v2.3H58.9z M63.9,326.4l-1.6,3.2l-1-1.2l0.9-2L63.9,326.4z"/>
		<path class="st1" d="M64.6,326.4c0-0.2,0-0.4,0.1-0.6c0.1-0.2,0.2-0.4,0.3-0.5c0.1-0.2,0.2-0.3,0.4-0.4l0.7,0.4
			c-0.1,0.2-0.2,0.3-0.2,0.5c-0.1,0.2-0.1,0.5-0.1,0.7v0.7h-1.1V326.4z M66.1,326.4c0-0.2,0-0.4,0.1-0.6c0.1-0.2,0.2-0.4,0.3-0.5
			c0.1-0.2,0.2-0.3,0.4-0.4l0.7,0.4c-0.1,0.2-0.2,0.3-0.2,0.5c-0.1,0.2-0.1,0.5-0.1,0.7v0.7h-1.1V326.4z"/>
		<path class="st1" d="M68.1,327.6v-2.5h1.6v1.3h2.1v1.2H68.1z M72.2,327.4l-1.6,4h-1.6l2-5h1.2L72.2,327.4z"/>
		<path class="st1" d="M75.3,331.5c-0.4,0-0.8-0.1-1.2-0.3c-0.3-0.2-0.6-0.5-0.8-0.8c-0.2-0.4-0.3-0.8-0.3-1.2v-0.2
			c0-0.1,0-0.3,0-0.4c0-0.2,0.1-0.3,0.2-0.5c0-0.1,0.1-0.2,0.2-0.4l0,0l0,0l0,0l-0.3,0.1l-0.2,0.1l-0.3-1.1c0.2-0.1,0.5-0.1,0.8-0.2
			c0.3-0.1,0.6-0.1,0.9-0.1c0.3,0,0.6,0,0.8,0c0.5,0,0.9,0.1,1.4,0.3c0.4,0.2,0.7,0.5,0.8,0.8c0.2,0.4,0.3,0.9,0.3,1.3v0.4
			c0,0.4-0.1,0.9-0.3,1.2c-0.2,0.3-0.5,0.6-0.8,0.8C76.1,331.4,75.7,331.5,75.3,331.5z M75.3,330.2c0.1,0,0.3,0,0.4-0.1
			c0.1-0.1,0.2-0.2,0.3-0.4c0.1-0.2,0.1-0.4,0.1-0.6v-0.4c0-0.2,0-0.5-0.1-0.7c0-0.2-0.1-0.3-0.2-0.4c-0.1-0.1-0.3-0.1-0.4-0.1
			c-0.2,0-0.3,0-0.4,0.1c-0.1,0.1-0.2,0.3-0.3,0.4c-0.1,0.2-0.1,0.5-0.1,0.7v0.3c0,0.2,0,0.4,0.1,0.6c0,0.1,0.1,0.3,0.3,0.4
			C75.1,330.1,75.2,330.2,75.3,330.2L75.3,330.2z"/>
		<path class="st1" d="M78.9,329.3v-1.7h-0.7v-1.2h2.3v2.9L78.9,329.3z"/>
		<path class="st1" d="M81.2,331.4v-1.2h2.2H85l0.6,0.1v1.1L81.2,331.4z M83.5,331v-2.9c0-0.1,0-0.3-0.2-0.4
			c-0.1-0.1-0.3-0.1-0.4-0.1h-1.4v-1.2H83c0.5,0,1.1,0.1,1.5,0.5c0.4,0.3,0.6,0.8,0.5,1.3v2.8L83.5,331z"/>
		
			<image style="overflow:visible;enable-background:new    ;" width="504" height="504" xlink:href="261D5C4B.png"  transform="matrix(3.000000e-02 0 0 3.000000e-02 41.72 321.84)">
		</image>
	</g>
	<g id="כנף_25">
		<path class="st0" d="M35.8,358.3c0,4.7,3.8,8.5,8.5,8.5h32.6c4.7,0,8.4,3.8,8.4,8.4v2.6H87v-19.5c0-4.7-3.8-8.5-8.5-8.5H44.2
			C39.6,349.8,35.8,353.6,35.8,358.3z"/>
		<path class="st1" d="M59.9,357.9h-4.2v-1l1.9-2c0.1-0.2,0.3-0.3,0.4-0.5c0.1-0.1,0.2-0.3,0.2-0.4c0-0.1,0.1-0.2,0.1-0.3
			c0-0.2,0-0.4-0.2-0.5c-0.1-0.1-0.3-0.2-0.4-0.2c-0.1,0-0.2,0-0.3,0.1c-0.1,0.1-0.2,0.2-0.2,0.3c0,0.1-0.1,0.3-0.1,0.4h-1.5
			c0-0.4,0.1-0.7,0.3-1c0.2-0.3,0.4-0.6,0.8-0.7c0.3-0.2,0.7-0.3,1.1-0.3c0.5,0,1.1,0.1,1.5,0.5c0.4,0.3,0.5,0.8,0.5,1.3
			c0,0.3-0.1,0.5-0.2,0.8c-0.1,0.3-0.3,0.5-0.5,0.8c-0.2,0.3-0.5,0.6-0.8,0.9l-0.7,0.7h2.3L59.9,357.9z"/>
		<path class="st1" d="M60.6,355l0.4-3.1h3.5v1.2h-2.3l-0.1,1l0.3-0.1c0.2-0.1,0.3-0.1,0.5-0.1c0.3,0,0.7,0.1,1,0.2
			c0.3,0.2,0.5,0.4,0.6,0.7c0.2,0.3,0.2,0.7,0.2,1.1c0,0.3-0.1,0.7-0.2,1c-0.2,0.3-0.4,0.6-0.7,0.8c-0.4,0.2-0.8,0.3-1.2,0.3
			c-0.3,0-0.5,0-0.8-0.1c-0.3-0.1-0.5-0.2-0.7-0.4c-0.2-0.2-0.4-0.3-0.5-0.6c-0.1-0.2-0.2-0.5-0.2-0.8H62c0,0.2,0.1,0.3,0.2,0.5
			c0.1,0.1,0.3,0.2,0.4,0.2c0.1,0,0.3,0,0.4-0.1c0.1-0.1,0.2-0.2,0.2-0.4c0-0.2,0-0.3,0-0.5c0-0.2,0-0.3-0.1-0.5
			c-0.1-0.1-0.1-0.2-0.3-0.3c-0.1-0.1-0.3-0.1-0.5-0.1c-0.2,0-0.3,0-0.4,0.1c-0.1,0-0.2,0.1-0.2,0.2L60.6,355z"/>
		<path class="st1" d="M72,352.9v6.7h-1.6v-5.5h-0.9c0,0.1-0.1,0.2-0.1,0.3v0.3c0,0.1,0,0.2,0,0.3v0.3h0.2h0.1v1
			c-0.2,0-0.4,0.1-0.6,0.1c-0.2,0-0.4,0-0.7-0.1c-0.2-0.1-0.4-0.1-0.5-0.2v-0.5c0-0.2,0-0.3,0-0.5c0-0.2,0-0.3,0.1-0.5
			c0-0.1,0.1-0.3,0.2-0.4h-0.5v-1.2H72z"/>
		<path class="st1" d="M73.9,358c-0.2,0-0.3,0-0.5,0c-0.2,0-0.4-0.1-0.5-0.1v-1.1h0.6c0.1,0,0.3,0,0.4-0.1c0.1-0.1,0.1-0.3,0.1-0.4
			v-2h-0.8V353h2.4v3.4c0,0.5-0.1,0.9-0.4,1.2C74.7,357.9,74.3,358,73.9,358z"/>
		<path class="st1" d="M77.8,358c-0.2,0-0.5,0-0.7,0c-0.3,0-0.5-0.1-0.8-0.1l0.2-1.1c0.3,0.1,0.7,0.1,1,0.1c0.3,0,0.6-0.1,0.8-0.2
			c0.2-0.2,0.3-0.4,0.3-0.7v-1.7h-2.1V353h3.6v2.7c0,0.5-0.1,0.9-0.3,1.4c-0.2,0.3-0.5,0.6-0.8,0.8C78.7,358,78.2,358,77.8,358z"/>
		<path class="st1" d="M72.2,365.6v-4h-0.4v-0.3h0.8v4.3L72.2,365.6z"/>
		<path class="st1" d="M73.7,364.5v-2.9h-0.4v-0.3h0.8v3.2H73.7z"/>
		<path class="st1" d="M75.1,364.5l0.3-2.1c0-0.2,0.1-0.3,0.1-0.4c0.1-0.1,0.1-0.2,0.3-0.3l0,0l0,0l-0.3,0.1l-0.4,0.1l-0.1-0.3
			l0.4-0.1l0.5-0.1h0.4c0.3,0,0.7,0.1,0.9,0.3c0.2,0.3,0.4,0.6,0.3,1v2h-1.2v-0.3h0.9v-1.7c0-0.3-0.1-0.5-0.2-0.7
			c-0.2-0.2-0.4-0.3-0.7-0.3c-0.2,0-0.4,0.1-0.5,0.2c-0.1,0.2-0.2,0.4-0.2,0.6l-0.3,2.2L75.1,364.5z"/>
		<path class="st1" d="M79.9,364.5v-2.3c0-0.3-0.2-0.6-0.5-0.6c0,0-0.1,0-0.1,0h-1.1v-0.3h1.1c0.3,0,0.5,0.1,0.7,0.3
			c0.2,0.2,0.3,0.4,0.3,0.7v2.3H79.9z"/>
		
			<image style="overflow:visible;enable-background:new    ;" width="500" height="500" xlink:href="261D5C49.png"  transform="matrix(3.000000e-02 0 0 3.000000e-02 37.22 351.35)">
		</image>
	</g>
	<g id="בח_א_10">
		<path class="st0" d="M146.1,453.5c0,4.7-3.8,8.5-8.5,8.5h-37.4c-4.7,0-8.4,3.8-8.4,8.4l0,0v2.6H90v-19.5c0-4.7,3.8-8.5,8.5-8.5
			h39.1C142.3,445,146.1,448.8,146.1,453.5L146.1,453.5z"/>
		<path class="st1" d="M99.1,453h-1.5v-4.2l-1.3,0.4V448l2.7-0.9h0.1V453z"/>
		<path class="st1" d="M105.1,450.6c0,0.5-0.1,1-0.3,1.4c-0.2,0.3-0.4,0.6-0.7,0.8c-0.7,0.4-1.5,0.4-2.2,0c-0.3-0.2-0.6-0.5-0.8-0.8
			c-0.2-0.4-0.3-0.9-0.3-1.4v-1.1c0-0.5,0.1-1,0.3-1.4c0.2-0.3,0.4-0.6,0.7-0.8c0.3-0.2,0.7-0.3,1.1-0.3c0.4,0,0.8,0.1,1.1,0.3
			c0.3,0.2,0.6,0.5,0.8,0.8c0.2,0.4,0.3,0.9,0.3,1.4L105.1,450.6z M103.6,449.3c0-0.2,0-0.5-0.1-0.7c0-0.1-0.1-0.3-0.2-0.3
			c-0.1-0.1-0.2-0.1-0.3-0.1c-0.1,0-0.2,0-0.3,0.1c-0.1,0.1-0.2,0.2-0.2,0.3c-0.1,0.2-0.1,0.5-0.1,0.7v1.5c0,0.2,0,0.5,0.1,0.7
			c0,0.1,0.1,0.3,0.2,0.3c0.1,0.1,0.2,0.1,0.3,0.1c0.1,0,0.2,0,0.3-0.1c0.1-0.1,0.2-0.2,0.2-0.3c0.1-0.2,0.1-0.5,0.1-0.7V449.3z"/>
		<path class="st1" d="M111.2,453l-3.4-5h1.7l3.4,5H111.2z M108.1,453v-1.6c0-0.4,0.1-0.8,0.3-1.2c0.2-0.3,0.5-0.5,0.9-0.6l0.5,0.8
			c-0.1,0.1-0.2,0.3-0.2,0.4v2.3H108.1z M113,448l-1.6,3.2l-1-1.2l0.9-2L113,448z"/>
		<path class="st1" d="M113.8,448.1c0-0.2,0-0.4,0.1-0.6c0.1-0.2,0.2-0.4,0.3-0.5c0.1-0.2,0.2-0.3,0.4-0.4l0.6,0.4
			c-0.1,0.2-0.2,0.3-0.2,0.5c-0.1,0.2-0.1,0.5-0.1,0.7v0.7h-1.1V448.1z M115.3,448.1c0-0.2,0-0.4,0.1-0.6c0.1-0.2,0.2-0.4,0.3-0.5
			c0.1-0.2,0.2-0.3,0.4-0.4l0.6,0.4c-0.1,0.2-0.2,0.3-0.2,0.5c-0.1,0.2-0.1,0.5-0.1,0.7v0.7h-1.1V448.1z"/>
		<path class="st1" d="M117.6,453v-5h2.3c0.5,0,1.1,0.1,1.5,0.5c0.4,0.4,0.5,0.9,0.5,1.4v3.1h-1.5v-3.2c0-0.1,0-0.3-0.1-0.4
			c-0.1-0.1-0.2-0.2-0.3-0.1h-0.8v3.8L117.6,453z"/>
		<path class="st1" d="M122.6,453v-1.2h2.2l1.6,0l0.6,0.1v1.1H122.6z M124.8,452.7v-2.9c0-0.1,0-0.3-0.1-0.4
			c-0.1-0.1-0.3-0.1-0.4-0.1h-1.4v-1.2h1.5c0.5,0,1.1,0.1,1.5,0.5c0.4,0.3,0.6,0.8,0.5,1.3v2.8L124.8,452.7z"/>
		<path class="st1" d="M115.9,459.6v-2c0-0.3-0.1-0.5-0.2-0.7c-0.2-0.2-0.5-0.2-0.7-0.2h-1.1v-0.3h1.1c0.4,0,0.7,0.1,1,0.3
			c0.2,0.3,0.3,0.6,0.3,0.9v2H115.9z M113.9,459.6v-1.1c0-0.1,0-0.3,0-0.4l0.1-0.3h0.3c0,0.1,0,0.2-0.1,0.3s0,0.2,0,0.4v1.1
			L113.9,459.6z"/>
		<path class="st1" d="M116.8,456.4h2.4v0.3h-0.5v2.9h-0.3v-2.9h-1.6V456.4z"/>
		<path class="st1" d="M119.6,459.6v-0.3h1.8h0.3h0.4v0.3L119.6,459.6z M121.5,459.5v-1.9c0-0.3-0.1-0.5-0.2-0.7
			c-0.2-0.2-0.5-0.2-0.7-0.2h-0.7v-0.3h0.7c0.3,0,0.7,0.1,0.9,0.3c0.2,0.3,0.3,0.6,0.3,0.9v1.9H121.5z"/>
		<path class="st1" d="M123,459.6v-2.9h-0.4v-0.3h0.8v3.2H123z"/>
		<path class="st1" d="M125.1,459.7c-0.2,0-0.3,0-0.5,0c-0.2,0-0.4-0.1-0.6-0.2l0.1-0.3c0.2,0.1,0.3,0.1,0.5,0.2c0.1,0,0.3,0,0.4,0
			c0.3,0,0.5-0.1,0.8-0.3c0.2-0.2,0.3-0.5,0.3-0.8v-2h0.3v2c0,0.2,0,0.5-0.2,0.7c-0.1,0.2-0.3,0.3-0.5,0.4
			C125.6,459.6,125.4,459.7,125.1,459.7z M124.2,456.4h0.3l0.5,2.4c0,0.1,0.1,0.3,0.1,0.4c0,0.1,0.1,0.2,0.1,0.3h-0.3
			c-0.1-0.1-0.1-0.2-0.2-0.3c-0.1-0.1-0.1-0.2-0.1-0.4L124.2,456.4z"/>
		
			<image style="overflow:visible;enable-background:new    ;" width="500" height="500" xlink:href="261D5C4F.png"  transform="matrix(3.000000e-02 0 0 3.000000e-02 129.73 446.27)">
		</image>
	</g>
	<g id="יב_א_צפוונית">
		<path class="st0" d="M222.1,39c0,4.7-3.8,8.5-8.5,8.5h-51.2c-4.7,0-8.4,3.8-8.4,8.5c0,0,0,0,0,0v2.5h-1.8V39
			c0-4.7,3.8-8.5,8.5-8.5l0,0h52.9C218.3,30.5,222.1,34.3,222.1,39L222.1,39z"/>
		<path class="st1" d="M162.1,33.7c0.5,0,1.1,0.1,1.5,0.5c0.4,0.4,0.5,0.9,0.5,1.4v3.1h-1.6v-3.2c0-0.1,0-0.3-0.1-0.4
			c-0.1-0.1-0.2-0.1-0.3-0.1h-0.6c0,0.2,0,0.3,0,0.5s0,0.3,0,0.4V37c0,0.5-0.1,0.9-0.4,1.2c-0.3,0.3-0.7,0.5-1.2,0.5h-0.4h-0.3v-1.2
			h0.3c0.1,0,0.3,0,0.4-0.1c0.1-0.1,0.2-0.3,0.1-0.4v-1c0-0.2,0-0.3,0.1-0.5c0-0.2,0.1-0.4,0.2-0.5h-0.7v-1.2H162.1z"/>
		<path class="st1" d="M165.4,36.5v-1.7h-0.7v-1.2h2.3v2.9L165.4,36.5z"/>
		<path class="st1" d="M168.9,38.7c-0.2,0-0.3,0-0.5,0l-0.5-0.1v-1.2c0.2,0,0.4,0,0.6,0c0.1,0,0.3,0,0.4-0.1
			c0.1-0.1,0.1-0.3,0.1-0.4v-2h-0.8v-1.2h2.4V37c0,0.5-0.1,0.9-0.4,1.2C169.7,38.5,169.3,38.7,168.9,38.7z"/>
		<path class="st1" d="M171.7,38.6v-3.8h-0.4v-1.2h1.9v5L171.7,38.6z"/>
		<path class="st1" d="M176.5,38.7c-0.3,0-0.7,0-1-0.1c-0.3-0.1-0.7-0.1-1-0.3l0.3-1.1c0.3,0.1,0.6,0.1,0.8,0.2
			c0.2,0,0.5,0.1,0.7,0.1c0.3,0,0.6-0.1,0.8-0.2c0.2-0.2,0.3-0.4,0.3-0.7v-1.7h-1.2c0,0.1-0.1,0.3-0.1,0.4c0,0.1,0,0.2,0,0.4v0.2
			h0.2h0.1v1c-0.2,0.1-0.4,0.1-0.6,0.1c-0.2,0-0.4,0-0.6-0.1c-0.2,0-0.4-0.1-0.5-0.2v-0.4c0-0.2,0-0.5,0.1-0.7
			c0-0.2,0.1-0.4,0.2-0.6h-0.5v-1.2h4.6v2.7c0,0.5-0.1,1-0.3,1.4c-0.2,0.3-0.5,0.6-0.9,0.8C177.3,38.6,176.9,38.7,176.5,38.7z"/>
		<path class="st1" d="M180.2,38.6v-1.2h2.1l-2.5-3.8h1.7l1.2,2l1.6,2.3v0.7L180.2,38.6z M183,36.9l-1-1.2l0.8-2h1.7L183,36.9z"/>
		<path class="st1" d="M190.6,38.6l-3.4-5h1.7l3.4,5H190.6z M187.4,38.6V37c0-0.4,0.1-0.8,0.3-1.2c0.2-0.3,0.5-0.5,0.9-0.7l0.5,0.8
			c-0.1,0.1-0.2,0.3-0.2,0.4v2.3H187.4z M192.4,33.6l-1.6,3.2l-1-1.2l0.9-2L192.4,33.6z"/>
		<path class="st1" d="M193.1,33.7c0-0.2,0-0.4,0.1-0.6c0.1-0.2,0.2-0.4,0.3-0.5c0.1-0.2,0.2-0.3,0.4-0.4l0.6,0.3
			c-0.1,0.2-0.2,0.3-0.2,0.5c-0.1,0.2-0.1,0.5-0.1,0.7v0.7h-1.1L193.1,33.7z M194.6,33.7c0-0.2,0-0.4,0.1-0.6
			c0.1-0.2,0.2-0.4,0.3-0.5c0.1-0.2,0.2-0.3,0.4-0.4l0.6,0.3c-0.1,0.2-0.2,0.3-0.2,0.5c-0.1,0.2-0.1,0.5-0.1,0.7v0.7h-1.1V33.7z"/>
		<path class="st1" d="M196.5,38.6v-1.2h2.2h1.6l0.6,0.1v1.1H196.5z M198.8,38.2v-2.9c0-0.1,0-0.3-0.1-0.4c-0.1-0.1-0.3-0.1-0.4-0.1
			h-1.4v-1.2h1.5c0.5,0,1.1,0.1,1.5,0.5c0.4,0.3,0.6,0.8,0.5,1.3v2.8L198.8,38.2z"/>
		<path class="st1" d="M201.9,36.5v-1.7h-0.7v-1.2h2.3v2.9L201.9,36.5z"/>
		<path class="st1" d="M195.3,43.1l0.2-1.9h2v0.3h-1.7l-0.1,1.3c0.1-0.1,0.2-0.1,0.3-0.2c0.1,0,0.3-0.1,0.4-0.1c0.2,0,0.4,0,0.6,0.2
			c0.2,0.1,0.3,0.3,0.4,0.4c0.1,0.2,0.1,0.4,0.1,0.7c0,0.2,0,0.5-0.1,0.7c-0.1,0.2-0.2,0.4-0.4,0.5c-0.2,0.1-0.4,0.2-0.7,0.2
			c-0.2,0-0.3,0-0.4-0.1c-0.1,0-0.3-0.1-0.4-0.2c-0.1-0.1-0.2-0.2-0.3-0.3c-0.1-0.2-0.1-0.3-0.1-0.5h0.3c0,0.2,0.1,0.5,0.3,0.6
			c0.2,0.1,0.4,0.2,0.6,0.2c0.2,0,0.3,0,0.5-0.1c0.1-0.1,0.2-0.2,0.3-0.4c0.1-0.2,0.1-0.4,0.1-0.6c0-0.2,0-0.3-0.1-0.5
			c-0.1-0.1-0.2-0.3-0.3-0.3c-0.1-0.1-0.3-0.1-0.5-0.1c-0.2,0-0.3,0-0.5,0.1c-0.1,0.1-0.2,0.1-0.3,0.2L195.3,43.1z"/>
		<path class="st1" d="M200.6,43.5c0,0.3,0,0.7-0.1,1c-0.1,0.2-0.2,0.4-0.4,0.6c-0.2,0.1-0.4,0.2-0.7,0.2c-0.5,0-0.9-0.3-1.1-0.8
			c-0.1-0.3-0.2-0.7-0.1-1v-0.7c0-0.3,0-0.7,0.1-1c0.1-0.2,0.2-0.4,0.4-0.6c0.4-0.2,0.9-0.2,1.3,0c0.2,0.1,0.3,0.3,0.4,0.6
			c0.1,0.3,0.2,0.7,0.1,1L200.6,43.5z M200.3,42.8c0-0.3,0-0.5-0.1-0.8c-0.1-0.2-0.2-0.3-0.3-0.5c-0.1-0.1-0.3-0.2-0.5-0.2
			c-0.2,0-0.3,0-0.5,0.2c-0.1,0.1-0.2,0.3-0.3,0.5c-0.1,0.2-0.1,0.5-0.1,0.8v0.8c0,0.3,0,0.5,0.1,0.8c0.1,0.2,0.2,0.3,0.3,0.5
			c0.3,0.2,0.7,0.2,1,0c0.1-0.1,0.2-0.3,0.3-0.5c0.1-0.2,0.1-0.5,0.1-0.8L200.3,42.8z"/>
		<path class="st1" d="M203.2,41.2v0.3l0,0c-0.2,0-0.5,0-0.7,0.1c-0.2,0.1-0.4,0.2-0.5,0.3c-0.1,0.2-0.2,0.4-0.3,0.6
			c-0.1,0.2-0.1,0.5-0.1,0.7v0.5c0,0.2,0,0.4,0.1,0.6c0.1,0.2,0.2,0.3,0.4,0.4c0.1,0.1,0.3,0.2,0.5,0.2c0.2,0,0.3,0,0.5-0.2
			c0.1-0.1,0.2-0.2,0.3-0.4c0.1-0.2,0.1-0.3,0.1-0.5c0-0.2,0-0.4-0.1-0.5c-0.1-0.2-0.2-0.3-0.4-0.4c-0.1-0.1-0.3-0.1-0.5-0.1
			c-0.2,0-0.3,0-0.5,0.1c-0.1,0.1-0.3,0.2-0.4,0.3c-0.1,0.1-0.1,0.3-0.1,0.4h-0.2c0-0.2,0.1-0.3,0.1-0.5c0.1-0.1,0.2-0.3,0.3-0.3
			c0.1-0.1,0.2-0.2,0.4-0.2c0.1-0.1,0.3-0.1,0.4-0.1c0.2,0,0.5,0.1,0.6,0.2c0.2,0.1,0.3,0.3,0.4,0.5c0.1,0.2,0.1,0.4,0.1,0.6
			c0,0.2,0,0.5-0.1,0.7c-0.1,0.2-0.2,0.4-0.4,0.5c-0.2,0.1-0.4,0.2-0.6,0.2c-0.2,0-0.4,0-0.5-0.1c-0.2-0.1-0.3-0.2-0.4-0.3
			c-0.1-0.1-0.2-0.3-0.3-0.5c-0.1-0.2-0.1-0.4-0.1-0.6v-0.3c0-0.3,0-0.6,0.1-0.9c0.1-0.3,0.2-0.5,0.4-0.7c0.2-0.2,0.4-0.4,0.6-0.5
			C202.6,41.2,202.9,41.2,203.2,41.2L203.2,41.2z"/>
		<circle class="st8" cx="213.7" cy="39" r="7"/>
		<path class="st1" d="M219.9,39c0,0.3,0,0.6-0.1,0.9c-0.2,0.6-0.5,1.1-0.9,1.5l-2.2,0.2l-3,0.8l-5-1.3l-1-0.4
			c-0.1-0.2-0.2-0.4-0.3-0.6c-0.1-0.2-0.1-0.4-0.1-0.6c0,0,0-0.1,0-0.2l1.8-1.5l6.3,1.1l3.7-1.1l0.7,0.5c0.1,0.2,0.1,0.5,0.1,0.7
			L219.9,39z"/>
		<path class="st9" d="M219.8,39.9c-0.6,1.9-3.2,3.3-6.2,3.3s-5.6-1.4-6.2-3.3c0.5-0.1,1.1,0,1.6,0.3c0.8,0.8,1.8,1.1,2.9,1
			c1-0.1,1.9,0,2.9,0.1c0.3-0.2,0.7-0.3,1-0.3c0.5,0,1,0,1.5,0c0.4-0.1,1.5-1,1.7-1S219.8,39.9,219.8,39.9z"/>
		<path class="st10" d="M219.9,38.9c-1.7-0.4-1.4,0-2.7,0.5s-4.1,0.3-5.6,0.3s-1.8-0.4-3.1-0.6c-0.4-0.1-0.9,0-1.3,0.2
			c0-0.1,0-0.2,0-0.3c0-2.3,2.9-4.2,6.4-4.2S219.9,36.6,219.9,38.9z"/>
		<circle class="st11" cx="213.4" cy="38.5" r="2.1"/>
		<path d="M215.5,38.4v-0.1c-0.1-0.4-0.2-0.7-0.4-1c-0.3-0.3-0.6-0.6-1.1-0.7c-0.2-0.1-0.3-0.1-0.5-0.1h-0.4c-0.3,0-0.7,0.2-0.9,0.3
			c-0.6,0.4-0.9,1-1,1.6l0,0l0,0v0.4c0,0.3,0.2,0.7,0.4,1c0.2,0.3,0.5,0.6,0.9,0.8c0.2,0.1,0.5,0.2,0.7,0.2h0.5
			c0.3,0,0.7-0.2,0.9-0.4c0.5-0.3,0.8-0.8,0.9-1.3c0-0.1,0-0.1,0-0.2c0,0,0-0.1,0-0.1l0,0l0,0L215.5,38.4L215.5,38.4z M215.3,37.8
			c0.1,0.2,0.2,0.5,0.2,0.7l0,0l0,0H215c0-0.3-0.1-0.5-0.1-0.8l0,0L215.3,37.8L215.3,37.8z M214.5,40.3c0,0-0.1,0.1-0.1,0.1
			C214.4,40.3,214.4,40.3,214.5,40.3L214.5,40.3z M214.4,40.1L214.4,40.1H214l0,0c0,0,0,0,0-0.1c0.1-0.2,0.1-0.3,0.1-0.5l0,0h0.5
			l0,0l0,0C214.6,39.8,214.5,40,214.4,40.1L214.4,40.1z M213.5,40.3h0.3c-0.1,0.1-0.2,0.2-0.3,0.3V40.3z M214,40.3h0.2
			c-0.1,0.1-0.2,0.2-0.4,0.2C213.9,40.4,213.9,40.4,214,40.3L214,40.3z M214.2,37.7L214.2,37.7h0.5l0,0c0.1,0.2,0.1,0.5,0.1,0.7l0,0
			h-0.6C214.3,38.2,214.3,38,214.2,37.7L214.2,37.7z M214.7,37.6h-0.5l0,0c-0.1-0.2-0.1-0.4-0.2-0.6l0,0l0,0h0.3l0,0
			C214.5,37.2,214.6,37.4,214.7,37.6L214.7,37.6L214.7,37.6L214.7,37.6z M214.4,39.4h-0.2l0,0c0-0.2,0.1-0.5,0.1-0.8l0,0h0.6l0,0
			l0,0v0.1c0,0.2-0.1,0.4-0.1,0.6c0,0,0,0-0.1,0L214.4,39.4L214.4,39.4z M214.7,37c0.2,0.2,0.4,0.4,0.5,0.6l0,0l0,0h-0.3l0,0
			C214.8,37.4,214.7,37.2,214.7,37L214.7,37L214.7,37L214.7,37L214.7,37z M214.3,36.7l0.2,0.1L214.3,36.7
			C214.4,36.9,214.4,36.9,214.3,36.7L214.3,36.7L214.3,36.7L214.3,36.7L214.3,36.7z M213.8,36.6c0.1,0.1,0.3,0.1,0.4,0.2l0,0h-0.3
			C213.9,36.8,213.8,36.7,213.8,36.6L213.8,36.6L213.8,36.6L213.8,36.6L213.8,36.6z M213.5,36.5L213.5,36.5c0.1,0.1,0.3,0.2,0.3,0.3
			l0,0h-0.4L213.5,36.5z M213.5,37h0.4l0,0c0.1,0.2,0.1,0.4,0.2,0.6l0,0h-0.6L213.5,37z M213.5,37.7h0.6c0,0.3,0.1,0.5,0.1,0.8h-0.7
			V37.7z M213.5,38.6h0.7v0.2c0,0.2,0,0.4-0.1,0.6l0,0h-0.6L213.5,38.6z M213.5,39.5h0.6l0,0l0,0c0,0.2-0.1,0.4-0.2,0.5 M213.9,40
			h-0.4H213.9z M213.3,36.5L213.3,36.5v0.3H213l0,0C213.1,36.7,213.2,36.6,213.3,36.5L213.3,36.5z M213.3,40.5
			c-0.1-0.1-0.2-0.2-0.3-0.3h0.3V40.5z M213,40.4c-0.1-0.1-0.3-0.1-0.4-0.2h0.2L213,40.4z M212.8,40.1h-0.3l0,0
			c-0.2-0.2-0.3-0.4-0.4-0.6l0,0l0,0h0.5l0,0C212.7,39.7,212.7,39.9,212.8,40.1L212.8,40.1L212.8,40.1L212.8,40.1z M212.2,37.7h0.4
			l0,0c0,0.2-0.1,0.5-0.1,0.8h-0.6v0c0-0.2,0.1-0.4,0.1-0.6c0,0,0,0,0.1,0L212.2,37.7z M212.1,37.6L212.1,37.6L212.1,37.6
			c0.1-0.2,0.2-0.4,0.3-0.5c0,0,0,0,0.1,0h0.3l0,0c-0.1,0.2-0.1,0.4-0.2,0.6L212.1,37.6L212.1,37.6z M212.5,38.6L212.5,38.6
			c0,0.3,0,0.5,0.1,0.8h-0.5l0,0c0-0.1-0.1-0.3-0.1-0.5c0-0.1,0-0.1,0-0.2v-0.1H212.5z M212.7,39.3c0-0.2-0.1-0.5-0.1-0.8l0,0h0.7
			v0.8L212.7,39.3L212.7,39.3z M212.6,38.4L212.6,38.4c0-0.3,0-0.5,0.1-0.8h0.6v0.8L212.6,38.4z M212.7,37.6L212.7,37.6L212.7,37.6
			c0-0.2,0.1-0.3,0.2-0.5c0,0,0,0,0.1,0h0.4v0.6L212.7,37.6z M212.6,36.8c0.1-0.1,0.2-0.2,0.4-0.2l0,0l-0.1,0.2l0,0
			c0,0,0,0.1-0.1,0.1L212.6,36.8L212.6,36.8z M212.6,36.6L212.6,36.6L212.6,36.6L212.6,36.6c-0.1,0.1-0.1,0.1-0.1,0.1l0,0l0,0
			L212.6,36.6z M211.6,37.5L211.6,37.5c0.1-0.2,0.3-0.4,0.5-0.6l0,0h0.1l0,0l-0.1,0.1c0,0.1-0.1,0.1-0.1,0.2
			c-0.1,0.1-0.1,0.2-0.2,0.3 M211.9,37.5h-0.3H211.9z M211.4,38.4L211.4,38.4C211.4,38.4,211.4,38.4,211.4,38.4
			c0-0.3,0.1-0.5,0.1-0.7l0,0h0.3v0.1c-0.1,0.2-0.1,0.4-0.1,0.6l0,0L211.4,38.4L211.4,38.4z M211.6,39.3L211.6,39.3
			c-0.1-0.2-0.1-0.4-0.2-0.6c0,0,0,0,0-0.1v-0.1h0.4l0,0c0,0.3,0,0.5,0.1,0.8l0,0L211.6,39.3L211.6,39.3z M212.2,40.1L212.2,40.1
			c-0.2-0.2-0.4-0.4-0.5-0.6l0,0l0,0h0.3c0,0,0,0,0.1,0c0.1,0.2,0.2,0.4,0.3,0.6l0,0l0,0L212.2,40.1z M212.5,40.3L212.5,40.3
			l-0.2-0.1l0,0C212.3,40.2,212.4,40.2,212.5,40.3L212.5,40.3L212.5,40.3L212.5,40.3L212.5,40.3z M213.4,40L213.4,40H213l0,0
			c-0.1-0.2-0.1-0.4-0.2-0.6l0,0l0,0h0.6L213.4,40z M215.2,39.5L215.2,39.5c-0.1,0.2-0.3,0.4-0.5,0.6l0,0h-0.1l0,0l0,0
			c0.1-0.2,0.2-0.4,0.3-0.6l0,0L215.2,39.5L215.2,39.5z M215.4,38.6L215.4,38.6c0,0.3-0.1,0.5-0.2,0.7l0,0H215
			c0.1-0.2,0.1-0.5,0.1-0.8l0,0L215.4,38.6L215.4,38.6z"/>
		<path class="st12" d="M214.5,40.3L214.5,40.3l-0.1,0.1l0,0l-0.1,0.1L214.5,40.3L214.5,40.3z M214.4,40.3L214.4,40.3z M213,40.4
			c0-0.1-0.1-0.1-0.1-0.2l0,0h-0.2l0,0l0,0C212.8,40.3,212.9,40.4,213,40.4L213,40.4L213,40.4z M212.7,40.3h0.2l0.1,0.2l0,0
			C212.8,40.4,212.7,40.3,212.7,40.3L212.7,40.3z M214.2,40.3H214l0,0l-0.1,0.2l-0.1,0.1l0,0C214,40.5,214.1,40.4,214.2,40.3
			L214.2,40.3L214.2,40.3z M213.8,40.5L213.8,40.5c0-0.1,0.1-0.1,0.1-0.2h0.2C214.1,40.4,214,40.4,213.8,40.5L213.8,40.5z M213,40.2
			L213,40.2c0.1,0.1,0.2,0.3,0.3,0.3l0,0v-0.3L213,40.2z M213.3,40.5c-0.1-0.1-0.2-0.1-0.3-0.3h0.3V40.5z M213.5,40.2v0.3l0,0
			c0.1-0.1,0.3-0.2,0.3-0.3l0,0L213.5,40.2z M213.5,40.5v-0.3h0.3C213.7,40.4,213.6,40.5,213.5,40.5L213.5,40.5z M214.5,40.2
			L214.5,40.2l-0.1,0.1l0,0l-0.1,0.1L214.5,40.2L214.5,40.2z M214.4,40.2L214.4,40.2z M214.2,40.2H214l0,0l-0.1,0.2l-0.1,0.1l0,0
			C214,40.5,214.1,40.4,214.2,40.2L214.2,40.2L214.2,40.2z M213.8,40.5L213.8,40.5c0-0.1,0.1-0.1,0.1-0.2h0.2
			C214,40.4,214,40.4,213.8,40.5L213.8,40.5z M213.4,40.2v0.3l0,0c0.1-0.1,0.3-0.2,0.3-0.3l0,0L213.4,40.2z M213.4,40.5v-0.3h0.3
			C213.7,40.4,213.6,40.5,213.4,40.5L213.4,40.5z M212.9,40.2L212.9,40.2c0.1,0.1,0.2,0.3,0.3,0.3l0,0v-0.3L212.9,40.2z M213.3,40.5
			c-0.1-0.1-0.2-0.1-0.3-0.3h0.3V40.5z M212.9,40.4c0-0.1-0.1-0.1-0.1-0.2l0,0h-0.2l0,0l0,0C212.7,40.4,212.8,40.4,212.9,40.4
			L212.9,40.4L212.9,40.4z M212.6,40.3h0.2l0.1,0.2l0,0C212.8,40.4,212.7,40.3,212.6,40.3L212.6,40.3z M212.9,40.4
			c0-0.1-0.1-0.1-0.1-0.2l0,0h-0.2l0,0l0,0C212.7,40.4,212.8,40.4,212.9,40.4L212.9,40.4L212.9,40.4z M212.6,40.3h0.2l0.1,0.2l0,0
			C212.8,40.4,212.7,40.3,212.6,40.3L212.6,40.3z M212.9,40.3L212.9,40.3c0.1,0.1,0.2,0.3,0.3,0.3l0,0v-0.3L212.9,40.3z M213.3,40.6
			c-0.1-0.1-0.2-0.1-0.3-0.3h0.3V40.6z M213.4,40.3v0.3l0,0c0.1-0.1,0.3-0.2,0.3-0.3l0,0L213.4,40.3z M213.4,40.6v-0.3h0.3
			C213.6,40.4,213.6,40.5,213.4,40.6L213.4,40.6z M214.1,40.3H214l0,0l-0.1,0.2l-0.1,0.1l0,0c0.1-0.1,0.3-0.1,0.4-0.2l0,0
			L214.1,40.3z M213.8,40.5L213.8,40.5c0-0.1,0.1-0.1,0.1-0.2h0.2C214,40.4,213.9,40.4,213.8,40.5L213.8,40.5z M214.4,40.3
			L214.4,40.3l-0.1,0.1l0,0l-0.1,0.1L214.4,40.3L214.4,40.3z M214.3,40.3L214.3,40.3z M214.4,40.3L214.4,40.3l-0.1,0.1l0,0l-0.1,0.1
			L214.4,40.3L214.4,40.3z M214.3,40.3L214.3,40.3z M214.1,40.3H214l0,0l-0.1,0.2l-0.1,0.1l0,0c0.1-0.1,0.3-0.1,0.4-0.2l0,0
			L214.1,40.3z M213.8,40.5L213.8,40.5c0-0.1,0.1-0.1,0.1-0.2h0.2C214,40.4,213.9,40.4,213.8,40.5L213.8,40.5z M213.4,40.3v0.3l0,0
			c0.1-0.1,0.3-0.2,0.3-0.3l0,0L213.4,40.3z M213.4,40.5v-0.3h0.3c0,0.1-0.1,0.2-0.2,0.3L213.4,40.5z M212.9,40.3L212.9,40.3
			c0.1,0.1,0.2,0.3,0.3,0.3l0,0v-0.3L212.9,40.3z M213.2,40.5c-0.1-0.1-0.2-0.1-0.3-0.3h0.3V40.5z M212.9,40.5
			c0-0.1-0.1-0.1-0.1-0.2l0,0h-0.2l0,0l0,0C212.6,40.4,212.8,40.5,212.9,40.5L212.9,40.5L212.9,40.5z M212.5,40.3h0.2l0.1,0.2l0,0
			C212.7,40.4,212.6,40.4,212.5,40.3L212.5,40.3z M212.9,40.5c0-0.1-0.1-0.1-0.1-0.2l0,0h-0.2l0,0l0,0
			C212.6,40.4,212.8,40.5,212.9,40.5L212.9,40.5L212.9,40.5z M212.5,40.3h0.2l0.1,0.2l0,0C212.7,40.4,212.6,40.4,212.5,40.3
			L212.5,40.3z M212.9,40.3L212.9,40.3c0.1,0.1,0.2,0.3,0.3,0.3l0,0v-0.3L212.9,40.3z M213.2,40.6c-0.1-0.1-0.2-0.1-0.3-0.3h0.3
			V40.6z M213.3,40.3v0.3l0,0c0.1-0.1,0.3-0.2,0.3-0.3l0,0L213.3,40.3z M213.3,40.6v-0.3h0.3c0,0.1-0.1,0.2-0.1,0.2L213.3,40.6z
			 M214.1,40.3L214.1,40.3L214.1,40.3l-0.2,0.2l-0.1,0.1l0,0c0.1-0.1,0.3-0.1,0.4-0.2l0,0L214.1,40.3z M213.7,40.5L213.7,40.5
			c0-0.1,0.1-0.1,0.1-0.2h0.2c0,0.1-0.1,0.1-0.2,0.2L213.7,40.5z M214.3,40.3L214.3,40.3l-0.1,0.1l0,0l-0.1,0.1L214.3,40.3
			L214.3,40.3z M214.3,40.3L214.3,40.3z M214.3,40.3L214.3,40.3l-0.1,0.1l0,0l-0.1,0.1L214.3,40.3L214.3,40.3z M214.3,40.3
			L214.3,40.3z M214.1,40.3L214.1,40.3L214.1,40.3l-0.2,0.2l-0.1,0.1l0,0c0.1-0.1,0.3-0.1,0.4-0.2l0,0L214.1,40.3z M213.7,40.5
			L213.7,40.5c0-0.1,0.1-0.1,0.1-0.2h0.2c0,0.1-0.1,0.1-0.2,0.2L213.7,40.5z M213.3,40.3v0.3l0,0c0.1-0.1,0.3-0.2,0.3-0.3l0,0
			L213.3,40.3z M213.3,40.6v-0.3h0.3c0,0.1-0.1,0.2-0.1,0.2L213.3,40.6z M212.8,40.3L212.8,40.3c0.1,0.1,0.2,0.3,0.3,0.3l0,0v-0.3
			L212.8,40.3z M213.1,40.6c-0.1-0.1-0.2-0.1-0.3-0.3h0.3V40.6z M212.8,40.5c0-0.1-0.1-0.1-0.1-0.2l0,0h-0.2l0,0l0,0
			C212.6,40.4,212.7,40.5,212.8,40.5L212.8,40.5L212.8,40.5z M212.5,40.3h0.2l0.1,0.2l0,0C212.7,40.4,212.6,40.4,212.5,40.3
			L212.5,40.3z M212.8,40.5c0-0.1-0.1-0.1-0.1-0.2l0,0h-0.2l0,0l0,0C212.6,40.4,212.7,40.5,212.8,40.5L212.8,40.5L212.8,40.5z
			 M212.5,40.3h0.2l0.1,0.2l0,0C212.7,40.4,212.6,40.4,212.5,40.3L212.5,40.3z M212.8,40.3L212.8,40.3c0.1,0.1,0.2,0.3,0.3,0.3l0,0
			v-0.3L212.8,40.3z M213.1,40.6c-0.1-0.1-0.2-0.1-0.3-0.3h0.3V40.6z M213.3,40.3v0.3l0,0c0.1-0.1,0.3-0.2,0.3-0.3l0,0L213.3,40.3z
			 M213.3,40.6v-0.3h0.3c0,0.1,0,0.1-0.1,0.2L213.3,40.6z M214,40.3L214,40.3L214,40.3l-0.1,0.2l-0.1,0.1l0,0
			c0.1-0.1,0.3-0.1,0.4-0.2l0,0L214,40.3z M213.6,40.5L213.6,40.5c0-0.1,0.1-0.1,0.1-0.2h0.2c0,0-0.1,0.1-0.1,0.1L213.6,40.5z
			 M214.3,40.3L214.3,40.3l-0.1,0.1l0,0l-0.1,0.1L214.3,40.3L214.3,40.3z M214.2,40.3L214.2,40.3z M214.3,40.3L214.3,40.3l-0.1,0.1
			l0,0l-0.1,0.1L214.3,40.3L214.3,40.3z M214.2,40.3L214.2,40.3z M214,40.3L214,40.3L214,40.3l-0.1,0.2l-0.1,0.1l0,0
			c0.1-0.1,0.3-0.1,0.4-0.2l0,0L214,40.3z M213.6,40.5L213.6,40.5c0-0.1,0.1-0.1,0.1-0.2h0.2c0,0-0.1,0.1-0.1,0.1L213.6,40.5z
			 M213.3,40.3v0.3l0,0c0.1-0.1,0.3-0.2,0.3-0.3l0,0L213.3,40.3z M213.3,40.6v-0.3h0.3c0,0.1,0,0.2,0,0.2L213.3,40.6z M212.8,40.3
			L212.8,40.3c0.1,0.1,0.2,0.3,0.3,0.3l0,0v-0.3L212.8,40.3z M213.1,40.6c-0.1-0.1-0.2-0.1-0.3-0.3h0.3V40.6z M212.7,40.5
			c0-0.1-0.1-0.1-0.1-0.2l0,0h-0.2l0,0l0,0C212.5,40.4,212.7,40.5,212.7,40.5L212.7,40.5L212.7,40.5z M212.4,40.3h0.2l0.1,0.2l0,0
			C212.6,40.5,212.5,40.4,212.4,40.3L212.4,40.3z M212.7,40.5c0-0.1-0.1-0.1-0.1-0.2l0,0h-0.2l0,0l0,0
			C212.5,40.4,212.7,40.5,212.7,40.5L212.7,40.5L212.7,40.5z M212.4,40.3h0.2l0.1,0.2l0,0C212.6,40.5,212.5,40.4,212.4,40.3
			L212.4,40.3z M212.8,40.3L212.8,40.3c0.1,0.1,0.2,0.3,0.3,0.3l0,0v-0.3L212.8,40.3z M213.1,40.6c-0.1-0.1-0.2-0.1-0.3-0.3h0.3
			V40.6z M213.2,40.3v0.3l0,0c0.1-0.1,0.3-0.2,0.3-0.3l0,0L213.2,40.3z M213.2,40.6v-0.3h0.3c0,0.1,0,0.1,0,0.2L213.2,40.6z
			 M213.9,40.3L213.9,40.3L213.9,40.3l-0.1,0.2l-0.1,0.1l0,0c0.1-0.1,0.3-0.1,0.4-0.2l0,0L213.9,40.3z M213.6,40.5L213.6,40.5
			c0-0.1,0.1-0.1,0.1-0.2h0.2c0,0,0,0.1,0,0.1L213.6,40.5z M214.2,40.3L214.2,40.3l-0.1,0.1l0,0l-0.1,0.1L214.2,40.3L214.2,40.3z
			 M214.2,40.3L214.2,40.3z M214.2,40.3L214.2,40.3l-0.1,0.1l0,0l-0.1,0.1L214.2,40.3L214.2,40.3z M214.2,40.3L214.2,40.3z
			 M213.9,40.3L213.9,40.3L213.9,40.3l-0.1,0.2l-0.1,0.1l0,0c0.1-0.1,0.3-0.1,0.4-0.2l0,0L213.9,40.3z M213.6,40.5L213.6,40.5
			c0-0.1,0.1-0.1,0.1-0.2h0.2c0,0,0,0.1,0,0.1L213.6,40.5z M213.2,40.3v0.3l0,0c0.1-0.1,0.3-0.2,0.3-0.3l0,0L213.2,40.3z
			 M213.2,40.6v-0.3h0.3c0,0.1,0,0.1,0,0.2L213.2,40.6z M212.7,40.3L212.7,40.3c0.1,0.1,0.2,0.3,0.3,0.3l0,0v-0.3L212.7,40.3z
			 M213,40.6c-0.1-0.1-0.2-0.1-0.3-0.3h0.3V40.6z M212.7,40.5c0-0.1-0.1-0.1-0.1-0.2l0,0h-0.2l0,0l0,0
			C212.5,40.4,212.6,40.5,212.7,40.5L212.7,40.5L212.7,40.5z M212.4,40.3h0.2l0.1,0.2l0,0C212.6,40.5,212.5,40.4,212.4,40.3
			L212.4,40.3z M214.2,40.3L214.2,40.3l-0.1,0.1l0,0l-0.1,0.1L214.2,40.3L214.2,40.3z M214.1,40.3L214.1,40.3z M213.9,40.3
			L213.9,40.3L213.9,40.3l0,0.2l-0.1,0.1l0,0c0.1-0.1,0.3-0.1,0.4-0.2l0,0L213.9,40.3z M213.6,40.6L213.6,40.6
			c0-0.1,0.1-0.1,0.1-0.2h0.2c0,0,0,0.1,0,0.1L213.6,40.6z M213.2,40.3v0.3l0,0c0.1-0.1,0.3-0.2,0.3-0.3l0,0L213.2,40.3z
			 M213.2,40.6v-0.3h0.3c0,0.1,0,0.1,0,0.2L213.2,40.6z M212.7,40.3L212.7,40.3c0.1,0.1,0.2,0.3,0.3,0.3l0,0v-0.3L212.7,40.3z
			 M213,40.6c-0.1-0.1-0.2-0.1-0.3-0.3h0.3V40.6z M212.7,40.5c0-0.1-0.1-0.1-0.1-0.2l0,0h-0.2l0,0l0,0
			C212.4,40.5,212.6,40.5,212.7,40.5L212.7,40.5L212.7,40.5z M212.3,40.4h0.2l0.1,0.2l0,0C212.5,40.5,212.4,40.4,212.3,40.4
			L212.3,40.4z M212.7,40.5c0-0.1-0.1-0.1-0.1-0.2l0,0h-0.2l0,0l0,0C212.4,40.5,212.6,40.5,212.7,40.5L212.7,40.5L212.7,40.5z
			 M212.3,40.4h0.2l0.1,0.2l0,0C212.5,40.5,212.4,40.4,212.3,40.4L212.3,40.4z M212.7,40.4L212.7,40.4c0.1,0.1,0.2,0.3,0.3,0.3l0,0
			v-0.3L212.7,40.4z M213,40.7c-0.1-0.1-0.2-0.1-0.3-0.3h0.3V40.7z M213.1,40.4v0.3l0,0c0.1-0.1,0.3-0.2,0.3-0.3l0,0L213.1,40.4z
			 M213.1,40.7v-0.3h0.3c0,0,0.1,0.1,0.1,0.1L213.1,40.7z M213.8,40.4h0.2l0,0l-0.1,0.2l-0.1,0.1l0,0c0.1-0.1,0.3-0.1,0.4-0.2l0,0
			L213.8,40.4z M213.5,40.6L213.5,40.6c0-0.1,0.1-0.1,0.1-0.2h0.2c0,0,0,0,0.1,0.1L213.5,40.6z M214.1,40.4L214.1,40.4l-0.1,0.1l0,0
			l-0.1,0.1L214.1,40.4L214.1,40.4z M214.1,40.4L214.1,40.4z M214.1,40.4L214.1,40.4l-0.1,0.1l0,0l-0.1,0.1L214.1,40.4L214.1,40.4z
			 M214.1,40.4L214.1,40.4z M213.8,40.4h0.2l0,0l-0.1,0.2l-0.1,0.1l0,0c0.1-0.1,0.3-0.1,0.4-0.2l0,0L213.8,40.4z M213.5,40.6
			L213.5,40.6c0-0.1,0.1-0.1,0.1-0.2h0.2c0,0,0,0.1,0.1,0.1L213.5,40.6z M213.1,40.4v0.3l0,0c0.1-0.1,0.3-0.2,0.3-0.3l0,0
			L213.1,40.4z M213.1,40.6v-0.3h0.3c0,0,0.1,0.1,0.1,0.2L213.1,40.6z M212.6,40.4L212.6,40.4c0.1,0.1,0.2,0.3,0.3,0.3l0,0v-0.3
			L212.6,40.4z M212.9,40.6c-0.1-0.1-0.2-0.1-0.3-0.3h0.3V40.6z M212.6,40.6c0-0.1-0.1-0.1-0.1-0.2l0,0h-0.2l0,0l0,0
			C212.4,40.5,212.5,40.6,212.6,40.6L212.6,40.6L212.6,40.6z M212.3,40.4h0.2l0.1,0.2l0,0C212.5,40.5,212.4,40.5,212.3,40.4
			L212.3,40.4z M212.6,40.6c0-0.1-0.1-0.1-0.1-0.2l0,0h-0.2l0,0l0,0C212.4,40.5,212.5,40.6,212.6,40.6L212.6,40.6L212.6,40.6z
			 M212.3,40.4h0.2l0.1,0.2l0,0C212.5,40.5,212.4,40.5,212.3,40.4L212.3,40.4z M212.6,40.4L212.6,40.4c0.1,0.1,0.2,0.3,0.3,0.3l0,0
			v-0.3L212.6,40.4z M212.9,40.7c-0.1-0.1-0.2-0.1-0.3-0.3h0.3V40.7z M213.1,40.4v0.3l0,0c0.1-0.1,0.3-0.2,0.3-0.3l0,0L213.1,40.4z
			 M213.1,40.7v-0.3h0.3c0,0,0.1,0.1,0.1,0.1L213.1,40.7z M213.8,40.4h0.2l0,0l-0.1,0.2l-0.1,0.1l0,0c0.1-0.1,0.3-0.1,0.4-0.2l0,0
			L213.8,40.4z M213.4,40.6L213.4,40.6c0-0.1,0.1-0.1,0.1-0.2h0.2c0,0,0.1,0,0.1,0L213.4,40.6z M214.1,40.4L214.1,40.4l-0.1,0.1l0,0
			l-0.1,0.1L214.1,40.4L214.1,40.4z M214,40.4L214,40.4z M214.1,40.4L214.1,40.4l-0.1,0.1l0,0l-0.1,0.1L214.1,40.4L214.1,40.4z
			 M214,40.4L214,40.4z M213.8,40.4h0.2l0,0l-0.1,0.2l-0.1,0.1l0,0c0.1-0.1,0.3-0.1,0.4-0.2l0,0L213.8,40.4z M213.4,40.6L213.4,40.6
			c0-0.1,0.1-0.1,0.1-0.2h0.2c0,0,0.1,0,0.1,0.1L213.4,40.6z M213,40.4v0.3l0,0c0.1-0.1,0.3-0.2,0.3-0.3l0,0L213,40.4z M213,40.7
			v-0.3h0.3c0.1,0,0.1,0.1,0.2,0.1L213,40.7z M212.5,40.4L212.5,40.4c0.1,0.1,0.2,0.3,0.3,0.3l0,0v-0.3L212.5,40.4z M212.9,40.7
			c-0.1-0.1-0.2-0.1-0.3-0.3h0.3V40.7z M212.5,40.6c0-0.1-0.1-0.1-0.1-0.2l0,0h-0.2l0,0l0,0C212.3,40.5,212.4,40.6,212.5,40.6
			L212.5,40.6L212.5,40.6z M212.2,40.4h0.2l0.1,0.2l0,0C212.4,40.5,212.3,40.5,212.2,40.4L212.2,40.4z M212.5,40.6
			c0-0.1-0.1-0.1-0.1-0.2l0,0h-0.2l0,0l0,0C212.3,40.5,212.4,40.6,212.5,40.6L212.5,40.6L212.5,40.6z M212.2,40.4h0.2l0.1,0.2l0,0
			C212.4,40.5,212.3,40.5,212.2,40.4L212.2,40.4z M212.5,40.4L212.5,40.4c0.1,0.1,0.2,0.3,0.3,0.3l0,0v-0.3L212.5,40.4z M212.9,40.7
			c-0.1-0.1-0.2-0.1-0.3-0.3h0.3V40.7z M213,40.4v0.3l0,0c0.1-0.1,0.3-0.2,0.3-0.3l0,0L213,40.4z M213,40.7v-0.3h0.3
			c0.1,0,0.1,0.1,0.2,0.1L213,40.7z M213.7,40.4h0.3l0,0l-0.1,0.2l-0.1,0.1l0,0c0.1-0.1,0.3-0.1,0.4-0.2l0,0L213.7,40.4z
			 M213.4,40.6L213.4,40.6c0-0.1,0.1-0.1,0.1-0.2h0.2c0.1,0,0.1,0,0.2,0L213.4,40.6z M214,40.4L214,40.4l-0.1,0.1l0,0l-0.1,0.1
			L214,40.4L214,40.4z M213.9,40.4L213.9,40.4z M214,40.4L214,40.4l-0.1,0.1l0,0l-0.1,0.1L214,40.4L214,40.4z M213.9,40.4
			L213.9,40.4z M213.7,40.4h0.3l0,0l-0.1,0.2l-0.1,0.1l0,0c0.1-0.1,0.3-0.1,0.4-0.2l0,0L213.7,40.4z M213.4,40.6L213.4,40.6
			c0-0.1,0.1-0.1,0.1-0.2h0.2c0.1,0,0.1,0,0.2,0L213.4,40.6z M213,40.4v0.3l0,0c0.1-0.1,0.3-0.2,0.3-0.3l0,0L213,40.4z M213,40.7
			v-0.3h0.3c0.1,0,0.2,0.1,0.2,0.1L213,40.7z M212.5,40.4L212.5,40.4c0.1,0.1,0.2,0.3,0.3,0.3l0,0v-0.3L212.5,40.4z M212.8,40.7
			c-0.1-0.1-0.2-0.1-0.3-0.3h0.3V40.7z M212.5,40.6c0-0.1-0.1-0.1-0.1-0.2l0,0h-0.2l0,0l0,0C212.3,40.5,212.4,40.6,212.5,40.6
			L212.5,40.6L212.5,40.6z M212.2,40.4h0.2l0.1,0.2l0,0C212.3,40.6,212.2,40.5,212.2,40.4L212.2,40.4z M212.5,40.6
			c0-0.1-0.1-0.1-0.1-0.2l0,0h-0.2l0,0l0,0C212.3,40.5,212.4,40.6,212.5,40.6L212.5,40.6L212.5,40.6z M212.2,40.4h0.2l0.1,0.2l0,0
			C212.3,40.6,212.2,40.5,212.2,40.4L212.2,40.4z M212.5,40.4L212.5,40.4c0.1,0.1,0.2,0.3,0.3,0.3l0,0v-0.3L212.5,40.4z M212.8,40.7
			c-0.1-0.1-0.2-0.1-0.3-0.3h0.3V40.7z M213,40.4v0.3l0,0c0.1-0.1,0.3-0.2,0.3-0.3l0,0L213,40.4z M213,40.7v-0.3h0.3
			c0.1,0,0.2,0,0.3,0.1L213,40.7z M213.7,40.4h0.3l0,0l-0.1,0.2l-0.1,0.1l0,0c0.1-0.1,0.3-0.1,0.4-0.2l0,0L213.7,40.4z M213.3,40.7
			L213.3,40.7c0-0.1,0.1-0.1,0.1-0.2h0.2c0.1,0,0.2,0,0.2,0L213.3,40.7z M213.9,40.4L213.9,40.4l-0.1,0.1l0,0l-0.1,0.1L213.9,40.4
			L213.9,40.4z M213.9,40.4L213.9,40.4z M213.9,40.4L213.9,40.4l-0.1,0.1l0,0l-0.1,0.1L213.9,40.4L213.9,40.4z M213.9,40.4
			L213.9,40.4z M213.7,40.4h0.3l0,0l-0.1,0.2l-0.1,0.1l0,0c0.1-0.1,0.3-0.1,0.4-0.2l0,0L213.7,40.4z M213.3,40.6L213.3,40.6
			c0-0.1,0.1-0.1,0.1-0.2h0.2c0.1,0,0.2,0,0.2,0L213.3,40.6z M212.9,40.4v0.3l0,0c0.1-0.1,0.3-0.2,0.3-0.3l0,0L212.9,40.4z
			 M212.9,40.7v-0.3h0.3c0.1,0,0.2,0,0.3,0.1L212.9,40.7z M212.4,40.4L212.4,40.4c0.1,0.1,0.2,0.3,0.3,0.3l0,0v-0.3L212.4,40.4z
			 M212.8,40.7c-0.1-0.1-0.2-0.1-0.3-0.3h0.3V40.7z M212.4,40.6c0-0.1-0.1-0.1-0.1-0.2l0,0h-0.2l0,0l0,0
			C212.2,40.5,212.3,40.6,212.4,40.6L212.4,40.6L212.4,40.6z M212.1,40.5h0.2l0.1,0.2l0,0C212.3,40.6,212.2,40.5,212.1,40.5
			L212.1,40.5z"/>
		<polygon class="st13" points="214.5,40.6 214.5,40.6 214.5,40.6 		"/>
		<polygon points="214.5,40.6 214.4,40.6 214.5,40.6 		"/>
		<rect x="212.7" y="40.6" class="st13" width="1.5" height="1.3"/>
		<path d="M214.2,42h-1.5v-1.4h1.5V42z M212.7,42h1.4v-1.4h-1.4V42z"/>
		<polygon class="st13" points="215.4,39.4 215.4,40.3 214.9,40.5 214.5,40.6 214.5,40.6 214.7,39.7 		"/>
		<path d="M214.5,40.6l0.2-0.9l0.7-0.3v0.9L214.5,40.6z M214.7,39.7l-0.2,0.8l0.9-0.3v-0.9L214.7,39.7z"/>
		<polygon class="st13" points="214.9,40.5 214.9,41.7 214.1,42 214.1,40.6 214.5,40.6 214.5,40.6 		"/>
		<path d="M214.1,42v-1.4h0.4l0.5-0.2v1.3L214.1,42z M214.1,40.7V42l0.8-0.3v-1.2l-0.4,0.2H214.1z"/>
		<polygon class="st13" points="214.7,39.7 214.5,40.6 212.3,40.6 212.1,39.7 		"/>
		<path d="M214.5,40.6h-2.2l-0.2-0.9h2.6L214.5,40.6z M212.3,40.6h2.2l0.2-0.9h-2.6L212.3,40.6z"/>
		<polygon class="st13" points="212.3,40.6 212.3,40.6 212.3,40.6 		"/>
		<polygon points="212.4,40.6 212.3,40.6 212.3,40.6 212.3,40.6 212.3,40.6 		"/>
		<polygon class="st13" points="212.3,40.6 212.3,40.6 211.9,40.5 211.4,40.3 211.4,39.4 212.1,39.7 		"/>
		<path d="M212.3,40.6L212.3,40.6l-0.9-0.3v-0.9l0.7,0.3L212.3,40.6z M211.4,40.3l0.9,0.3l-0.2-0.8l-0.7-0.3V40.3z"/>
		<polygon class="st13" points="212.7,40.6 212.7,42 211.9,41.7 211.9,40.5 212.3,40.6 212.3,40.6 		"/>
		<path d="M212.7,42l-0.8-0.3v-1.3l0.5,0.2h0.4V42z M211.9,41.7l0.8,0.3v-1.3h-0.4l-0.4-0.2V41.7z"/>
		<path class="st14" d="M210.9,37.9c0,0-0.3-0.7,1.5-0.7s1.8,0.1,1.8,0.1c-0.3,0.1-0.5,0.2-0.7,0.5c0.7,0,1.4,0.1,2.1,0.2
			c0,0,0.2-0.1,0.1-0.6s0.1,0.5,0.7,0.6s1.4-0.5,2.1,0.2c-0.7,0-1.3,0.1-2,0.3c-0.4,0.2-0.9-0.4-1.4-0.4c-0.8-0.1-1.7-0.2-2.5-0.1
			c0,0,0.2-0.3,0.4-0.4C212.3,37.5,211.6,37.6,210.9,37.9z"/>
	</g>
	<g id="יב_א_מרכז">
		<path class="st0" d="M203.1,173.6c0,4.7-3.8,8.5-8.5,8.5h-45.2c-4.7,0-8.4,3.8-8.4,8.4v2.6h-1.8v-19.5c0-4.7,3.8-8.5,8.5-8.5
			c0,0,0,0,0,0h46.9C199.3,165.1,203.1,168.9,203.1,173.6L203.1,173.6z"/>
		<path class="st1" d="M148.8,173.2l-0.5-3.7l-0.3-0.1v-1.2h3v1.2h-1.2l0.6,3.8L148.8,173.2z"/>
		<path class="st1" d="M152.9,173.3c-0.2,0-0.5,0-0.7-0.1c-0.3,0-0.5-0.1-0.8-0.1l0.2-1.1c0.3,0.1,0.7,0.1,1,0.1
			c0.3,0,0.6-0.1,0.8-0.2c0.2-0.2,0.3-0.4,0.2-0.7v-1.7h-2.1v-1.2h3.6v2.7c0,0.5-0.1,0.9-0.3,1.4c-0.2,0.3-0.5,0.6-0.8,0.8
			C153.7,173.2,153.3,173.3,152.9,173.3z"/>
		<path class="st1" d="M158,173.2V170c0-0.2,0-0.3-0.2-0.4c-0.1-0.1-0.3-0.2-0.5-0.1H156v-1.2h1.5c0.5,0,1.1,0.1,1.5,0.5
			c0.4,0.3,0.6,0.8,0.6,1.4v3.1L158,173.2z"/>
		<path class="st1" d="M160.7,173.2l0.3-2.6c0-0.2,0.1-0.4,0.2-0.6c0.1-0.2,0.2-0.3,0.3-0.5l0,0l0,0l0,0c-0.1,0-0.2,0-0.4,0.1
			l-0.3,0.1l-0.3-1.1c0.2-0.1,0.5-0.2,0.7-0.2c0.3-0.1,0.6-0.1,0.8-0.1c0.3,0,0.6,0,0.8,0c0.7,0,1.3,0.2,1.8,0.6
			c0.4,0.5,0.7,1.1,0.6,1.8v2.7H163V172h0.7v-1.8c0-0.2,0-0.5-0.1-0.6c-0.1-0.2-0.2-0.2-0.4-0.2c-0.2,0-0.4,0.1-0.5,0.3
			c-0.1,0.2-0.2,0.5-0.2,0.8l-0.3,2.8L160.7,173.2z"/>
		<path class="st1" d="M171.6,173.2l-3.4-5h1.8l3.4,5H171.6z M168.5,173.2v-1.6c0-0.4,0.1-0.8,0.3-1.2c0.2-0.3,0.5-0.5,0.9-0.6
			l0.5,0.8c-0.1,0.1-0.2,0.3-0.2,0.4v2.3L168.5,173.2z M173.4,168.2l-1.6,3.2l-1-1.2l0.9-2L173.4,168.2z"/>
		<path class="st1" d="M174.1,168.3c0-0.2,0-0.4,0.1-0.6c0.1-0.2,0.2-0.4,0.3-0.6c0.1-0.2,0.2-0.3,0.4-0.4l0.6,0.3
			c-0.1,0.2-0.2,0.3-0.2,0.5c-0.1,0.2-0.1,0.5-0.1,0.7v0.7h-1.1V168.3z M175.6,168.3c0-0.2,0-0.4,0.1-0.6c0.1-0.2,0.2-0.4,0.3-0.6
			c0.1-0.2,0.2-0.3,0.4-0.4l0.6,0.3c-0.1,0.2-0.2,0.3-0.2,0.5c-0.1,0.2-0.1,0.5-0.1,0.7v0.7h-1.1L175.6,168.3z"/>
		<path class="st1" d="M177.6,173.2V172h2.2l1.6-0.1l0.6,0.1v1.1L177.6,173.2z M179.8,172.8V170c0-0.1,0-0.3-0.1-0.4
			c-0.1-0.1-0.3-0.1-0.4-0.1h-1.4v-1.2h1.5c0.5,0,1.1,0.1,1.5,0.5c0.4,0.3,0.6,0.8,0.5,1.3v2.8L179.8,172.8z"/>
		<path class="st1" d="M182.9,171.1v-1.7h-0.7v-1.2h2.3v2.9H182.9z"/>
		<path class="st1" d="M176.4,177.7l0.2-1.9h2v0.3h-1.7l-0.1,1.4c0.1-0.1,0.2-0.1,0.3-0.1c0.3-0.1,0.7-0.1,1.1,0.1
			c0.2,0.1,0.3,0.3,0.4,0.4c0.1,0.2,0.2,0.4,0.1,0.7c0,0.2,0,0.5-0.1,0.7c-0.1,0.2-0.2,0.4-0.4,0.5c-0.2,0.1-0.4,0.2-0.7,0.2
			c-0.1,0-0.3,0-0.4-0.1c-0.1,0-0.3-0.1-0.4-0.2c-0.1-0.1-0.2-0.2-0.3-0.3c-0.1-0.2-0.1-0.3-0.1-0.5h0.3c0,0.2,0.1,0.4,0.3,0.6
			c0.3,0.2,0.7,0.3,1.1,0.1c0.1-0.1,0.2-0.2,0.3-0.4c0.1-0.2,0.1-0.4,0.1-0.6c0-0.2,0-0.3-0.1-0.5c-0.1-0.1-0.2-0.3-0.3-0.4
			c-0.1-0.1-0.3-0.1-0.5-0.1c-0.2,0-0.3,0-0.4,0.1c-0.1,0.1-0.2,0.1-0.3,0.2L176.4,177.7z"/>
		<path class="st1" d="M181.6,178.1c0,0.3,0,0.7-0.1,1c-0.1,0.2-0.2,0.4-0.4,0.6c-0.2,0.1-0.4,0.2-0.7,0.2c-0.2,0-0.5-0.1-0.7-0.2
			c-0.2-0.1-0.3-0.3-0.4-0.6c-0.1-0.3-0.2-0.7-0.1-1v-0.7c0-0.3,0-0.7,0.1-1c0.1-0.2,0.2-0.4,0.4-0.6c0.4-0.3,0.9-0.3,1.3,0
			c0.2,0.1,0.3,0.3,0.4,0.6c0.1,0.3,0.2,0.7,0.1,1L181.6,178.1z M181.3,177.4c0-0.3,0-0.5-0.1-0.8c-0.1-0.2-0.2-0.3-0.3-0.5
			c-0.1-0.1-0.3-0.2-0.5-0.2c-0.2,0-0.4,0-0.5,0.2c-0.1,0.1-0.2,0.3-0.3,0.5c-0.1,0.2-0.1,0.5-0.1,0.8v0.7c0,0.3,0,0.5,0.1,0.8
			c0.1,0.2,0.2,0.4,0.3,0.5c0.1,0.1,0.3,0.2,0.5,0.2c0.2,0,0.4,0,0.5-0.2c0.1-0.1,0.2-0.3,0.3-0.5c0.1-0.2,0.1-0.5,0.1-0.8V177.4z"
			/>
		<path class="st1" d="M183.1,177.7h0.4c0.2,0,0.4,0,0.6,0.1c0.1,0,0.3,0.1,0.4,0.2c0.1,0.1,0.2,0.2,0.2,0.3c0.1,0.3,0.1,0.7-0.1,1
			c-0.1,0.2-0.3,0.3-0.4,0.4c-0.2,0.1-0.4,0.1-0.6,0.1c-0.2,0-0.3,0-0.5-0.1c-0.1,0-0.3-0.1-0.4-0.2c-0.1-0.1-0.2-0.2-0.3-0.4
			c-0.1-0.2-0.1-0.3-0.1-0.5h0.3c0,0.2,0,0.3,0.1,0.4c0.1,0.1,0.2,0.2,0.3,0.3c0.2,0.1,0.3,0.1,0.5,0.1c0.2,0,0.5-0.1,0.7-0.2
			c0.3-0.3,0.4-0.8,0.1-1.1c-0.1-0.1-0.2-0.2-0.3-0.2c-0.2-0.1-0.3-0.1-0.5-0.1h-0.3L183.1,177.7z M183.4,177.6c0.2,0,0.4,0,0.5-0.1
			c0.1-0.1,0.2-0.2,0.3-0.3c0.1-0.1,0.1-0.2,0.1-0.4c0-0.1,0-0.3-0.1-0.4c-0.1-0.1-0.2-0.2-0.3-0.3c-0.1-0.1-0.3-0.1-0.5-0.1
			c-0.2,0-0.3,0-0.4,0.1c-0.1,0.1-0.2,0.2-0.3,0.3c-0.1,0.1-0.1,0.3-0.1,0.4h-0.3c0-0.2,0-0.4,0.1-0.6c0.1-0.2,0.3-0.3,0.4-0.4
			c0.2-0.1,0.4-0.1,0.6-0.1c0.2,0,0.4,0,0.6,0.1c0.2,0.1,0.3,0.2,0.4,0.4c0.1,0.2,0.2,0.4,0.1,0.6c0,0.1,0,0.2-0.1,0.4
			c-0.1,0.1-0.1,0.2-0.2,0.3c-0.1,0.1-0.2,0.2-0.4,0.2c-0.2,0.1-0.3,0.1-0.5,0.1h-0.4v-0.2H183.4z"/>
		<path class="st15" d="M194.5,180.5c-3.8,0-6.9-3.1-6.8-6.9c0-3.8,3.1-6.9,6.9-6.8c1.8,0,3.5,0.7,4.8,2c2.7,2.7,2.7,7.1,0,9.7
			C198.1,179.8,196.4,180.5,194.5,180.5L194.5,180.5z"/>
		<path class="st12" d="M194.6,167c1.8,0,3.5,0.7,4.7,2c2.6,2.6,2.5,6.8-0.1,9.4c-2.6,2.6-6.8,2.5-9.4-0.1c-2.6-2.6-2.5-6.8,0.1-9.4
			C191.2,167.7,192.9,167,194.6,167L194.6,167 M194.6,166.5c-3.9,0.1-7,3.4-6.9,7.4c0.1,3.7,3.1,6.7,6.8,6.9l0,0
			c3.9,0.2,7.3-2.9,7.4-6.8c0.2-3.9-2.9-7.3-6.8-7.4C195,166.5,194.8,166.5,194.6,166.5z"/>
		<path class="st16" d="M200.1,172.6l-0.9,0.9c-0.1,0.1-0.1,0.1-0.2,0.1h-5.3c0.1-0.2,0.2-0.5,0.3-0.7h-3.2c-0.2,0-0.2,0-0.2,0.2
			c0,0.1,0,0.1,0,0.2l-1.8-0.9l1.7-0.9l0,0c0,0.4,0,0.4,0.4,0.4h4.6c0.2,0,0.2,0,0.1,0.2l-0.2,0.5L200.1,172.6z"/>
		<path class="st1" d="M196.1,169.9c-0.1,0.2-0.1,0.2,0.1,0.2s0.2,0.1,0.1,0.2s-0.3,0.6-0.4,0.9c0,0.1-0.2,0.2-0.3,0.2h-6.3l0,0
			l1.8-0.5l2.4-0.7c0.1,0,0.3-0.1,0.4-0.2l1.3-1.1c0.1-0.1,0.2-0.1,0.3-0.1c0.3,0,0.6,0,0.9-0.1c0.1,0,0.1,0,0.1,0.1
			C196.4,169.2,196.2,169.6,196.1,169.9z"/>
		<path class="st1" d="M197.6,169.8c0,0.7-0.2,1.5-0.5,2.1c-0.1,0.2-0.2,0.3-0.4,0.2c-0.1,0-0.2,0-0.4,0c0,0-0.1,0-0.1,0
			s0-0.1,0.1-0.1c0.3-0.4,0.5-0.9,0.6-1.5c0.1-0.4,0.1-0.9,0.1-1.4l0,0L197.6,169.8C197.6,169.7,197.6,169.7,197.6,169.8z"/>
		<path class="st1" d="M198.5,171.2c0,0.2-0.1,0.4-0.2,0.6c-0.1,0.4-0.1,0.4-0.5,0.4s-0.4,0-0.2-0.3c0.2-0.5,0.4-1,0.4-1.5
			c0-0.1,0-0.1,0.1-0.2s0.1,0,0.1,0.1C198.7,170.6,198.6,170.4,198.5,171.2z"/>
		<path class="st1" d="M199.3,171.3l-0.2,0.6c0,0.1-0.1,0.2-0.2,0.2c0,0,0,0,0,0h-0.4c-0.1,0-0.1,0-0.1-0.1c0.2-0.4,0.3-0.8,0.4-1.2
			c0.2,0.1,0.3,0.3,0.4,0.4C199.3,171.2,199.3,171.3,199.3,171.3z"/>
		<path class="st1" d="M200.3,172.1h-0.9c-0.1,0-0.1-0.1-0.1-0.1s0.1-0.4,0.2-0.6L200.3,172.1z"/>
	</g>
	<g id="יב_א_דרומית">
		<path class="st0" d="M159.1,362c0,4.7-3.8,8.5-8.5,8.5h-50.4c-4.7,0-8.4,3.8-8.4,8.4l0,0v2.6H90V362c0-4.7,3.8-8.5,8.5-8.5
			c0,0,0,0,0,0h52.1C155.3,353.5,159.1,357.3,159.1,362L159.1,362z"/>
		<path class="st1" d="M97.6,356.6c0.5,0,1.1,0.1,1.5,0.5c0.4,0.4,0.5,0.9,0.5,1.4v3.1h-1.5v-3.2c0-0.1,0-0.3-0.1-0.4
			c-0.1-0.1-0.2-0.1-0.3-0.1H97c0,0.1,0,0.3,0,0.5s0,0.3,0,0.4v1.3c0,0.5-0.1,0.9-0.4,1.2c-0.3,0.3-0.8,0.5-1.2,0.4H95l-0.3,0v-1.2
			h0.3c0.1,0,0.3,0,0.4-0.1c0.1-0.1,0.1-0.3,0.1-0.4v-1c0-0.2,0-0.3,0.1-0.5c0-0.2,0.1-0.4,0.2-0.5H95v-1.2L97.6,356.6z"/>
		<path class="st1" d="M101,359.4v-1.7h-0.7v-1.2h2.3v2.9L101,359.4z"/>
		<path class="st1" d="M103.8,361.5l0.3-2.6c0-0.2,0.1-0.4,0.2-0.6c0.1-0.2,0.2-0.3,0.3-0.5l0,0l0,0l0,0c-0.1,0-0.2,0-0.3,0.1
			l-0.3,0.1l-0.3-1.1c0.2-0.1,0.5-0.2,0.7-0.2c0.3-0.1,0.5-0.1,0.8-0.1c0.3,0,0.6,0,0.8,0c0.7,0,1.3,0.2,1.8,0.6
			c0.4,0.5,0.7,1.1,0.6,1.8v2.7h-2.2v-1.2h0.7v-1.8c0-0.2,0-0.5-0.2-0.6c-0.1-0.2-0.2-0.2-0.4-0.2c-0.2,0-0.4,0.1-0.5,0.3
			c-0.1,0.2-0.2,0.5-0.2,0.8l-0.3,2.8L103.8,361.5z"/>
		<path class="st1" d="M109.5,361.5v-3.8h-0.4v-1.2h1.9v5L109.5,361.5z"/>
		<path class="st1" d="M113.8,361.5v-3.2c0-0.2,0-0.3-0.2-0.4c-0.1-0.1-0.3-0.2-0.5-0.1h-1.4v-1.2h1.5c0.5,0,1.1,0.1,1.5,0.5
			c0.4,0.3,0.6,0.8,0.6,1.4v3.1L113.8,361.5z"/>
		<path class="st1" d="M116.1,356.6h4.4v1.2h-0.9v3.8h-1.6v-3.8h-2L116.1,356.6z"/>
		<path class="st1" d="M126.6,361.5l-3.4-5h1.7l3.4,5H126.6z M123.5,361.5V360c0-0.4,0.1-0.8,0.3-1.2c0.2-0.3,0.5-0.5,0.9-0.7
			l0.5,0.8c-0.1,0.1-0.2,0.3-0.2,0.4v2.3L123.5,361.5z M128.4,356.5l-1.6,3.2l-1-1.2l0.9-2L128.4,356.5z"/>
		<path class="st1" d="M129.1,356.6c0-0.2,0-0.4,0.1-0.6c0.1-0.2,0.2-0.4,0.3-0.5c0.1-0.2,0.2-0.3,0.4-0.4l0.6,0.4
			c-0.1,0.2-0.2,0.3-0.2,0.5c-0.1,0.2-0.1,0.5-0.1,0.7v0.7h-1.1L129.1,356.6z M130.6,356.6c0-0.2,0-0.4,0.1-0.6
			c0.1-0.2,0.2-0.4,0.3-0.5c0.1-0.2,0.2-0.3,0.4-0.4l0.6,0.4c-0.1,0.2-0.2,0.3-0.2,0.5c-0.1,0.2-0.1,0.5-0.1,0.7v0.7h-1.1
			L130.6,356.6z"/>
		<path class="st1" d="M132.6,361.5v-1.2h2.2h1.6l0.6,0.1v1.1L132.6,361.5z M134.8,361.2v-2.9c0-0.1,0-0.3-0.1-0.4
			c-0.1-0.1-0.3-0.1-0.4-0.1h-1.4v-1.2h1.5c0.5,0,1.1,0.1,1.5,0.5c0.4,0.3,0.6,0.8,0.5,1.3v2.8L134.8,361.2z"/>
		<path class="st1" d="M137.9,359.4v-1.7h-0.7v-1.2h2.3v2.9L137.9,359.4z"/>
		<path class="st1" d="M131.3,366.1l0.2-1.9h2v0.3h-1.7l-0.1,1.4c0.1-0.1,0.2-0.1,0.3-0.1c0.1-0.1,0.3-0.1,0.4-0.1
			c0.2,0,0.4,0,0.6,0.1c0.2,0.1,0.3,0.3,0.4,0.5c0.1,0.2,0.2,0.4,0.1,0.7c0,0.2,0,0.5-0.1,0.7c-0.1,0.2-0.2,0.4-0.4,0.5
			c-0.2,0.1-0.4,0.2-0.7,0.2c-0.2,0-0.3,0-0.4-0.1c-0.1,0-0.3-0.1-0.4-0.2c-0.1-0.1-0.2-0.2-0.3-0.4c-0.1-0.1-0.1-0.3-0.1-0.5h0.3
			c0,0.2,0.1,0.4,0.3,0.6c0.2,0.1,0.4,0.2,0.6,0.2c0.2,0,0.3,0,0.5-0.1c0.1-0.1,0.2-0.2,0.3-0.4c0.1-0.2,0.1-0.4,0.1-0.6
			c0-0.2,0-0.3-0.1-0.5c-0.1-0.1-0.2-0.3-0.3-0.4c-0.2-0.1-0.3-0.1-0.5-0.1c-0.2,0-0.3,0-0.4,0.1c-0.1,0.1-0.2,0.1-0.3,0.2
			L131.3,366.1z"/>
		<path class="st1" d="M136.6,366.5c0,0.3,0,0.7-0.1,1c-0.1,0.2-0.2,0.4-0.4,0.6c-0.4,0.3-0.9,0.3-1.3,0c-0.2-0.1-0.3-0.3-0.4-0.6
			c-0.1-0.3-0.2-0.7-0.1-1v-0.7c0-0.3,0-0.7,0.1-1c0.1-0.2,0.2-0.4,0.4-0.6c0.4-0.2,0.9-0.2,1.3,0c0.2,0.1,0.3,0.3,0.4,0.6
			c0.1,0.3,0.2,0.7,0.1,1L136.6,366.5z M136.2,365.8c0-0.3,0-0.5-0.1-0.8c-0.1-0.2-0.2-0.3-0.3-0.5c-0.3-0.2-0.7-0.2-1,0
			c-0.1,0.1-0.2,0.3-0.3,0.5c-0.1,0.2-0.1,0.5-0.1,0.8v0.7c0,0.3,0,0.5,0.1,0.8c0.1,0.2,0.2,0.4,0.3,0.5c0.1,0.1,0.3,0.2,0.5,0.2
			c0.2,0,0.4,0,0.5-0.2c0.1-0.1,0.2-0.3,0.3-0.5c0.1-0.2,0.1-0.5,0.1-0.8L136.2,365.8z"/>
		<path class="st1" d="M137.8,367.9c0.2,0,0.5,0,0.7-0.1c0.2-0.1,0.3-0.2,0.5-0.4c0.1-0.2,0.2-0.3,0.3-0.5c0.1-0.2,0.1-0.4,0.1-0.7
			v-0.5c0-0.2,0-0.5-0.1-0.7c-0.1-0.2-0.2-0.3-0.3-0.4c-0.1-0.1-0.3-0.2-0.5-0.1c-0.2,0-0.3,0.1-0.5,0.2c-0.1,0.1-0.2,0.2-0.3,0.4
			c-0.1,0.2-0.1,0.4-0.1,0.5c0,0.2,0,0.3,0.1,0.5c0.1,0.2,0.2,0.3,0.3,0.4c0.1,0.1,0.3,0.2,0.5,0.1c0.1,0,0.3,0,0.4-0.1
			c0.1-0.1,0.2-0.1,0.3-0.2c0.1-0.1,0.2-0.2,0.2-0.3c0-0.1,0.1-0.2,0.1-0.3h0.2c0,0.3-0.1,0.6-0.3,0.9c-0.1,0.1-0.2,0.2-0.4,0.3
			c-0.2,0.1-0.3,0.1-0.5,0.1c-0.2,0-0.4-0.1-0.6-0.2c-0.2-0.1-0.3-0.3-0.4-0.5c-0.1-0.2-0.1-0.4-0.1-0.6c0-0.2,0-0.5,0.1-0.7
			c0.1-0.2,0.2-0.4,0.4-0.5c0.2-0.1,0.4-0.2,0.6-0.2c0.2,0,0.4,0,0.6,0.1c0.2,0.1,0.3,0.2,0.4,0.3c0.1,0.1,0.2,0.3,0.2,0.5
			c0.1,0.2,0.1,0.4,0.1,0.6v0.3c0,0.2,0,0.5-0.1,0.7c0,0.2-0.1,0.4-0.2,0.6c-0.1,0.2-0.2,0.3-0.3,0.5c-0.2,0.1-0.3,0.2-0.5,0.3
			c-0.2,0.1-0.5,0.1-0.7,0.1h-0.1L137.8,367.9L137.8,367.9z"/>
		<circle class="st17" cx="149.9" cy="362" r="7"/>
		<path class="st18" d="M155.8,361.9c0,0.2,0,0.4-0.1,0.6c0,0.1,0,0.2-0.1,0.3c-0.1,0.3-0.3,0.7-0.5,0.9l-0.2,0.3
			c-0.3,0.3-0.5,0.5-0.9,0.7l-0.3,0.2H146l-0.3-0.2l-0.3-0.3c-0.2-0.1-0.3-0.3-0.5-0.5l-0.2-0.3c-0.2-0.3-0.4-0.6-0.5-0.9
			c0-0.1-0.1-0.2-0.1-0.3c0-0.2-0.1-0.4-0.1-0.6c0-0.3,0-0.5,0.1-0.8c0-0.1,0.1-0.2,0.1-0.3c0.1-0.3,0.3-0.7,0.6-0.9l0.3-0.3
			c0.2-0.2,0.3-0.3,0.5-0.5c0.1-0.1,0.3-0.2,0.4-0.3l0.3-0.2c2.3-1.1,5-1.1,7.3,0l0.3,0.2c0.1,0.1,0.3,0.2,0.4,0.3
			c0.2,0.1,0.4,0.3,0.5,0.5l0.3,0.3c0.2,0.3,0.4,0.6,0.6,0.9c0,0.1,0.1,0.2,0.1,0.3C155.8,361.4,155.8,361.7,155.8,361.9z"/>
		<path class="st19" d="M155.8,361.9c0,0.2,0,0.4-0.1,0.6c0,0.1,0,0.2-0.1,0.3c-0.1,0.3-0.3,0.7-0.5,0.9l-0.2,0.3
			c-0.3,0.3-0.5,0.5-0.9,0.7l-0.3,0.2H146l-0.3-0.2l-0.3-0.3c-0.2-0.1-0.3-0.3-0.5-0.5l-0.2-0.3c-0.2-0.3-0.4-0.6-0.5-0.9
			c0-0.1-0.1-0.2-0.1-0.3c0-0.2-0.1-0.4-0.1-0.6c0-0.3,0-0.5,0.1-0.8c0-0.1,0.1-0.2,0.1-0.3c0.1-0.3,0.3-0.7,0.6-0.9l0.3-0.3
			c0.2-0.2,0.3-0.3,0.5-0.5c0.1-0.1,0.3-0.2,0.4-0.3l0.3-0.2c2.3-1.1,5-1.1,7.3,0l0.3,0.2c0.1,0.1,0.3,0.2,0.4,0.3
			c0.2,0.1,0.4,0.3,0.5,0.5l0.3,0.3c0.2,0.3,0.4,0.6,0.6,0.9c0,0.1,0.1,0.2,0.1,0.3C155.8,361.4,155.8,361.7,155.8,361.9z"/>
		<path class="st17" d="M153.5,358.8h-7.3C148.5,357.6,151.2,357.6,153.5,358.8z"/>
		<path class="st17" d="M154.2,359.2h-8.7c0.1-0.1,0.3-0.2,0.4-0.3h7.9C154,359,154.1,359.1,154.2,359.2z"/>
		<path class="st17" d="M155,360h-10.3l0.3-0.3h9.8L155,360z"/>
		<path class="st17" d="M155.7,361.2H144c0-0.1,0.1-0.2,0.1-0.3h11.5C155.6,361,155.6,361.1,155.7,361.2z"/>
		<path class="st17" d="M153.8,365c-0.9,0.5-1.9,0.8-2.9,0.9c-0.7,0.1-1.4,0.1-2.1,0c-1-0.1-1.9-0.4-2.8-0.9H153.8z"/>
		<path class="st17" d="M154.4,364.5c-0.1,0.1-0.2,0.2-0.4,0.3h-8.4l-0.3-0.3l0,0L154.4,364.5z"/>
		<path class="st17" d="M155.1,363.8l-0.2,0.3h-10.1l-0.2-0.3H155.1z"/>
		<path class="st17" d="M155.7,362.6c0,0.1,0,0.2-0.1,0.3h-11.6c0-0.1-0.1-0.2-0.1-0.3H155.7z"/>
		<ellipse class="st20" cx="149.9" cy="361.9" rx="4.3" ry="3.1"/>
		<polygon class="st21" points="149.9,364.2 149.9,358.9 150.7,361 151.2,360.3 152.6,364.2 		"/>
		<polygon class="st21" points="149.9,358.9 149.9,363.1 148.8,363.1 148.8,364.2 147.2,364.2 148.7,360.3 149.2,361 		"/>
		<polygon class="st22" points="151.1,363.1 151.1,365 149.9,365 149.9,365 148.8,365 148.8,363.1 		"/>
		<rect x="150.5" y="364.2" class="st23" width="0.4" height="0.5"/>
		<rect x="149" y="364.2" class="st23" width="0.4" height="0.5"/>
		<path class="st1" d="M151,361.9L151,361.9c0-0.2-0.1-0.4-0.2-0.5c-0.1-0.2-0.3-0.3-0.5-0.4c-0.1,0-0.2,0-0.2,0h-0.2
			c-0.2,0-0.3,0.1-0.5,0.2c-0.1,0.1-0.3,0.2-0.4,0.4c-0.1,0.1-0.1,0.3-0.1,0.4l0,0v0.2c0,0.2,0.1,0.3,0.2,0.5
			c0.1,0.2,0.3,0.3,0.4,0.4c0.1,0.1,0.2,0.1,0.4,0.1h0.3c0.2,0,0.3-0.1,0.5-0.2c0.2-0.1,0.4-0.4,0.4-0.7c0,0,0-0.1,0-0.1v0l0,0
			L151,361.9L151,361.9z M150.9,361.6c0,0.1,0.1,0.2,0.1,0.4h-0.2c0-0.1,0-0.3-0.1-0.4L150.9,361.6L150.9,361.6z M150.3,361.6h0.3
			l0,0c0,0.1,0.1,0.2,0.1,0.4h-0.3C150.4,361.8,150.3,361.7,150.3,361.6L150.3,361.6z M150.6,361.5h-0.2l0,0c0-0.1,0-0.2-0.1-0.3
			h0.2C150.5,361.3,150.6,361.4,150.6,361.5L150.6,361.5L150.6,361.5z M150.3,362.5h0.3l0,0c0,0.1-0.1,0.2-0.2,0.3h-0.2l0,0
			C150.3,362.7,150.3,362.6,150.3,362.5L150.3,362.5z M150.4,362.5L150.4,362.5c-0.1-0.1-0.1-0.2-0.1-0.4h0.3v0.1
			c0,0.1,0,0.2-0.1,0.3l0,0L150.4,362.5L150.4,362.5z M150.6,361.3c0.1,0.1,0.2,0.2,0.2,0.3l0,0l0,0h-0.1l0,0
			C150.6,361.5,150.6,361.4,150.6,361.3L150.6,361.3L150.6,361.3L150.6,361.3L150.6,361.3z M150.4,361.1L150.4,361.1L150.4,361.1
			L150.4,361.1L150.4,361.1L150.4,361.1L150.4,361.1z M150.1,361.1c0.1,0,0.1,0.1,0.2,0.1l0,0h-0.1
			C150.2,361.2,150.1,361.1,150.1,361.1L150.1,361.1L150.1,361.1L150.1,361.1L150.1,361.1z M150,361.1L150,361.1
			c0.1,0,0.1,0.1,0.2,0.1l0,0H150L150,361.1z M150,361.3h0.2l0,0c0,0.1,0.1,0.2,0.1,0.3H150L150,361.3z M150,361.7h0.3
			c0,0.1,0,0.3,0,0.4h-0.4L150,361.7z M150,362.1h0.4v0.1c0,0.1,0,0.2,0,0.3l0,0H150L150,362.1z M150,362.6h0.3l0,0l0,0
			c0,0.1,0,0.2-0.1,0.3H150L150,362.6z M149.9,361.1L149.9,361.1v0.2h-0.2C149.7,361.1,149.8,361,149.9,361.1L149.9,361.1z
			 M149.4,361.7h0.2c0,0.1,0,0.3,0,0.4h-0.3l0,0C149.2,361.9,149.2,361.8,149.4,361.7L149.4,361.7L149.4,361.7z M149.3,361.6
			L149.3,361.6c0-0.1,0.1-0.2,0.2-0.3h0.2c0,0.1-0.1,0.2-0.1,0.3L149.3,361.6L149.3,361.6z M149.5,362.1L149.5,362.1
			c0,0.1,0,0.2,0,0.4h-0.3c0-0.1,0-0.2-0.1-0.2s0-0.1,0-0.1V362L149.5,362.1z M149.5,362.6L149.5,362.6c0,0.1,0,0.2,0.1,0.3h-0.2
			c-0.1-0.1-0.1-0.2-0.2-0.3H149.5L149.5,362.6z M149.6,362.5c0-0.1,0-0.2,0-0.4h0.4v0.4L149.6,362.5L149.6,362.5z M149.6,362.1
			L149.6,362.1c0-0.1,0-0.3,0-0.4h0.3v0.3L149.6,362.1z M149.6,361.6L149.6,361.6c0-0.1,0-0.2,0.1-0.3l0,0h0.2v0.3L149.6,361.6z
			 M149.6,361.2c0.1,0,0.1-0.1,0.2-0.1l0,0l-0.1,0.1l0,0l0,0L149.6,361.2L149.6,361.2z M149.6,361.2L149.6,361.2L149.6,361.2
			L149.6,361.2L149.6,361.2L149.6,361.2L149.6,361.2z M149.1,361.6L149.1,361.6c0.1-0.1,0.1-0.2,0.2-0.3h0.1l0,0l-0.1,0.1l-0.1,0.2
			l0,0H149L149.1,361.6z M149,362.1L149,362.1C149,362,149,362,149,362.1c0-0.2,0-0.3,0.1-0.3l0,0h0.2v0c0,0.1,0,0.2-0.1,0.3l0,0
			L149,362.1L149,362.1z M149.1,362.5L149.1,362.5c0-0.1-0.1-0.2-0.1-0.3V362h0.2c0,0.1,0,0.2,0.1,0.4H149L149.1,362.5z
			 M149.4,362.9L149.4,362.9c-0.1-0.1-0.2-0.2-0.2-0.3h0.2C149.3,362.7,149.4,362.8,149.4,362.9L149.4,362.9L149.4,362.9z
			 M149.5,363L149.5,363L149.5,363L149.5,363C149.4,363,149.4,363,149.5,363L149.5,363L149.5,363L149.5,363z M149.8,363.1
			c-0.1,0-0.1-0.1-0.2-0.1h0.1C149.7,363,149.7,363,149.8,363.1L149.8,363.1L149.8,363.1z M150,363.1L150,363.1
			c-0.1,0-0.1-0.1-0.2-0.1h0.2L150,363.1z M150,362.8L150,362.8h-0.2c0-0.1-0.1-0.2-0.1-0.3h0.3L150,362.8z M150,363.1L150,363.1
			v-0.2h0.2C150.1,363,150.1,363,150,363.1L150,363.1z M150.4,362.9c-0.1,0.1-0.1,0.1-0.2,0.1l0,0l0,0l0.1-0.1l0,0L150.4,362.9
			L150.4,362.9z M150.4,363L150.4,363L150.4,363L150.4,363L150.4,363z M150.8,362.5L150.8,362.5c-0.1,0.1-0.1,0.2-0.2,0.3h-0.1
			c0.1-0.1,0.1-0.2,0.2-0.3H150.8z M151,362.1C151,362.1,151,362.2,151,362.1c0,0.2,0,0.3-0.1,0.3h-0.2c0-0.1,0.1-0.2,0.1-0.4
			L151,362.1L151,362.1z"/>
	</g>
</g>
</svg>
