<svg id="Layer_1" data-name="Layer 1" xmlns="http://www.w3.org/2000/svg" viewBox="0 0 352.52 86.71"><defs><style>.cls-1{fill:#616160;}</style></defs><path class="cls-1" d="M261.85,54.27l-7.92-7.91-.7.7-1-1a10.57,10.57,0,0,0,1.54-2.56,10.37,10.37,0,0,0-2.21-11.35,10.5,10.5,0,0,0-3.29-2.22,10.34,10.34,0,0,0-11.35,2.22,10.17,10.17,0,0,0-2.22,3.29,10.31,10.31,0,0,0,0,8.06,10.33,10.33,0,0,0,9.54,6.32,10.27,10.27,0,0,0,6.63-2.4l1,1-.7.71L259.08,57a2,2,0,0,0,1.38.57,2,2,0,0,0,1.39-3.34ZM244.22,47.7a8.25,8.25,0,1,1,8.25-8.25A8.27,8.27,0,0,1,244.22,47.7Z"/></svg>